<svg id="Layer_1" data-name="Layer 1" xmlns="http://www.w3.org/2000/svg" viewBox="0 0 350.84 124.45"><defs><style>.cls-1,.cls-4{fill:#231f20;}.cls-2,.cls-3{fill:#0c0508;}.cls-2,.cls-4{stroke:#231f20;stroke-miterlimit:10;}.cls-5{fill:#f6c025;}</style></defs><g id="Siesta"><path class="cls-1" d="M140.16,128.39a16.74,16.74,0,0,1-7.26-5.51,15.09,15.09,0,0,1-2.87-8.79h13.56a6.61,6.61,0,0,0,2,4.43,6.45,6.45,0,0,0,4.47,1.53,7,7,0,0,0,4.47-1.31,4.35,4.35,0,0,0,1.64-3.61,4.27,4.27,0,0,0-1.31-3.2,10.44,10.44,0,0,0-3.2-2.09,55,55,0,0,0-5.4-1.86,58.89,58.89,0,0,1-8.27-3.13,15.26,15.26,0,0,1-5.51-4.62,12.84,12.84,0,0,1-2.31-8,13.71,13.71,0,0,1,5.29-11.44q5.28-4.12,13.78-4.13t13.93,4.13a14.82,14.82,0,0,1,5.66,11.51H155.06a5.37,5.37,0,0,0-1.86-4,6.58,6.58,0,0,0-4.4-1.46,5.46,5.46,0,0,0-3.72,1.23,4.73,4.73,0,0,0,1,7.49,39.14,39.14,0,0,0,7.45,3,69.13,69.13,0,0,1,8.22,3.28,15.72,15.72,0,0,1,5.48,4.54,12.16,12.16,0,0,1,2.31,7.67,15,15,0,0,1-2.28,8.12,15.83,15.83,0,0,1-6.59,5.81,22.56,22.56,0,0,1-10.2,2.16A27,27,0,0,1,140.16,128.39Z" transform="translate(-3.96 -5.88)"/><path class="cls-1" d="M178.26,81.88A6.4,6.4,0,0,1,176.14,77a6.48,6.48,0,0,1,2.12-5,7.73,7.73,0,0,1,5.47-2,7.62,7.62,0,0,1,5.4,2,6.48,6.48,0,0,1,2.13,5,6.4,6.4,0,0,1-2.13,4.88,7.62,7.62,0,0,1-5.4,2A7.73,7.73,0,0,1,178.26,81.88Zm11.8,6.29v41.56H177.33V88.17Z" transform="translate(-3.96 -5.88)"/><path class="cls-1" d="M238.25,112H209.43a8.65,8.65,0,0,0,2.49,5.92,7.62,7.62,0,0,0,5.4,2,6.69,6.69,0,0,0,6.63-4h13.56a18.65,18.65,0,0,1-3.76,7.37,18.85,18.85,0,0,1-6.82,5.14,21.89,21.89,0,0,1-9.16,1.86,22.23,22.23,0,0,1-10.87-2.6,18.55,18.55,0,0,1-7.45-7.45A23,23,0,0,1,196.77,109a23.29,23.29,0,0,1,2.64-11.32,18.27,18.27,0,0,1,7.41-7.45,24.15,24.15,0,0,1,21.68-.08,18.21,18.21,0,0,1,7.33,7.23,22,22,0,0,1,2.65,11A32.27,32.27,0,0,1,238.25,112Zm-12.81-7.07a6.56,6.56,0,0,0-2.23-5.22,8.23,8.23,0,0,0-5.59-1.93,8.09,8.09,0,0,0-5.4,1.86,8.29,8.29,0,0,0-2.72,5.29Z" transform="translate(-3.96 -5.88)"/><path class="cls-1" d="M252.4,128.46a16.52,16.52,0,0,1-6.7-5.1A13.33,13.33,0,0,1,243,116.1h12.58a4.84,4.84,0,0,0,2,3.5,7.17,7.17,0,0,0,4.4,1.34,6.25,6.25,0,0,0,3.68-.93,2.86,2.86,0,0,0,1.31-2.42,2.81,2.81,0,0,0-1.86-2.65,37.84,37.84,0,0,0-6-1.89,57.48,57.48,0,0,1-7.45-2.2,13,13,0,0,1-5.14-3.65,9.94,9.94,0,0,1-2.15-6.74,11.4,11.4,0,0,1,2-6.52,13.23,13.23,0,0,1,5.81-4.65,22.12,22.12,0,0,1,9.12-1.72c5.22,0,9.32,1.3,12.33,3.88a15.08,15.08,0,0,1,5.18,10.27H266.93A5,5,0,0,0,265,98.3,6.56,6.56,0,0,0,260.82,97a5.85,5.85,0,0,0-3.43.86,2.74,2.74,0,0,0-1.19,2.34,2.87,2.87,0,0,0,1.9,2.69A30.61,30.61,0,0,0,264,104.7a66,66,0,0,1,7.53,2.35,13.08,13.08,0,0,1,5.1,3.72,10.58,10.58,0,0,1,2.27,6.89,10.9,10.9,0,0,1-2.05,6.52,13.62,13.62,0,0,1-5.88,4.51,22.58,22.58,0,0,1-8.9,1.63A23.93,23.93,0,0,1,252.4,128.46Z" transform="translate(-3.96 -5.88)"/><path class="cls-1" d="M309.9,118.93v10.8h-6.48c-4.61,0-8.22-1.13-10.8-3.39s-3.87-6-3.87-11.06V98.75h-5.06V88.17h5.06V78h12.74V88.17h8.34V98.75h-8.34v16.68a3.52,3.52,0,0,0,.89,2.68,4.35,4.35,0,0,0,3,.82Z" transform="translate(-3.96 -5.88)"/><path class="cls-2" d="M345.78,90.94v3.15A20.73,20.73,0,0,0,338,90.22a18.36,18.36,0,0,0-10.49.13c-8.08,2.78-10.83,11.46-11.29,13s-2.58,9.35,2.23,16.86c.78,1.21,5.51,8.58,14.3,9a18.07,18.07,0,0,0,12.67-4.78v3.74l8.92-.33V90.94Zm.33,20.4a12.37,12.37,0,0,1-4.2,7.15,10.1,10.1,0,0,1-15.22-1.24A12.09,12.09,0,0,1,325.25,105c.15-.36,3.16-7,9.71-7.28,5.1-.23,8.37,3.56,8.79,4.07A11.86,11.86,0,0,1,346.11,111.34Z" transform="translate(-3.96 -5.88)"/></g><path id="Fork" class="cls-3" d="M127,103v6.89H75.12a11.35,11.35,0,0,1-3.76,6.61,12.66,12.66,0,0,1-4.59,2.3c-4.84,1.25-27.17,1.63-57.49.91l54.18-7.43a5.95,5.95,0,0,0,.46-11.85L8.54,93.7h56.3A13.57,13.57,0,0,1,71.72,97a13.42,13.42,0,0,1,3.68,5.6Z" transform="translate(-3.96 -5.88)"/><g id="Grill"><path id="g" class="cls-4" d="M41,49.78c-.06-3.71-.09-9.09.06-16.23l-4.59-.06h-4l-.12,3.61A15.1,15.1,0,0,0,29,34.65a16.31,16.31,0,0,0-15.12-.06,16.48,16.48,0,0,0-6.31,6.06A18.61,18.61,0,0,0,4.9,50.51c0,2.22-.1,8,4.16,12.8a16.83,16.83,0,0,0,16.9,5,15.81,15.81,0,0,0,6.8-4.17l-.37,6.74a12.61,12.61,0,0,1-9.12,4.41,12.54,12.54,0,0,1-8.76-3.49l-9.86.3A15.23,15.23,0,0,0,8,77.69c4.19,4.44,9.93,4.8,13,5,3.77.24,10.18.65,14.82-3.7C40,75,40.65,69,41,66c.09-.88.1-2.85.12-6.8C41.11,54.44,41,50.91,41,49.78ZM31,57.4a10.33,10.33,0,0,1-7.62,3.67,10.51,10.51,0,0,1-8.09-4,10.4,10.4,0,0,1-1.56-9.7,10.59,10.59,0,0,1,9.8-7,10,10,0,0,1,7.35,3.27,10.21,10.21,0,0,1,2.23,6.71A10.5,10.5,0,0,1,31,57.4Z" transform="translate(-3.96 -5.88)"/><path id="r" class="cls-4" d="M56.76,68.39H48.43V33.49H56v3.1a10.05,10.05,0,0,1,3.72-2.92,10.77,10.77,0,0,1,3.42-.85,12.57,12.57,0,0,1,3.55.12q-1,3.64-2,7.28a5.93,5.93,0,0,0-4.22.07,6.07,6.07,0,0,0-3.31,3.55Z" transform="translate(-3.96 -5.88)"/><path class="cls-2" d="M172.29,43.65c-.44-1.1-3.27-8.26-10.11-10.37a14.94,14.94,0,0,0-6.24-.46,19.4,19.4,0,0,0-10.46,4.59V19.59H137V68.27l8.63-.19V64.87a12.32,12.32,0,0,0,1.84,1.74c4.45,3.39,10.84,3.06,15.43,1.2A17.41,17.41,0,0,0,170,62.3,19.52,19.52,0,0,0,172.29,43.65ZM165,52.74a11.63,11.63,0,0,1-2.57,5.7c-.58.67-3.29,3.82-7.44,3.76a9.25,9.25,0,0,1-4.87-1.6,11.56,11.56,0,0,1-5.37-8,11.12,11.12,0,0,1,1.42-6.94,10.62,10.62,0,0,1,5.84-5,9.68,9.68,0,0,1,11.84,4.92A11.31,11.31,0,0,1,165,52.74Z" transform="translate(-3.96 -5.88)"/><path class="cls-2" d="M207.73,33.8v2.94a19.2,19.2,0,0,0-7.28-3.62,17.23,17.23,0,0,0-9.8.12c-7.54,2.6-10.11,10.7-10.53,12.13A19.61,19.61,0,0,0,182.2,61.1c.73,1.13,5.14,8,13.35,8.39A16.82,16.82,0,0,0,207.37,65v3.5l8.32-.32V33.8Zm.31,19a11.53,11.53,0,0,1-3.92,6.67,9.43,9.43,0,0,1-14.2-1.16,11.31,11.31,0,0,1-1.35-11.45c.15-.34,3-6.52,9.06-6.8a10.58,10.58,0,0,1,8.21,3.8A11.08,11.08,0,0,1,208,52.84Z" transform="translate(-3.96 -5.88)"/><path id="r-2" data-name="r" class="cls-4" d="M231.64,68.48h-8.33V33.58h7.61v3.1a10.15,10.15,0,0,1,3.72-2.91,10.61,10.61,0,0,1,3.43-.86,13.37,13.37,0,0,1,3.55.12c-.67,2.43-1.35,4.86-2,7.29a5.92,5.92,0,0,0-4.22.06,6,6,0,0,0-3.31,3.55Q231.86,56.22,231.64,68.48Z" transform="translate(-3.96 -5.88)"/><path class="cls-5" d="M127.29,13.1a8.21,8.21,0,0,0-1.47-3.79,9,9,0,0,0-6.37-3.43H75.06a10.78,10.78,0,0,0-7.65,6.6V69.92L93.79,92.69v25.9h7.41V93.31l26.21-23.58ZM85.13,68.82H77.3V33.18h8.11Q85.28,51,85.13,68.82Zm.77-40.41a5.15,5.15,0,0,1-4.1,1.41A5.48,5.48,0,0,1,78.18,28c-1.78-2.19-1.69-6.27,1-8.08a5.37,5.37,0,0,1,6.55.55,5.53,5.53,0,0,1,1.47,4A5.31,5.31,0,0,1,85.9,28.41Zm16.84,40.16H93.37l.12-49h9.25Zm15.73.61H109.1l.12-49h9.25Z" transform="translate(-3.96 -5.88)"/></g></svg>