<svg xmlns="http://www.w3.org/2000/svg" viewBox="0 0 52.14 25.84"><defs><style>.cls-1{isolation:isolate;}.cls-2{fill:#dadada;}.cls-3{fill:#f4f4f4;}.cls-4{fill:#ebeaea;}.cls-5{fill:#006ec3;}.cls-11,.cls-13,.cls-14,.cls-15,.cls-16,.cls-20,.cls-22,.cls-24,.cls-29,.cls-30,.cls-6{mix-blend-mode:multiply;}.cls-14,.cls-7{fill:#68b42e;}.cls-8{fill:#3e9f32;}.cls-9{fill:#89bd27;}.cls-18,.cls-23,.cls-31,.cls-9{mix-blend-mode:screen;}.cls-10,.cls-11{fill:#58991f;}.cls-11,.cls-13,.cls-15,.cls-31{opacity:0.5;}.cls-12,.cls-13,.cls-16,.cls-18{fill:#97c740;}.cls-15{fill:#d8b523;}.cls-17{fill:#fff;}.cls-19{fill:#fffbdc;}.cls-20{fill:#d0d0d0;}.cls-21,.cls-23{fill:#e55110;}.cls-22,.cls-24{fill:#e0a075;}.cls-22{opacity:0.8;}.cls-23{opacity:0.7;}.cls-24{opacity:0.9;}.cls-25,.cls-31{fill:#ffe1c0;}.cls-26{fill:#f3751e;}.cls-27{fill:#ffe7d2;}.cls-28,.cls-30{fill:#e5b48f;}.cls-29{fill:#ea9357;opacity:0.6;}.cls-30{opacity:0.4;}</style></defs><g class="cls-1"><g id="Layer_1" data-name="Layer 1"><path class="cls-2" d="M53.47,21.14c0,5.7-11.65,10.32-26,10.32s-26-4.62-26-10.32,11.65-10.31,26-10.31S53.47,15.45,53.47,21.14Z" transform="translate(-1.42 -5.63)"/><path class="cls-3" d="M53.55,20.68c0,5.7-11.65,10.32-26,10.32s-26-4.62-26-10.32,11.65-10.32,26-10.32S53.55,15,53.55,20.68Z" transform="translate(-1.42 -5.63)"/><path class="cls-4" d="M45.19,19.56c0,3.89-7.94,7-17.75,7s-17.75-3.15-17.75-7,8-7,17.75-7S45.19,15.68,45.19,19.56Z" transform="translate(-1.42 -5.63)"/><path class="cls-3" d="M44.58,19.69c0,3.69-7.67,6.68-17.14,6.68s-17.13-3-17.13-6.68S18,13,27.44,13,44.58,16,44.58,19.69Z" transform="translate(-1.42 -5.63)"/><path class="cls-5" d="M27.44,11.09a51.09,51.09,0,0,1,17.82,2.85,17.12,17.12,0,0,1,5.33,3,4.9,4.9,0,0,1,1.87,3.55,4.89,4.89,0,0,1-1.87,3.54,17.12,17.12,0,0,1-5.33,3.05A51.34,51.34,0,0,1,27.44,30,51.32,51.32,0,0,1,9.63,27.12,17.12,17.12,0,0,1,4.3,24.07a4.89,4.89,0,0,1-1.87-3.54A4.9,4.9,0,0,1,4.3,17a17.12,17.12,0,0,1,5.33-3,51.08,51.08,0,0,1,17.81-2.85Zm0-.37c-14,0-25.38,4.39-25.38,9.81s11.36,9.8,25.38,9.8,25.39-4.39,25.39-9.8-11.37-9.81-25.39-9.81Z" transform="translate(-1.42 -5.63)"/><path class="cls-5" d="M27.44,11.5a50.73,50.73,0,0,1,17.15,2.66A16.62,16.62,0,0,1,49.76,17a4.67,4.67,0,0,1,1.85,3.41,4.65,4.65,0,0,1-1.85,3.4,16.63,16.63,0,0,1-5.17,2.87,50.74,50.74,0,0,1-17.15,2.65A50.82,50.82,0,0,1,10.29,26.7a16.68,16.68,0,0,1-5.16-2.87,4.62,4.62,0,0,1-1.85-3.4A4.63,4.63,0,0,1,5.13,17a16.68,16.68,0,0,1,5.16-2.86A50.81,50.81,0,0,1,27.44,11.5Zm0-.18C14,11.32,3.1,15.4,3.1,20.43s10.9,9.1,24.34,9.1,24.35-4.07,24.35-9.1-10.9-9.11-24.35-9.11Z" transform="translate(-1.42 -5.63)"/><g class="cls-6"><path class="cls-4" d="M37.23,26.52l-.37-.61-2,.4-.23.43.41.43a5.88,5.88,0,0,0,2.16-.33c0-.2,0-.28,0-.31h0A0,0,0,0,0,37.23,26.52Z" transform="translate(-1.42 -5.63)"/><path class="cls-4" d="M29.76,9.79a.5.5,0,0,0,.08.14h-.09A.71.71,0,0,1,29.76,9.79Z" transform="translate(-1.42 -5.63)"/><path class="cls-4" d="M42.38,21.78a13.76,13.76,0,0,0-1.84-.44l.17,0c.66-.11.66-.77,1-.53.17.11.49.47.89.18s.2-.77.37-1.19.52-.4.83-.26.59.14.88-.5a.8.8,0,0,0-.27-1.14c-.29-.23-.56-.45-.44-.71l0-.07h0a.59.59,0,0,0,0-.08h0a1.21,1.21,0,0,0,.05-.18h0a.71.71,0,0,0,0-.29h0a.16.16,0,0,0,0-.09h0a.6.6,0,0,0-.09-.15c-.19-.21-.47-.25-1,0l.51-.6a5.23,5.23,0,0,0,.09-1.06,4.94,4.94,0,0,1-2.44-1.17.39.39,0,0,0,0-.27s0,0,0-.05h0a0,0,0,0,1,0,0h0v0h0v0h0v0h0a2.51,2.51,0,0,0,.27-.1h0a.54.54,0,0,0,.19-.16.75.75,0,0,0,.13-.27l-.17,0a2.73,2.73,0,0,1-.9-.08,6.27,6.27,0,0,0-1-.12c-.69,0-1.38,0-2.07,0s-1.47,0-2.19-.08S34,12,33.29,12c-1.37-.09-2.75-.13-4.12-.13-1.57,0-3.13.05-4.69.11a43.53,43.53,0,0,0-4.7.36c-.76.11-1.53.23-2.29.36s-1.38.24-2.07.31c-.54,0-1.14.07-1.72.15a6.57,6.57,0,0,0-.1,1.13,6.62,6.62,0,0,1-.64.2l-.11,0c-.84.23-1.39,1.12-.94,1.68.31.35,0,.79-.76,1.19S10,18.48,10.29,19s.86.21.81.64-.16.66.43,1,.54.64.15,1.29-.22,1,.26,1.36a1.13,1.13,0,0,0,.51.26h0a1,1,0,0,0,.34,0h0l.09,0h0l.17-.07,0,0,.05,0v0a.12.12,0,0,0,0,0c.2-.26.53-.28.93,0h0a1.09,1.09,0,0,0-.86.41c-.42.54.18,1,.78.85s.77-.18.62.22a.94.94,0,0,0,.05.77h0l0,0,0,0,0,0,0,0,0,0,.05,0h0l0,0h0l0,0h.1c.47.07.48-.45.78-.39s.33.41.32.68a.9.9,0,0,0,1.05.65c.52-.15.61,0,.78.18a.5.5,0,0,0,.63.18l.14-.08a4.69,4.69,0,0,0,.89.09,4.24,4.24,0,0,0,1.75-.3,1.75,1.75,0,0,0,.84.6h.27c.9-.11.77-.56,1-.88s.36-.22.55,0a.37.37,0,0,0,.52,0l2,.38A3.88,3.88,0,0,1,27.46,26h0c.23.3.52.61.76.58.43-.05.28-.68.69-.61s.4.8.82.76a6.17,6.17,0,0,1,1.22,0,1,1,0,0,0,.51-.07h0l.05,0,0,0,.07,0,0,0,0,0,0,0,0,0,0-.05,0,0,.06-.08,0,0,.06-.09,0,0a.75.75,0,0,1,.07-.12h0l.39.08a4,4,0,0,0,4.13-2.44.51.51,0,0,0,0,.21c.07.44.39.19.49.6s-.35.76.32,1,.88-.42,1.45-.38.36.82,1.12.92,1.65-.82,1.65-.82.08.53.51.63a1.13,1.13,0,0,0,1.39-.6,1.61,1.61,0,0,1,.48-.86l.07-.05,0,0h0l0,0h0l.06,0h0a.18.18,0,0,0,.07-.05h0a1.27,1.27,0,0,0,.37-1C44.75,22.36,43.78,21.75,42.38,21.78ZM36.7,23.41a1,1,0,0,0,0-.16A.27.27,0,0,1,36.7,23.41Zm.28-1.7a1.19,1.19,0,0,0-.1-.32.64.64,0,0,0-.08-.14,7.35,7.35,0,0,0,.82.17A2.64,2.64,0,0,0,37,21.71Z" transform="translate(-1.42 -5.63)"/></g><path class="cls-7" d="M29.41,22.75a5.32,5.32,0,0,1,.05,1c0,.87.73,1.62,1.39,1.33.41-.21.76.2.95,1s.8,1.38,1.39,1.25.43-.78.83-.62.6.33,1.11-.15.76-.36,1.28.18.87.45,1.39.1a.91.91,0,0,0,.39-1.2c-.21-.26-.14-.58.25-.88s.66-.53.6-1a.73.73,0,0,0-.51-.67c-.22-.12-.19-.37-.07-.68s0-.55-.46-.65a.65.65,0,0,0-.66.18,3.7,3.7,0,0,1-3-.52c-.78-.63-.8-.56-1.19-.42a2.15,2.15,0,0,1-1,0S29.44,21.28,29.41,22.75Z" transform="translate(-1.42 -5.63)"/><path class="cls-8" d="M38,21.79a.65.65,0,0,0-.66.18,3.7,3.7,0,0,1-3-.52c-.78-.63-.8-.56-1.19-.42a2.15,2.15,0,0,1-1,0s-2.69.26-2.72,1.73a4.17,4.17,0,0,1,.05.87,7.7,7.7,0,0,1,1,0,5.24,5.24,0,0,1,1.77.52,9.29,9.29,0,0,0,2.1,1,8.52,8.52,0,0,0,2.14-.06,1.91,1.91,0,0,1,1.09.28,1.71,1.71,0,0,1,.67,1.08.75.75,0,0,0,0-.77c-.21-.26-.14-.58.25-.88s.66-.53.6-1a.73.73,0,0,0-.51-.67c-.22-.12-.19-.37-.07-.68S38.43,21.89,38,21.79Z" transform="translate(-1.42 -5.63)"/><g class="cls-6"><path class="cls-7" d="M30.76,23.19l.15.13.18.16.23.18.29.21.33.22.18.11.19.11.39.2.4.19.39.15.38.13a2.56,2.56,0,0,0,.34.1l.29.08.23.05.2.05-.2,0-.23,0c-.1,0-.19,0-.3-.06l-.35-.09-.39-.12-.4-.15c-.13-.06-.27-.11-.4-.18l-.39-.21-.19-.11-.18-.12a2.75,2.75,0,0,1-.33-.23l-.28-.22-.12-.11-.11-.1-.16-.16Z" transform="translate(-1.42 -5.63)"/><path class="cls-7" d="M31.61,23.91l.1,0L32,24l.39.06.22,0,.23,0h.84l.16,0H34l.11,0-.11,0a1.68,1.68,0,0,1-.27.07l-.19,0h-.67a3.25,3.25,0,0,1-.45-.06A3,3,0,0,1,32,24L31.71,24Z" transform="translate(-1.42 -5.63)"/><path class="cls-7" d="M32.87,24.66l.05.06.13.14.18.19a1.14,1.14,0,0,1,.11.11,1.14,1.14,0,0,0,.11.11l.12.1.06.05.06,0a1.46,1.46,0,0,0,.21.16l.16.11.06.05-.07,0-.18-.08a.39.39,0,0,1-.11-.06.57.57,0,0,0-.13-.08l-.12-.1-.12-.1-.11-.11-.11-.12a2.39,2.39,0,0,1-.16-.22c0-.06-.08-.12-.11-.16Z" transform="translate(-1.42 -5.63)"/></g><path class="cls-9" d="M29.77,24.29c.1.26.16.52.44.65.59.3,1.12-.48,1.48.56.21.57.82,1.93,1.63,1.43.12-.07,0,0-.09,0-1,.38-1.11-1.52-1.61-2a.83.83,0,0,0-.63-.28,1.4,1.4,0,0,0-.4.07c-.34.08-.52-.19-.7-.44C29.86,24.26,29.74,24.21,29.77,24.29Z" transform="translate(-1.42 -5.63)"/><path class="cls-10" d="M15.63,22.58s-1.4-5.54,1.2-7.78,11.54-5,15.63-3.83,6.61,3,6.69,5.15-6.6,5.15-9.07,6.12a8.61,8.61,0,0,1-6.29.13C22.07,21.75,15.63,22.58,15.63,22.58Z" transform="translate(-1.42 -5.63)"/><path class="cls-11" d="M32.38,11c-4.1-1.18-13,1.59-15.63,3.84S15,22.28,15,22.28s7-.5,8.75.12A8.61,8.61,0,0,0,30,22.27c2.47-1,9.16-4,9.07-6.12S36.47,12.18,32.38,11ZM17.26,17.44a.48.48,0,0,1-.55-.54c0-.2.2-.29.36-.35s.56-.06.83-.14c0,0,0,0,0,0A.77.77,0,0,1,17.26,17.44Zm8.32-3.08c-.14.21-.4.22-.62.31a1.42,1.42,0,0,0-.66.53.73.73,0,0,1-.21.22c-.22.12-.06-.25-.05-.32,0-.24-.08-.49,0-.73a.66.66,0,0,1,.42-.36A3.31,3.31,0,0,1,25,14a.91.91,0,0,1,.54.1A.23.23,0,0,1,25.58,14.36Zm3.79,6.3a2.83,2.83,0,0,1-1.58.58h0a1.64,1.64,0,0,1,.07-1c.07-.22.22-.4.29-.62s0-.23,0-.35.1-.15.17-.22.22-.19.32-.3a1.41,1.41,0,0,1,.49-.38c.53-.22.74.43.78.84A1.63,1.63,0,0,1,29.37,20.66Zm7.24-4.2a1.39,1.39,0,0,1-1.25.39.48.48,0,0,1-.37-.46,5.21,5.21,0,0,0,0-.79,1,1,0,0,1,.15-1c.12-.12.27.19.31.27s.22.35.44.36a1.4,1.4,0,0,1,.83.17C37.14,15.68,36.93,16.15,36.61,16.46Z" transform="translate(-1.42 -5.63)"/><path class="cls-10" d="M17.43,16.54a.86.86,0,0,0-.43.11c-.13.2-.19.47.05.61a.63.63,0,0,0,.89-.76A3.25,3.25,0,0,0,17.43,16.54Z" transform="translate(-1.42 -5.63)"/><path class="cls-12" d="M18,20.83A8,8,0,0,0,14.56,23c-.52.38-1,.09-1.43.63s.19,1,.78.86.78-.19.63.21,0,1,.44,1,.48-.45.78-.39.33.4.31.68a.9.9,0,0,0,1.06.64c.52-.14.6,0,.77.18a.49.49,0,0,0,.63.19c.23-.14.25-.11.21-.48a22.54,22.54,0,0,1,1.55-3.32c.4-.84.5-1,.84-.83s.9-.45.11-1.35S18.76,20.56,18,20.83Z" transform="translate(-1.42 -5.63)"/><path class="cls-13" d="M21.24,21.05a.8.8,0,0,0-.13-.13c-.15.35-.5.48-.84.66a15.15,15.15,0,0,1-1.62.64c-.51.22-1,.48-1.53.72a2.48,2.48,0,0,0-.88.59,3.57,3.57,0,0,0-.48.88,1.8,1.8,0,0,1-.83.93,1.58,1.58,0,0,1-.34.13.48.48,0,0,0,.39.26c.47.06.48-.45.78-.39s.33.4.31.68a.9.9,0,0,0,1.06.64c.52-.14.6,0,.77.18a.49.49,0,0,0,.63.19c.23-.14.25-.11.21-.48a22.54,22.54,0,0,1,1.55-3.32c.4-.84.5-1,.84-.83S22,22,21.24,21.05Z" transform="translate(-1.42 -5.63)"/><path class="cls-14" d="M16.75,23.24s.18-.14.47-.32l.24-.15.27-.16.29-.15.3-.15.32-.14.3-.13.29-.11.14-.05.13,0,.4-.11.15,0-.15.06-.38.15-.13,0-.13.06-.28.12-.3.13-.31.15a1.77,1.77,0,0,0-.31.15l-.29.14-.52.27-.36.2Z" transform="translate(-1.42 -5.63)"/><path class="cls-12" d="M26.33,20.35a8,8,0,0,0-3.43,2.16c-.53.38-1,.09-1.43.63s.18,1,.78.86.77-.18.63.22,0,1,.43,1,.48-.45.78-.39.33.4.32.68a.89.89,0,0,0,1.05.64c.53-.14.61,0,.78.19a.5.5,0,0,0,.63.18c.23-.14.24-.11.21-.48a21.54,21.54,0,0,1,1.55-3.32c.4-.84.5-1,.84-.83s.9-.45.11-1.35S27.1,20.07,26.33,20.35Z" transform="translate(-1.42 -5.63)"/><path class="cls-13" d="M29.58,20.56a.8.8,0,0,0-.13-.13c-.16.35-.5.48-.84.66a16,16,0,0,1-1.62.64c-.52.22-1,.48-1.53.72a2.32,2.32,0,0,0-.88.59,3.3,3.3,0,0,0-.49.88,1.74,1.74,0,0,1-.82.93,1.48,1.48,0,0,1-.35.13.5.5,0,0,0,.39.26c.47.06.48-.45.78-.39s.33.4.32.68a.89.89,0,0,0,1.05.64c.53-.14.61,0,.78.19a.5.5,0,0,0,.63.18c.23-.14.24-.11.21-.48a21.54,21.54,0,0,1,1.55-3.32c.4-.84.5-1,.84-.83S30.37,21.46,29.58,20.56Z" transform="translate(-1.42 -5.63)"/><path class="cls-14" d="M25.09,22.75s.18-.14.47-.32l.24-.15.26-.15.3-.16.3-.15.31-.14.31-.13.29-.11.13-.05.13,0,.4-.12.15,0-.14.06-.39.15-.12.05-.13.05-.29.12-.3.14-.3.14-.31.15-.3.14-.51.28a3.37,3.37,0,0,0-.36.2Z" transform="translate(-1.42 -5.63)"/><path class="cls-15" d="M21.26,14.59a5.85,5.85,0,0,0-1.66.75h0a4.5,4.5,0,0,1,1.75.11c.27.08,1.12.5.83.89-.18.23-.48.33-.68.53a6.94,6.94,0,0,0-.89,1.06s0,0-.05,0a4.83,4.83,0,0,0-2.45-.73A2.61,2.61,0,0,0,18,18l2.83,1.58,2.73-3.13A2.59,2.59,0,0,0,21.26,14.59Z" transform="translate(-1.42 -5.63)"/><path class="cls-7" d="M25.54,13.14A6.85,6.85,0,0,0,26.32,15c.45.61-.46,1.87,1.06,3.29.91.78,1.29.2,1.49-.35s.45-.07.77,0,.62.13.88-.49.93-.26,1.35-.77,1.59-5.3-.48-6.56S25,10.72,25.54,13.14Z" transform="translate(-1.42 -5.63)"/><path class="cls-14" d="M27.24,17a7.38,7.38,0,0,0-.4-1.92.87.87,0,0,0-.69-.55H26a3.22,3.22,0,0,0,.3.52c.45.61-.46,1.87,1.06,3.29.46.39.78.44,1,.32A2.91,2.91,0,0,1,27.24,17Z" transform="translate(-1.42 -5.63)"/><path class="cls-14" d="M31.39,10.11c-2.07-1.26-6.37.61-5.85,3a8.84,8.84,0,0,0,.5,1.39,1.32,1.32,0,0,1,.33-.74c.3-.29.52.22.57.45.08.4.08.82.13,1.23a1.45,1.45,0,0,0,.67,1.2,11.57,11.57,0,0,0,1.76.42c.34.11.75.35.77.73a.92.92,0,0,0,.25-.38c.26-.61.93-.26,1.35-.77S33.46,11.37,31.39,10.11Z" transform="translate(-1.42 -5.63)"/><path class="cls-7" d="M20.77,25.92s.76,1.54,1.66,1.43.77-.56,1-.89.36-.21.54,0,.5.22.8-.29.95-2.83.16-3.56-4.17-1.13-4.94.24S20.77,25.92,20.77,25.92Z" transform="translate(-1.42 -5.63)"/><path class="cls-12" d="M25,11.2s1.39-1.31,5.55,0c1.4,0,2.36.58,2.35,1.39a1.26,1.26,0,0,1-.7,1.21,1.61,1.61,0,0,0-.48.86,1.13,1.13,0,0,1-1.39.6c-.44-.1-.51-.63-.51-.63s-.89.92-1.65.82-.55-.88-1.12-.92-.78.66-1.45.38-.22-.63-.32-1-.42-.16-.5-.6.27-.51.09-.68A1.34,1.34,0,0,1,25,11.2Z" transform="translate(-1.42 -5.63)"/><path class="cls-13" d="M31.4,13.39A4.66,4.66,0,0,1,29.6,13a13,13,0,0,0-1.74-.89,6.05,6.05,0,0,0-1.64-.27,4.76,4.76,0,0,0-1.5.2.82.82,0,0,0,.13.52c.18.17-.16.25-.09.68s.4.19.5.6-.35.76.32,1,.88-.42,1.45-.38.36.82,1.12.92,1.65-.82,1.65-.82.07.53.51.63a1.13,1.13,0,0,0,1.39-.6,1.61,1.61,0,0,1,.48-.86,1.65,1.65,0,0,0,.51-.46A5.56,5.56,0,0,1,31.4,13.39Z" transform="translate(-1.42 -5.63)"/><g class="cls-6"><path class="cls-12" d="M25.23,11.82H26l.37,0,.41.05.44.07.44.1.22.07.11,0,.11,0c.14.05.29.1.42.16a2.12,2.12,0,0,1,.37.18l.17.09.08,0,.07.05.26.17.19.15.16.14-.17-.12-.2-.14-.26-.15-.08,0-.08,0-.17-.08-.38-.16a2.86,2.86,0,0,0-.41-.15l-.1,0-.11,0-.22-.06-.44-.11L26.76,12l-.41-.06-.36,0-.55,0Z" transform="translate(-1.42 -5.63)"/><path class="cls-12" d="M27.52,12.05l.09-.05a1.54,1.54,0,0,1,.23-.12l.17-.06.18-.06.21,0,.21,0,.22,0h.41l.17,0,.15,0,.11,0,.1,0H29l-.41,0a1.52,1.52,0,0,0-.21,0l-.21,0-.35.08A2.59,2.59,0,0,0,27.52,12.05Z" transform="translate(-1.42 -5.63)"/><path class="cls-12" d="M26.18,11.84l.21.09a.71.71,0,0,1,.21.11,1.7,1.7,0,0,1,.22.15l.11.09.1.09.08.09.08.09a.8.8,0,0,1,.09.14l0,.05,0,0-.11-.12-.09-.07L27,12.43l-.1-.08-.1-.08-.11-.08-.11-.08L26.36,12Z" transform="translate(-1.42 -5.63)"/></g><path class="cls-8" d="M24.91,22.58c-.79-.73-4.17-1.13-4.94.24a1.67,1.67,0,0,0-.21,1,1.33,1.33,0,0,1,.85-.64,1,1,0,0,1,.7.07,2.73,2.73,0,0,1,.53.49.75.75,0,0,0,.93.13c.19-.13.37-.37.59-.45.53-.19.66.59.57,1a1.53,1.53,0,0,1-.33.63c-.17.19-.39.35-.55.56-.31.41-.2,1-.51,1.35a1.43,1.43,0,0,1-.47.38.87.87,0,0,0,.36,0c.9-.11.77-.56,1-.89s.36-.21.54,0,.5.22.8-.29S25.7,23.31,24.91,22.58Z" transform="translate(-1.42 -5.63)"/><path class="cls-7" d="M33,22.59s.76,1.53,1.66,1.42.76-.56,1-.89.36-.21.54,0,.5.22.8-.29,1-2.83.16-3.56-4.17-1.13-5,.24S33,22.59,33,22.59Z" transform="translate(-1.42 -5.63)"/><path class="cls-8" d="M37.13,19.24c-.79-.73-4.17-1.13-5,.24a1.74,1.74,0,0,0-.2,1,1.34,1.34,0,0,1,.85-.64,1,1,0,0,1,.69.07,2.57,2.57,0,0,1,.54.5.76.76,0,0,0,.93.12c.19-.13.37-.37.59-.45.53-.18.66.6.56,1a1.4,1.4,0,0,1-.32.63c-.18.19-.39.36-.55.56-.31.41-.21,1-.52,1.35a1.21,1.21,0,0,1-.46.38.72.72,0,0,0,.36,0c.89-.11.76-.56,1-.89s.36-.21.54,0,.5.22.8-.29S37.92,20,37.13,19.24Z" transform="translate(-1.42 -5.63)"/><path class="cls-7" d="M13.65,14a6.8,6.8,0,0,1-.94.3c-.84.23-1.38,1.12-.93,1.68.31.34,0,.79-.76,1.18s-1.14,1.12-.86,1.67.86.21.81.64-.17.66.43,1,.54.64.14,1.28-.21,1,.27,1.37a.89.89,0,0,0,1.25.06c.2-.26.53-.27.92,0s.68.51,1.12.33a.71.71,0,0,0,.51-.66c.07-.25.32-.28.65-.25s.52-.16.51-.6a.68.68,0,0,0-.35-.6,3.7,3.7,0,0,1-.25-3c.41-.92.34-.92.1-1.26a2,2,0,0,1-.25-1S15.09,13.62,13.65,14Z" transform="translate(-1.42 -5.63)"/><path class="cls-8" d="M16.77,22a.68.68,0,0,0-.35-.6,3.7,3.7,0,0,1-.25-3c.41-.92.34-.92.1-1.26a2,2,0,0,1-.25-1s-.93-2.54-2.37-2.19a4.66,4.66,0,0,1-.82.26,7.51,7.51,0,0,1,.21.94A5.42,5.42,0,0,1,13,17a9.42,9.42,0,0,0-.41,2.29,9,9,0,0,0,.6,2,1.89,1.89,0,0,1,0,1.13,1.64,1.64,0,0,1-.87.92.72.72,0,0,0,.74-.2c.2-.26.53-.27.92,0s.68.51,1.12.33a.71.71,0,0,0,.51-.66c.07-.25.32-.28.65-.25S16.78,22.47,16.77,22Z" transform="translate(-1.42 -5.63)"/><path class="cls-7" d="M23.9,13.21a14,14,0,0,0-.1,1.68,1.31,1.31,0,0,1-.36,1.1.74.74,0,0,1-1.11-.17,1.79,1.79,0,0,0-1.79-.74c-1.05.05-1.3,0-1.42-.52A3.59,3.59,0,0,1,19.05,13c.12-.79-1.31-2.33-1-3s-.64-.77-.1-1.4c.37-.35.61-.18.93-.05s1,.12,1-.17a.71.71,0,0,1,.69-.77c.52,0,.81.59.79,1A7.2,7.2,0,0,0,23.9,13.21Z" transform="translate(-1.42 -5.63)"/><path class="cls-7" d="M23.16,16.15a2.36,2.36,0,0,0,.12-.28c.06-.2.12-.49-.08-.63s-.55-.1-.83-.1a3.43,3.43,0,0,1-1.26-.23,3.76,3.76,0,0,1-.55-.23c-.16-.09-.26-.25-.42-.33-.48-.21-.7.15-.86.56.18.2.52.21,1.26.17a1.79,1.79,0,0,1,1.79.74A.82.82,0,0,0,23.16,16.15Z" transform="translate(-1.42 -5.63)"/><path class="cls-8" d="M23.9,13.21A7.2,7.2,0,0,1,21.33,8.6c0-.44-.27-1-.79-1a.71.71,0,0,0-.69.77c0,.18-.25.26-.53.25a1.14,1.14,0,0,0,.3.32.87.87,0,0,0,.53.13.48.48,0,0,1,.4.12c.22.25-.07.61-.25.78a2.26,2.26,0,0,0-.83,1.19,1.86,1.86,0,0,1-.41,1l-.15.14a1.38,1.38,0,0,1,.14.7,3.59,3.59,0,0,0,.07,1.61,1,1,0,0,0,.12.31c.13-.35.31-.67.7-.66a.74.74,0,0,1,.49.26,1.86,1.86,0,0,0,.66.33,3.81,3.81,0,0,0,1.56.24c.22,0,.56,0,.69.21a.77.77,0,0,1,0,.56c0,.11-.08.22-.13.33a.44.44,0,0,0,.22-.15,1.31,1.31,0,0,0,.36-1.1A14,14,0,0,1,23.9,13.21Z" transform="translate(-1.42 -5.63)"/><path class="cls-12" d="M14.67,17.9a6.65,6.65,0,0,1-1-5.28c.5-2.11,1.52-3.1,2-2.86s.57.07.82-.27a.73.73,0,0,1,1.13,0c.34.38.56.4.8.32a.78.78,0,0,1,.93.85,1.66,1.66,0,0,0,.17,1.19A2.19,2.19,0,0,1,19,14.17c-.31.24-.35.5-.36,1a1.07,1.07,0,0,1-1.25,1.11c-.68,0-1.1,0-1.33.55s-.14,1-.64,1.27S14.67,17.9,14.67,17.9Z" transform="translate(-1.42 -5.63)"/><path class="cls-13" d="M19.49,11.9a1.66,1.66,0,0,1-.17-1.19.78.78,0,0,0-.93-.85c-.24.08-.46.06-.8-.32a.78.78,0,0,0-.95-.21,1.65,1.65,0,0,1-.14,1.05C16,11.69,14.94,12.72,14.4,14a5.21,5.21,0,0,0-.32,2.14.91.91,0,0,1-.09.51,5.68,5.68,0,0,0,.68,1.22s.36.38.73.17.41-.76.64-1.27.65-.59,1.33-.55a1.07,1.07,0,0,0,1.25-1.11c0-.47.05-.73.36-1A2.19,2.19,0,0,0,19.49,11.9Z" transform="translate(-1.42 -5.63)"/><g class="cls-6"><path class="cls-7" d="M14.46,17.56a1.62,1.62,0,0,1-.08-.26c0-.08-.05-.18-.07-.3l0-.18,0-.21c0-.07,0-.15,0-.23s0-.16,0-.24a4.78,4.78,0,0,1,0-.53,1.37,1.37,0,0,1,0-.28c0-.09,0-.18,0-.28a2.74,2.74,0,0,1,0-.28l.06-.29c.05-.19.11-.37.17-.55s.14-.36.2-.53l.23-.47a2,2,0,0,1,.12-.21l.12-.2a3.16,3.16,0,0,1,.21-.33l.18-.25.16-.22-.14.23-.17.26c-.06.09-.12.21-.19.34a1.28,1.28,0,0,0-.11.2,1.39,1.39,0,0,0-.11.21c-.07.15-.14.31-.22.47s-.13.35-.2.52-.1.37-.16.56l-.06.28a2.33,2.33,0,0,0,0,.28,2.51,2.51,0,0,0,0,.27c0,.1,0,.19,0,.28s0,.35,0,.52,0,.16,0,.24a1.55,1.55,0,0,0,0,.22c0,.08,0,.14,0,.21l0,.19a2.34,2.34,0,0,0,.05.3c0,.08,0,.14,0,.19Z" transform="translate(-1.42 -5.63)"/><path class="cls-7" d="M14.36,14.89a.56.56,0,0,1,0-.12,1,1,0,0,0,0-.13l.07-.16.1-.19a2.14,2.14,0,0,1,.13-.19l.15-.2.18-.19a1.07,1.07,0,0,1,.19-.18,1,1,0,0,1,.19-.16l.18-.15.17-.11.15-.1.12-.07.1,0-.09.07-.24.19-.17.13-.17.15-.18.17-.18.17-.18.19-.15.19-.14.18-.11.17c0,.06-.06.11-.08.16a.34.34,0,0,0-.06.12A.82.82,0,0,0,14.36,14.89Z" transform="translate(-1.42 -5.63)"/><path class="cls-7" d="M15,13.06a.11.11,0,0,1,0-.05s-.05-.09-.08-.16l0-.12,0-.06s0,0,0-.07,0-.09,0-.14v-.29l0-.14a.69.69,0,0,0,0-.13s0-.08,0-.11l.07-.17,0-.06a.32.32,0,0,1,0,.07,1.49,1.49,0,0,1,0,.17l0,.11a.57.57,0,0,1,0,.13c0,.05,0,.09,0,.14a.65.65,0,0,0,0,.14s0,.09,0,.14a.57.57,0,0,1,0,.13.2.2,0,0,1,0,.07s0,0,0,.06,0,.08,0,.11,0,.07,0,.1a.14.14,0,0,0,0,.07A.32.32,0,0,0,15,13.06Z" transform="translate(-1.42 -5.63)"/></g><path class="cls-12" d="M20.81,19.25a5.05,5.05,0,0,1,2.53-3.07c.58-.29.64-.26,1-.74a2.05,2.05,0,0,1,1.92-.72c.75.15.81.78.64,1.49s0,.84.48,1.47a2.05,2.05,0,0,1,.26,2.22c-.44.6-.42.58-.45,1s-.29.58-.76.68-.57.24-.84.79a1.2,1.2,0,0,1-1.34.63c-.6-.05-.52-.68-1-.27s-1.05.87-1.76.4-.42-.68-.34-1-.33-.26-.63-.22-.34-.23-.2-.86S20.63,20.13,20.81,19.25Z" transform="translate(-1.42 -5.63)"/><path class="cls-13" d="M27.38,17.68c-.45-.63-.66-.75-.48-1.47S27,15,26.47,14.78a1.12,1.12,0,0,1-.11.26,2.13,2.13,0,0,1-.44.51l-.71.68a11.34,11.34,0,0,0-2.28,3.48,7.78,7.78,0,0,0-.39,1.05c-.08.28-.12.57-.22.84a2,2,0,0,1-.65.92,2.35,2.35,0,0,1-.56.31,1.18,1.18,0,0,0,.38.33c.71.47,1.27,0,1.76-.4s.4.22,1,.27a1.2,1.2,0,0,0,1.34-.63c.27-.55.37-.69.84-.79s.73-.23.76-.68,0-.43.45-1A2.05,2.05,0,0,0,27.38,17.68Z" transform="translate(-1.42 -5.63)"/><path class="cls-7" d="M36.09,17.75s0-.82.67-.73c.54,0,.66-.26.75-.7a.9.9,0,0,1,1.27-.71c.8.26,2.72,1.15,3.59.67s1.25-.49,1.49-.22.1.63,0,.89.16.48.45.7a.82.82,0,0,1,.27,1.15c-.29.63-.58.63-.89.49s-.65-.17-.82.26,0,.91-.38,1.2-.72-.07-.89-.19c-.34-.24-.34.43-1,.53a12.24,12.24,0,0,1-3.07.11c-.88-.15-1.63-.27-1.75-1.19S36.21,18.6,36.09,17.75Z" transform="translate(-1.42 -5.63)"/><path class="cls-8" d="M44.29,17.65c-.29-.22-.57-.44-.45-.7a1,1,0,0,0,.11-.74,1.86,1.86,0,0,0-.67.31,2.54,2.54,0,0,0-.77.83c-.15.27-.23.56-.35.83a.94.94,0,0,1-.29.42,2,2,0,0,1-.75.28,7.58,7.58,0,0,1-.95.18,1.62,1.62,0,0,0-.54.1,1.94,1.94,0,0,0-.33.23,2.15,2.15,0,0,1-.77.27,3,3,0,0,0-.91.38c-.28.15-.91.52-1,0,0-.1,0-.22-.08-.32s-.12-.25-.16-.38a.77.77,0,0,1,.13-.57,1.24,1.24,0,0,0,.18-.52,1.26,1.26,0,0,0-.16-.53,2.46,2.46,0,0,0-.23-.42l0-.06a1,1,0,0,0-.12.49c.12.85-.46,1.34-.34,2.26s.87,1,1.75,1.19a12.24,12.24,0,0,0,3.07-.11c.67-.1.67-.77,1-.53.17.12.5.48.89.19s.21-.77.38-1.2.51-.39.82-.26.6.14.89-.49A.82.82,0,0,0,44.29,17.65Z" transform="translate(-1.42 -5.63)"/><path class="cls-12" d="M27,25.23s.66,1.14,1.09,1.09.29-.68.7-.62.39.8.81.76a6.24,6.24,0,0,1,1.23,0c.35,0,.91,0,1.28-1a15.92,15.92,0,0,1,3.58-4.92c.73-.65.61-.68.47-1.16s.05-.44.23-.71a1.15,1.15,0,0,0-.3-1.25c-.38-.47-.8-.13-1.18,0s-.33,0-.59-.3-.71-.13-1.25.18-.6.7-1.07.43a.88.88,0,0,0-1.3.44c-.25.56.13,1.36-.44,2.19-.8,1.16-.85,1.4-1.84,2S26.67,24.44,27,25.23Z" transform="translate(-1.42 -5.63)"/><path class="cls-13" d="M36.38,18.65a1.15,1.15,0,0,0-.3-1.25L36,17.29a17.61,17.61,0,0,0-2,1.18,12.29,12.29,0,0,0-1.28,1q-.28.25-.57.48a1.72,1.72,0,0,0-.55.59,1.59,1.59,0,0,1-.64.8,1,1,0,0,1-.75.05,2.52,2.52,0,0,1-.47-.22,3.3,3.3,0,0,1-1.29,1.17c-1,.58-1.74,2.13-1.42,2.92,0,0,.15.25.34.51a1.94,1.94,0,0,1,.93-.75,1.1,1.1,0,0,1,1,.07c.12.09.23.25.41.26s.32-.13.49-.14c.54,0,.87.66,1,1.08a1.05,1.05,0,0,1,0,.19,1.44,1.44,0,0,0,.88-1,15.92,15.92,0,0,1,3.58-4.92c.73-.65.61-.68.47-1.16S36.2,18.92,36.38,18.65Z" transform="translate(-1.42 -5.63)"/><path class="cls-12" d="M37.06,9.25A2.9,2.9,0,0,1,38.46,9c.7.08.63.38.59.63s.22.24.79,0,.93-.18,1.21.14.18.6,0,.94-.23.62.18.74a.67.67,0,0,1,.24,1c-.28.35-.62.11-.47.45s-.13.45-.13.45L37,12S35.8,11,37.06,9.25Z" transform="translate(-1.42 -5.63)"/><path class="cls-16" d="M41.25,12.66a1.29,1.29,0,0,1-.48-.33,3.85,3.85,0,0,1-.54-.89c-.12-.24-.26-.74-.59-.76a4.07,4.07,0,0,0-1,.23c-.25.05-.66.16-.88,0s-.11-.68-.07-1a2.27,2.27,0,0,0,0-.87,3,3,0,0,0-.57.2C35.8,11,37,12,37,12l3.86,1.39s.27-.11.13-.45S41,12.77,41.25,12.66Z" transform="translate(-1.42 -5.63)"/><path class="cls-7" d="M30.33,11.2s1.52.35,1.5.94.12,1.06,1.24,1.39a6.15,6.15,0,0,1,2.66,1c.86.7,1.47.58,1.72-.73a3,3,0,0,0-.57-2.5c-.31-.51-.09-.81.32-1.22s.21-1-.65-1.46S36.3,8,35.91,7.4A1.18,1.18,0,0,0,34.44,7c-.47.16-.63,0-.59-.55s-.51-.86-1-.78-.69.54-.88.7-.27.16-.66,0-1.06,0-1,.94-.1,1-.34,1.31-.58.86-.13,1.27S29.25,10.84,30.33,11.2Z" transform="translate(-1.42 -5.63)"/><path class="cls-8" d="M36.64,14.08a11,11,0,0,1-2-2.42c-.36-.54-.75-1.26-1.44-1.42A2,2,0,0,1,32,9.66a2.72,2.72,0,0,1-.26-2.33A7.55,7.55,0,0,1,32.24,6c-.13.14-.22.29-.31.37-.31.28-.27.16-.66,0s-1.06,0-1,.94-.1,1-.34,1.31-.58.86-.13,1.27-.55,1,.53,1.39c0,0,1.52.35,1.5.94s.12,1.06,1.24,1.39a6.15,6.15,0,0,1,2.66,1c.67.54,1.18.6,1.5,0A4.56,4.56,0,0,1,36.64,14.08Z" transform="translate(-1.42 -5.63)"/><g class="cls-6"><path class="cls-7" d="M31.48,9a2.7,2.7,0,0,0,.17.22,7.36,7.36,0,0,0,.51.54,1.5,1.5,0,0,0,.4.28l.51.2c.18.07.37.13.55.21l.14.07.14.08.13.08.06.05.06.05a3,3,0,0,1,.38.5l.29.52c.09.16.17.33.26.48a1.53,1.53,0,0,0,.14.21,2.43,2.43,0,0,1,.14.2l.24.34.19.26.17.23-.19-.22-.2-.25-.25-.33-.15-.19L35,12.34c-.09-.15-.18-.32-.27-.48s-.19-.34-.3-.51a2.46,2.46,0,0,0-.37-.48l0,0-.06,0-.12-.08-.13-.08-.13-.06c-.19-.09-.37-.15-.55-.22a4.88,4.88,0,0,1-.51-.22,1.89,1.89,0,0,1-.41-.3c-.11-.11-.2-.22-.28-.31a3.08,3.08,0,0,1-.2-.26A2,2,0,0,1,31.48,9Z" transform="translate(-1.42 -5.63)"/><path class="cls-7" d="M35.26,12.66l-.17,0-.09,0-.1,0-.2-.05-.38-.12-.17-.08.19,0,.39.09.2.06.17.07A1,1,0,0,1,35.26,12.66Z" transform="translate(-1.42 -5.63)"/><path class="cls-7" d="M32.77,7.86a1,1,0,0,0,0,.17,2,2,0,0,0,.1.44,1.25,1.25,0,0,0,.1.29,1.56,1.56,0,0,0,.06.15,1.09,1.09,0,0,0,.08.15l.17.31.11.15.11.15c.07.1.16.18.24.28l.24.27.2.28a1.84,1.84,0,0,1,.17.25,1.66,1.66,0,0,1,.11.24s0,0,0,0l0,.05a.29.29,0,0,0,0,.09.57.57,0,0,1,0,.12.12.12,0,0,1,0,0,.07.07,0,0,0,0,0s0-.07,0-.12l0-.08,0,0,0-.05-.13-.22a3,3,0,0,0-.18-.24,1.13,1.13,0,0,0-.1-.13l-.11-.13L33.69,10c-.08-.09-.17-.18-.25-.28l-.11-.16-.1-.15a3.58,3.58,0,0,1-.18-.32L33,8.94l-.06-.16c0-.1-.06-.2-.09-.29A3.76,3.76,0,0,1,32.77,8,.81.81,0,0,1,32.77,7.86Z" transform="translate(-1.42 -5.63)"/><path class="cls-7" d="M34.34,8.74a.66.66,0,0,1,0,.09c0,.05,0,.13,0,.23s0,.2,0,.33,0,.24,0,.37v.38a3.08,3.08,0,0,1,0,.33,1.29,1.29,0,0,1,0,.24.28.28,0,0,1,0,.08V10.7a1.42,1.42,0,0,1,0-.23c0-.1,0-.21,0-.33s0-.25,0-.37,0-.26,0-.38V8.74Z" transform="translate(-1.42 -5.63)"/></g><path class="cls-9" d="M37.18,9.5a1.35,1.35,0,0,0-.54-.72,1.74,1.74,0,0,0-.55-.21c-.36-.12-.33-.48-.34-.78,0-.78-.63-.92-1.25-.65,0,0-.13.06-.08.05.48-.13,1-.15,1.18.42.09.28,0,.57.07.83a.67.67,0,0,0,.48.34,1.61,1.61,0,0,1,1.07.88C37.25,9.72,37.2,9.55,37.18,9.5Z" transform="translate(-1.42 -5.63)"/><g class="cls-6"><path class="cls-12" d="M25.59,15.83l-.19.22c-.12.14-.28.34-.47.59l-.31.4-.16.23-.16.23c-.11.16-.21.34-.33.51l-.31.53-.29.55c0,.1-.09.19-.13.28l-.06.13-.06.14-.11.27A.61.61,0,0,1,23,20s0,.09,0,.13l-.09.25c0,.08,0,.16-.07.23s-.07.29-.1.42a2.49,2.49,0,0,0-.06.32l-.05.28,0-.28c0-.09,0-.21,0-.33l.09-.42a2.1,2.1,0,0,1,.06-.24c0-.08.05-.16.08-.25l0-.13s0-.09.05-.13l.1-.27.06-.14.06-.14c0-.09.09-.18.13-.28l.29-.55c.1-.18.21-.36.32-.54l.33-.5.17-.24.17-.22c.11-.14.22-.27.31-.4s.38-.43.5-.57Z" transform="translate(-1.42 -5.63)"/><path class="cls-12" d="M24.13,17.67a1,1,0,0,0,0,.14c0,.09-.05.22-.07.37a2,2,0,0,0,0,.26,2.4,2.4,0,0,0,0,.28l0,.3c0,.11,0,.21,0,.32s0,.21,0,.31l0,.3a2.58,2.58,0,0,0,0,.29s0,.08,0,.13l0,.12a1.3,1.3,0,0,0,0,.21c0,.06,0,.12,0,.16a1,1,0,0,0,0,.14l-.06-.13a.64.64,0,0,0-.06-.16q0-.09-.06-.21l0-.12,0-.13a2.5,2.5,0,0,1-.05-.29c0-.1,0-.2,0-.3s0-.22,0-.32,0-.22,0-.32a3,3,0,0,1,0-.31c0-.2.06-.38.1-.54s.08-.28.11-.37A.87.87,0,0,1,24.13,17.67Z" transform="translate(-1.42 -5.63)"/><path class="cls-12" d="M24.37,17.33l-.1,0-.23.11-.33.17-.17.11-.18.12L23.2,18l-.16.13-.14.14-.12.12-.1.11-.07.09-.06.08.05-.09.06-.1.08-.12a.76.76,0,0,1,.11-.14l.13-.15c.05,0,.1-.1.16-.14l.17-.14.18-.12.18-.1a1.67,1.67,0,0,1,.35-.15,1.22,1.22,0,0,1,.25-.07Z" transform="translate(-1.42 -5.63)"/></g><path class="cls-12" d="M21.4,10.49s-.92-2.09.72-3c.58-.2,1.5.07,2-.53s.83-.68,1.36-.44a2.33,2.33,0,0,0,1.9.11,2,2,0,0,1,2,.11A1.41,1.41,0,0,1,30,8.65,2,2,0,0,0,29.61,10a1.29,1.29,0,0,1-1.34,1.1c-.95.06-1.19.19-1.39.77s-.57,2.05-1.9,2S22.13,11.9,21.4,10.49Z" transform="translate(-1.42 -5.63)"/><path class="cls-13" d="M29.41,6.75a1.58,1.58,0,0,0-.47-.23,4.67,4.67,0,0,1-.6.38c-.52.27-1.1.41-1.64.63a6.73,6.73,0,0,0-3.23,3.3c-.33.8-.15,1.11-.43,1.93A3.19,3.19,0,0,0,25,13.86c1.33.05,1.7-1.41,1.9-2s.44-.71,1.39-.77A1.29,1.29,0,0,0,29.61,10,2,2,0,0,1,30,8.65,1.41,1.41,0,0,0,29.41,6.75Z" transform="translate(-1.42 -5.63)"/><path class="cls-12" d="M36.7,21.59s1.39-1.32,5.55,0c1.4,0,2.36.58,2.35,1.38a1.24,1.24,0,0,1-.7,1.21,1.6,1.6,0,0,0-.48.87,1.13,1.13,0,0,1-1.39.6.78.78,0,0,1-.51-.63s-.89.92-1.65.82-.55-.88-1.12-.93-.78.66-1.45.39-.22-.63-.32-1-.42-.16-.5-.6.27-.51.09-.69A1.35,1.35,0,0,1,36.7,21.59Z" transform="translate(-1.42 -5.63)"/><path class="cls-13" d="M43.12,23.77a4.65,4.65,0,0,1-1.8-.38,11.89,11.89,0,0,0-1.74-.89,5.37,5.37,0,0,0-1.64-.27,4.76,4.76,0,0,0-1.5.2.85.85,0,0,0,.13.51c.18.18-.16.25-.09.69s.4.19.5.6-.35.76.32,1,.88-.43,1.45-.39.36.82,1.12.93S41.52,25,41.52,25a.78.78,0,0,0,.51.63,1.13,1.13,0,0,0,1.39-.6,1.6,1.6,0,0,1,.48-.87,1.43,1.43,0,0,0,.51-.46A4.65,4.65,0,0,1,43.12,23.77Z" transform="translate(-1.42 -5.63)"/><g class="cls-6"><path class="cls-12" d="M37,22.21h.76l.37,0,.41,0,.44.08.44.1.23.07.1,0,.11,0c.14.05.29.09.42.15l.37.18.17.09.08,0,.07.05.26.17a1.81,1.81,0,0,1,.19.15l.16.13-.17-.11-.2-.14-.26-.16-.08,0-.08,0L40.57,23l-.38-.16c-.13-.06-.27-.1-.41-.15l-.1,0-.11,0-.22-.07-.44-.1-.43-.08-.41-.06-.36-.05-.55,0Z" transform="translate(-1.42 -5.63)"/><path class="cls-12" d="M39.24,22.43l.09-.05.23-.11.17-.06.18-.06.21,0,.21,0,.22,0H41l.17,0,.15,0,.11,0,.1,0h-.73l-.41,0-.21,0-.21,0-.35.09Z" transform="translate(-1.42 -5.63)"/><path class="cls-12" d="M37.9,22.22l.21.09.21.11.22.16.11.08.1.09.08.1a.6.6,0,0,1,.08.08l.09.14,0,.06-.05,0L38.87,23l-.09-.07-.09-.08-.1-.08-.1-.09-.11-.08-.11-.07-.19-.14Z" transform="translate(-1.42 -5.63)"/></g><path class="cls-12" d="M36.11,13s1.39-1.31,5.55,0c1.4,0,2.36.59,2.35,1.39a1.3,1.3,0,0,1-.7,1.21,1.69,1.69,0,0,0-.49.86,1.12,1.12,0,0,1-1.38.6c-.44-.1-.51-.63-.51-.63s-.89.92-1.65.82-.56-.87-1.13-.92-.77.66-1.44.38-.22-.63-.32-1-.43-.16-.5-.59.26-.52.09-.69A1.32,1.32,0,0,1,36.11,13Z" transform="translate(-1.42 -5.63)"/><path class="cls-13" d="M42.53,15.18a4.8,4.8,0,0,1-1.8-.38A13,13,0,0,0,39,13.9a6.19,6.19,0,0,0-1.65-.27,5,5,0,0,0-1.49.21.8.8,0,0,0,.13.51c.17.17-.16.25-.09.69s.39.18.5.59-.35.76.32,1,.87-.42,1.44-.38.37.82,1.13.92,1.65-.82,1.65-.82.07.53.51.63a1.12,1.12,0,0,0,1.38-.6,1.69,1.69,0,0,1,.49-.86,1.52,1.52,0,0,0,.5-.46A5.48,5.48,0,0,1,42.53,15.18Z" transform="translate(-1.42 -5.63)"/><g class="cls-6"><path class="cls-12" d="M36.35,13.61h.21c.14,0,.33,0,.56,0l.37,0,.41,0,.43.07.45.11.22.06.11,0,.11,0,.41.16c.13.06.26.11.38.18l.17.09.08,0,.07,0,.26.17.19.16.16.13-.17-.12-.2-.14-.27-.15-.07-.05-.08,0L40,14.39l-.38-.16c-.13-.06-.27-.1-.41-.15l-.11,0L39,14,38.76,14l-.44-.11-.44-.08-.4-.06-.37,0c-.22,0-.41,0-.55,0Z" transform="translate(-1.42 -5.63)"/><path class="cls-12" d="M38.65,13.84l.08-.05.24-.12.16-.06.19-.06.21,0,.21,0,.22,0h.4l.18,0,.15,0,.11,0,.09,0h-.72l-.42,0-.21,0-.2,0a2.53,2.53,0,0,0-.35.09A2,2,0,0,0,38.65,13.84Z" transform="translate(-1.42 -5.63)"/><path class="cls-12" d="M37.31,13.63l.21.09.21.11L38,14l.11.09.1.09.08.09.07.09a1,1,0,0,0,.1.14l0,0,0,0-.12-.11-.08-.08-.09-.08-.1-.08-.11-.08L37.78,14l-.1-.08a1.62,1.62,0,0,0-.19-.13Z" transform="translate(-1.42 -5.63)"/></g><g class="cls-6"><path class="cls-7" d="M23.34,11h0l0,0,.05-.14c0-.11.11-.28.21-.47l.17-.31A3,3,0,0,1,24,9.74a2.7,2.7,0,0,1,.25-.34,4.09,4.09,0,0,1,.28-.33,6.77,6.77,0,0,1,.61-.59l.31-.23c.1-.08.2-.14.29-.2L26,7.9l.2-.11.18-.09-.17.1L26,7.93l-.25.16-.27.21-.3.25a5.45,5.45,0,0,0-.6.58l-.28.33a3.49,3.49,0,0,0-.25.32,5.3,5.3,0,0,0-.4.62c-.11.19-.19.35-.24.46l-.07.13,0,0Z" transform="translate(-1.42 -5.63)"/><path class="cls-7" d="M24.83,7.68s0,.1-.06.24,0,.15-.06.23a.61.61,0,0,1,0,.13l0,.14,0,.14a.59.59,0,0,0,0,.13c0,.09,0,.17,0,.24s0,.13,0,.17a.32.32,0,0,0,0,.07.24.24,0,0,1,0-.07s0-.1,0-.17,0-.16,0-.25,0-.09,0-.14l0-.14c0-.09.05-.19.07-.27a1.85,1.85,0,0,1,.09-.23A1.77,1.77,0,0,1,24.83,7.68Z" transform="translate(-1.42 -5.63)"/></g><g class="cls-6"><path class="cls-12" d="M31.05,21.54l.09-.17c.06-.11.15-.27.26-.45l.2-.28.23-.31L32.1,20l.29-.32.15-.15.16-.14.31-.28a3.09,3.09,0,0,1,.31-.23l.15-.11.14-.09.25-.16.2-.1.17-.1-.16.11-.19.12a2.49,2.49,0,0,1-.24.17.71.71,0,0,1-.14.1l-.14.11-.29.25a3.74,3.74,0,0,0-.31.27l-.15.15-.15.15-.29.31c-.1.1-.18.21-.27.31s-.17.2-.24.3l-.21.27-.3.43A1.43,1.43,0,0,0,31.05,21.54Z" transform="translate(-1.42 -5.63)"/><path class="cls-12" d="M31.21,21.32l.05-.05.14-.12.1-.06a.41.41,0,0,1,.11-.07l.13-.07.14-.05.14,0,.14,0,.13,0,.11,0h.25l-.06,0-.17.05-.12,0-.12,0-.13.05-.14,0-.13.05-.13.05-.12.06-.1.05-.16.08Z" transform="translate(-1.42 -5.63)"/><path class="cls-12" d="M31.63,20.58s0-.09,0-.23a3.83,3.83,0,0,1,.07-.51,2,2,0,0,1,.06-.26c0-.08.05-.16.08-.23l.07-.15,0-.06a.32.32,0,0,1,0,.07l0,.16c0,.07,0,.15-.05.23s0,.08,0,.13l0,.13c0,.09,0,.18-.05.27s0,.16-.05.23,0,.12,0,.16A.28.28,0,0,0,31.63,20.58Z" transform="translate(-1.42 -5.63)"/></g><g class="cls-6"><path class="cls-7" d="M36.69,20.55l.19-.12.53-.31c.23-.12.49-.26.78-.39l.44-.2.47-.18a4.5,4.5,0,0,1,.48-.16c.16-.05.32-.11.47-.14a4,4,0,0,1,.44-.11l.4-.08.35-.05.26,0,.23,0-.23,0-.26.05-.33.06a3.34,3.34,0,0,0-.4.1l-.44.12-.46.14-.47.17-.47.18-.45.19-.41.18-.37.18-.55.27Z" transform="translate(-1.42 -5.63)"/><path class="cls-7" d="M39.2,19.18l0-.07a.69.69,0,0,1,.12-.18l.09-.11s.07-.08.11-.11l.12-.12.14-.11.14-.11.14-.09.14-.08.13-.07.2-.08.07,0-.07.05-.17.11-.12.08-.13.09-.14.1-.13.1-.13.11-.13.11-.12.1-.1.1a2.09,2.09,0,0,0-.15.15Z" transform="translate(-1.42 -5.63)"/></g><path class="cls-17" d="M34,20.43a5.83,5.83,0,0,0-2.07.95s0,.09,0,.06A8.62,8.62,0,0,1,34,20.53S34,20.42,34,20.43Z" transform="translate(-1.42 -5.63)"/><path class="cls-17" d="M34.79,20.3l-.35,0s-.09.11,0,.11.24,0,.35,0S34.83,20.3,34.79,20.3Z" transform="translate(-1.42 -5.63)"/><path class="cls-17" d="M20.31,23.14a5.64,5.64,0,0,0-2.28.11s-.07.07,0,.06a8.46,8.46,0,0,1,2.25-.09S20.36,23.14,20.31,23.14Z" transform="translate(-1.42 -5.63)"/><path class="cls-17" d="M21.1,23.31l-.33-.11s-.12.07-.08.09l.34.11S21.15,23.33,21.1,23.31Z" transform="translate(-1.42 -5.63)"/><g class="cls-6"><path class="cls-7" d="M13.58,15.38l-.1.18a2.09,2.09,0,0,0-.1.21,2.61,2.61,0,0,0-.12.28,2.52,2.52,0,0,0-.13.33c0,.12-.09.24-.13.38l-.06.2-.06.2-.09.43c0,.15,0,.29-.08.43s0,.29-.05.43l0,.39c0,.13,0,.25,0,.36a3,3,0,0,0,0,.3,1.55,1.55,0,0,0,0,.23v.21l0-.2q0-.1,0-.24a2.81,2.81,0,0,1,0-.3,2.1,2.1,0,0,1,0-.36,2.75,2.75,0,0,1,0-.4c0-.14,0-.28,0-.43s0-.29.07-.44.07-.29.11-.43l.06-.21.06-.2c0-.13.1-.26.14-.38s.1-.23.15-.33l.07-.14.07-.13.11-.2A1.8,1.8,0,0,1,13.58,15.38Z" transform="translate(-1.42 -5.63)"/><path class="cls-7" d="M13.09,16.38a.5.5,0,0,1,0,.11c0,.07,0,.16,0,.28s0,.25,0,.39,0,.15,0,.22a1.85,1.85,0,0,0,0,.23,1.7,1.7,0,0,0,0,.22c0,.07,0,.15.05.22l.06.2.06.17a1.31,1.31,0,0,0,0,.15.58.58,0,0,0,.05.11.39.39,0,0,0,0,.1.37.37,0,0,1-.06-.09,1.14,1.14,0,0,1-.13-.25c0-.05-.05-.11-.08-.17s-.05-.13-.07-.2l-.06-.22c0-.07,0-.15,0-.23a3.47,3.47,0,0,1-.06-.45c0-.14,0-.28,0-.4s0-.21,0-.28A.87.87,0,0,0,13.09,16.38Z" transform="translate(-1.42 -5.63)"/><path class="cls-7" d="M12.69,17.8l0,.06-.1.16-.14.23-.08.13c0,.05-.05.09-.07.14a.83.83,0,0,0-.07.13l0,.07,0,.07c0,.09-.08.17-.1.25l-.07.18,0,.07a.28.28,0,0,0,0-.08s0-.11,0-.19a.56.56,0,0,1,0-.12s0-.09,0-.14l.06-.14a1,1,0,0,0,.07-.15,1,1,0,0,0,.08-.14l.09-.13A1.29,1.29,0,0,1,12.5,18l.13-.14A.14.14,0,0,1,12.69,17.8Z" transform="translate(-1.42 -5.63)"/></g><path class="cls-9" d="M12.25,14.71c-.22.16-.45.28-.52.58-.13.65.76,1-.15,1.58-.5.34-1.67,1.28-1,1.94.1.09,0,0,0-.09-.61-.84,1.19-1.46,1.53-2.06a.86.86,0,0,0,.11-.68,1.37,1.37,0,0,0-.17-.37c-.17-.31.05-.55.24-.79C12.31,14.79,12.33,14.65,12.25,14.71Z" transform="translate(-1.42 -5.63)"/><path class="cls-7" d="M36,12.82a4.19,4.19,0,0,1-.69-.7c-.58-.65-1.62-.73-1.92-.09-.17.44-.71.36-1.4-.14s-1.51-.51-1.87,0,.19.86-.22,1-.66.15-.73.85-.33.77-1.08.71-.95.24-1.11.85a.9.9,0,0,0,.51,1.15c.32.06.48.34.4.83s-.16.83.21,1.15a.73.73,0,0,0,.81.16c.25,0,.39.15.51.46s.39.4.78.18a.65.65,0,0,0,.37-.57,3.7,3.7,0,0,1,2.59-1.58c1-.05,1-.11,1.17-.48a2,2,0,0,1,.78-.66S36.91,14,36,12.82Z" transform="translate(-1.42 -5.63)"/><path class="cls-8" d="M30.16,19.22a.65.65,0,0,0,.37-.57,3.7,3.7,0,0,1,2.59-1.58c1-.05,1-.11,1.17-.48a2,2,0,0,1,.78-.66s1.84-2,.89-3.11a4,4,0,0,1-.61-.61,8.89,8.89,0,0,1-.74.61,5.18,5.18,0,0,1-1.67.77,9.34,9.34,0,0,0-2.22.67,8.58,8.58,0,0,0-1.56,1.45,1.87,1.87,0,0,1-1,.52,1.71,1.71,0,0,1-1.22-.37.73.73,0,0,0,.51.58c.32.06.48.34.4.83s-.16.83.21,1.15a.73.73,0,0,0,.81.16c.25,0,.39.15.51.46S29.77,19.44,30.16,19.22Z" transform="translate(-1.42 -5.63)"/><g class="cls-6"><path class="cls-7" d="M34.66,13.39h-.74l-.35,0-.4.05-.2,0-.21,0-.43.11-.42.12-.4.15-.37.15a2.37,2.37,0,0,0-.32.15l-.27.13-.21.12-.17.09.16-.11.2-.13.26-.15.32-.16.37-.17c.13,0,.26-.11.4-.15a3.06,3.06,0,0,1,.43-.13l.43-.11.21,0,.21,0,.4,0,.36,0h.3l.24,0Z" transform="translate(-1.42 -5.63)"/><path class="cls-7" d="M33.55,13.41l-.09.05-.24.15-.33.22-.18.13-.19.13-.18.15-.17.14-.15.14-.13.13-.11.11-.08.1-.07.08.06-.1a1.08,1.08,0,0,1,.16-.23l.12-.14a1.06,1.06,0,0,1,.15-.15l.16-.16.18-.14a3.69,3.69,0,0,1,.38-.26l.35-.2.26-.11Z" transform="translate(-1.42 -5.63)"/><path class="cls-7" d="M32.1,13.68H32l-.19,0-.27,0H31l-.27,0-.19,0h-.08l.07,0,.19-.06.13,0,.14,0a.38.38,0,0,1,.15,0h.32l.16,0,.27.05.18.06Z" transform="translate(-1.42 -5.63)"/></g><path class="cls-9" d="M34.67,11.9a1,1,0,0,0-.76-.2c-.64.18-.52,1.11-1.48.57-.53-.29-1.89-.91-2.17,0,0,.13,0,0,.07-.08.48-.92,1.83.41,2.52.44a.87.87,0,0,0,.66-.2,1.35,1.35,0,0,0,.26-.32c.2-.29.51-.21.81-.14C34.62,12,34.75,12,34.67,11.9Z" transform="translate(-1.42 -5.63)"/><path class="cls-7" d="M24,15.38a5,5,0,0,1-.69-.71c-.58-.64-1.62-.73-1.92-.08-.17.43-.71.35-1.41-.15s-1.51-.51-1.87,0,.2.86-.21,1-.66.14-.73.84-.33.78-1.08.71-.95.24-1.11.85a.9.9,0,0,0,.5,1.15c.33.06.49.35.4.83s-.15.84.21,1.15a.71.71,0,0,0,.82.16c.25-.05.39.16.51.47s.39.39.78.18a.66.66,0,0,0,.37-.58,3.7,3.7,0,0,1,2.59-1.58c1,0,1-.11,1.17-.48a2.14,2.14,0,0,1,.77-.66S25,16.5,24,15.38Z" transform="translate(-1.42 -5.63)"/><path class="cls-8" d="M18.2,21.78a.66.66,0,0,0,.37-.58,3.7,3.7,0,0,1,2.59-1.58c1,0,1-.11,1.17-.48a2.14,2.14,0,0,1,.77-.66s1.85-2,.9-3.1a4,4,0,0,1-.61-.62,7,7,0,0,1-.74.61,5.21,5.21,0,0,1-1.67.78,10,10,0,0,0-2.23.66,9.38,9.38,0,0,0-1.56,1.46,1.82,1.82,0,0,1-1,.51A1.65,1.65,0,0,1,15,18.42a.72.72,0,0,0,.5.57c.33.06.49.35.4.83s-.15.84.21,1.15a.71.71,0,0,0,.82.16c.25-.05.39.16.51.47S17.81,22,18.2,21.78Z" transform="translate(-1.42 -5.63)"/><g class="cls-6"><path class="cls-7" d="M22.7,16h-.44L22,16l-.35,0-.4.06-.21,0-.21.05-.42.1-.42.13-.4.14-.37.15-.32.15c-.1.06-.2.09-.27.14l-.21.11-.18.1.17-.11.2-.13.26-.15a2.4,2.4,0,0,1,.32-.17l.37-.17.4-.15.42-.13.44-.1L21,16l.21,0a2.91,2.91,0,0,1,.4-.05l.36,0h.54Z" transform="translate(-1.42 -5.63)"/><path class="cls-7" d="M21.59,16l-.1.06-.23.15-.33.21-.19.13-.18.14-.18.14-.17.14-.15.14-.13.13-.11.12-.08.09-.07.08,0-.09a1.87,1.87,0,0,1,.17-.23A1.31,1.31,0,0,1,20,17a1.06,1.06,0,0,1,.15-.15l.16-.15.18-.15.38-.26.35-.19.26-.12Z" transform="translate(-1.42 -5.63)"/><path class="cls-7" d="M20.14,16.23h-.07l-.19,0-.27,0h-.15a.85.85,0,0,0-.16,0h-.57l-.19,0h-.08l.07,0,.19-.06.12,0,.15,0h.47l.16,0,.27,0,.18.06Z" transform="translate(-1.42 -5.63)"/></g><path class="cls-9" d="M22.71,14.46c-.25-.12-.46-.28-.76-.2-.64.17-.52,1.1-1.48.57-.53-.3-1.89-.91-2.17,0,0,.13,0,0,.06-.07.49-.92,1.84.41,2.53.44a.84.84,0,0,0,.66-.21,1.3,1.3,0,0,0,.26-.31c.19-.29.51-.21.81-.14C22.66,14.55,22.79,14.5,22.71,14.46Z" transform="translate(-1.42 -5.63)"/><path class="cls-18" d="M33.08,17.66c-.28.15-.42.36-.74.37s-.45-.22-.6-.23a.87.87,0,0,0-.67.25c-.57.51-.14,1.59-.47,2.22,0,.08,0,.11.06,0a2,2,0,0,0,.26-.62c.11-.52-.1-1.33.58-1.6.2-.08.58.13.82.13s.47-.25.68-.41S33.23,17.59,33.08,17.66Z" transform="translate(-1.42 -5.63)"/><path class="cls-18" d="M25.74,14.94a1.06,1.06,0,0,0-.95.34c-.17.16-.31.35-.48.5a3.17,3.17,0,0,1-1,.51,3.21,3.21,0,0,0-1.7,1.94c-.06.15-.1.31,0,.19a8.86,8.86,0,0,1,.79-1.23,3,3,0,0,1,1.3-.8,2.33,2.33,0,0,0,.77-.5c.41-.39.61-.72,1.22-.79C25.73,15.09,25.81,15,25.74,14.94Z" transform="translate(-1.42 -5.63)"/><path class="cls-19" d="M31.84,14.65a.19.19,0,0,0-.12.07.25.25,0,0,0-.06.15s0,.09.06.1.18-.15.18-.24S31.88,14.65,31.84,14.65Z" transform="translate(-1.42 -5.63)"/><path class="cls-19" d="M33.7,15.23c-.1,0-.2.25-.09.25S33.81,15.23,33.7,15.23Z" transform="translate(-1.42 -5.63)"/><path class="cls-19" d="M29.75,14c-.13,0-.26.32-.12.32S29.89,14,29.75,14Z" transform="translate(-1.42 -5.63)"/><path class="cls-19" d="M31.47,15.84h0v0s-.08,0-.11,0a.3.3,0,0,0-.07.15.34.34,0,0,0,0,.1,0,0,0,0,0,.08,0l0,0a.25.25,0,0,0,.08-.15h0S31.5,15.85,31.47,15.84Z" transform="translate(-1.42 -5.63)"/><path class="cls-19" d="M32.9,12.25h-.07c-.06,0-.1,0-.13.09s0,.26.1.24.12-.09.14-.15S33,12.28,32.9,12.25Z" transform="translate(-1.42 -5.63)"/><path class="cls-19" d="M31.09,10.09c0-.09-.12-.07-.16,0a.14.14,0,0,0-.05.18c0,.08.13,0,.16-.05v0A.18.18,0,0,0,31.09,10.09Z" transform="translate(-1.42 -5.63)"/><path class="cls-19" d="M38.18,12.82h0c-.06,0-.12.08-.13.12s0,.14.08.14.13-.11.13-.18S38.21,12.83,38.18,12.82Z" transform="translate(-1.42 -5.63)"/><path class="cls-19" d="M28.41,12.61c-.05,0-.1.13-.05.13S28.46,12.61,28.41,12.61Z" transform="translate(-1.42 -5.63)"/><path class="cls-19" d="M26.08,11.1l0,0s0,.09,0,.07.05,0,.06,0a.13.13,0,0,0,0-.06S26.09,11.09,26.08,11.1Z" transform="translate(-1.42 -5.63)"/><path class="cls-19" d="M24.72,12.13c-.06,0-.11.13,0,.13S24.78,12.13,24.72,12.13Z" transform="translate(-1.42 -5.63)"/><path class="cls-19" d="M28.62,14.61s-.09.1,0,.1S28.67,14.61,28.62,14.61Z" transform="translate(-1.42 -5.63)"/><path class="cls-19" d="M31.79,7.68s-.08.1,0,.1S31.84,7.68,31.79,7.68Z" transform="translate(-1.42 -5.63)"/><path class="cls-19" d="M22.82,9.6s0,0,0,0l0,0a.09.09,0,0,0-.11,0,.08.08,0,0,0,0,.1c0,.09.13,0,.17,0A.06.06,0,0,0,22.82,9.6Z" transform="translate(-1.42 -5.63)"/><path class="cls-19" d="M19.1,10.22s-.06,0-.08,0h0l0,0s-.07.14,0,.18h0a.07.07,0,0,0,.05,0,.13.13,0,0,0,.11-.09h0v0A.12.12,0,0,0,19.1,10.22Z" transform="translate(-1.42 -5.63)"/><path class="cls-19" d="M17.89,11.39h0a.14.14,0,0,0,0-.06v0c0-.05,0-.07-.07-.06s-.08,0-.09.09a.14.14,0,0,0,0,.09c0,.06.11,0,.14,0Z" transform="translate(-1.42 -5.63)"/><path class="cls-19" d="M15.83,14.5h0a.06.06,0,0,0-.07-.07.1.1,0,0,0-.13.06.15.15,0,0,0,0,.13s0,0,0,0,0,0,0,0h0C15.77,14.74,15.85,14.58,15.83,14.5Z" transform="translate(-1.42 -5.63)"/><path class="cls-19" d="M14.52,16.2a.11.11,0,0,0-.14,0,.2.2,0,0,0-.08.12c0,.12.12.15.2.11a.16.16,0,0,0,.08-.15A.11.11,0,0,0,14.52,16.2Z" transform="translate(-1.42 -5.63)"/><path class="cls-19" d="M20.3,16.9s-.06-.09-.12-.06a.1.1,0,0,0,0,.05.11.11,0,0,0,0,.09c0,.05,0,.12.09.12s.09-.05.11-.1a0,0,0,0,1,0,0A.11.11,0,0,0,20.3,16.9Z" transform="translate(-1.42 -5.63)"/><path class="cls-19" d="M18.85,18.33h-.06a.07.07,0,0,0-.06.06s0,.06,0,.08h0a.07.07,0,0,0,.06,0C18.86,18.47,18.9,18.37,18.85,18.33Z" transform="translate(-1.42 -5.63)"/><path class="cls-19" d="M13.12,19.75h0s-.08.08-.06.13.06.07.1.05a.05.05,0,0,0,0,0l0,0C13.26,19.81,13.21,19.71,13.12,19.75Z" transform="translate(-1.42 -5.63)"/><path class="cls-19" d="M13,21.52a.08.08,0,0,0-.1-.07.12.12,0,0,0-.09.13.07.07,0,0,0,.1.05h0A.11.11,0,0,0,13,21.52Z" transform="translate(-1.42 -5.63)"/><path class="cls-19" d="M12.34,21.14s-.06,0-.06.06v0a.06.06,0,0,0,0,.06s0,0,.06,0,0,0,0,0v0C12.42,21.2,12.39,21.17,12.34,21.14Z" transform="translate(-1.42 -5.63)"/><path class="cls-19" d="M15.61,19.23s-.09.1,0,.1S15.65,19.23,15.61,19.23Z" transform="translate(-1.42 -5.63)"/><path class="cls-19" d="M17,19.53l0,0h0s0,0-.06,0a.18.18,0,0,0-.06.09.07.07,0,0,0,.05.09.12.12,0,0,0,.11-.1v0S17,19.54,17,19.53Z" transform="translate(-1.42 -5.63)"/><path class="cls-19" d="M14.45,22.12s0,0,0,0h0c-.07,0-.14.06-.13.12s0,0,0,0,0,.08.08.05S14.48,22.17,14.45,22.12Z" transform="translate(-1.42 -5.63)"/><path class="cls-19" d="M18.1,22h0a.08.08,0,0,0-.07,0,.11.11,0,0,0,0,.12s.05,0,.09,0S18.21,22,18.1,22Z" transform="translate(-1.42 -5.63)"/><path class="cls-19" d="M22.27,22.61c-.05-.07-.13,0-.13.09h0s0,.05,0,.05a.13.13,0,0,0,.1,0S22.3,22.64,22.27,22.61Z" transform="translate(-1.42 -5.63)"/><path class="cls-19" d="M24.39,21.41s0,0,0,0a.05.05,0,0,0-.08,0,.13.13,0,0,0-.06.11.07.07,0,0,0,0,.05c.05.07.13,0,.14-.07Z" transform="translate(-1.42 -5.63)"/><path class="cls-19" d="M26,20.58c-.13,0-.15.26,0,.24h0C26.06,20.76,26.07,20.58,26,20.58Z" transform="translate(-1.42 -5.63)"/><path class="cls-19" d="M25.65,16.33l0,0a0,0,0,0,0,0,0,.15.15,0,0,0-.21.08.16.16,0,0,0,0,.15.15.15,0,0,0,.12.05.16.16,0,0,0,.1-.17A.07.07,0,0,0,25.65,16.33Z" transform="translate(-1.42 -5.63)"/><path class="cls-19" d="M22.92,17.13h0s0,0,0,0a.09.09,0,0,0-.1.09c0,.05.05.05.09,0S23,17.15,22.92,17.13Z" transform="translate(-1.42 -5.63)"/><path class="cls-19" d="M26.55,24s-.05,0-.07,0a.18.18,0,0,0-.08.19.11.11,0,0,0,.11.08.21.21,0,0,0,.13-.1A.13.13,0,0,0,26.55,24Z" transform="translate(-1.42 -5.63)"/><path class="cls-19" d="M26.29,25h0s-.06,0-.09,0h0a.22.22,0,0,0-.05.08h0c0,.08,0,.14.12.09S26.36,25,26.29,25Z" transform="translate(-1.42 -5.63)"/><path class="cls-19" d="M24.93,24.58h0s-.07.09,0,.09h0S25,24.58,24.93,24.58Z" transform="translate(-1.42 -5.63)"/><path class="cls-19" d="M29.94,22.61s0,0,0,0h0a.08.08,0,0,0-.08,0h0a.16.16,0,0,0,0,.07h0v0h0a.07.07,0,0,0,0,.05c.06.12.2,0,.19-.1A.05.05,0,0,0,29.94,22.61Z" transform="translate(-1.42 -5.63)"/><path class="cls-19" d="M33.08,19.69a.11.11,0,0,0-.15,0h0a.13.13,0,0,0-.07.06.11.11,0,0,0,0,.06.17.17,0,0,0,0,.07c0,.05,0,.07.06.07a.12.12,0,0,0,.14,0A.19.19,0,0,0,33.08,19.69Z" transform="translate(-1.42 -5.63)"/><path class="cls-19" d="M35,18.81h0s0,0-.05.05,0,.09,0,.09a.1.1,0,0,0,.08-.08A.05.05,0,0,0,35,18.81Z" transform="translate(-1.42 -5.63)"/><path class="cls-19" d="M38.62,21.5a.11.11,0,0,0-.08-.07s-.07,0-.09.06a.14.14,0,0,0-.05.1.08.08,0,0,0,.07.09s.09,0,.12-.06A.17.17,0,0,0,38.62,21.5Z" transform="translate(-1.42 -5.63)"/><path class="cls-19" d="M38.64,24.09a.06.06,0,0,0-.08,0l0,0s0,0-.05,0-.06.17.05.16A.15.15,0,0,0,38.64,24.09Z" transform="translate(-1.42 -5.63)"/><path class="cls-19" d="M40.1,20.11s0,0,0,0l-.06,0a.14.14,0,0,0,0,.21c.08.05.16-.06.17-.12A.12.12,0,0,0,40.1,20.11Z" transform="translate(-1.42 -5.63)"/><path class="cls-19" d="M41.86,19.11h-.08a.24.24,0,0,0-.15.26c0,.06.09.09.15.08a.2.2,0,0,0,.18-.16A.15.15,0,0,0,41.86,19.11Z" transform="translate(-1.42 -5.63)"/><path class="cls-19" d="M40.36,15.43a.08.08,0,0,0-.1,0h0a.15.15,0,0,0-.08.12.15.15,0,0,0,0,.16.1.1,0,0,0,.1,0,.18.18,0,0,0,.09-.14A.15.15,0,0,0,40.36,15.43Z" transform="translate(-1.42 -5.63)"/><path class="cls-19" d="M41.79,15.37a.06.06,0,0,0-.1,0c-.07,0-.11.11-.08.17a0,0,0,0,0,0,0s.07,0,.09,0a.17.17,0,0,0,.06-.1S41.8,15.39,41.79,15.37Z" transform="translate(-1.42 -5.63)"/><path class="cls-19" d="M35.76,16.49a.07.07,0,0,0-.06,0s-.05,0-.06.06,0,.1,0,.11.12,0,.13-.09A.08.08,0,0,0,35.76,16.49Z" transform="translate(-1.42 -5.63)"/><path class="cls-20" d="M22.27,15.85l.05-.1v0a.36.36,0,0,0,0-.09v0l0-.12h0a2.07,2.07,0,0,0,.06-.6,2.23,2.23,0,0,0-.18-.74c-.25-.53-.64-.51-.64-.51A1.65,1.65,0,0,0,20.7,13a3.47,3.47,0,0,0-.46-.13,2.09,2.09,0,0,0-1,0,2.13,2.13,0,0,0-.39-.2,1.52,1.52,0,0,0-.72-.14,2.38,2.38,0,0,0-1.07.28.84.84,0,0,0-.41-.08h-.22a6.64,6.64,0,0,0-1.47.35h0a4.93,4.93,0,0,0-.7.38.28.28,0,0,0-.27.05h-.41a1,1,0,0,0-.69.51c-.3.5.08.76.07,1.26,0,.23-.13.27-.33.56A.69.69,0,0,0,13,17c.36.11.41.29.53.5a.76.76,0,0,0,1,.28.87.87,0,0,0,.56-.75h0s.26.19,1-.1.67-.42.67-.42a2.72,2.72,0,0,0,1.37-.28,1.27,1.27,0,0,0,.8,0,.17.17,0,0,0,0,.09,2.8,2.8,0,0,0-.75,1.26h0a1.45,1.45,0,0,0,0,.55L18,18.1h0l-.18,0h0a7.68,7.68,0,0,0-3,1.81,1.46,1.46,0,0,0,.17.26h0l.06.07h0s0,0,0,0h0l.05,0h0a4.3,4.3,0,0,1,.72-.68l-.63.7a.28.28,0,0,0,.12.08h.09l.25-.13s-.05.09,0,.12h.11a2.64,2.64,0,0,0,1.11-.55c-.17.38-.15.6-.1.66h0l0,0A17.72,17.72,0,0,1,18.2,19c.5-.52.49-.62.49-.62,2.34-.37,3-1.29,3.13-1.5a.81.81,0,0,0,0-.44l.11-.1,0,0,.06-.07,0,0,.06-.07,0,0L22.2,16h0a.75.75,0,0,0,.07-.12Z" transform="translate(-1.42 -5.63)"/><path class="cls-21" d="M21.61,16.05c-.27-.64-.92-.65-1.6-.68a2,2,0,0,0-1.26.49,2.21,2.21,0,0,0-.79,1.8.54.54,0,0,1,.31.07c.16.08.23.22.21.27,2.34-.38,3.05-1.29,3.13-1.51A.81.81,0,0,0,21.61,16.05Z" transform="translate(-1.42 -5.63)"/><path class="cls-22" d="M21.61,16.05c-.27-.64-.92-.65-1.6-.68a1.23,1.23,0,0,0-.39,0h0a2.25,2.25,0,0,0-.58.24h0a2.09,2.09,0,0,0-.29.21,2.21,2.21,0,0,0-.79,1.8.54.54,0,0,1,.31.07c.16.08.23.22.21.27,2.34-.38,3.05-1.29,3.13-1.51A.81.81,0,0,0,21.61,16.05ZM19.53,17.2a6.74,6.74,0,0,1-.71.28,1.85,1.85,0,0,0,.36-.62,2.87,2.87,0,0,1-.66.69h-.11a2.29,2.29,0,0,1,.24-.73,2,2,0,0,0-.34.73l-.08,0a1.59,1.59,0,0,1,.13-.82,1.27,1.27,0,0,0-.28.54.48.48,0,0,1,0-.12A1.85,1.85,0,0,1,18.69,16l.21-.17a1.74,1.74,0,0,0-.31.51,2.75,2.75,0,0,1,.74-.72,1.67,1.67,0,0,1,.32-.08,1.62,1.62,0,0,0-.44.51,2,2,0,0,1,.78-.54,2.41,2.41,0,0,1,.4,0,4.48,4.48,0,0,1-1,.83,3.77,3.77,0,0,0,1.22-.75l.1.06C21.07,15.91,20.83,16.61,19.53,17.2Z" transform="translate(-1.42 -5.63)"/><path class="cls-22" d="M21.61,16.05c-.27-.64-.92-.65-1.6-.68a1.85,1.85,0,0,0-.93.26h0a2.24,2.24,0,0,1,1.12-.21c.69,0,1.69.53.32,1.55s-2.61,1-2.52.15a1.4,1.4,0,0,0,0,.54.54.54,0,0,1,.31.07c.16.08.23.22.21.27,2.34-.38,3.05-1.29,3.13-1.51A.81.81,0,0,0,21.61,16.05Z" transform="translate(-1.42 -5.63)"/><path class="cls-23" d="M18.56,17.48l-.07,0a5.34,5.34,0,0,1,.45-1.19,2.79,2.79,0,0,0-.68,1.18,2.53,2.53,0,0,1,1.06-1.79,4,4,0,0,0-.4.92s.56-.84,1-1l.14,0h0a5.53,5.53,0,0,0-.94.92,5.54,5.54,0,0,0,1.16-.61,6.21,6.21,0,0,1-1.27,1.35,1.36,1.36,0,0,0,.35-.75A2.34,2.34,0,0,0,18.56,17.48Z" transform="translate(-1.42 -5.63)"/><path class="cls-21" d="M18.27,17.73a.54.54,0,0,0-.31-.07,7.54,7.54,0,0,0-3.34,1.92A1.2,1.2,0,0,0,15,20a4.5,4.5,0,0,1,.72-.69l-.63.71s.12.12.21.08l.26-.13s-.11.18.1.12a2.64,2.64,0,0,0,1.11-.55c-.23.49-.12.73-.05.65A19.07,19.07,0,0,1,18,18.61c.5-.51.49-.61.49-.61S18.43,17.81,18.27,17.73Z" transform="translate(-1.42 -5.63)"/><path class="cls-24" d="M15.14,20.09h0a.13.13,0,0,0,.12,0l.26-.13a4.25,4.25,0,0,0,1-.95A16.6,16.6,0,0,1,15.14,20.09Z" transform="translate(-1.42 -5.63)"/><path class="cls-24" d="M18.27,17.73a.54.54,0,0,0-.31-.07l-.37.11c.47,0,.52.4.16.84a15.46,15.46,0,0,0-1.13,1.56s0,0,.06,0A19.07,19.07,0,0,1,18,18.61c.5-.51.49-.61.49-.61S18.43,17.81,18.27,17.73Z" transform="translate(-1.42 -5.63)"/><path class="cls-24" d="M14.79,19.83A.72.72,0,0,0,15,20a4.5,4.5,0,0,1,.72-.69l1-.77A14.53,14.53,0,0,0,14.79,19.83Z" transform="translate(-1.42 -5.63)"/><path class="cls-24" d="M17.2,18.91a4.38,4.38,0,0,1-1.7,1.17s0,0,.12,0a2.64,2.64,0,0,0,1.11-.55A1.74,1.74,0,0,0,17.2,18.91Z" transform="translate(-1.42 -5.63)"/><path class="cls-23" d="M17,18.29a7.26,7.26,0,0,0-2.29,1.45.72.72,0,0,1-.1-.17,9.07,9.07,0,0,1,2.63-1.64c.51-.18.43.88-1.61,2A4.72,4.72,0,0,0,17,18.69s-.8.62-1.59,1.17A9.94,9.94,0,0,1,17,18.29Z" transform="translate(-1.42 -5.63)"/><path class="cls-25" d="M14.71,16.42c-.12,0-.32-.2-.54-.65a5.19,5.19,0,0,1-.32-1.17c-.18-.36-.41-.65-.38-1a.78.78,0,0,1,.27-.51h-.05a1.08,1.08,0,0,0-1,.53c-.3.51.08.77.07,1.26,0,.24-.13.27-.33.57a.69.69,0,0,0,.44,1.1c.35.1.4.28.53.5a.74.74,0,0,0,1,.28.86.86,0,0,0,.56-.77S14.84,16.47,14.71,16.42Z" transform="translate(-1.42 -5.63)"/><path class="cls-26" d="M14.74,12.68h0a3.94,3.94,0,0,0-.7.38c-.19-.05-.22,0-.27,0a.78.78,0,0,0-.27.51c0,.32.2.61.38,1A2.06,2.06,0,0,1,14.74,12.68Z" transform="translate(-1.42 -5.63)"/><path class="cls-26" d="M15.1,16.12c-.39.05-.68-.38-.8-.49s-.12,0-.17,0l0,.09c.22.45.42.61.54.65s.17.13.16.17.26.19,1-.1c.6-.23.67-.41.67-.41a.89.89,0,0,1-.62-.45C15.66,15.71,15.6,16.05,15.1,16.12Z" transform="translate(-1.42 -5.63)"/><path class="cls-26" d="M14.11,15.12c0-.31.23-.42.34-.53s.32-.13.22-.34a.69.69,0,0,1,.44-.82c.42-.16.32-.57.85-.91a1.26,1.26,0,0,1,.47-.2h-.22a6.12,6.12,0,0,0-1.47.35,2.06,2.06,0,0,0-.89,1.92,5.67,5.67,0,0,0,.22.92C14.14,15.47,14.15,15.36,14.11,15.12Z" transform="translate(-1.42 -5.63)"/><path class="cls-27" d="M16,12.52c-.53.34-.43.75-.85.91a.69.69,0,0,0-.44.82c.1.21-.11.24-.22.34s-.39.22-.34.53,0,.35,0,.4l.06.16s.09-.11.17,0,.41.54.8.49.56-.41.83-.49a2.31,2.31,0,0,1-.09-1.79,2.93,2.93,0,0,1,1-1.45.94.94,0,0,0-.41-.07A1.26,1.26,0,0,0,16,12.52Z" transform="translate(-1.42 -5.63)"/><path class="cls-26" d="M16.13,13.9c.44-.35.68-.08.83-.64a1.61,1.61,0,0,1,1.67-1,1.65,1.65,0,0,0-.72-.13,2.48,2.48,0,0,0-1.07.27,2.93,2.93,0,0,0-1,1.45,2.27,2.27,0,0,0-.12.62A1.65,1.65,0,0,1,16.13,13.9Z" transform="translate(-1.42 -5.63)"/><path class="cls-26" d="M16.37,15.59a.92.92,0,0,1-.61-.41,1,1,0,0,0,.79.9,2.86,2.86,0,0,0,1.37-.28,1.15,1.15,0,0,1-.57-.62C17.08,15.34,16.8,15.66,16.37,15.59Z" transform="translate(-1.42 -5.63)"/><path class="cls-27" d="M18.63,12.25a1.61,1.61,0,0,0-1.67,1c-.15.56-.39.29-.83.64a1.65,1.65,0,0,0-.41.56,2.43,2.43,0,0,0,0,.72.92.92,0,0,0,.61.41c.43.07.71-.25,1-.41a1.9,1.9,0,0,1,0-1.29c.29-1.08,1.69-1.43,1.69-1.43A2.56,2.56,0,0,0,18.63,12.25Z" transform="translate(-1.42 -5.63)"/><path class="cls-26" d="M18,15.52c-.33,0-.49-.51-.64-.35a1.12,1.12,0,0,0,.58.63,1.23,1.23,0,0,0,.8,0,.51.51,0,0,0-.09-.2.64.64,0,0,1,0-.38C18.44,15.31,18.27,15.53,18,15.52Z" transform="translate(-1.42 -5.63)"/><path class="cls-26" d="M18,13.33a.57.57,0,0,1,.83-.28.69.69,0,0,0,.8-.27.52.52,0,0,1,.64-.14.23.23,0,0,0,.22,0L20,12.48a2,2,0,0,0-1,0s-1.38.35-1.68,1.4C17.58,13.53,17.87,13.59,18,13.33Z" transform="translate(-1.42 -5.63)"/><path class="cls-27" d="M20.49,12.61a.23.23,0,0,1-.22,0,.52.52,0,0,0-.64.14.69.69,0,0,1-.8.27.57.57,0,0,0-.83.28c-.13.26-.42.2-.66.53v0a2,2,0,0,0,0,1.28c.15-.16.31.34.64.35s.46-.21.61-.34a2,2,0,0,1,.81-1.25,3.28,3.28,0,0,1,2-.68A1.66,1.66,0,0,0,20.49,12.61Z" transform="translate(-1.42 -5.63)"/><path class="cls-26" d="M18.7,15.36h-.12a.56.56,0,0,0,.05.19.51.51,0,0,1,.09.2.26.26,0,0,0,0,.1,1.18,1.18,0,0,1,.2-.15C18.77,15.49,19,15.31,18.7,15.36Z" transform="translate(-1.42 -5.63)"/><path class="cls-26" d="M22.08,13.76c-.24-.53-.64-.51-.64-.51a3.28,3.28,0,0,0-2,.68l-.26.23a.49.49,0,0,1,.5.06,1.14,1.14,0,0,0,1.34-.1.76.76,0,0,1,1.28.38A2.36,2.36,0,0,0,22.08,13.76Z" transform="translate(-1.42 -5.63)"/><path class="cls-27" d="M21,14.12a1.14,1.14,0,0,1-1.34.1.49.49,0,0,0-.5-.06,1.68,1.68,0,0,0-.56,1.21h.12c.28,0,.07.13.25.35A1.83,1.83,0,0,1,20,15.37c.68,0,1.33,0,1.6.68a1.86,1.86,0,0,0,.65-1.55A.76.76,0,0,0,21,14.12Z" transform="translate(-1.42 -5.63)"/><path class="cls-28" d="M13,14.3l0,0-.07.13a.85.85,0,0,0-.06.19.49.49,0,0,0,0,.12v.11a.24.24,0,0,0,0,.1l.06.1a.93.93,0,0,1,.11.19s0,.06,0,.08v.07a.13.13,0,0,1,0-.06l0-.08a1.36,1.36,0,0,0-.12-.17L12.79,15a.5.5,0,0,1,0-.13v-.06a.15.15,0,0,1,0-.07.5.5,0,0,1,0-.12.75.75,0,0,1,.09-.2A1.31,1.31,0,0,1,13,14.3Z" transform="translate(-1.42 -5.63)"/><path class="cls-28" d="M13.11,15.79v0a.43.43,0,0,1,0,0,.62.62,0,0,1,0,.18c0,.07,0,.16-.06.25a.57.57,0,0,0,0,.13.28.28,0,0,0,0,.13.11.11,0,0,0,0,.06.1.1,0,0,0,0,.05.41.41,0,0,0,.11.07l.12.07.1.07,0,0,0,0a.43.43,0,0,0,0,.07l0,.06a.25.25,0,0,1,0-.06s0,0-.05-.05a.27.27,0,0,0-.08-.07l-.09-.06-.12-.05a.57.57,0,0,1-.13-.08L13,16.65a.25.25,0,0,0,0-.07.9.9,0,0,1,0-.16.77.77,0,0,1,0-.15l.08-.24a1,1,0,0,0,0-.17v-.07Z" transform="translate(-1.42 -5.63)"/><path class="cls-29" d="M16.84,12.39a.94.94,0,0,0-.41-.07h-.22a6.12,6.12,0,0,0-1.47.35,2.06,2.06,0,0,0-.89,1.92,5.67,5.67,0,0,0,.22.92l.06.16,0,.09c.22.45.42.61.54.65s.17.13.16.17.26.19,1-.1c.6-.23.67-.41.67-.41a.89.89,0,0,1-.62-.45,2.31,2.31,0,0,1-.09-1.79A2.93,2.93,0,0,1,16.84,12.39ZM15.3,14.56c-.07.74-1.35,1.12-1.37-.36a1.62,1.62,0,0,1,1.2-1.62c.49-.13.75.1.64.45A5.92,5.92,0,0,0,15.3,14.56Z" transform="translate(-1.42 -5.63)"/><path class="cls-29" d="M19,12.46a2.56,2.56,0,0,0-.39-.21,1.65,1.65,0,0,0-.72-.13,2.48,2.48,0,0,0-1.07.27,2.93,2.93,0,0,0-1,1.45,2.27,2.27,0,0,0-.12.62,2.43,2.43,0,0,0,0,.72,1,1,0,0,0,.79.9,2.86,2.86,0,0,0,1.37-.28,1.15,1.15,0,0,1-.57-.62,1.9,1.9,0,0,1,0-1.29C17.62,12.81,19,12.46,19,12.46ZM17,14c-.29.64-1.3,1.12-1.08,0a2.35,2.35,0,0,1,1.44-1.68c.37-.09.81,0,.55.37A7.8,7.8,0,0,0,17,14Z" transform="translate(-1.42 -5.63)"/><path class="cls-29" d="M20.49,12.61,20,12.48a2,2,0,0,0-1,0s-1.38.35-1.68,1.4v0a2,2,0,0,0,0,1.28,1.12,1.12,0,0,0,.58.63,1.23,1.23,0,0,0,.8,0,.51.51,0,0,0-.09-.2.64.64,0,0,1,0-.38,2,2,0,0,1,.81-1.25,3.28,3.28,0,0,1,2-.68A1.66,1.66,0,0,0,20.49,12.61Zm0,.49a3.29,3.29,0,0,0-1.7,1c-.52.68-1.67.52-1.17-.6a2.2,2.2,0,0,1,2.22-1C20.43,12.6,20.87,12.89,20.46,13.1Z" transform="translate(-1.42 -5.63)"/><path class="cls-29" d="M22.08,13.76c-.24-.53-.64-.51-.64-.51a3.28,3.28,0,0,0-2,.68l-.26.23a1.68,1.68,0,0,0-.56,1.21.56.56,0,0,0,.05.19.51.51,0,0,1,.09.2.26.26,0,0,0,0,.1,1.18,1.18,0,0,1,.2-.15A1.83,1.83,0,0,1,20,15.37c.68,0,1.33,0,1.6.68a1.86,1.86,0,0,0,.65-1.55A2.36,2.36,0,0,0,22.08,13.76Zm-.4.69a2.82,2.82,0,0,1-1.44.23c-.53,0-.91-.3-.58-.72a2.13,2.13,0,0,1,1.95-.64A.6.6,0,0,1,21.68,14.45Z" transform="translate(-1.42 -5.63)"/><path class="cls-22" d="M15.93,15.63a2,2,0,0,1-.22-1h0c0,.6-.2,1.07-.89,1.19s-.8-.45-.92-.9c0,.18.1.41.17.63l.06.16,0,.09c.22.45.42.61.54.65s.17.13.16.17.26.19,1-.1c.6-.23.67-.41.67-.41A.89.89,0,0,1,15.93,15.63Z" transform="translate(-1.42 -5.63)"/><path class="cls-22" d="M18.71,12.56a2.21,2.21,0,0,0-1.58,1.51c-.23.92-.21,1.3-.66,1.42a.59.59,0,0,1-.74-.49l0,.18a1,1,0,0,0,.79.9,2.86,2.86,0,0,0,1.37-.28,1.15,1.15,0,0,1-.57-.62,1.9,1.9,0,0,1,0-1.29A2.24,2.24,0,0,1,18.71,12.56Z" transform="translate(-1.42 -5.63)"/><path class="cls-22" d="M18.54,14.84a.56.56,0,0,1-1.08.1A1.44,1.44,0,0,1,17.3,14a2,2,0,0,0,0,1.18,1.12,1.12,0,0,0,.58.63,1.23,1.23,0,0,0,.8,0,.51.51,0,0,0-.09-.2.64.64,0,0,1,0-.38,2,2,0,0,1,.81-1.25,3,3,0,0,1,.83-.46A2.37,2.37,0,0,0,18.54,14.84Z" transform="translate(-1.42 -5.63)"/><path class="cls-22" d="M20.93,15.3c-.82-.2-1.56.06-1.83-.34a.71.71,0,0,1,.08-.83l0,0a1.68,1.68,0,0,0-.56,1.21.56.56,0,0,0,.05.19.51.51,0,0,1,.09.2.26.26,0,0,0,0,.1,1.18,1.18,0,0,1,.2-.15A1.83,1.83,0,0,1,20,15.37c.68,0,1.33,0,1.6.68a1.86,1.86,0,0,0,.59-.94C22,15.41,21.74,15.5,20.93,15.3Z" transform="translate(-1.42 -5.63)"/><path class="cls-30" d="M14.71,16.42c-.12,0-.32-.2-.54-.65a5.19,5.19,0,0,1-.32-1.17c-.18-.36-.41-.65-.38-1a.78.78,0,0,1,.27-.51h-.05a1.08,1.08,0,0,0-1,.53c-.3.51.08.77.07,1.26,0,.24-.13.27-.33.57a.69.69,0,0,0,.44,1.1c.35.1.4.28.53.5a.74.74,0,0,0,1,.28.86.86,0,0,0,.56-.77S14.84,16.47,14.71,16.42ZM13,13.35c.42-.26-.12.12-.08.41s.22.21.35.27-.18.24-.06.73.27.56.2.59-.45-.17-.55-.47.17-.66.17-.66c-.24.24-.39.14-.44,0A.74.74,0,0,1,13,13.35Zm-.29,2.91c-.22.17-.52-.17-.41-.52.19-.6.75-.55.57-.31C12.55,15.87,12.92,16.09,12.71,16.26Zm1.9.7a.54.54,0,0,1-.66.36c-.41-.19-.21-.48-.54-.58a.4.4,0,0,1-.29-.58c.1-.26.28-.37.23-.2a.36.36,0,0,0,.31.46c.43,0,.16.47.42.53S14.65,16.72,14.61,17Z" transform="translate(-1.42 -5.63)"/><path class="cls-31" d="M12.45,16.21a.54.54,0,0,1-.06-.6c.09-.19.32-.32.23-.15a.59.59,0,0,0,0,.59C12.71,16.26,12.58,16.31,12.45,16.21Z" transform="translate(-1.42 -5.63)"/><path class="cls-31" d="M13.24,16.06c0-.18-.36.54.19.61.2,0,.22.14.27.32a.38.38,0,0,0,.65.18c.08-.06-.5.22-.54-.29,0-.22-.06-.32-.27-.31S13.21,16.29,13.24,16.06Z" transform="translate(-1.42 -5.63)"/><path class="cls-31" d="M12.6,13.86c-.08.27.08.6.4.35.07-.06-.23,0-.25-.23a.73.73,0,0,1,.14-.46S12.71,13.53,12.6,13.86Z" transform="translate(-1.42 -5.63)"/><path class="cls-31" d="M13,14.42a.61.61,0,0,0,.21.8c.15.13.12,0,0-.2a.92.92,0,0,1-.09-.63C13.09,14.25,13,14.3,13,14.42Z" transform="translate(-1.42 -5.63)"/><path class="cls-30" d="M14.71,16.42c-.12,0-.32-.2-.54-.65a5.19,5.19,0,0,1-.32-1.17c-.18-.36-.41-.65-.38-1a.78.78,0,0,1,.27-.51h-.05a1.17,1.17,0,0,0-.36,0c.1,0,.14.11,0,.24s-.06.42.12.71.49.76.13,1.17c-.12.12.21.08.33.58s.48.44.67.73a.51.51,0,0,1,0,.57.94.94,0,0,0,.23-.55S14.84,16.47,14.71,16.42Z" transform="translate(-1.42 -5.63)"/><path class="cls-29" d="M14.71,12.69a3.94,3.94,0,0,0-.7.38c-.19-.05-.22,0-.27,0a.78.78,0,0,0-.27.51c0,.32.2.61.38,1a2.06,2.06,0,0,1,.89-1.92Zm-.47.37c-.43.37-.47,1.2-.51,1s.08-.61,0-.36-.18.35-.21.12a.72.72,0,0,1,.26-.69c.21-.16.15.13.15.13C14.06,13,14.68,12.69,14.24,13.06Z" transform="translate(-1.42 -5.63)"/><path class="cls-20" d="M32.43,20.4a1.82,1.82,0,0,0-.76-1c-.14-.11-.29-.21-.43-.3a2.36,2.36,0,0,0-1.07-.4,2.33,2.33,0,0,0-.34-.36,1.66,1.66,0,0,0-.71-.41,2.71,2.71,0,0,0-1.23-.1,1,1,0,0,0-.41-.24l-.24-.06a7.27,7.27,0,0,0-1.68-.18h0a5.11,5.11,0,0,0-.89.15.3.3,0,0,0-.3,0h-.05l0,0h-.36a1.2,1.2,0,0,0-.92.28c-.5.43-.19.84-.38,1.36-.09.25-.24.24-.56.48a.77.77,0,0,0,.06,1.32.9.9,0,0,1,.37.73.83.83,0,0,0,.92.65.91.91,0,0,0,.43-.11h0l.15-.1h0a1,1,0,0,0,.22-.27h0l0,0h0l0-.05h0v0h0s.2.29,1.1.26c.72,0,.86-.19.86-.19a3.09,3.09,0,0,0,1.55.21,1.49,1.49,0,0,0,.87.26.23.23,0,0,0,0,.11c-1.37.7-1.49,1.62-1.49,1.62l-.22,0H26.7a8.52,8.52,0,0,0-3.8.82A1.24,1.24,0,0,0,23,25h0l.06.12h0a4.75,4.75,0,0,1,1-.45l-.93.51a.24.24,0,0,0,.07.1h0l0,0h0l0,0h.07l.32-.05s-.09.09-.06.13h.12a2.89,2.89,0,0,0,1.39-.17c-.33.33-.39.58-.36.65h0s0,0,0,0a18.56,18.56,0,0,1,2-1.18c.72-.37.74-.48.74-.48,2.61.46,3.71-.24,3.86-.44a.88.88,0,0,0,.17-.46l.15-.07,0,0,.1,0,0,0,.09-.06,0,0,.11-.08h0l.11-.1h0l.09-.09v0l.08-.09v0a.44.44,0,0,0,.08-.11h0a2.32,2.32,0,0,0,.29-.62,2.3,2.3,0,0,0,.07-.85A.8.8,0,0,0,32.43,20.4Z" transform="translate(-1.42 -5.63)"/><path class="cls-21" d="M31.52,22.94c-.06-.78-.75-1-1.46-1.3a2.34,2.34,0,0,0-1.51.08c-1.36.71-1.47,1.63-1.47,1.63a.72.72,0,0,1,.3.18.38.38,0,0,1,.13.36c2.61.43,3.7-.28,3.85-.49A.82.82,0,0,0,31.52,22.94Z" transform="translate(-1.42 -5.63)"/><path class="cls-22" d="M31.52,22.94c-.06-.78-.75-1-1.46-1.3a1.65,1.65,0,0,0-.43-.09h0a2.53,2.53,0,0,0-.7.05h0a2,2,0,0,0-.38.12c-1.36.71-1.47,1.63-1.47,1.63a.72.72,0,0,1,.3.18.38.38,0,0,1,.13.36c2.61.43,3.7-.28,3.85-.49A.82.82,0,0,0,31.52,22.94Zm-2.62.48c-.35,0-.63,0-.85,0a2.05,2.05,0,0,0,.6-.54,2.92,2.92,0,0,1-.94.5l-.12,0a2.45,2.45,0,0,1,.51-.7,2.17,2.17,0,0,0-.62.66l-.08-.06a1.75,1.75,0,0,1,.43-.81,1.31,1.31,0,0,0-.49.47l0-.13a2,2,0,0,1,1.07-1,1.62,1.62,0,0,1,.28-.11,1.86,1.86,0,0,0-.51.43,3,3,0,0,1,1-.5,2.3,2.3,0,0,1,.37,0,1.68,1.68,0,0,0-.64.4,2.08,2.08,0,0,1,1-.31,2,2,0,0,1,.42.18,5.19,5.19,0,0,1-1.33.53,4.38,4.38,0,0,0,1.55-.36.28.28,0,0,1,.09.1C31,22.59,30.49,23.25,28.9,23.42Z" transform="translate(-1.42 -5.63)"/><path class="cls-22" d="M31.52,22.94c-.06-.78-.75-1-1.46-1.3A2,2,0,0,0,29,21.59h0a2.55,2.55,0,0,1,1.26.17c.73.3,1.62,1.17-.2,1.77s-3.12.13-2.73-.74a1.61,1.61,0,0,0-.23.56.72.72,0,0,1,.3.18.38.38,0,0,1,.13.36c2.61.43,3.7-.28,3.85-.49A.82.82,0,0,0,31.52,22.94Z" transform="translate(-1.42 -5.63)"/><path class="cls-23" d="M27.78,23.37l-.06-.07a5.46,5.46,0,0,1,.89-1.1,3,3,0,0,0-1.13,1,2.84,2.84,0,0,1,1.75-1.53,4.56,4.56,0,0,0-.75.84,3.17,3.17,0,0,1,1.46-.67l.13.08h0a6.32,6.32,0,0,0-1.33.64,6.07,6.07,0,0,0,1.45-.24,6.83,6.83,0,0,1-1.83,1,1.52,1.52,0,0,0,.64-.67A2.55,2.55,0,0,0,27.78,23.37Z" transform="translate(-1.42 -5.63)"/><path class="cls-21" d="M27.38,23.53a.72.72,0,0,0-.3-.18,8.47,8.47,0,0,0-4.23.85,1.23,1.23,0,0,0,.21.57,4.6,4.6,0,0,1,1-.47l-.92.53s.08.17.19.15l.32-.05s-.18.16.07.17a3,3,0,0,0,1.38-.19c-.42.44-.39.73-.29.67a22,22,0,0,1,1.95-1.21c.71-.37.74-.48.74-.48A.38.38,0,0,0,27.38,23.53Z" transform="translate(-1.42 -5.63)"/><path class="cls-24" d="M23.22,24.93h0a.13.13,0,0,0,.12.05l.32-.05a4.52,4.52,0,0,0,1.44-.64A16.38,16.38,0,0,1,23.22,24.93Z" transform="translate(-1.42 -5.63)"/><path class="cls-24" d="M27.38,23.53a.72.72,0,0,0-.3-.18l-.44,0c.5.19.41.62-.13,1a18,18,0,0,0-1.75,1.26c0,.05,0,.06.06,0a22,22,0,0,1,1.95-1.21c.71-.37.74-.48.74-.48A.38.38,0,0,0,27.38,23.53Z" transform="translate(-1.42 -5.63)"/><path class="cls-24" d="M22.94,24.53a.71.71,0,0,0,.12.24,4.6,4.6,0,0,1,1-.47l1.36-.47A17.19,17.19,0,0,0,22.94,24.53Z" transform="translate(-1.42 -5.63)"/><path class="cls-24" d="M25.82,24.41A4.74,4.74,0,0,1,23.6,25s0,.06.13.06a3,3,0,0,0,1.38-.19A1.92,1.92,0,0,0,25.82,24.41Z" transform="translate(-1.42 -5.63)"/><path class="cls-23" d="M25.88,23.7a8,8,0,0,0-2.95.72.63.63,0,0,1-.05-.22,10.21,10.21,0,0,1,3.38-.8c.61,0,.15,1.08-2.43,1.57a5.27,5.27,0,0,0,1.8-.88s-1.06.38-2.1.68A10.58,10.58,0,0,1,25.88,23.7Z" transform="translate(-1.42 -5.63)"/><path class="cls-25" d="M24.07,20.89a1.32,1.32,0,0,1-.35-.89,5.53,5.53,0,0,1,.08-1.36,2.25,2.25,0,0,1-.07-1.16A.9.9,0,0,1,24.2,17h-.05a1.19,1.19,0,0,0-1.31.19c-.49.43-.18.84-.37,1.36-.09.25-.23.24-.55.49A.77.77,0,0,0,22,20.38a.89.89,0,0,1,.39.72c.05.27.27.63.92.63a1,1,0,0,0,.87-.61C24.19,21.07,24.18,21,24.07,20.89Z" transform="translate(-1.42 -5.63)"/><path class="cls-26" d="M25.42,16.92h0a4.13,4.13,0,0,0-.88.15.31.31,0,0,0-.31,0,.9.9,0,0,0-.47.45,2.25,2.25,0,0,0,.07,1.16A2.27,2.27,0,0,1,25.42,16.92Z" transform="translate(-1.42 -5.63)"/><path class="cls-26" d="M24.59,20.7c-.44-.08-.59-.64-.69-.8s-.12,0-.19,0,0,.09,0,.12a1.32,1.32,0,0,0,.35.89c.11.09.12.18.1.23s.21.29,1.11.25c.72,0,.85-.2.85-.2a1,1,0,0,1-.49-.7C25.33,20.47,25.14,20.81,24.59,20.7Z" transform="translate(-1.42 -5.63)"/><path class="cls-26" d="M23.89,19.29c.05-.35.39-.37.55-.44s.38,0,.35-.29a.77.77,0,0,1,.75-.72c.51,0,.55-.48,1.23-.66a1.64,1.64,0,0,1,.57-.05l-.23-.06a7,7,0,0,0-1.69-.15,2.27,2.27,0,0,0-1.62,1.72,6.85,6.85,0,0,0-.1,1.05C23.8,19.67,23.85,19.55,23.89,19.29Z" transform="translate(-1.42 -5.63)"/><path class="cls-27" d="M26.77,17.18c-.68.18-.72.64-1.23.66a.77.77,0,0,0-.75.72c0,.26-.2.21-.35.29s-.5.09-.55.44-.09.38-.19.4a1.15,1.15,0,0,0,0,.19c.07,0,.14-.08.19,0s.25.72.69.8.74-.23,1.05-.23a2.56,2.56,0,0,1,.54-1.93,3.18,3.18,0,0,1,1.58-1.18,1.05,1.05,0,0,0-.42-.23A1.64,1.64,0,0,0,26.77,17.18Z" transform="translate(-1.42 -5.63)"/><path class="cls-26" d="M26.46,18.71c.6-.22.75.16,1.11-.39a1.8,1.8,0,0,1,2.13-.48,1.85,1.85,0,0,0-.72-.4,2.62,2.62,0,0,0-1.22-.08,3.18,3.18,0,0,0-1.58,1.18,2.9,2.9,0,0,0-.35.61A1.74,1.74,0,0,1,26.46,18.71Z" transform="translate(-1.42 -5.63)"/><path class="cls-26" d="M26.11,20.59a1,1,0,0,1-.49-.66,1.16,1.16,0,0,0,.51,1.24,3.08,3.08,0,0,0,1.56.19,1.31,1.31,0,0,1-.39-.86C27,20.57,26.55,20.82,26.11,20.59Z" transform="translate(-1.42 -5.63)"/><path class="cls-27" d="M29.7,17.84a1.8,1.8,0,0,0-2.13.48c-.36.55-.51.17-1.11.39a1.74,1.74,0,0,0-.63.44,2.33,2.33,0,0,0-.21.78,1,1,0,0,0,.49.66c.44.23.85,0,1.19-.09a2.24,2.24,0,0,1,.44-1.38A2.76,2.76,0,0,1,30,18.2,3,3,0,0,0,29.7,17.84Z" transform="translate(-1.42 -5.63)"/><path class="cls-26" d="M27.86,21.09c-.36-.13-.34-.72-.56-.61a1.26,1.26,0,0,0,.39.88,1.37,1.37,0,0,0,.86.24.58.58,0,0,0,0-.25.69.69,0,0,1,.09-.41A1,1,0,0,1,27.86,21.09Z" transform="translate(-1.42 -5.63)"/><path class="cls-26" d="M28.65,18.76a.65.65,0,0,1,1,0,.79.79,0,0,0,.95,0,.58.58,0,0,1,.73.07.23.23,0,0,0,.24.05l-.44-.3A2.28,2.28,0,0,0,30,18.2a2.78,2.78,0,0,0-2.28.89C28.14,18.83,28.43,19,28.65,18.76Z" transform="translate(-1.42 -5.63)"/><path class="cls-27" d="M31.55,18.88a.23.23,0,0,1-.24-.05.58.58,0,0,0-.73-.07.79.79,0,0,1-.95,0,.65.65,0,0,0-1,0c-.22.23-.51.07-.89.33l0,0a2.23,2.23,0,0,0-.44,1.36c.22-.11.2.48.56.61a1,1,0,0,0,.76-.15,2.2,2.2,0,0,1,1.3-1,3.7,3.7,0,0,1,2.41,0A1.88,1.88,0,0,0,31.55,18.88Z" transform="translate(-1.42 -5.63)"/><path class="cls-26" d="M28.68,21.17l-.13,0a.41.41,0,0,0,0,.21.58.58,0,0,1,0,.25.36.36,0,0,0,0,.12,1.39,1.39,0,0,1,.26-.09C28.71,21.33,29,21.21,28.68,21.17Z" transform="translate(-1.42 -5.63)"/><path class="cls-26" d="M32.83,20.67a.82.82,0,0,0-.5-.77,3.7,3.7,0,0,0-2.41,0l-.35.15a.52.52,0,0,1,.5.24,1.31,1.31,0,0,0,1.47.37c.57-.16,1.19,0,1.22.86A2.55,2.55,0,0,0,32.83,20.67Z" transform="translate(-1.42 -5.63)"/><path class="cls-27" d="M31.54,20.66a1.31,1.31,0,0,1-1.47-.37.52.52,0,0,0-.5-.24,1.79,1.79,0,0,0-1,1.09l.13,0c.31,0,0,.16.13.46a2.12,2.12,0,0,1,1.25,0c.71.27,1.4.52,1.46,1.3a2.11,2.11,0,0,0,1.24-1.42C32.73,20.63,32.11,20.5,31.54,20.66Z" transform="translate(-1.42 -5.63)"/><path class="cls-28" d="M23,18l-.05,0-.12.11-.08.09-.06.1a.37.37,0,0,0,0,.11.14.14,0,0,0,0,.07v.06a.49.49,0,0,0,0,.12.5.5,0,0,0,0,.13,1,1,0,0,1,0,.24.25.25,0,0,1,0,.09l0,.08,0,.05v-.06s0,0,0-.07v-.09a1,1,0,0,0-.06-.22.5.5,0,0,1,0-.13.39.39,0,0,1,0-.15v0a.08.08,0,0,0,0,0s0-.05,0-.07a.47.47,0,0,1,.07-.12l.07-.11.09-.08A1.23,1.23,0,0,1,23,18Z" transform="translate(-1.42 -5.63)"/><path class="cls-28" d="M22.58,19.65v0a.11.11,0,0,1,0,0,.53.53,0,0,1-.09.19,2.55,2.55,0,0,0-.14.24.83.83,0,0,0-.07.13.42.42,0,0,0,0,.16.2.2,0,0,0,0,.07s0,0,0,0l0,0a.31.31,0,0,0,.09.11l.1.11a.83.83,0,0,1,.08.12l0,0a.08.08,0,0,0,0,.05.64.64,0,0,0,0,.09v.08a.24.24,0,0,0,0-.08l0-.08a.41.41,0,0,0-.05-.09.39.39,0,0,0-.08-.1.52.52,0,0,1-.11-.1.69.69,0,0,1-.11-.13l0,0,0,0a.09.09,0,0,0,0-.05v0h0a.37.37,0,0,1,0-.18c0-.05.05-.1.07-.14s.12-.17.17-.24a.93.93,0,0,0,.11-.16s0,0,0,0Z" transform="translate(-1.42 -5.63)"/><path class="cls-29" d="M27.76,17.36a1.05,1.05,0,0,0-.42-.23l-.23-.06a7,7,0,0,0-1.69-.15,2.27,2.27,0,0,0-1.62,1.72,6.85,6.85,0,0,0-.1,1.05,1.15,1.15,0,0,0,0,.19c0,.05,0,.09,0,.12a1.32,1.32,0,0,0,.35.89c.11.09.12.18.1.23s.21.29,1.11.25c.72,0,.85-.2.85-.2a1,1,0,0,1-.49-.7,2.56,2.56,0,0,1,.54-1.93A3.18,3.18,0,0,1,27.76,17.36Zm-2.41,1.76c-.34.76-1.84.7-1.33-.87A1.8,1.8,0,0,1,25.86,17c.58,0,.77.37.53.7A6.51,6.51,0,0,0,25.35,19.12Z" transform="translate(-1.42 -5.63)"/><path class="cls-29" d="M30,18.2a3,3,0,0,0-.34-.36,1.85,1.85,0,0,0-.72-.4,2.62,2.62,0,0,0-1.22-.08,3.18,3.18,0,0,0-1.58,1.18,2.9,2.9,0,0,0-.35.61,2.33,2.33,0,0,0-.21.78,1.16,1.16,0,0,0,.51,1.24,3.08,3.08,0,0,0,1.56.19,1.31,1.31,0,0,1-.39-.86,2.24,2.24,0,0,1,.44-1.38A2.76,2.76,0,0,1,30,18.2Zm-2.7.86c-.54.58-1.78.72-1.14-.41a2.65,2.65,0,0,1,2.12-1.28c.43,0,.86.31.46.59A8.24,8.24,0,0,0,27.34,19.06Z" transform="translate(-1.42 -5.63)"/><path class="cls-29" d="M31.55,18.88l-.44-.3A2.28,2.28,0,0,0,30,18.2a2.78,2.78,0,0,0-2.28.89l0,0a2.23,2.23,0,0,0-.44,1.36,1.26,1.26,0,0,0,.39.88,1.37,1.37,0,0,0,.86.24.58.58,0,0,0,0-.25.69.69,0,0,1,.09-.41,2.2,2.2,0,0,1,1.3-1,3.7,3.7,0,0,1,2.41,0A1.88,1.88,0,0,0,31.55,18.88Zm-.21.51a3.63,3.63,0,0,0-2.17.51c-.79.54-2,0-1-1.06a2.46,2.46,0,0,1,2.73-.32C31.49,18.85,31.85,19.31,31.34,19.39Z" transform="translate(-1.42 -5.63)"/><path class="cls-29" d="M32.83,20.67a.82.82,0,0,0-.5-.77,3.7,3.7,0,0,0-2.41,0l-.35.15a1.79,1.79,0,0,0-1,1.09.41.41,0,0,0,0,.21.58.58,0,0,1,0,.25.36.36,0,0,0,0,.12,1.39,1.39,0,0,1,.26-.09,2.12,2.12,0,0,1,1.25,0c.71.27,1.4.52,1.46,1.3a2.11,2.11,0,0,0,1.24-1.42A2.55,2.55,0,0,0,32.83,20.67Zm-.67.58a3.06,3.06,0,0,1-1.6-.26c-.56-.21-.86-.64-.37-1a2.39,2.39,0,0,1,2.3,0A.66.66,0,0,1,32.16,21.25Z" transform="translate(-1.42 -5.63)"/><path class="cls-22" d="M25.64,20.47a2.22,2.22,0,0,1,.13-1.17h0c-.26.63-.6,1.07-1.37.95s-.69-.76-.65-1.28a5.19,5.19,0,0,0-.05.72,1.15,1.15,0,0,0,0,.19c0,.05,0,.09,0,.12a1.32,1.32,0,0,0,.35.89c.11.09.12.18.1.23s.21.29,1.11.25c.72,0,.85-.2.85-.2A1,1,0,0,1,25.64,20.47Z" transform="translate(-1.42 -5.63)"/><path class="cls-22" d="M29.67,18.2a2.45,2.45,0,0,0-2.2,1c-.57.9-.69,1.31-1.21,1.27a.64.64,0,0,1-.61-.78.75.75,0,0,0,0,.2,1.16,1.16,0,0,0,.51,1.24,3.08,3.08,0,0,0,1.56.19,1.31,1.31,0,0,1-.39-.86,2.24,2.24,0,0,1,.44-1.38A2.45,2.45,0,0,1,29.67,18.2Z" transform="translate(-1.42 -5.63)"/><path class="cls-22" d="M28.68,20.56c-.55.7-1.11.19-1.18-.28a1.67,1.67,0,0,1,.17-1.06,2.2,2.2,0,0,0-.37,1.26,1.26,1.26,0,0,0,.39.88,1.37,1.37,0,0,0,.86.24.58.58,0,0,0,0-.25.69.69,0,0,1,.09-.41,2.2,2.2,0,0,1,1.3-1,3.14,3.14,0,0,1,1-.2A2.68,2.68,0,0,0,28.68,20.56Z" transform="translate(-1.42 -5.63)"/><path class="cls-22" d="M31.06,21.9c-.79-.5-1.68-.49-1.82-1a.8.8,0,0,1,.38-.85l-.05,0a1.79,1.79,0,0,0-1,1.09.41.41,0,0,0,0,.21.58.58,0,0,1,0,.25.36.36,0,0,0,0,.12,1.39,1.39,0,0,1,.26-.09,2.12,2.12,0,0,1,1.25,0c.71.27,1.4.52,1.46,1.3a2.1,2.1,0,0,0,1-.8C32.19,22.4,31.85,22.4,31.06,21.9Z" transform="translate(-1.42 -5.63)"/><path class="cls-30" d="M24.07,20.89a1.32,1.32,0,0,1-.35-.89,5.53,5.53,0,0,1,.08-1.36,2.25,2.25,0,0,1-.07-1.16A.9.9,0,0,1,24.2,17h-.05a1.19,1.19,0,0,0-1.31.19c-.49.43-.18.84-.37,1.36-.09.25-.23.24-.55.49A.77.77,0,0,0,22,20.38a.89.89,0,0,1,.39.72c.05.27.27.63.92.63a1,1,0,0,0,.87-.61C24.19,21.07,24.18,21,24.07,20.89ZM23.34,17c.53-.12-.18.08-.24.41s.16.31.28.41-.28.19-.32.76.09.68,0,.7-.42-.35-.42-.7.41-.64.41-.64c-.33.16-.45,0-.46-.15A.84.84,0,0,1,23.34,17ZM22,20c-.29.1-.48-.36-.25-.69.42-.58,1-.32.72-.13C22,19.53,22.27,19.9,22,20Zm1.77,1.42a.62.62,0,0,1-.83.15c-.36-.35,0-.58-.36-.81a.46.46,0,0,1-.11-.72c.2-.24.43-.3.32-.13a.39.39,0,0,0,.16.59c.46.17,0,.56.27.73S23.89,21.18,23.76,21.42Z" transform="translate(-1.42 -5.63)"/><path class="cls-31" d="M21.74,19.86a.59.59,0,0,1,.14-.66c.17-.17.46-.23.3-.08a.67.67,0,0,0-.25.62C22,20,21.84,20,21.74,19.86Z" transform="translate(-1.42 -5.63)"/><path class="cls-31" d="M22.63,20c.08-.18-.57.46,0,.72.2.1.19.23.18.44s.15.57.63.42c.1,0-.62.06-.47-.49.06-.25.05-.37-.18-.44S22.52,20.21,22.63,20Z" transform="translate(-1.42 -5.63)"/><path class="cls-31" d="M22.73,17.42c-.18.25-.13.67.3.51.1,0-.25,0-.18-.34a.68.68,0,0,1,.31-.43C23.21,17.12,23,17.1,22.73,17.42Z" transform="translate(-1.42 -5.63)"/><path class="cls-31" d="M22.9,18.14a.67.67,0,0,0-.06.91c.11.2.12.06.06-.21a1,1,0,0,1,.13-.69C23.11,18,23,18,22.9,18.14Z" transform="translate(-1.42 -5.63)"/><path class="cls-30" d="M24.07,20.89a1.32,1.32,0,0,1-.35-.89,5.53,5.53,0,0,1,.08-1.36,2.25,2.25,0,0,1-.07-1.16A.9.9,0,0,1,24.2,17h-.05a1,1,0,0,0-.39-.11c.1.05.11.16-.05.27-.31.23-.21.42-.12.79s.25,1-.28,1.29c-.17.09.2.16.15.74s.35.64.46,1a.61.61,0,0,1-.19.61,1,1,0,0,0,.44-.5C24.19,21.07,24.18,21,24.07,20.89Z" transform="translate(-1.42 -5.63)"/><path class="cls-29" d="M25.39,16.92a4.13,4.13,0,0,0-.88.15.31.31,0,0,0-.31,0,.9.9,0,0,0-.47.45,2.25,2.25,0,0,0,.07,1.16,2.27,2.27,0,0,1,1.62-1.72Zm-.63.22c-.59.24-.93,1.11-.89.87s.3-.63.13-.39-.32.32-.27.05a.77.77,0,0,1,.52-.63c.28-.1.11.19.11.19C24.59,17,25.35,16.9,24.76,17.14Z" transform="translate(-1.42 -5.63)"/><path class="cls-20" d="M42.73,17.69a.72.72,0,0,0-.28-.76,1.61,1.61,0,0,0-.46-1c-.1-.12-.21-.23-.32-.35a2.21,2.21,0,0,0-.84-.55,2.8,2.8,0,0,0-.22-.37,1.63,1.63,0,0,0-.54-.5,2.37,2.37,0,0,0-1-.32,1,1,0,0,0-.32-.28,1.09,1.09,0,0,0-.19-.1,6.23,6.23,0,0,0-1.42-.48h0a3.34,3.34,0,0,0-.79,0,.26.26,0,0,0-.25-.1l-.05,0,0,0h0v0h0l0,0,0,0h-.14a1.06,1.06,0,0,0-.86.07c-.51.27-.33.68-.59,1.1-.13.2-.25.16-.58.31a.68.68,0,0,0-.2,1.15.78.78,0,0,1,.18.7.87.87,0,0,0,1.06.73h0l.15-.06h0a.86.86,0,0,0,.25-.19h0l0,0h0l0,0h0s.11.29.9.44c.63.12.78,0,.78,0a2.8,2.8,0,0,0,1.3.48,1.31,1.31,0,0,0,.7.39.23.23,0,0,0,0,.09,2.16,2.16,0,0,0-1.6,1.12l-.38-.11h0a7.52,7.52,0,0,0-3.44,0,1.22,1.22,0,0,0,0,.4h0a.53.53,0,0,0,0,.11h0a4.4,4.4,0,0,1,1-.2l-.9.27a.28.28,0,0,0,0,.12h0l0,0h.06l.29,0s-.1.05-.08.1H34a2.75,2.75,0,0,0,1.23.12c-.35.22-.45.42-.43.5h0a16.48,16.48,0,0,1,1.93-.64c.7-.18.74-.27.74-.27,2.17.9,3.25.51,3.43.36a.8.8,0,0,0,.23-.37l.14,0h0l.1,0h0l.09,0h0l.1-.05h0l.12-.07h0l.09-.06h0A.27.27,0,0,0,42,19h0l.09-.08h0a2.12,2.12,0,0,0,.37-.48A2.08,2.08,0,0,0,42.73,17.69Z" transform="translate(-1.42 -5.63)"/><path class="cls-21" d="M41.13,18.88c.1-.69-.45-1-1-1.4a2,2,0,0,0-1.32-.23,2.15,2.15,0,0,0-1.59,1.13.55.55,0,0,1,.23.21.34.34,0,0,1,0,.34c2.18.87,3.25.46,3.43.32A.78.78,0,0,0,41.13,18.88Z" transform="translate(-1.42 -5.63)"/><path class="cls-22" d="M41.13,18.88c.1-.69-.45-1-1-1.4a1.26,1.26,0,0,0-.35-.17h0a2.06,2.06,0,0,0-.62-.09h0a1.84,1.84,0,0,0-.35,0,2.15,2.15,0,0,0-1.59,1.13.55.55,0,0,1,.23.21.34.34,0,0,1,0,.34c2.18.87,3.25.46,3.43.32A.78.78,0,0,0,41.13,18.88Zm-2.36-.09a6.07,6.07,0,0,1-.74-.13,1.79,1.79,0,0,0,.62-.34,2.79,2.79,0,0,1-.91.25l-.1-.05a2.17,2.17,0,0,1,.58-.5,1.83,1.83,0,0,0-.66.45.13.13,0,0,1-.06-.07,1.57,1.57,0,0,1,.53-.62,1.45,1.45,0,0,0-.52.31l.06-.1a1.82,1.82,0,0,1,1.12-.67.84.84,0,0,1,.27,0,1.57,1.57,0,0,0-.53.27,2.7,2.7,0,0,1,1-.24l.31.1a1.66,1.66,0,0,0-.63.21,1.87,1.87,0,0,1,.94-.06,2,2,0,0,1,.32.23,4.52,4.52,0,0,1-1.25.2,3.73,3.73,0,0,0,1.41,0,.37.37,0,0,1,.06.1C40.74,18.47,40.18,19,38.77,18.79Z" transform="translate(-1.42 -5.63)"/><path class="cls-22" d="M41.13,18.88c.1-.69-.45-1-1-1.4a1.8,1.8,0,0,0-.92-.26h0a2.28,2.28,0,0,1,1.06.39c.57.4,1.17,1.32-.52,1.49s-2.73-.49-2.22-1.17a1.41,1.41,0,0,0-.31.45.55.55,0,0,1,.23.21.34.34,0,0,1,0,.34c2.18.87,3.25.46,3.43.32A.78.78,0,0,0,41.13,18.88Z" transform="translate(-1.42 -5.63)"/><path class="cls-23" d="M37.81,18.53l0-.07a4.53,4.53,0,0,1,1-.78,2.69,2.69,0,0,0-1.18.65,2.51,2.51,0,0,1,1.82-1,4,4,0,0,0-.82.58,2.84,2.84,0,0,1,1.39-.3l.11.1h0a5,5,0,0,0-1.26.3,5.7,5.7,0,0,0,1.29.07,5.9,5.9,0,0,1-1.77.5,1.28,1.28,0,0,0,.68-.46A2.27,2.27,0,0,0,37.81,18.53Z" transform="translate(-1.42 -5.63)"/><path class="cls-21" d="M37.44,18.59a.55.55,0,0,0-.23-.21,7.41,7.41,0,0,0-3.82-.08,1.09,1.09,0,0,0,.07.53,4,4,0,0,1,1-.21l-.9.27s0,.17.14.18H34s-.18.11,0,.16a2.51,2.51,0,0,0,1.23.1c-.45.3-.48.56-.38.53a18.44,18.44,0,0,1,1.92-.67c.69-.18.73-.27.73-.27A.34.34,0,0,0,37.44,18.59Z" transform="translate(-1.42 -5.63)"/><path class="cls-24" d="M33.57,19h0a.15.15,0,0,0,.1.07H34a4,4,0,0,0,1.37-.27A15.62,15.62,0,0,1,33.57,19Z" transform="translate(-1.42 -5.63)"/><path class="cls-24" d="M37.44,18.59a.55.55,0,0,0-.23-.21l-.37-.1c.39.25.24.61-.3.8a15,15,0,0,0-1.76.74s0,.06,0,.05a18.44,18.44,0,0,1,1.92-.67c.69-.18.73-.27.73-.27A.34.34,0,0,0,37.44,18.59Z" transform="translate(-1.42 -5.63)"/><path class="cls-24" d="M33.4,18.6a1,1,0,0,0,.06.23,4,4,0,0,1,1-.21l1.26-.15A14.73,14.73,0,0,0,33.4,18.6Z" transform="translate(-1.42 -5.63)"/><path class="cls-24" d="M35.92,19.05a4.26,4.26,0,0,1-2,.12s0,0,.1.07a2.51,2.51,0,0,0,1.23.1A1.69,1.69,0,0,0,35.92,19.05Z" transform="translate(-1.42 -5.63)"/><path class="cls-23" d="M36.1,18.44a7.17,7.17,0,0,0-2.69.06.72.72,0,0,1,0-.2,8.82,8.82,0,0,1,3.07,0c.53.11-.08,1-2.4.89a4.58,4.58,0,0,0,1.73-.42s-1,.13-2,.18A9.92,9.92,0,0,1,36.1,18.44Z" transform="translate(-1.42 -5.63)"/><path class="cls-25" d="M35.08,15.66a1.22,1.22,0,0,1-.13-.83,5.15,5.15,0,0,1,.33-1.16,2.1,2.1,0,0,1,.17-1,.84.84,0,0,1,.5-.3l-.05,0a1.07,1.07,0,0,0-1.17-.08c-.51.27-.32.68-.58,1.1-.12.2-.25.17-.57.32a.68.68,0,0,0-.19,1.15.79.79,0,0,1,.19.7c0,.24.12.6.68.73a.86.86,0,0,0,.87-.36S35.16,15.77,35.08,15.66Z" transform="translate(-1.42 -5.63)"/><path class="cls-26" d="M37,12.49h0a4,4,0,0,0-.79,0,.26.26,0,0,0-.25-.1.84.84,0,0,0-.5.3,2.1,2.1,0,0,0-.17,1A2,2,0,0,1,37,12.49Z" transform="translate(-1.42 -5.63)"/><path class="cls-26" d="M35.57,15.6c-.37-.15-.39-.67-.44-.82s-.1-.07-.16,0,0,.07,0,.1a1.22,1.22,0,0,0,.13.83c.08.11.08.19.05.23s.12.29.91.43c.63.11.78,0,.78,0a.86.86,0,0,1-.3-.7C36.25,15.54,36,15.8,35.57,15.6Z" transform="translate(-1.42 -5.63)"/><path class="cls-26" d="M35.23,14.25c.12-.3.42-.24.57-.28s.33,0,.35-.18a.69.69,0,0,1,.8-.47c.44.07.56-.32,1.19-.34a1.35,1.35,0,0,1,.5.07l-.19-.1A6.31,6.31,0,0,0,37,12.49a2,2,0,0,0-1.74,1.18,5.9,5.9,0,0,0-.28.89C35.08,14.56,35.15,14.47,35.23,14.25Z" transform="translate(-1.42 -5.63)"/><path class="cls-27" d="M38.14,13c-.63,0-.75.41-1.19.34a.69.69,0,0,0-.8.47c0,.23-.21.15-.35.18s-.45,0-.57.28-.15.31-.23.31a1,1,0,0,0,0,.17c.06,0,.13-.05.16,0s.07.67.44.82.68-.06,1,0A2.33,2.33,0,0,1,37.36,14,2.84,2.84,0,0,1,39,13.33a.9.9,0,0,0-.31-.28A1.35,1.35,0,0,0,38.14,13Z" transform="translate(-1.42 -5.63)"/><path class="cls-26" d="M37.57,14.24c.56-.07.62.28,1-.12a1.59,1.59,0,0,1,1.94,0,1.61,1.61,0,0,0-.54-.49,2.32,2.32,0,0,0-1-.3,2.84,2.84,0,0,0-1.59.71,3,3,0,0,0-.42.46A1.71,1.71,0,0,1,37.57,14.24Z" transform="translate(-1.42 -5.63)"/><path class="cls-26" d="M36.91,15.8a.92.92,0,0,1-.3-.66,1,1,0,0,0,.21,1.17,2.74,2.74,0,0,0,1.3.46A1.11,1.11,0,0,1,38,16C37.64,16,37.24,16.08,36.91,15.8Z" transform="translate(-1.42 -5.63)"/><path class="cls-27" d="M40.54,14.12a1.59,1.59,0,0,0-1.94,0c-.41.4-.47.05-1,.12a1.71,1.71,0,0,0-.63.26,2.3,2.3,0,0,0-.33.64.92.92,0,0,0,.3.66c.33.28.73.15,1.05.15a1.93,1.93,0,0,1,.64-1.11,2.48,2.48,0,0,1,2.17-.35A2.37,2.37,0,0,0,40.54,14.12Z" transform="translate(-1.42 -5.63)"/><path class="cls-26" d="M38.32,16.57c-.28-.18-.15-.69-.36-.63a1.14,1.14,0,0,0,.16.83,1.26,1.26,0,0,0,.71.38.71.71,0,0,0,0-.22.66.66,0,0,1,.16-.34A.92.92,0,0,1,38.32,16.57Z" transform="translate(-1.42 -5.63)"/><path class="cls-26" d="M39.46,14.71a.57.57,0,0,1,.85.19.67.67,0,0,0,.81.18.51.51,0,0,1,.62.21.23.23,0,0,0,.2.09c-.1-.12-.21-.24-.32-.35a2.09,2.09,0,0,0-.85-.54,2.51,2.51,0,0,0-2.15.33C39,14.67,39.22,14.86,39.46,14.71Z" transform="translate(-1.42 -5.63)"/><path class="cls-27" d="M41.94,15.38a.23.23,0,0,1-.2-.09.51.51,0,0,0-.62-.21.67.67,0,0,1-.81-.18.57.57,0,0,0-.85-.19c-.24.15-.46,0-.84.11l0,0a1.94,1.94,0,0,0-.64,1.1c.21-.06.08.45.36.63a.92.92,0,0,0,.69,0,2,2,0,0,1,1.33-.65,3.26,3.26,0,0,1,2.08.47A1.6,1.6,0,0,0,41.94,15.38Z" transform="translate(-1.42 -5.63)"/><path class="cls-26" d="M39,16.8l-.1-.06a.49.49,0,0,0-.06.19.71.71,0,0,1,0,.22.3.3,0,0,0,0,.1l.24,0C39,17,39.28,16.89,39,16.8Z" transform="translate(-1.42 -5.63)"/><path class="cls-26" d="M42.7,17.16a.7.7,0,0,0-.28-.75,3.26,3.26,0,0,0-2.08-.47L40,16a.49.49,0,0,1,.39.31,1.16,1.16,0,0,0,1.2.6c.52,0,1,.2.89,1A2.17,2.17,0,0,0,42.7,17.16Z" transform="translate(-1.42 -5.63)"/><path class="cls-27" d="M41.59,16.91a1.16,1.16,0,0,1-1.2-.6A.49.49,0,0,0,40,16a1.62,1.62,0,0,0-1.09.74l.1.06c.27.09,0,.15,0,.42a1.88,1.88,0,0,1,1.08.26c.56.37,1.11.71,1,1.4a1.9,1.9,0,0,0,1.35-1C42.63,17.11,42.11,16.88,41.59,16.91Z" transform="translate(-1.42 -5.63)"/><path class="cls-28" d="M34.68,13l0,0a.56.56,0,0,0-.13.07l-.08.06-.07.07-.07.09,0,.05v.06a.37.37,0,0,0,0,.11v.11a.53.53,0,0,1,0,.22.19.19,0,0,1,0,.08l0,.06,0,0,0,0a.14.14,0,0,0,0-.06.19.19,0,0,0,0-.08.69.69,0,0,0,0-.2.49.49,0,0,1,0-.12.57.57,0,0,1,0-.13v0l0,0s0,0,0-.06a.24.24,0,0,1,.08-.09.3.3,0,0,1,.08-.08l.09-.05A1.13,1.13,0,0,1,34.68,13Z" transform="translate(-1.42 -5.63)"/><path class="cls-28" d="M34,14.31h0l0,0a.6.6,0,0,1-.11.14l-.17.18a.44.44,0,0,0-.08.11.61.61,0,0,0,0,.12v.14a.24.24,0,0,0,.06.11l.07.12a.76.76,0,0,1,0,.11.11.11,0,0,1,0,0v.13a.17.17,0,0,1,0,.07v-.07s0-.05,0-.07l0-.1a.47.47,0,0,0,0-.1l-.08-.11a.76.76,0,0,1-.07-.13V15h0a.35.35,0,0,1,.06-.14.34.34,0,0,1,.09-.12.9.9,0,0,1,.19-.16l.12-.13,0,0Z" transform="translate(-1.42 -5.63)"/><path class="cls-29" d="M39,13.33a.9.9,0,0,0-.31-.28l-.19-.1A6.31,6.31,0,0,0,37,12.49a2,2,0,0,0-1.74,1.18,5.9,5.9,0,0,0-.28.89,1,1,0,0,0,0,.17s0,.07,0,.1a1.22,1.22,0,0,0,.13.83c.08.11.08.19.05.23s.12.29.91.43c.63.11.78,0,.78,0a.86.86,0,0,1-.3-.7A2.33,2.33,0,0,1,37.36,14,2.84,2.84,0,0,1,39,13.33Zm-2.42,1.05c-.44.59-1.72.25-1-1a1.61,1.61,0,0,1,1.85-.77c.49.15.58.47.31.71A6.39,6.39,0,0,0,36.53,14.38Z" transform="translate(-1.42 -5.63)"/><path class="cls-29" d="M40.77,14.49a2.37,2.37,0,0,0-.23-.37,1.61,1.61,0,0,0-.54-.49,2.32,2.32,0,0,0-1-.3,2.84,2.84,0,0,0-1.59.71,3,3,0,0,0-.42.46,2.3,2.3,0,0,0-.33.64,1,1,0,0,0,.21,1.17,2.74,2.74,0,0,0,1.3.46A1.11,1.11,0,0,1,38,16a1.93,1.93,0,0,1,.64-1.11A2.48,2.48,0,0,1,40.77,14.49Zm-2.51.23c-.57.39-1.68.28-.9-.58a2.34,2.34,0,0,1,2.08-.7c.36.11.68.44.28.6A7.48,7.48,0,0,0,38.26,14.72Z" transform="translate(-1.42 -5.63)"/><path class="cls-29" d="M41.94,15.38c-.1-.12-.21-.24-.32-.35a2.09,2.09,0,0,0-.85-.54,2.51,2.51,0,0,0-2.15.33l0,0a1.94,1.94,0,0,0-.64,1.1,1.14,1.14,0,0,0,.16.83,1.26,1.26,0,0,0,.71.38.71.71,0,0,0,0-.22.66.66,0,0,1,.16-.34,2,2,0,0,1,1.33-.65,3.26,3.26,0,0,1,2.08.47A1.6,1.6,0,0,0,41.94,15.38Zm-.27.4a3.3,3.3,0,0,0-2,0c-.78.32-1.67-.41-.68-1.11a2.18,2.18,0,0,1,2.42.25C41.9,15.34,42.12,15.8,41.67,15.78Z" transform="translate(-1.42 -5.63)"/><path class="cls-29" d="M42.7,17.16a.7.7,0,0,0-.28-.75,3.26,3.26,0,0,0-2.08-.47L40,16a1.62,1.62,0,0,0-1.09.74.49.49,0,0,0-.06.19.71.71,0,0,1,0,.22.3.3,0,0,0,0,.1l.24,0a1.88,1.88,0,0,1,1.08.26c.56.37,1.11.71,1,1.4a1.9,1.9,0,0,0,1.35-1A2.17,2.17,0,0,0,42.7,17.16Zm-.69.38A2.83,2.83,0,0,1,40.67,17c-.44-.29-.62-.72-.12-.91a2.12,2.12,0,0,1,2,.45A.59.59,0,0,1,42,17.54Z" transform="translate(-1.42 -5.63)"/><path class="cls-22" d="M36.52,15.61a2,2,0,0,1,.34-1h0c-.34.49-.72.81-1.36.56s-.45-.79-.32-1.23a4,4,0,0,0-.18.61,1,1,0,0,0,0,.17s0,.07,0,.1a1.22,1.22,0,0,0,.13.83c.08.11.08.19.05.23s.12.29.91.43c.63.11.78,0,.78,0A.86.86,0,0,1,36.52,15.61Z" transform="translate(-1.42 -5.63)"/><path class="cls-22" d="M40.45,14.42a2.15,2.15,0,0,0-2.11.48c-.66.66-.84,1-1.29.86a.58.58,0,0,1-.38-.79l-.06.17a1,1,0,0,0,.21,1.17,2.74,2.74,0,0,0,1.3.46A1.11,1.11,0,0,1,38,16a1.93,1.93,0,0,1,.64-1.11A2.22,2.22,0,0,1,40.45,14.42Z" transform="translate(-1.42 -5.63)"/><path class="cls-22" d="M39.14,16.27a.56.56,0,0,1-1-.47,1.44,1.44,0,0,1,.35-.88,1.91,1.91,0,0,0-.56,1,1.14,1.14,0,0,0,.16.83,1.26,1.26,0,0,0,.71.38.71.71,0,0,0,0-.22.66.66,0,0,1,.16-.34,2,2,0,0,1,1.33-.65,2.65,2.65,0,0,1,.94,0A2.36,2.36,0,0,0,39.14,16.27Z" transform="translate(-1.42 -5.63)"/><path class="cls-22" d="M40.93,17.89c-.58-.59-1.35-.75-1.37-1.23a.71.71,0,0,1,.49-.67h0a1.62,1.62,0,0,0-1.09.74.49.49,0,0,0-.06.19.71.71,0,0,1,0,.22.3.3,0,0,0,0,.1l.24,0a1.88,1.88,0,0,1,1.08.26c.56.37,1.11.71,1,1.4a1.91,1.91,0,0,0,1-.51C41.82,18.54,41.52,18.47,40.93,17.89Z" transform="translate(-1.42 -5.63)"/><path class="cls-30" d="M35.08,15.66a1.22,1.22,0,0,1-.13-.83,5.15,5.15,0,0,1,.33-1.16,2.1,2.1,0,0,1,.17-1,.84.84,0,0,1,.5-.3l-.05,0a1.07,1.07,0,0,0-1.17-.08c-.51.27-.32.68-.58,1.1-.12.2-.25.17-.57.32a.68.68,0,0,0-.19,1.15.79.79,0,0,1,.19.7c0,.24.12.6.68.73a.86.86,0,0,0,.87-.36S35.16,15.77,35.08,15.66Zm.12-3.49c.48,0-.17,0-.28.31s.07.29.16.41-.28.11-.42.59-.06.61-.14.61-.29-.38-.23-.69.48-.47.48-.47c-.32.07-.4-.08-.37-.22A.74.74,0,0,1,35.2,12.17ZM33.46,14.5c-.27,0-.35-.41-.08-.65.46-.42.92-.08.64,0C33.52,14.08,33.72,14.46,33.46,14.5Zm1.26,1.57A.54.54,0,0,1,34,16c-.25-.37.07-.51-.16-.77a.4.4,0,0,1,0-.64c.21-.17.43-.17.3,0a.35.35,0,0,0,0,.55c.36.23-.11.48.08.67S34.87,15.88,34.72,16.07Z" transform="translate(-1.42 -5.63)"/><path class="cls-31" d="M33.27,14.32a.52.52,0,0,1,.25-.54c.18-.11.44-.11.27,0a.58.58,0,0,0-.33.49C33.46,14.5,33.32,14.48,33.27,14.32Z" transform="translate(-1.42 -5.63)"/><path class="cls-31" d="M34,14.59c.11-.14-.58.29-.15.62.16.13.12.23.07.42s0,.52.46.48c.1,0-.54-.07-.31-.52.1-.2.11-.3-.07-.41S33.87,14.78,34,14.59Z" transform="translate(-1.42 -5.63)"/><path class="cls-31" d="M34.6,12.41c-.21.18-.25.55.16.49.09,0-.22-.08-.09-.32a.56.56,0,0,1,.35-.31S34.86,12.18,34.6,12.41Z" transform="translate(-1.42 -5.63)"/><path class="cls-31" d="M34.61,13.06a.6.6,0,0,0-.24.78c.06.2.1.07.1-.18a.86.86,0,0,1,.24-.57C34.81,13,34.71,13,34.61,13.06Z" transform="translate(-1.42 -5.63)"/><path class="cls-30" d="M35.08,15.66a1.22,1.22,0,0,1-.13-.83,5.15,5.15,0,0,1,.33-1.16,2.1,2.1,0,0,1,.17-1,.84.84,0,0,1,.5-.3l-.05,0a.94.94,0,0,0-.32-.17c.08.07.06.16-.09.23-.31.14-.26.32-.25.66s0,.9-.5,1.06c-.16.05.14.18,0,.67s.18.62.2,1a.56.56,0,0,1-.28.5.94.94,0,0,0,.48-.35S35.16,15.77,35.08,15.66Z" transform="translate(-1.42 -5.63)"/><path class="cls-29" d="M37,12.48a4,4,0,0,0-.79,0,.26.26,0,0,0-.25-.1.84.84,0,0,0-.5.3,2.1,2.1,0,0,0-.17,1A2,2,0,0,1,37,12.49Zm-.59.08c-.55.09-1,.78-.93.58s.38-.49.18-.31-.33.21-.24,0a.68.68,0,0,1,.57-.45c.26,0,.06.18.06.18C36.29,12.4,37,12.46,36.4,12.56Z" transform="translate(-1.42 -5.63)"/></g></g></svg>