<svg xmlns="http://www.w3.org/2000/svg" viewBox="0 0 53.79 26.65"><defs><style>.cls-1{isolation:isolate;}.cls-2{fill:#dadada;}.cls-3{fill:#f4f4f4;}.cls-4{fill:#ebeaea;}.cls-5{fill:#006ec3;}.cls-10,.cls-11,.cls-13,.cls-16,.cls-6,.cls-8{mix-blend-mode:multiply;}.cls-7,.cls-8{fill:#58991f;}.cls-10,.cls-13,.cls-8{opacity:0.5;}.cls-10,.cls-16,.cls-33,.cls-9{fill:#97c740;}.cls-11,.cls-14{fill:#68b42e;}.cls-12,.cls-13{fill:#d8b523;}.cls-15{fill:#3e9f32;}.cls-17{fill:#f2d038;}.cls-18{fill:#6c8424;}.cls-19{fill:#e39042;}.cls-20{fill:#89bd27;}.cls-20,.cls-24,.cls-33{mix-blend-mode:screen;}.cls-21{fill:#f5aca2;}.cls-22{fill:#ef7e8a;}.cls-23{fill:#f39b99;}.cls-25{fill:#fff;}.cls-26{fill:#e1ccbb;}.cls-27{fill:#bc2921;}.cls-28{fill:#e83426;}.cls-29{fill:#ee523b;}.cls-30{fill:#ca2c21;}.cls-31{fill:#ffbe60;}.cls-32{fill:#cc752e;}.cls-34{fill:#fffbdc;}</style></defs><g class="cls-1"><g id="Layer_1" data-name="Layer 1"><path class="cls-2" d="M54.59,20.33c0,5.88-12,10.65-26.85,10.65S.89,26.21.89,20.33s12-10.64,26.85-10.64S54.59,14.45,54.59,20.33Z" transform="translate(-0.89 -4.32)"/><path class="cls-3" d="M54.67,19.85c0,5.88-12,10.65-26.85,10.65S1,25.73,1,19.85,13,9.21,27.82,9.21,54.67,14,54.67,19.85Z" transform="translate(-0.89 -4.32)"/><path class="cls-4" d="M46.05,18.7c0,4-8.2,7.26-18.31,7.26S9.42,22.71,9.42,18.7s8.2-7.26,18.32-7.26S46.05,14.69,46.05,18.7Z" transform="translate(-0.89 -4.32)"/><path class="cls-3" d="M45.42,18.83c0,3.81-7.92,6.89-17.68,6.89s-17.68-3.08-17.68-6.89S18,12,27.74,12,45.42,15,45.42,18.83Z" transform="translate(-0.89 -4.32)"/><path class="cls-5" d="M27.74,10A52.66,52.66,0,0,1,46.12,12.9,17.29,17.29,0,0,1,51.61,16a5,5,0,0,1,1.94,3.65,5,5,0,0,1-1.94,3.66,17.48,17.48,0,0,1-5.49,3.14,52.66,52.66,0,0,1-18.38,2.94A52.66,52.66,0,0,1,9.36,26.49a17.66,17.66,0,0,1-5.5-3.14,5,5,0,0,1-1.93-3.66A5,5,0,0,1,3.86,16a17.47,17.47,0,0,1,5.5-3.14A52.66,52.66,0,0,1,27.74,10Zm0-.38c-14.46,0-26.19,4.53-26.19,10.11S13.28,29.81,27.74,29.81s26.19-4.53,26.19-10.12S42.2,9.58,27.74,9.58Z" transform="translate(-0.89 -4.32)"/><path class="cls-5" d="M27.74,10.38a52.47,52.47,0,0,1,17.69,2.74,17.31,17.31,0,0,1,5.33,3,4.81,4.81,0,0,1,1.91,3.52,4.79,4.79,0,0,1-1.91,3.52,17.31,17.31,0,0,1-5.33,2.95A52.47,52.47,0,0,1,27.74,28.8,52.57,52.57,0,0,1,10,26.06a17.36,17.36,0,0,1-5.32-2.95,4.79,4.79,0,0,1-1.91-3.52,4.81,4.81,0,0,1,1.91-3.52,17.36,17.36,0,0,1,5.32-3,52.57,52.57,0,0,1,17.7-2.74Zm0-.19c-13.87,0-25.12,4.21-25.12,9.4S13.87,29,27.74,29s25.12-4.21,25.12-9.4-11.25-9.4-25.12-9.4Z" transform="translate(-0.89 -4.32)"/><g class="cls-6"><path class="cls-4" d="M37.84,25.88l-.38-.64-2.06.42-.23.45.41.43a6,6,0,0,0,2.23-.33,1.7,1.7,0,0,1,0-.32h0Z" transform="translate(-0.89 -4.32)"/><path class="cls-4" d="M30.13,8.62a.5.5,0,0,0,.08.14h-.09A.66.66,0,0,1,30.13,8.62Z" transform="translate(-0.89 -4.32)"/><path class="cls-4" d="M43.15,21a13.94,13.94,0,0,0-1.9-.46l.17,0c.69-.11.69-.8,1-.55.18.12.52.49.92.19s.21-.79.39-1.23.53-.41.85-.27.62.14.92-.51A.84.84,0,0,0,45.25,17c-.3-.23-.58-.46-.45-.73l0-.07v0l0-.08h0a1.06,1.06,0,0,0,.06-.19h0a.76.76,0,0,0,0-.3h0l0-.09h0a.31.31,0,0,0-.1-.15c-.19-.23-.48-.26-1.05,0l.53-.62a7,7,0,0,0,.09-1.09,5.13,5.13,0,0,1-2.52-1.21.39.39,0,0,0,0-.27l0-.06h0a0,0,0,0,1,0,0h0a0,0,0,0,1,0,0h0v0h0l0,0h0l0,0a2.75,2.75,0,0,0,.28-.09h0a.73.73,0,0,0,.19-.17.82.82,0,0,0,.14-.28l-.18,0a2.91,2.91,0,0,1-.93-.08,6.67,6.67,0,0,0-1-.13c-.71,0-1.42,0-2.13,0s-1.51,0-2.27-.07-1.44-.15-2.17-.2c-1.41-.09-2.83-.13-4.25-.13-1.62,0-3.23,0-4.84.11a46.18,46.18,0,0,0-4.84.38l-2.37.36c-.71.12-1.42.26-2.14.33-.56.05-1.17.07-1.77.15a6.94,6.94,0,0,0-.1,1.17l-.66.2-.12,0c-.87.24-1.43,1.16-1,1.74.32.35,0,.81-.78,1.22s-1.17,1.16-.88,1.72.88.22.83.66-.17.68.44,1.07.56.67.15,1.33-.22,1,.28,1.41a1.14,1.14,0,0,0,.52.27h0a.83.83,0,0,0,.35,0h0l.09,0h0l.17-.07h0a.1.1,0,0,1,.05,0v0l.06-.05c.2-.28.54-.29,1,0l0,0a1.14,1.14,0,0,0-.9.42c-.43.56.19,1.07.81.88s.79-.19.64.22a1,1,0,0,0,0,.8h0l0,0v0l0,0,0,0,0,0,0,0h0l.05,0h0l.05,0H15c.49.07.5-.47.81-.4s.34.41.33.7a.91.91,0,0,0,1.08.66c.54-.15.63,0,.8.19s.42.33.65.19a.83.83,0,0,0,.15-.09,4.25,4.25,0,0,0,.92.1,4.45,4.45,0,0,0,1.8-.31,1.81,1.81,0,0,0,.87.62h.28c.93-.11.79-.58,1-.91s.37-.23.55,0a.39.39,0,0,0,.54,0l2,.39a4,4,0,0,1,.91-1.15h0c.23.31.54.63.78.6.44,0,.29-.7.71-.64s.41.83.84.79a6.56,6.56,0,0,1,1.26,0,1.08,1.08,0,0,0,.54-.07h0L32,26h0l.08,0,0,0,0,0,.05,0,0,0,0-.06,0,0,.07-.08s0,0,0,0a.86.86,0,0,0,.07-.1l0,0,.07-.12h0a1.75,1.75,0,0,0,.41.08A4.06,4.06,0,0,0,37.2,22.9a.81.81,0,0,0,0,.22c.08.46.41.2.51.62s-.36.79.34,1.07.9-.43,1.49-.39.37.84,1.16.95,1.7-.84,1.7-.84a.77.77,0,0,0,.53.64,1.16,1.16,0,0,0,1.43-.61,1.64,1.64,0,0,1,.49-.89l.07-.05.06,0h0l.06,0h0l.06-.05h0l.07-.06h0a1.3,1.3,0,0,0,.39-1C45.59,21.59,44.6,21,43.15,21Zm-5.86,1.68a1.09,1.09,0,0,0,.05-.17C37.35,22.55,37.32,22.6,37.29,22.67Zm.28-1.76a1.19,1.19,0,0,0-.1-.32.53.53,0,0,0-.08-.15,6.08,6.08,0,0,0,.85.17A2.93,2.93,0,0,0,37.57,20.91Z" transform="translate(-0.89 -4.32)"/></g><path class="cls-7" d="M16,18.23s-1.86-2.13.82-4.45S28.69,8.6,32.92,9.83s6.81,3.13,6.9,5.32S33,20.46,30.46,21.46A8.94,8.94,0,0,1,24,21.6C22.19,21,16,18.23,16,18.23Z" transform="translate(-0.89 -4.32)"/><path class="cls-8" d="M32.83,9.86c-4.22-1.23-13.45,1.63-16.13,4s-.81,4.45-.81,4.45,6.22,2.73,8,3.36a8.91,8.91,0,0,0,6.5-.13c2.54-1,9.45-4.14,9.36-6.32S37.06,11.08,32.83,9.86Zm-15.6,6.65a.51.51,0,0,1-.57-.56c0-.2.21-.3.38-.36s.57-.06.85-.14c0,0,0,0,0,0C18,15.94,17.79,16.49,17.23,16.51Zm8.59-3.18c-.15.22-.42.23-.64.32a1.51,1.51,0,0,0-.68.54.8.8,0,0,1-.22.23c-.23.13-.06-.25-.06-.33,0-.25-.08-.5,0-.74a.68.68,0,0,1,.43-.38,3.55,3.55,0,0,1,.57-.06c.16,0,.42,0,.55.1A.23.23,0,0,1,25.82,13.33Zm3.9,6.5a2.87,2.87,0,0,1-1.62.6h0a1.78,1.78,0,0,1,.08-1c.07-.22.23-.41.3-.63s0-.24,0-.36.11-.16.19-.23.22-.2.32-.31a1.39,1.39,0,0,1,.51-.39c.54-.23.76.44.8.87A1.66,1.66,0,0,1,29.72,19.83ZM37.2,15.5a1.47,1.47,0,0,1-1.29.4.52.52,0,0,1-.39-.48,4.39,4.39,0,0,0,0-.81,1.07,1.07,0,0,1,.16-1c.12-.12.27.2.32.28s.22.36.45.37a1.43,1.43,0,0,1,.86.18C37.74,14.7,37.53,15.18,37.2,15.5Z" transform="translate(-0.89 -4.32)"/><path class="cls-7" d="M17.41,15.58a.84.84,0,0,0-.45.12c-.13.2-.19.48.06.62a.67.67,0,0,0,.57,0,.7.7,0,0,0,.35-.81A3.49,3.49,0,0,0,17.41,15.58Z" transform="translate(-0.89 -4.32)"/><path class="cls-9" d="M18,20a8.25,8.25,0,0,0-3.54,2.24c-.54.39-1,.09-1.47.65s.18,1.07.8.88.8-.19.65.22,0,1,.45,1.06.49-.47.8-.4.34.41.33.7A.93.93,0,0,0,17.1,26c.53-.15.62,0,.8.19a.51.51,0,0,0,.65.19c.23-.14.25-.11.21-.49a22.44,22.44,0,0,1,1.6-3.43c.42-.87.52-1,.87-.85s.93-.47.11-1.4S18.79,19.73,18,20Z" transform="translate(-0.89 -4.32)"/><path class="cls-10" d="M21.34,20.23a.8.8,0,0,0-.13-.13c-.16.36-.52.49-.87.68-.53.28-1.12.43-1.67.66s-1.06.49-1.58.74a2.56,2.56,0,0,0-.91.61,3.83,3.83,0,0,0-.5.91,1.86,1.86,0,0,1-.85,1,2.55,2.55,0,0,1-.35.14.53.53,0,0,0,.4.26c.48.07.49-.47.8-.4s.34.41.33.7A.93.93,0,0,0,17.1,26c.53-.15.62,0,.8.19a.51.51,0,0,0,.65.19c.23-.14.25-.11.21-.49a22.44,22.44,0,0,1,1.6-3.43c.42-.87.52-1,.87-.85S22.16,21.16,21.34,20.23Z" transform="translate(-0.89 -4.32)"/><path class="cls-11" d="M16.71,22.49s.18-.14.48-.33l.25-.15.27-.16.31-.16.31-.16.32-.15.32-.13.3-.11.14-.05.13,0,.41-.11.16-.05L20,21l-.4.16-.13.05-.13.05-.3.13-.31.14-.31.14a3.18,3.18,0,0,0-.32.16l-.3.15-.54.28-.37.2Z" transform="translate(-0.89 -4.32)"/><path class="cls-12" d="M18,17s0-2.52,3.4-3.47a2.68,2.68,0,0,1,2.34,1.87l-2.82,3.23Z" transform="translate(-0.89 -4.32)"/><path class="cls-13" d="M21.36,13.57a6,6,0,0,0-1.72.77h0a4.65,4.65,0,0,1,1.82.1c.27.09,1.15.52.85.92-.18.24-.49.34-.7.55a6.88,6.88,0,0,0-.92,1.1s0,0-.05,0a5,5,0,0,0-2.53-.76A2.6,2.6,0,0,0,18,17l2.92,1.63,2.82-3.23A2.68,2.68,0,0,0,21.36,13.57Z" transform="translate(-0.89 -4.32)"/><path class="cls-14" d="M25.78,12.08a7,7,0,0,0,.8,1.93c.46.63-.47,1.93,1.1,3.4.93.8,1.33.2,1.53-.37s.47-.06.8,0,.63.13.9-.5,1-.27,1.4-.8,1.63-5.47-.5-6.77S25.24,9.58,25.78,12.08Z" transform="translate(-0.89 -4.32)"/><path class="cls-11" d="M27.53,16a7.92,7.92,0,0,0-.41-2,.92.92,0,0,0-.71-.57h-.14a2.55,2.55,0,0,0,.31.54c.46.63-.47,1.93,1.1,3.4.46.4.8.45,1,.33A3.08,3.08,0,0,1,27.53,16Z" transform="translate(-0.89 -4.32)"/><path class="cls-11" d="M31.81,8.94c-2.13-1.3-6.57.64-6,3.14a9.14,9.14,0,0,0,.51,1.43,1.43,1.43,0,0,1,.34-.76c.31-.31.54.22.58.46.09.41.09.85.15,1.27a1.5,1.5,0,0,0,.69,1.24,14,14,0,0,0,1.81.43c.36.11.77.35.8.75a1,1,0,0,0,.25-.39c.27-.63,1-.27,1.4-.8S33.94,10.24,31.81,8.94Z" transform="translate(-0.89 -4.32)"/><path class="cls-14" d="M20.86,25.26s.78,1.58,1.7,1.47.8-.58,1-.91.37-.23.56,0,.51.23.82-.3,1-2.92.17-3.67-4.3-1.17-5.1.25S20.86,25.26,20.86,25.26Z" transform="translate(-0.89 -4.32)"/><path class="cls-15" d="M25.13,21.81c-.82-.75-4.3-1.17-5.1.25a1.77,1.77,0,0,0-.22,1,1.39,1.39,0,0,1,.88-.66,1.06,1.06,0,0,1,.72.07A3,3,0,0,1,22,23a.78.78,0,0,0,1,.13c.2-.13.38-.38.61-.46.54-.19.68.61.58,1a1.67,1.67,0,0,1-.33.65,7.8,7.8,0,0,0-.57.58c-.32.42-.21,1-.53,1.39a1.41,1.41,0,0,1-.49.39.78.78,0,0,0,.37,0c.93-.11.8-.58,1-.91s.37-.23.56,0,.51.23.82-.3S25.94,22.56,25.13,21.81Z" transform="translate(-0.89 -4.32)"/><path class="cls-14" d="M13.51,12.93a5.16,5.16,0,0,1-1,.3c-.86.24-1.42,1.16-1,1.74.33.35,0,.81-.78,1.22s-1.17,1.16-.88,1.72.88.22.83.66-.17.68.44,1.07.56.66.16,1.33-.22,1,.27,1.41a.93.93,0,0,0,1.29.07c.2-.28.54-.29.95,0s.7.53,1.16.34a.72.72,0,0,0,.52-.68c.07-.25.33-.29.67-.25s.54-.17.52-.63a.67.67,0,0,0-.35-.61,3.83,3.83,0,0,1-.26-3.12c.42-1,.35-1,.1-1.3a2.15,2.15,0,0,1-.25-1S15,12.57,13.51,12.93Z" transform="translate(-0.89 -4.32)"/><path class="cls-15" d="M16.72,21.24a.67.67,0,0,0-.35-.61,3.83,3.83,0,0,1-.26-3.12c.42-1,.35-1,.1-1.3a2.15,2.15,0,0,1-.25-1s-1-2.62-2.45-2.26a5,5,0,0,1-.85.27,8,8,0,0,1,.22,1,5.28,5.28,0,0,1-.06,1.9,9.9,9.9,0,0,0-.41,2.35A8.74,8.74,0,0,0,13,20.54a2,2,0,0,1,0,1.16,1.73,1.73,0,0,1-.91.95.79.79,0,0,0,.77-.2c.2-.28.54-.29.95,0s.7.53,1.16.34a.72.72,0,0,0,.52-.68c.07-.25.33-.29.67-.25S16.74,21.7,16.72,21.24Z" transform="translate(-0.89 -4.32)"/><path class="cls-14" d="M24.08,12.14a15.15,15.15,0,0,0-.1,1.74A1.38,1.38,0,0,1,23.61,15a.78.78,0,0,1-1.15-.18,1.85,1.85,0,0,0-1.84-.77c-1.08.06-1.35,0-1.47-.54a3.62,3.62,0,0,1-.07-1.65c.12-.82-1.36-2.41-1-3.08s-.66-.81-.11-1.45c.39-.37.63-.19,1,0s1,.12,1-.18a.74.74,0,0,1,.72-.8c.54,0,.83.61.82,1.06A7.32,7.32,0,0,0,24.08,12.14Z" transform="translate(-0.89 -4.32)"/><path class="cls-14" d="M23.32,15.18a1.48,1.48,0,0,0,.12-.29c.06-.2.13-.51-.08-.66s-.57-.1-.85-.09a3.58,3.58,0,0,1-1.3-.25,2.42,2.42,0,0,1-.58-.23c-.15-.09-.26-.26-.42-.33-.5-.23-.73.15-.89.57.18.2.54.21,1.3.17a1.85,1.85,0,0,1,1.84.77A.86.86,0,0,0,23.32,15.18Z" transform="translate(-0.89 -4.32)"/><path class="cls-15" d="M24.08,12.14a7.32,7.32,0,0,1-2.64-4.76c0-.45-.28-1.06-.82-1.06a.74.74,0,0,0-.72.8c0,.19-.26.26-.54.26a1.18,1.18,0,0,0,.3.33,1,1,0,0,0,.55.13.49.49,0,0,1,.41.12c.23.26-.06.64-.25.81A2.38,2.38,0,0,0,19.51,10a1.89,1.89,0,0,1-.42,1,1.07,1.07,0,0,1-.16.14,1.42,1.42,0,0,1,.15.73,3.62,3.62,0,0,0,.07,1.65.79.79,0,0,0,.13.32c.13-.36.32-.68.71-.67a.81.81,0,0,1,.52.26,1.74,1.74,0,0,0,.68.34A3.86,3.86,0,0,0,22.8,14c.22,0,.58,0,.71.22a.75.75,0,0,1,0,.57,3.62,3.62,0,0,1-.13.35.42.42,0,0,0,.23-.15A1.38,1.38,0,0,0,24,13.88,15.15,15.15,0,0,1,24.08,12.14Z" transform="translate(-0.89 -4.32)"/><path class="cls-9" d="M14.56,17a6.84,6.84,0,0,1-1.08-5.44c.53-2.18,1.58-3.2,2.08-2.95s.59.07.85-.28a.75.75,0,0,1,1.16,0c.35.39.58.41.83.33a.8.8,0,0,1,1,.87,1.8,1.8,0,0,0,.17,1.24A2.25,2.25,0,0,1,19,13.14c-.33.25-.36.51-.38,1s-.22,1.16-1.28,1.14c-.7,0-1.14,0-1.38.57s-.14,1-.66,1.31S14.56,17,14.56,17Z" transform="translate(-0.89 -4.32)"/><path class="cls-10" d="M19.53,10.8a1.8,1.8,0,0,1-.17-1.24.8.8,0,0,0-1-.87c-.25.08-.48.06-.83-.33a.78.78,0,0,0-1-.21,1.76,1.76,0,0,1-.14,1.08c-.57,1.34-1.61,2.41-2.16,3.76A5.21,5.21,0,0,0,14,15.2a.91.91,0,0,1-.09.53,5.8,5.8,0,0,0,.7,1.25s.37.39.75.18.42-.79.66-1.31.68-.61,1.38-.57c1.06,0,1.27-.66,1.28-1.14s.05-.75.38-1A2.25,2.25,0,0,0,19.53,10.8Z" transform="translate(-0.89 -4.32)"/><g class="cls-6"><path class="cls-14" d="M14.34,16.63a2.09,2.09,0,0,1-.08-.27c0-.08,0-.18-.07-.3l0-.2q0-.09,0-.21c0-.07,0-.15,0-.23s0-.17,0-.25a5.09,5.09,0,0,1,0-.55,2.66,2.66,0,0,1,0-.28,2.54,2.54,0,0,1,0-.29c0-.1,0-.2.05-.3l.06-.29.18-.58.21-.54c.08-.17.16-.33.23-.49s.09-.15.13-.22l.12-.2a1.82,1.82,0,0,1,.22-.34l.18-.26.17-.22-.15.23-.17.27a3.63,3.63,0,0,0-.2.35l-.12.21c0,.07-.08.14-.11.22l-.22.49-.21.53c-.05.19-.11.38-.16.57s0,.19-.07.29a2.93,2.93,0,0,0-.05.29,2.89,2.89,0,0,0,0,.29,2.66,2.66,0,0,0,0,.28c0,.18,0,.36,0,.53a2,2,0,0,0,0,.25,1.93,1.93,0,0,0,0,.24c0,.07,0,.14,0,.21l0,.19a2.24,2.24,0,0,0,0,.31c0,.09,0,.15,0,.2Z" transform="translate(-0.89 -4.32)"/><path class="cls-14" d="M14.24,13.88l0-.12a1.21,1.21,0,0,1,.05-.14s0-.11.07-.17l.1-.19.13-.2.16-.21.18-.19.19-.19.2-.17.19-.14.18-.12.15-.1.13-.07.1-.06-.09.08-.26.19-.16.14c-.06,0-.12.1-.18.15a1.54,1.54,0,0,0-.19.17l-.19.19-.18.19-.16.19-.14.19a1.74,1.74,0,0,0-.11.18c0,.06-.06.11-.09.16a1.34,1.34,0,0,1-.06.12A.67.67,0,0,0,14.24,13.88Z" transform="translate(-0.89 -4.32)"/><path class="cls-14" d="M14.86,12l0-.05-.08-.17s0-.07,0-.12l0-.06a.17.17,0,0,0,0-.07.77.77,0,0,0,0-.15v-.15a.76.76,0,0,1,0-.15c0-.05,0-.1,0-.14l0-.14s0-.08,0-.11.05-.13.06-.17l0-.07a.32.32,0,0,1,0,.07.67.67,0,0,1,0,.18.6.6,0,0,1,0,.12s0,.08,0,.13a.78.78,0,0,1,0,.14v.29c0,.05,0,.09,0,.14a.2.2,0,0,0,0,.07v.06s0,.08,0,.11l0,.1a.19.19,0,0,0,0,.08Z" transform="translate(-0.89 -4.32)"/></g><path class="cls-9" d="M20.89,18.37A5.25,5.25,0,0,1,23.5,15.2c.6-.29.67-.26,1-.75a2.15,2.15,0,0,1,2-.75c.78.16.84.81.66,1.54s0,.87.5,1.52A2.12,2.12,0,0,1,27.94,19c-.45.62-.43.6-.46,1.07s-.3.6-.79.7-.58.25-.86.82a1.26,1.26,0,0,1-1.39.65c-.61-.05-.53-.7-1-.29s-1.08.9-1.82.42-.43-.7-.35-1-.33-.27-.65-.23-.35-.24-.2-.89S20.71,19.29,20.89,18.37Z" transform="translate(-0.89 -4.32)"/><path class="cls-10" d="M27.68,16.76c-.47-.65-.69-.78-.5-1.52s.12-1.25-.45-1.48a1,1,0,0,1-.1.27,2.34,2.34,0,0,1-.46.53c-.25.23-.5.46-.74.7a11.85,11.85,0,0,0-2.35,3.6,8.09,8.09,0,0,0-.4,1.07,8.56,8.56,0,0,1-.23.87,2.07,2.07,0,0,1-.67.95,2.33,2.33,0,0,1-.58.32,1.39,1.39,0,0,0,.39.34c.74.48,1.32,0,1.82-.42s.42.24,1,.29a1.26,1.26,0,0,0,1.39-.65c.28-.57.38-.72.86-.82s.75-.23.79-.7,0-.45.46-1.07A2.12,2.12,0,0,0,27.68,16.76Z" transform="translate(-0.89 -4.32)"/><path class="cls-14" d="M36.66,16.83s0-.84.69-.76c.56,0,.69-.26.77-.72a.92.92,0,0,1,1.31-.72c.83.26,2.81,1.18,3.71.68s1.29-.51,1.54-.23a.85.85,0,0,1,0,.92c-.13.27.16.5.46.73a.83.83,0,0,1,.28,1.18c-.3.65-.6.65-.92.51s-.67-.17-.85.27,0,.93-.38,1.23-.75-.07-.92-.19c-.36-.25-.36.44-1,.55a13.14,13.14,0,0,1-3.18.11c-.9-.15-1.68-.28-1.8-1.23S36.78,17.71,36.66,16.83Z" transform="translate(-0.89 -4.32)"/><path class="cls-15" d="M45.12,16.73c-.3-.23-.59-.46-.46-.73a1,1,0,0,0,.11-.76,1.93,1.93,0,0,0-.7.32,2.71,2.71,0,0,0-.79.86c-.15.27-.23.57-.36.86a1.13,1.13,0,0,1-.29.43,2.22,2.22,0,0,1-.78.28,8.08,8.08,0,0,1-1,.19,2.05,2.05,0,0,0-.56.1,2.93,2.93,0,0,0-.34.24,2.05,2.05,0,0,1-.8.27,3.49,3.49,0,0,0-.93.4c-.29.16-.94.53-1.09,0,0-.1,0-.22-.08-.33s-.12-.26-.16-.39A.78.78,0,0,1,37,17.9a1.16,1.16,0,0,0,.18-.53,1.33,1.33,0,0,0-.15-.55,3.62,3.62,0,0,0-.24-.43l0-.06a1,1,0,0,0-.12.5c.12.88-.48,1.38-.35,2.33s.9,1.08,1.8,1.23a13.14,13.14,0,0,0,3.18-.11c.68-.11.68-.8,1-.55.17.12.51.49.92.19s.21-.79.38-1.23.53-.41.85-.27.62.14.92-.51A.83.83,0,0,0,45.12,16.73Z" transform="translate(-0.89 -4.32)"/><path class="cls-9" d="M27.28,24.54s.67,1.18,1.12,1.13.3-.71.72-.64.4.83.84.79a6.58,6.58,0,0,1,1.26,0c.36,0,1,0,1.32-1.07a16.35,16.35,0,0,1,3.69-5.07c.75-.68.64-.71.49-1.2s.06-.46.24-.73a1.2,1.2,0,0,0-.31-1.29c-.39-.49-.82-.14-1.22,0s-.34,0-.6-.31-.74-.13-1.29.18-.63.73-1.11.44a.92.92,0,0,0-1.34.46c-.26.58.13,1.41-.46,2.26-.82,1.2-.87,1.45-1.9,2.05S26.94,23.73,27.28,24.54Z" transform="translate(-0.89 -4.32)"/><path class="cls-10" d="M37,17.76a1.2,1.2,0,0,0-.31-1.29.63.63,0,0,0-.11-.12,18,18,0,0,0-2.08,1.22,12.81,12.81,0,0,0-1.32,1l-.59.49a1.85,1.85,0,0,0-.57.61,1.6,1.6,0,0,1-.65.82,1,1,0,0,1-.78.05,2.38,2.38,0,0,1-.49-.22,3.37,3.37,0,0,1-1.33,1.21c-1,.6-1.79,2.19-1.45,3a4.93,4.93,0,0,0,.34.53,2,2,0,0,1,1-.77,1.16,1.16,0,0,1,1,.07c.13.1.24.26.42.26s.33-.13.51-.14c.56,0,.9.68,1,1.12l.06.19c.31-.09.65-.35.9-1a16.35,16.35,0,0,1,3.69-5.07c.75-.68.64-.71.49-1.2S36.78,18,37,17.76Z" transform="translate(-0.89 -4.32)"/><path class="cls-9" d="M37.66,8.06a2.89,2.89,0,0,1,1.45-.28c.72.08.65.4.6.65s.23.25.82,0,1-.18,1.25.15.18.62,0,1-.23.63.19.76a.69.69,0,0,1,.25,1.07c-.29.37-.64.12-.49.47s-.13.46-.13.46l-4-1.43S36.36,9.89,37.66,8.06Z" transform="translate(-0.89 -4.32)"/><path class="cls-16" d="M42,11.58a1.38,1.38,0,0,1-.49-.35,3.6,3.6,0,0,1-.56-.92c-.12-.24-.27-.75-.61-.77a3.88,3.88,0,0,0-1,.23c-.26.05-.68.17-.91,0s-.11-.7-.07-1a2.43,2.43,0,0,0,0-.9,3.28,3.28,0,0,0-.59.21c-1.3,1.83-.08,2.85-.08,2.85l4,1.43s.28-.11.13-.46S41.76,11.69,42,11.58Z" transform="translate(-0.89 -4.32)"/><path class="cls-17" d="M40,9.51l-2.52,1.15v0a3.63,3.63,0,0,0,1.13,3,6.23,6.23,0,0,0,3.94,2.07l1.67-2.41A5.54,5.54,0,0,1,40,9.51Z" transform="translate(-0.89 -4.32)"/><path class="cls-18" d="M38.63,13.7a3.63,3.63,0,0,1-1.13-3c0,.07-.18.31-.47.78.15,4.13,5.58,4.81,5.58,4.81l0-.5A6.23,6.23,0,0,1,38.63,13.7Z" transform="translate(-0.89 -4.32)"/><path class="cls-19" d="M44.24,13.36l-1.67,2.41,0,.5,1.54-1.82A7,7,0,0,0,44.24,13.36Z" transform="translate(-0.89 -4.32)"/><path class="cls-14" d="M30.71,10.07s1.58.36,1.56,1,.12,1.09,1.27,1.43,1.86.31,2.75,1,1.51.61,1.77-.74a3.14,3.14,0,0,0-.58-2.59c-.32-.52-.1-.83.32-1.25S38,7.85,37.13,7.4s-.26-.62-.66-1.25A1.22,1.22,0,0,0,35,5.71c-.48.16-.64,0-.6-.57a.85.85,0,0,0-1.07-.81c-.55.09-.72.56-.91.73s-.28.16-.69-.06-1.09,0-1,1-.1,1-.34,1.35-.61.89-.14,1.32S29.6,9.7,30.71,10.07Z" transform="translate(-0.89 -4.32)"/><path class="cls-15" d="M37.23,13a11.07,11.07,0,0,1-2-2.49c-.38-.57-.78-1.31-1.49-1.47a2.05,2.05,0,0,1-1.24-.6,2.8,2.8,0,0,1-.26-2.4,7.33,7.33,0,0,1,.48-1.41c-.14.15-.23.31-.32.39-.32.28-.28.16-.69-.06s-1.09,0-1,1-.1,1-.34,1.35-.61.89-.14,1.32-.57,1.06.54,1.43c0,0,1.58.36,1.56,1s.12,1.09,1.27,1.43,1.86.31,2.75,1c.69.57,1.22.62,1.55,0A4.28,4.28,0,0,1,37.23,13Z" transform="translate(-0.89 -4.32)"/><g class="cls-6"><path class="cls-14" d="M31.9,7.83l.18.22a5.06,5.06,0,0,0,.53.55,1.38,1.38,0,0,0,.41.29c.16.08.34.14.52.21l.57.22.15.07.14.08.14.09.06,0,.06.06a3.64,3.64,0,0,1,.39.51c.11.18.2.36.3.54l.27.5c0,.07.1.14.14.21l.15.21.24.35c.08.11.15.19.2.27l.17.23-.19-.22L36.12,12c-.08-.1-.16-.22-.26-.34l-.15-.2a1.7,1.7,0,0,1-.15-.22c-.1-.15-.19-.32-.29-.49s-.19-.35-.3-.53a2.57,2.57,0,0,0-.38-.49s0,0-.05-.05l-.07,0-.12-.08a.61.61,0,0,0-.14-.07l-.13-.07c-.19-.09-.38-.16-.57-.23S33.14,9,33,9a2.31,2.31,0,0,1-.41-.31l-.3-.32a3.07,3.07,0,0,1-.2-.27Z" transform="translate(-0.89 -4.32)"/><path class="cls-14" d="M35.81,11.58l-.19,0-.09,0-.1,0-.21-.05-.39-.12-.17-.08.19,0,.4.09.21.06.18.07Z" transform="translate(-0.89 -4.32)"/><path class="cls-14" d="M33.24,6.63s0,.06,0,.17,0,.27.1.46a2.12,2.12,0,0,0,.11.29l.06.15c0,.06,0,.11.08.16a2.69,2.69,0,0,0,.19.32c0,.05.07.1.1.16l.12.15a3.23,3.23,0,0,0,.25.29l.24.28c.08.09.14.2.21.29a1.92,1.92,0,0,1,.17.26,1.79,1.79,0,0,1,.12.24l0,.05L35,10a.29.29,0,0,0,0,.09.31.31,0,0,1,0,.13.06.06,0,0,1,0,0s0,0,0,0a.34.34,0,0,0,0-.13L35,10l0,0,0-.06a1.38,1.38,0,0,0-.13-.22,2,2,0,0,0-.18-.25l-.1-.13-.12-.14-.25-.28-.25-.29-.12-.16c0-.05-.07-.1-.1-.16s-.13-.22-.19-.33l-.07-.16-.06-.17a1.71,1.71,0,0,1-.09-.3,2.58,2.58,0,0,1-.07-.46A1.23,1.23,0,0,1,33.24,6.63Z" transform="translate(-0.89 -4.32)"/><path class="cls-14" d="M34.85,7.53a.66.66,0,0,1,0,.09c0,.06,0,.14,0,.24s0,.21,0,.34,0,.26,0,.39V9c0,.12,0,.24,0,.34s0,.18,0,.24a.62.62,0,0,0,0,.09.31.31,0,0,1,0-.09,2.27,2.27,0,0,0,0-.24c0-.1,0-.22,0-.34s0-.26,0-.39,0-.26,0-.39,0-.24,0-.34V7.53Z" transform="translate(-0.89 -4.32)"/></g><path class="cls-20" d="M37.78,8.32a1.44,1.44,0,0,0-.55-.75,2,2,0,0,0-.57-.21c-.38-.13-.34-.5-.35-.81,0-.8-.65-1-1.29-.66l-.09,0c.5-.13,1-.15,1.23.44.09.28,0,.58.06.86a.74.74,0,0,0,.5.34,1.68,1.68,0,0,1,1.1.91C37.85,8.54,37.8,8.37,37.78,8.32Z" transform="translate(-0.89 -4.32)"/><g class="cls-6"><path class="cls-9" d="M25.82,14.85l-.19.22-.49.61-.31.42-.16.23-.17.25c-.12.16-.23.34-.34.52s-.22.36-.32.55-.21.37-.3.56l-.14.29-.06.14-.06.14-.11.27-.06.14s0,.08,0,.13l-.09.25c0,.09-.05.16-.07.24s-.08.3-.11.43,0,.24-.06.33,0,.29,0,.29l0-.29c0-.09,0-.21,0-.34s.06-.27.1-.43,0-.16.06-.25,0-.17.08-.25,0-.1,0-.14l.05-.14c0-.09.07-.18.11-.28l.06-.14.06-.14c0-.09.09-.19.13-.29s.2-.38.3-.57l.33-.55c.12-.18.23-.36.35-.52l.17-.25c.06-.08.12-.15.17-.23l.33-.4c.2-.25.39-.45.51-.59S25.82,14.85,25.82,14.85Z" transform="translate(-0.89 -4.32)"/><path class="cls-9" d="M24.32,16.74s0,.06,0,.15-.05.23-.08.39,0,.16,0,.26l0,.29c0,.1,0,.21,0,.31s0,.22,0,.33,0,.21,0,.32a3,3,0,0,0,0,.31c0,.1,0,.2,0,.29a.68.68,0,0,0,0,.14s0,.08,0,.12,0,.16.05.22,0,.12,0,.17a1,1,0,0,0,0,.14L24.28,20a.82.82,0,0,0-.06-.16q0-.09-.06-.21a.65.65,0,0,0,0-.13.59.59,0,0,0,0-.13,1.45,1.45,0,0,1-.05-.3,1.65,1.65,0,0,1,0-.31c0-.11,0-.22,0-.33s0-.22,0-.33a3.16,3.16,0,0,1,0-.32,5.56,5.56,0,0,1,.11-.56c0-.16.08-.29.11-.38A.77.77,0,0,1,24.32,16.74Z" transform="translate(-0.89 -4.32)"/><path class="cls-9" d="M24.57,16.39l-.1,0-.25.11-.33.18-.18.11-.18.12-.17.14-.16.13-.15.14-.12.13-.1.11-.07.09-.07.08,0-.09.06-.1a.77.77,0,0,1,.09-.13,1.1,1.1,0,0,1,.11-.14,1,1,0,0,1,.14-.15L23.3,17l.17-.14.19-.12a.93.93,0,0,1,.19-.11,1.67,1.67,0,0,1,.35-.15l.26-.08Z" transform="translate(-0.89 -4.32)"/></g><path class="cls-9" d="M21.5,9.33s-.94-2.15.74-3.08c.61-.21,1.55.08,2.08-.55s.85-.7,1.4-.45a2.38,2.38,0,0,0,2,.11,2.13,2.13,0,0,1,2.08.12,1.46,1.46,0,0,1,.58,2A2,2,0,0,0,30,8.82,1.36,1.36,0,0,1,28.6,10c-1,.06-1.23.19-1.44.79s-.59,2.12-2,2.06S22.26,10.79,21.5,9.33Z" transform="translate(-0.89 -4.32)"/><path class="cls-10" d="M29.77,5.48a1.71,1.71,0,0,0-.49-.24,3.51,3.51,0,0,1-.61.39c-.55.28-1.14.43-1.7.66a6.93,6.93,0,0,0-3.33,3.4c-.35.83-.16,1.15-.45,2a3.28,3.28,0,0,0,2,1.13c1.38.06,1.76-1.45,2-2.06S27.61,10,28.6,10A1.36,1.36,0,0,0,30,8.82a2,2,0,0,1,.37-1.38A1.46,1.46,0,0,0,29.77,5.48Z" transform="translate(-0.89 -4.32)"/><polygon class="cls-21" points="34.38 21.11 34.15 21.55 34.56 21.99 34.7 21.64 34.38 21.11"/><path class="cls-22" d="M35.45,26.31A6.25,6.25,0,0,0,37.68,26c0-.42,0-.32,0-.32L35.59,26Z" transform="translate(-0.89 -4.32)"/><polygon class="cls-23" points="34.38 21.11 34.7 21.64 36.82 21.34 36.44 20.69 34.38 21.11"/><path class="cls-9" d="M37.29,20.79s1.43-1.36,5.72,0c1.45,0,2.44.61,2.43,1.44a1.35,1.35,0,0,1-.72,1.25,1.59,1.59,0,0,0-.5.89,1.16,1.16,0,0,1-1.43.61c-.45-.1-.53-.64-.53-.64s-.92.94-1.7.84-.57-.9-1.16-.95-.8.68-1.49.39-.23-.65-.33-1.07-.44-.16-.51-.62.27-.52.09-.7A1.35,1.35,0,0,1,37.29,20.79Z" transform="translate(-0.89 -4.32)"/><path class="cls-10" d="M43.91,23a4.87,4.87,0,0,1-1.85-.39,12.72,12.72,0,0,0-1.8-.92,5.75,5.75,0,0,0-1.69-.28,4.8,4.8,0,0,0-1.55.21.91.91,0,0,0,.14.53c.18.18-.17.25-.09.7s.4.2.51.62-.36.79.33,1.07.9-.44,1.49-.39.38.84,1.16.95,1.7-.84,1.7-.84.08.54.53.64a1.16,1.16,0,0,0,1.43-.61,1.59,1.59,0,0,1,.5-.89,1.77,1.77,0,0,0,.52-.48A4.91,4.91,0,0,1,43.91,23Z" transform="translate(-0.89 -4.32)"/><g class="cls-6"><path class="cls-9" d="M37.54,21.43h.22a5.33,5.33,0,0,1,.57,0l.38,0a3.34,3.34,0,0,1,.43.05c.14,0,.29.05.45.07l.46.11.23.06.11,0,.11,0,.43.16.38.18.18.1.08,0,.08.05.27.18.19.16.17.14-.18-.13a1.86,1.86,0,0,1-.2-.14,2.79,2.79,0,0,1-.28-.16l-.08,0-.08-.05-.18-.08-.39-.17c-.13-.06-.28-.1-.42-.15l-.11,0-.11,0L40,21.77l-.45-.11-.45-.08-.41-.06-.38,0-.57-.05Z" transform="translate(-0.89 -4.32)"/><path class="cls-9" d="M39.91,21.66l.09-.05.24-.12.17-.06a1.17,1.17,0,0,1,.2-.06l.21-.05.22,0,.22,0h.42l.18,0,.15,0,.12,0,.1,0h-.75l-.43,0-.22,0-.2,0-.37.09A3.24,3.24,0,0,0,39.91,21.66Z" transform="translate(-0.89 -4.32)"/><path class="cls-9" d="M38.53,21.44l.22.09.21.12.23.16.11.09.1.09a.81.81,0,0,1,.09.1l.08.08.09.15,0,.06,0-.05-.12-.12-.08-.07-.1-.08-.1-.09-.11-.08L39,21.8l-.11-.08-.19-.14Z" transform="translate(-0.89 -4.32)"/></g><g class="cls-6"><path class="cls-14" d="M23.51,9.9h0v0s0-.08.06-.14a4.3,4.3,0,0,1,.22-.49L24,8.9c.06-.11.13-.22.21-.34s.17-.23.26-.35l.29-.34a6,6,0,0,1,.64-.6A3.92,3.92,0,0,1,25.7,7l.3-.2.26-.16.2-.11.19-.09-.18.11-.19.13a1.59,1.59,0,0,0-.25.17l-.29.21-.31.25a7.1,7.1,0,0,0-.62.61l-.29.33c-.09.11-.17.23-.25.34a4.49,4.49,0,0,0-.41.64c-.11.19-.2.35-.26.47s-.05.11-.06.14l0,0Z" transform="translate(-0.89 -4.32)"/><path class="cls-14" d="M25,6.44s0,.1-.06.24,0,.16-.06.24l0,.14,0,.14,0,.15,0,.13c0,.09,0,.18,0,.25l0,.18a.28.28,0,0,0,0,.06V7.91s0-.11,0-.18a2.46,2.46,0,0,1,0-.26.68.68,0,0,1,0-.14.77.77,0,0,1,0-.15c0-.09,0-.19.08-.28s.06-.17.09-.24S25,6.44,25,6.44Z" transform="translate(-0.89 -4.32)"/></g><g class="cls-6"><path class="cls-9" d="M31.46,20.74s0-.07.09-.18a5.2,5.2,0,0,1,.28-.46l.2-.29a3.33,3.33,0,0,1,.24-.32l.27-.33.3-.33.16-.15.16-.15a4.09,4.09,0,0,1,.33-.28A3.4,3.4,0,0,1,33.8,18l.15-.11.15-.09.26-.16a1.36,1.36,0,0,1,.2-.11l.18-.1-.17.11-.19.13-.25.17a.71.71,0,0,1-.14.1l-.14.12-.31.25-.31.28-.16.15-.15.16-.31.32-.27.32c-.09.11-.18.21-.25.31l-.22.28c-.13.18-.23.33-.3.44A1.38,1.38,0,0,0,31.46,20.74Z" transform="translate(-0.89 -4.32)"/><path class="cls-9" d="M31.63,20.51a.17.17,0,0,1,.05-.05.94.94,0,0,1,.14-.12l.1-.07L32,20.2l.13-.07.14-.05.15-.06.14,0a.35.35,0,0,1,.14,0,.25.25,0,0,1,.12,0l.18,0h.07l-.07,0a1.22,1.22,0,0,1-.17,0l-.12,0-.12,0-.14,0-.14.06-.14,0-.13.06-.12.06-.11.05-.16.08Z" transform="translate(-0.89 -4.32)"/><path class="cls-9" d="M32.06,19.75s0-.09,0-.24,0-.33.06-.52,0-.19.07-.28l.09-.23a1.26,1.26,0,0,1,.07-.16l0-.05a.28.28,0,0,1,0,.06s0,.1,0,.17,0,.15,0,.24l0,.13,0,.14c0,.09,0,.18-.05.27s0,.17,0,.24l0,.17A.28.28,0,0,0,32.06,19.75Z" transform="translate(-0.89 -4.32)"/></g><g class="cls-6"><path class="cls-14" d="M37.28,19.72l.2-.13.55-.32.79-.4.46-.2.49-.19.49-.17.48-.14.46-.12.42-.08.35,0,.27,0,.24,0-.23,0L42,18l-.34.07a3.48,3.48,0,0,0-.41.1l-.45.12c-.16,0-.32.1-.48.15l-.49.17-.48.19-.46.19-.43.19-.38.18c-.23.12-.43.21-.56.29Z" transform="translate(-0.89 -4.32)"/><path class="cls-14" d="M39.87,18.3l.05-.07a1.11,1.11,0,0,1,.12-.18.52.52,0,0,1,.1-.11l.11-.13.13-.12.14-.11.14-.11.15-.1.14-.08.13-.07.21-.08.08,0-.07.05-.19.11-.12.08-.13.1-.14.1-.14.11-.14.11-.13.11-.12.11-.11.1-.15.15Z" transform="translate(-0.89 -4.32)"/></g><path class="cls-19" d="M31.87,12.58c-.45-.33-.64-.87-.19-1.74l-.05-.38A1.36,1.36,0,0,0,31.87,12.58Z" transform="translate(-0.89 -4.32)"/><path class="cls-18" d="M30.33,15.43c-2.94-1-3-2.77-3-3.1A3.27,3.27,0,0,0,27.48,14c.9,2.42,5.83,2.8,7.73,1.24,0-.22-.07-.46-.1-.68A5.57,5.57,0,0,1,30.33,15.43Z" transform="translate(-0.89 -4.32)"/><path class="cls-17" d="M30.33,15.43a5.57,5.57,0,0,0,4.78-.83l-.25-1.54a5.57,5.57,0,0,1-3-.48,1.36,1.36,0,0,1-.24-2.12,3,3,0,0,0-1.52-.18,3,3,0,0,1-1.42-.13,3.65,3.65,0,0,0-1.38,2.18C27.3,12.66,27.39,14.45,30.33,15.43Z" transform="translate(-0.89 -4.32)"/><g class="cls-24"><path class="cls-17" d="M30,14.44a4.6,4.6,0,0,1-1.74-1.18,1.74,1.74,0,0,1-.36-1.32,3.31,3.31,0,0,1,.65-1.21c.05-.09,0-.19-.09-.09s-.32.27-.44.44a4.25,4.25,0,0,0-.31.6,2.14,2.14,0,0,0,0,1.37,2.77,2.77,0,0,0,2.15,1.73C30,14.8,30.15,14.51,30,14.44Z" transform="translate(-0.89 -4.32)"/><path class="cls-17" d="M30.81,14.85c-.14-.06-.32-.08-.42-.2s-.19.11-.14.18a.44.44,0,0,0,.47.23C30.78,15.05,30.89,14.88,30.81,14.85Z" transform="translate(-0.89 -4.32)"/></g><path class="cls-25" d="M34.49,19.6a5.7,5.7,0,0,0-2.14,1s0,.1,0,.07a8.22,8.22,0,0,1,2.12-.94S34.54,19.58,34.49,19.6Z" transform="translate(-0.89 -4.32)"/><path class="cls-25" d="M35.32,19.46l-.37,0s-.08.12,0,.11l.36,0S35.36,19.46,35.32,19.46Z" transform="translate(-0.89 -4.32)"/><path class="cls-25" d="M20.38,22.39A5.81,5.81,0,0,0,18,22.5s-.07.08,0,.07a8.61,8.61,0,0,1,2.32-.1S20.43,22.39,20.38,22.39Z" transform="translate(-0.89 -4.32)"/><path class="cls-25" d="M21.2,22.57l-.35-.12s-.12.08-.07.09l.34.11S21.24,22.58,21.2,22.57Z" transform="translate(-0.89 -4.32)"/><g class="cls-6"><path class="cls-14" d="M13.43,14.39a1.85,1.85,0,0,0-.1.18l-.1.22-.13.28c0,.11-.08.22-.13.34l-.13.39a1.72,1.72,0,0,1-.07.21,1.6,1.6,0,0,1,0,.21c0,.15-.07.3-.1.45s0,.29-.08.44,0,.3,0,.44,0,.28,0,.41a2.22,2.22,0,0,0,0,.36c0,.12,0,.22,0,.32a2.09,2.09,0,0,1,0,.24c0,.13,0,.21,0,.21l0-.21a2.32,2.32,0,0,0,0-.24,1.62,1.62,0,0,1,0-.32c0-.11,0-.24,0-.37s0-.27,0-.41,0-.29,0-.44,0-.3.07-.45.07-.3.11-.45l.06-.22a1.18,1.18,0,0,1,.07-.2,3.54,3.54,0,0,1,.14-.39c0-.12.1-.24.15-.34a1,1,0,0,0,.07-.15l.08-.13a2,2,0,0,1,.12-.21Z" transform="translate(-0.89 -4.32)"/><path class="cls-14" d="M12.93,15.42a.5.5,0,0,1,0,.11c0,.07,0,.17,0,.29s0,.25,0,.4l0,.23c0,.07,0,.15,0,.23s0,.16.05.23,0,.15,0,.22l.06.21a1.89,1.89,0,0,0,.06.18,1.42,1.42,0,0,1,0,.16l.05.11,0,.1-.06-.09-.13-.26a1.59,1.59,0,0,1-.08-.18,1.18,1.18,0,0,1-.07-.2.86.86,0,0,1-.06-.23A1.55,1.55,0,0,1,13,16.7a4,4,0,0,1-.06-.47c0-.15,0-.29,0-.41s0-.22,0-.29A.87.87,0,0,0,12.93,15.42Z" transform="translate(-0.89 -4.32)"/><path class="cls-14" d="M12.51,16.88l0,.06-.11.17-.14.23-.08.14a.64.64,0,0,0-.08.14c0,.05-.05.09-.07.14a.43.43,0,0,1,0,.07l0,.07-.11.26c0,.07-.05.14-.06.18l0,.07a.42.42,0,0,1,0-.07.88.88,0,0,1,0-.2.79.79,0,0,1,0-.13s0-.09.05-.14a.94.94,0,0,1,.06-.15l.07-.15.09-.14a1,1,0,0,1,.08-.14c.07-.08.12-.16.18-.22a.92.92,0,0,1,.14-.14Z" transform="translate(-0.89 -4.32)"/></g><path class="cls-20" d="M12.07,13.69c-.23.17-.47.29-.54.6-.14.67.78,1-.16,1.63-.52.36-1.72,1.33-1,2,.1.1,0,0,0-.09-.63-.87,1.23-1.5,1.57-2.13A.83.83,0,0,0,12,15a1.3,1.3,0,0,0-.17-.38c-.18-.32,0-.57.25-.81C12.12,13.77,12.14,13.63,12.07,13.69Z" transform="translate(-0.89 -4.32)"/><g class="cls-6"><path class="cls-26" d="M34.12,9.68l-.35.58v.33L36,11.5l.71-.77-.11-.61A8.68,8.68,0,0,0,34.12,9.68Z" transform="translate(-0.89 -4.32)"/><path class="cls-26" d="M26.34,17.54a10.37,10.37,0,0,0-2.61.19l-.27.81.07.62,3,0,0-.7Z" transform="translate(-0.89 -4.32)"/><path class="cls-26" d="M18.48,11.11,17.17,11a7.3,7.3,0,0,0-.67,2.87l.21.7.76.07,1.17-2.95-.15-.51Z" transform="translate(-0.89 -4.32)"/><path class="cls-26" d="M24.8,8.61l0,.83.32.18a5.74,5.74,0,0,1,3.26-.44l.11-.28.32-.79A4.39,4.39,0,0,0,24.8,8.61Z" transform="translate(-0.89 -4.32)"/><path class="cls-26" d="M41.47,16.3l-.66-.58s-3,0-3.27,2.59v0l.08.43,1,.36s.35-1.71,2.85-2.33Z" transform="translate(-0.89 -4.32)"/><path class="cls-26" d="M39.37,15.33l.11.15,1.06,0,.08-.17a5.38,5.38,0,0,0,.43-2.89c-.77,0-1.27,0-1.27,0l0,0-.16.2a5.81,5.81,0,0,1-.27,2.65Z" transform="translate(-0.89 -4.32)"/></g><path class="cls-23" d="M36.64,9.82a8.68,8.68,0,0,0-2.52-.44l-.35.58,2.29.65Z" transform="translate(-0.89 -4.32)"/><polygon class="cls-21" points="32.88 5.64 32.87 5.97 35.15 6.87 35.18 6.29 32.88 5.64"/><polygon class="cls-22" points="35.75 5.5 35.18 6.29 35.15 6.87 35.87 6.11 35.75 5.5"/><path class="cls-23" d="M26.34,17.24a10.37,10.37,0,0,0-2.61.19l-.27.81,3-.06Z" transform="translate(-0.89 -4.32)"/><polygon class="cls-22" points="22.58 13.92 22.64 14.54 25.6 14.56 25.57 13.86 22.58 13.92"/><path class="cls-23" d="M18.49,10.83v0l-1.31-.16a7.3,7.3,0,0,0-.67,2.87l.83.17A13.6,13.6,0,0,1,18.49,10.83Z" transform="translate(-0.89 -4.32)"/><polygon class="cls-21" points="15.61 9.2 15.82 9.9 16.58 9.96 16.45 9.36 15.61 9.2"/><path class="cls-22" d="M18.49,10.83a13.6,13.6,0,0,0-1.16,2.86l.14.6,1.17-2.95Z" transform="translate(-0.89 -4.32)"/><path class="cls-23" d="M24.8,8.31l.42.6a3.75,3.75,0,0,1,3.31-.31l.32-.79A4.39,4.39,0,0,0,24.8,8.31Z" transform="translate(-0.89 -4.32)"/><polygon class="cls-21" points="23.91 3.99 23.95 4.82 24.27 5 24.33 4.59 23.91 3.99"/><path class="cls-22" d="M25.22,8.91l-.06.41a5.74,5.74,0,0,1,3.26-.44l.11-.28A3.75,3.75,0,0,0,25.22,8.91Z" transform="translate(-0.89 -4.32)"/><path class="cls-23" d="M41.47,16l-.66-.58s-3,0-3.27,2.59v0a3.87,3.87,0,0,1,1,.4C38.51,17.64,39.59,16.41,41.47,16Z" transform="translate(-0.89 -4.32)"/><path class="cls-21" d="M37.55,18l.08.43,1,.36-.15-.39A3.87,3.87,0,0,0,37.55,18Z" transform="translate(-0.89 -4.32)"/><path class="cls-22" d="M41.52,16.5l-.05-.5c-1.88.41-3,1.64-2.95,2.44l.15.39S39,17.12,41.52,16.5Z" transform="translate(-0.89 -4.32)"/><path class="cls-21" d="M40,13.58a4.58,4.58,0,0,0-.19-1.45l-.16.2A5.81,5.81,0,0,1,39.33,15C39.75,15.07,39.89,14.34,40,13.58Z" transform="translate(-0.89 -4.32)"/><path class="cls-22" d="M39.48,15.18l1.06,0,.08-.17-1.25,0Z" transform="translate(-0.89 -4.32)"/><path class="cls-23" d="M41.05,12.09c-.77,0-1.27,0-1.27,0l0,0A4.58,4.58,0,0,1,40,13.58c-.06.76-.2,1.49-.62,1.4l0,0,1.25,0A5.4,5.4,0,0,0,41.05,12.09Z" transform="translate(-0.89 -4.32)"/><g class="cls-6"><path class="cls-26" d="M19.6,22.42c-1.82,0-3.29.68-3.29,1.51a.49.49,0,0,0,0,.12h0a3.17,3.17,0,0,0,3.3,2.36c2.84,0,3.24-1.74,3.27-2.41h0v-.07C22.88,23.1,21.41,22.42,19.6,22.42Z" transform="translate(-0.89 -4.32)"/><path class="cls-26" d="M23.91,10.37c-.95-1.27-2.47-1.74-3.41-1s-.92,2.29,0,3.56,2.48,1.75,3.41,1S24.86,11.65,23.91,10.37Z" transform="translate(-0.89 -4.32)"/><path class="cls-26" d="M20.81,20.89h0a8.38,8.38,0,0,0,.77-1.8s-.05-.11-.15-.28A4.2,4.2,0,0,0,17.24,17c-.81.07-2.8.69-3.45,2l0,.05c-.13.86-.13.93-.13.93l1.23,1.86A9.11,9.11,0,0,1,20.81,20.89Z" transform="translate(-0.89 -4.32)"/><path class="cls-26" d="M37.34,20.36c-.48-1-2.2-1.09-4-.27a6.52,6.52,0,0,0-1.6,1.05,6.21,6.21,0,0,0-4.28,0,4.62,4.62,0,0,0-3.35,3.91l.24.67,2.33.45a3.91,3.91,0,0,1,4.27-2l.14-.25a2.07,2.07,0,0,0,1.68,1.25,4.11,4.11,0,0,0,4.57-3.64h0A1.67,1.67,0,0,0,37.34,20.36Z" transform="translate(-0.89 -4.32)"/></g><path class="cls-27" d="M16.16,23.8a3.17,3.17,0,0,0,3.3,2.36c2.84,0,3.24-1.74,3.27-2.41Z" transform="translate(-0.89 -4.32)"/><path class="cls-28" d="M22.73,23.68c0,.83-1.47,1.51-3.28,1.51s-3.29-.68-3.29-1.51,1.47-1.51,3.29-1.51S22.73,22.85,22.73,23.68Z" transform="translate(-0.89 -4.32)"/><path class="cls-29" d="M22.3,23.56c0,.65-1.28,1.18-2.85,1.18s-2.85-.53-2.85-1.18,1.27-1.19,2.85-1.19S22.3,22.9,22.3,23.56Z" transform="translate(-0.89 -4.32)"/><path class="cls-30" d="M20.62,23.45s1.08.11,1.05-.2-1.21-.75-3-.51-2.54,1-1.13,1.28,3.37.49,3.83.07S21.3,23.6,20.62,23.45Z" transform="translate(-0.89 -4.32)"/><path class="cls-31" d="M20.09,23.69s.33.13.3.26S19.81,23.6,20.09,23.69Z" transform="translate(-0.89 -4.32)"/><path class="cls-31" d="M20.13,23.22s.34-.24.45-.15S19.85,23.43,20.13,23.22Z" transform="translate(-0.89 -4.32)"/><path class="cls-31" d="M19.58,23.1s.21-.27.32-.19S19.42,23.34,19.58,23.1Z" transform="translate(-0.89 -4.32)"/><path class="cls-31" d="M19.05,23.08s.08-.21.17-.19S19,23.27,19.05,23.08Z" transform="translate(-0.89 -4.32)"/><path class="cls-31" d="M18.51,23.12s0-.12.1-.11S18.48,23.23,18.51,23.12Z" transform="translate(-0.89 -4.32)"/><path class="cls-31" d="M19.4,23.64s.15.16.09.23S19.26,23.51,19.4,23.64Z" transform="translate(-0.89 -4.32)"/><path class="cls-31" d="M18.65,23.66s.08.09.05.13S18.57,23.59,18.65,23.66Z" transform="translate(-0.89 -4.32)"/><path class="cls-28" d="M23.76,10.12c.95,1.28,1,2.87,0,3.57s-2.46.23-3.41-1-.95-2.87,0-3.56S22.81,8.85,23.76,10.12Z" transform="translate(-0.89 -4.32)"/><path class="cls-29" d="M23.54,10.27c.88,1.18.92,2.62.1,3.23s-2.19.15-3.06-1-.92-2.62-.1-3.23S22.67,9.1,23.54,10.27Z" transform="translate(-0.89 -4.32)"/><path class="cls-30" d="M21.59,10.46s-.44-1-.3-1.14a2.8,2.8,0,0,1,2.08,1.47A2.4,2.4,0,0,1,23.74,13c-.16.17-.82-.57-.82-.57s.42.85.25,1-1.77.23-2.7-1.68C20,10.62,20.22,8.35,21.59,10.46Z" transform="translate(-0.89 -4.32)"/><path class="cls-31" d="M22.4,12.56s0,.25-.1.27S22.39,12.34,22.4,12.56Z" transform="translate(-0.89 -4.32)"/><path class="cls-31" d="M23.24,11.82s.2,0,.21.09S23.07,11.83,23.24,11.82Z" transform="translate(-0.89 -4.32)"/><path class="cls-31" d="M22.81,11.37s.21-.07.25,0S22.63,11.44,22.81,11.37Z" transform="translate(-0.89 -4.32)"/><path class="cls-31" d="M22.5,10.78s.22-.06.26,0S22.32,10.85,22.5,10.78Z" transform="translate(-0.89 -4.32)"/><path class="cls-31" d="M22.14,10.22s0-.23.09-.24S22.15,10.41,22.14,10.22Z" transform="translate(-0.89 -4.32)"/><path class="cls-31" d="M21.59,11.76s-.23.08-.28,0S21.79,11.68,21.59,11.76Z" transform="translate(-0.89 -4.32)"/><path class="cls-31" d="M21.3,11.26s-.32.05-.36-.07S21.57,11.21,21.3,11.26Z" transform="translate(-0.89 -4.32)"/><path class="cls-31" d="M21.16,10.75s-.43-.05-.47-.19S21.53,10.78,21.16,10.75Z" transform="translate(-0.89 -4.32)"/><path class="cls-31" d="M22,12.22s-.13.22-.22.18S22.14,12,22,12.22Z" transform="translate(-0.89 -4.32)"/><path class="cls-25" d="M20.29,12a3.08,3.08,0,0,1-.18-2.23c0-.07,0-.05-.06,0a2.94,2.94,0,0,0,.15,2.36C20.23,12.14,20.31,12,20.29,12Z" transform="translate(-0.89 -4.32)"/><path class="cls-25" d="M20.52,12.32a.48.48,0,0,1-.09-.11s-.1.06-.07.09l.1.12S20.55,12.35,20.52,12.32Z" transform="translate(-0.89 -4.32)"/><path class="cls-17" d="M30.73,23.56c.62-1.27,1-2.13,1.19-2.53a5.9,5.9,0,0,0-4.58-.1A4.62,4.62,0,0,0,24,24.84l2.35.74A3.46,3.46,0,0,1,30.73,23.56Z" transform="translate(-0.89 -4.32)"/><polygon class="cls-32" points="23.11 20.52 23.34 21.19 25.67 21.64 25.46 21.26 23.11 20.52"/><path class="cls-19" d="M26.34,25.58l.22.38a3.91,3.91,0,0,1,4.27-2l-.1-.38A3.46,3.46,0,0,0,26.34,25.58Z" transform="translate(-0.89 -4.32)"/><path class="cls-32" d="M31.92,21c-.18.4-.57,1.26-1.19,2.53l.1.38c.94-1.7,1.28-2.45,1.28-2.45A4,4,0,0,1,31.92,21Z" transform="translate(-0.89 -4.32)"/><g class="cls-24"><path class="cls-17" d="M29.27,20.76a5.19,5.19,0,0,1-.79,0,4.64,4.64,0,0,0-.84.18,5,5,0,0,0-1.46.74,6.65,6.65,0,0,0-1.09,1,4,4,0,0,0-.81,1.33c-.05.16.09.17.16,0a6.36,6.36,0,0,1,2-2.25,4.74,4.74,0,0,1,1.45-.65,4.1,4.1,0,0,1,1-.16.77.77,0,0,0,.37-.08C29.31,20.93,29.38,20.72,29.27,20.76Z" transform="translate(-0.89 -4.32)"/><path class="cls-17" d="M30.17,20.75a2.94,2.94,0,0,0-.42,0c-.08,0-.18.21-.08.21a2.17,2.17,0,0,0,.44,0C30.18,21,30.27,20.77,30.17,20.75Z" transform="translate(-0.89 -4.32)"/></g><path class="cls-17" d="M20.44,20.11l.87-1.54a4.2,4.2,0,0,0-4.22-1.86c-.81.07-2.8.69-3.45,2l1.27,2.06S16.84,19,20.44,20.11Z" transform="translate(-0.89 -4.32)"/><path class="cls-32" d="M13.64,18.68l0,.05c-.13.86-.13.93-.13.93l1.23,1.86.2-.78Z" transform="translate(-0.89 -4.32)"/><path class="cls-32" d="M21.46,18.85s-.05-.11-.15-.28l-.87,1.54.22.52h0A8.63,8.63,0,0,0,21.46,18.85Z" transform="translate(-0.89 -4.32)"/><path class="cls-19" d="M20.44,20.11c-3.6-1.08-5.53.63-5.53.63l-.2.78a9.11,9.11,0,0,1,5.95-.88h0Z" transform="translate(-0.89 -4.32)"/><g class="cls-24"><path class="cls-17" d="M20.43,17.93a2.4,2.4,0,0,0-1.3-.79,4.72,4.72,0,0,0-2-.2,4.27,4.27,0,0,0-2.94,1.35c0,.06,0,.22.05.13a4.85,4.85,0,0,1,6-.24C20.37,18.24,20.48,18,20.43,17.93Z" transform="translate(-0.89 -4.32)"/><path class="cls-17" d="M20.81,18.3a.41.41,0,0,0-.12-.14c-.05-.05-.15.12-.11.17a.5.5,0,0,1,.1.14s.08,0,.1,0S20.84,18.34,20.81,18.3Z" transform="translate(-0.89 -4.32)"/></g><path class="cls-27" d="M30.69,22.63s.13,2.08,2,2.31a4.11,4.11,0,0,0,4.57-3.64C36.31,22.49,30.69,22.63,30.69,22.63Z" transform="translate(-0.89 -4.32)"/><path class="cls-28" d="M37.19,20.11c.47,1-.44,2.7-2.2,3.52s-3.72.47-4.2-.56.67-2.41,2.43-3.23S36.71,19.08,37.19,20.11Z" transform="translate(-0.89 -4.32)"/><path class="cls-29" d="M36.92,20.19c.48.8-.46,2.2-2.08,2.95s-3.37.53-3.76-.32.68-2.07,2.31-2.81C34.72,19.4,36.4,19.3,36.92,20.19Z" transform="translate(-0.89 -4.32)"/><path class="cls-30" d="M34.44,20.91l2.14-.66s.93.47-.63,1.85-3.6,1.66-4.37.92c-.45-.57.24-2.25,2.6-3.08.57-.17,1.27-.19,1.42,0S34.44,20.91,34.44,20.91Z" transform="translate(-0.89 -4.32)"/><path class="cls-31" d="M33.06,22s-.89.82-1.11.67S32.69,22.18,33.06,22Z" transform="translate(-0.89 -4.32)"/><path class="cls-31" d="M34.21,20.77a1.16,1.16,0,0,1,.29-.7C34.62,20,34.53,20.57,34.21,20.77Z" transform="translate(-0.89 -4.32)"/><path class="cls-31" d="M33.61,21a.87.87,0,0,1,0-.5C33.77,20.23,33.77,20.63,33.61,21Z" transform="translate(-0.89 -4.32)"/><path class="cls-31" d="M33.11,20.88s.1.27,0,.33S33,20.66,33.11,20.88Z" transform="translate(-0.89 -4.32)"/><path class="cls-31" d="M32.48,21.3s.18.18.12.26S32.31,21.16,32.48,21.3Z" transform="translate(-0.89 -4.32)"/><path class="cls-31" d="M32.13,21.73s.18.09.15.17S32,21.65,32.13,21.73Z" transform="translate(-0.89 -4.32)"/><path class="cls-31" d="M33.41,23s-.1-.18,0-.22S33.5,23.15,33.41,23Z" transform="translate(-0.89 -4.32)"/><path class="cls-31" d="M33.87,22.83s-.2-.19-.14-.28S34.06,23,33.87,22.83Z" transform="translate(-0.89 -4.32)"/><path class="cls-31" d="M34.52,22.48s-.23-.15-.18-.25S34.73,22.6,34.52,22.48Z" transform="translate(-0.89 -4.32)"/><path class="cls-31" d="M35.2,22s-.35-.05-.35-.19S35.5,22,35.2,22Z" transform="translate(-0.89 -4.32)"/><path class="cls-31" d="M35.88,21.29s-.4.11-.47-.05S36.21,21.18,35.88,21.29Z" transform="translate(-0.89 -4.32)"/><path class="cls-33" d="M33.56,16.74c-.29.15-.44.37-.77.37s-.47-.22-.62-.23a.91.91,0,0,0-.69.25c-.59.53-.14,1.65-.49,2.3,0,.08,0,.11.07,0a1.7,1.7,0,0,0,.26-.64c.12-.54-.09-1.37.6-1.65.22-.09.6.13.85.13s.48-.25.7-.42S33.71,16.66,33.56,16.74Z" transform="translate(-0.89 -4.32)"/><path class="cls-33" d="M26,13.93a1.09,1.09,0,0,0-1,.35c-.18.16-.32.36-.5.52a3.35,3.35,0,0,1-1,.52,3.33,3.33,0,0,0-1.75,2c-.06.15-.1.31,0,.19a7.38,7.38,0,0,1,.81-1.27,3.16,3.16,0,0,1,1.34-.83,2.44,2.44,0,0,0,.79-.51c.42-.4.63-.74,1.26-.82C26,14.08,26.06,13.94,26,13.93Z" transform="translate(-0.89 -4.32)"/><path class="cls-34" d="M32.28,13.63a.17.17,0,0,0-.13.08.25.25,0,0,0-.06.15s0,.1.06.1.18-.15.19-.24S32.32,13.63,32.28,13.63Z" transform="translate(-0.89 -4.32)"/><path class="cls-34" d="M34.2,14.23c-.11,0-.21.26-.1.26S34.31,14.23,34.2,14.23Z" transform="translate(-0.89 -4.32)"/><path class="cls-34" d="M30.12,12.92c-.13,0-.27.33-.13.33S30.26,12.92,30.12,12.92Z" transform="translate(-0.89 -4.32)"/><path class="cls-34" d="M31.89,14.86h0v0s-.08,0-.11,0a.23.23,0,0,0-.07.15.33.33,0,0,0,0,.1c0,.05.06.05.1,0l0,0a.24.24,0,0,0,.08-.16h0S31.92,14.87,31.89,14.86Z" transform="translate(-0.89 -4.32)"/><path class="cls-34" d="M33.37,11.15H33.3a.15.15,0,0,0-.14.09c-.07.1,0,.27.11.24s.12-.09.14-.15A.16.16,0,0,0,33.37,11.15Z" transform="translate(-0.89 -4.32)"/><path class="cls-34" d="M31.5,8.92c0-.08-.12-.07-.17,0a.2.2,0,0,0,0,.19c0,.08.14,0,.17-.05V9A.18.18,0,0,0,31.5,8.92Z" transform="translate(-0.89 -4.32)"/><path class="cls-34" d="M38.81,11.74h-.05c-.06,0-.12.08-.13.13s0,.14.08.14.14-.12.13-.19S38.85,11.75,38.81,11.74Z" transform="translate(-0.89 -4.32)"/><path class="cls-34" d="M28.74,11.53s-.11.13,0,.13S28.79,11.53,28.74,11.53Z" transform="translate(-0.89 -4.32)"/><path class="cls-34" d="M26.33,10l0,0s0,.09,0,.08.05,0,.05-.05a.13.13,0,0,0,0-.06S26.34,10,26.33,10Z" transform="translate(-0.89 -4.32)"/><path class="cls-34" d="M24.93,11c-.06,0-.12.14-.06.14S25,11,24.93,11Z" transform="translate(-0.89 -4.32)"/><path class="cls-34" d="M29,13.59s-.09.11,0,.11S29,13.59,29,13.59Z" transform="translate(-0.89 -4.32)"/><path class="cls-34" d="M32.23,6.44s-.09.1,0,.1S32.27,6.44,32.23,6.44Z" transform="translate(-0.89 -4.32)"/><path class="cls-34" d="M23,8.42l0,0a0,0,0,0,0,0,0c-.05,0-.09,0-.12,0a.14.14,0,0,0,0,.11c.05.08.14,0,.17,0A.07.07,0,0,0,23,8.42Z" transform="translate(-0.89 -4.32)"/><path class="cls-34" d="M19.13,9.06A.11.11,0,0,0,19,9l0,0,0,0s-.08.14,0,.18h0s0,0,.05,0a.17.17,0,0,0,.11-.09h0v0A.14.14,0,0,0,19.13,9.06Z" transform="translate(-0.89 -4.32)"/><path class="cls-34" d="M17.88,10.26h0a.14.14,0,0,0,0-.06v0a.06.06,0,0,0-.08-.06c-.05,0-.08.05-.09.09s0,.07,0,.1.11,0,.15,0Z" transform="translate(-0.89 -4.32)"/><path class="cls-34" d="M15.76,13.48v0c0-.05,0-.08-.08-.07a.1.1,0,0,0-.13.06.17.17,0,0,0,0,.14v0s0,.05,0,.05h0C15.7,13.72,15.78,13.56,15.76,13.48Z" transform="translate(-0.89 -4.32)"/><path class="cls-34" d="M14.4,15.23a.11.11,0,0,0-.14,0,.22.22,0,0,0-.08.13c0,.12.12.15.21.11a.22.22,0,0,0,.08-.15A.12.12,0,0,0,14.4,15.23Z" transform="translate(-0.89 -4.32)"/><path class="cls-34" d="M20.37,16s-.07-.09-.12-.06l-.05,0a.15.15,0,0,0,0,.1c0,.05,0,.12.1.12a.12.12,0,0,0,.1-.1l0,0A.11.11,0,0,0,20.37,16Z" transform="translate(-0.89 -4.32)"/><path class="cls-34" d="M18.88,17.43h-.07s-.06,0-.07.06,0,.06,0,.08h0s0,0,0,0h0a.06.06,0,0,0,.06,0C18.88,17.57,18.93,17.47,18.88,17.43Z" transform="translate(-0.89 -4.32)"/><path class="cls-34" d="M13,18.89h0s-.09.09-.07.14a.07.07,0,0,0,.11.05l0,0a.1.1,0,0,0,0-.05C13.11,19,13.06,18.85,13,18.89Z" transform="translate(-0.89 -4.32)"/><path class="cls-34" d="M12.84,20.72c0-.06-.06-.08-.11-.07a.12.12,0,0,0-.09.13.08.08,0,0,0,.11,0h0A.11.11,0,0,0,12.84,20.72Z" transform="translate(-0.89 -4.32)"/><path class="cls-34" d="M12.16,20.33s-.06,0-.07.06v0s0,0,0,.06.05,0,.07,0l0,0v0C12.24,20.39,12.21,20.35,12.16,20.33Z" transform="translate(-0.89 -4.32)"/><path class="cls-34" d="M15.53,18.35s-.09.11,0,.11S15.57,18.35,15.53,18.35Z" transform="translate(-0.89 -4.32)"/><path class="cls-34" d="M16.91,18.67l0,0,0,0s0,0-.06,0a.21.21,0,0,0-.06.1.07.07,0,0,0,.05.09.12.12,0,0,0,.11-.11v0S16.92,18.67,16.91,18.67Z" transform="translate(-0.89 -4.32)"/><path class="cls-34" d="M14.33,21.33s0,0,0,0h0c-.07-.05-.14.05-.13.12v0s0,.08.08,0S14.36,21.39,14.33,21.33Z" transform="translate(-0.89 -4.32)"/><path class="cls-34" d="M18.1,21.24h0a.11.11,0,0,0-.08,0,.13.13,0,0,0,0,.13s.05,0,.09,0S18.22,21.25,18.1,21.24Z" transform="translate(-0.89 -4.32)"/><path class="cls-34" d="M22.4,21.84c0-.07-.14,0-.13.1h0s0,.05,0,.05a.18.18,0,0,0,.1,0S22.43,21.88,22.4,21.84Z" transform="translate(-0.89 -4.32)"/><path class="cls-34" d="M24.59,20.6s0,0,0,0a.06.06,0,0,0-.09,0,.13.13,0,0,0,0,.12,0,0,0,0,0,0,0c.06.07.14,0,.15-.08Z" transform="translate(-0.89 -4.32)"/><path class="cls-34" d="M26.2,19.75c-.12,0-.15.26,0,.24h0C26.32,19.93,26.32,19.75,26.2,19.75Z" transform="translate(-0.89 -4.32)"/><path class="cls-34" d="M25.88,15.36v0a0,0,0,0,0,0,0,.15.15,0,0,0-.22.09.16.16,0,0,0,0,.15.15.15,0,0,0,.13.05.18.18,0,0,0,.1-.17A.06.06,0,0,0,25.88,15.36Z" transform="translate(-0.89 -4.32)"/><path class="cls-34" d="M23.08,16.19h0s0,0,0-.05a.1.1,0,0,0-.1.1c0,.05.05.06.09,0S23.1,16.21,23.08,16.19Z" transform="translate(-0.89 -4.32)"/><path class="cls-34" d="M26.82,23.26a.13.13,0,0,0-.08,0,.22.22,0,0,0-.08.2.11.11,0,0,0,.12.09.26.26,0,0,0,.13-.1C27,23.39,26.93,23.28,26.82,23.26Z" transform="translate(-0.89 -4.32)"/><path class="cls-34" d="M26.55,24.3s0,0,0,0-.06,0-.09,0h0a.16.16,0,0,0-.06.08h0a.08.08,0,0,0,.12.1C26.55,24.45,26.62,24.35,26.55,24.3Z" transform="translate(-0.89 -4.32)"/><path class="cls-34" d="M25.15,23.87h0s-.07.1,0,.09h0S25.19,23.88,25.15,23.87Z" transform="translate(-0.89 -4.32)"/><path class="cls-34" d="M30.32,21.84a0,0,0,0,0,0,0h0a.09.09,0,0,0-.09,0h0a.25.25,0,0,0,0,.07h0v0a.07.07,0,0,0,0,.05c.06.12.21,0,.2-.1A.07.07,0,0,0,30.32,21.84Z" transform="translate(-0.89 -4.32)"/><path class="cls-34" d="M33.55,18.83a.11.11,0,0,0-.15,0h0a.1.1,0,0,0-.07.06l0,.06s0,.05,0,.08a.1.1,0,0,0,.07.07.14.14,0,0,0,.14,0A.17.17,0,0,0,33.55,18.83Z" transform="translate(-0.89 -4.32)"/><path class="cls-34" d="M35.5,17.92h0s0,0-.05.05,0,.1,0,.1a.1.1,0,0,0,.08-.09A.06.06,0,0,0,35.5,17.92Z" transform="translate(-0.89 -4.32)"/><path class="cls-34" d="M39.27,20.7s-.05-.06-.08-.08-.07,0-.1.06a.21.21,0,0,0,0,.11.08.08,0,0,0,.06.09s.1,0,.13-.06A.17.17,0,0,0,39.27,20.7Z" transform="translate(-0.89 -4.32)"/><path class="cls-34" d="M39.29,23.37a.08.08,0,0,0-.08,0l0,0-.06,0c-.06.06,0,.18.05.16A.14.14,0,0,0,39.29,23.37Z" transform="translate(-0.89 -4.32)"/><path class="cls-34" d="M40.8,19.26a.06.06,0,0,0,0,0,.07.07,0,0,0,0,0,.13.13,0,0,0,0,.21c.07,0,.16-.06.17-.12A.13.13,0,0,0,40.8,19.26Z" transform="translate(-0.89 -4.32)"/><path class="cls-34" d="M42.61,18.23h-.08a.25.25,0,0,0-.16.27c0,.07.1.09.16.09a.21.21,0,0,0,.18-.17A.14.14,0,0,0,42.61,18.23Z" transform="translate(-0.89 -4.32)"/><path class="cls-34" d="M41.07,14.44s-.07-.07-.11,0h0a.12.12,0,0,0-.08.12.15.15,0,0,0,0,.16.08.08,0,0,0,.1,0c.06,0,.08-.09.1-.14S41.1,14.48,41.07,14.44Z" transform="translate(-0.89 -4.32)"/><path class="cls-34" d="M42.54,14.37s-.07,0-.11,0a.14.14,0,0,0-.08.18s0,0,0,0,.08,0,.1,0a.16.16,0,0,0,0-.11S42.55,14.39,42.54,14.37Z" transform="translate(-0.89 -4.32)"/><path class="cls-34" d="M36.32,15.53a.06.06,0,0,0-.06,0,.07.07,0,0,0-.06.06.08.08,0,0,0,0,.12.13.13,0,0,0,.13-.1A.07.07,0,0,0,36.32,15.53Z" transform="translate(-0.89 -4.32)"/></g></g></svg>