<svg xmlns="http://www.w3.org/2000/svg" viewBox="0 0 54.1 22.94"><defs><style>.cls-1{isolation:isolate;}.cls-2{fill:#dadada;}.cls-3{fill:#f4f4f4;}.cls-4{fill:#ebeaea;}.cls-5{fill:#d9a455;}.cls-11,.cls-20,.cls-6{fill:#ecbf6b;}.cls-6{opacity:0.5;}.cls-14,.cls-20,.cls-22,.cls-26,.cls-27,.cls-32,.cls-6{mix-blend-mode:multiply;}.cls-7{fill:#f8d283;}.cls-8{fill:#eab662;}.cls-14,.cls-9{fill:#d59b51;}.cls-10{fill:#cd9032;}.cls-12{fill:#f5c880;}.cls-13{fill:#e7b069;}.cls-14,.cls-20,.cls-27,.cls-28{opacity:0.4;}.cls-15{fill:#fdda89;}.cls-16{fill:#c49443;}.cls-17{fill:#ffe9a9;}.cls-18{fill:#ffdb94;}.cls-19{fill:#f1c36e;}.cls-21{fill:#ffe092;}.cls-23{fill:#cec2b2;}.cls-24{fill:#bc2c00;}.cls-25{fill:#9e1e00;}.cls-26{opacity:0.8;}.cls-28,.cls-33{mix-blend-mode:screen;}.cls-29{fill:none;}.cls-30{fill:#3f9f36;}.cls-31{fill:#6ab432;}.cls-32{opacity:0.6;}.cls-33{fill:#a0bc2b;opacity:0.7;}.cls-34{fill:#8a8f23;}.cls-35{fill:#fffbdf;}</style></defs><g class="cls-1"><g id="Layer_1" data-name="Layer 1"><path class="cls-2" d="M54.29,18.16c0,5.92-12.11,10.72-27,10.72s-27-4.8-27-10.72S12.3,7.44,27.24,7.44,54.29,12.23,54.29,18.16Z" transform="translate(-0.19 -5.94)"/><path class="cls-3" d="M54.29,17.62c0,5.92-12.11,10.72-27,10.72s-27-4.8-27-10.72S12.3,6.9,27.24,6.9,54.29,11.7,54.29,17.62Z" transform="translate(-0.19 -5.94)"/><path class="cls-4" d="M45.68,16.51c0,4-8.25,7.32-18.44,7.32S8.79,20.55,8.79,16.51,17.05,9.2,27.24,9.2,45.68,12.47,45.68,16.51Z" transform="translate(-0.19 -5.94)"/><path class="cls-3" d="M45,16.65c0,3.83-8,6.94-17.8,6.94S9.43,20.48,9.43,16.65s8-6.94,17.81-6.94S45,12.82,45,16.65Z" transform="translate(-0.19 -5.94)"/><path class="cls-5" d="M26.45,11.93a.93.93,0,0,1,.6-1,49.67,49.67,0,0,1,5.75,1.83s-.16,0-.3.19a2.26,2.26,0,0,0,.58,2.12c.4.45.52.45.61.48a33.54,33.54,0,0,1-6.64-2.22A2.22,2.22,0,0,1,26.45,11.93Z" transform="translate(-0.19 -5.94)"/><path class="cls-6" d="M26.45,11.93a1.24,1.24,0,0,1,.16-.65,2,2,0,0,0,0,.25,2.22,2.22,0,0,0,.6,1.4,32.65,32.65,0,0,0,5.78,2l.11.13c.4.45.52.45.61.48a33.54,33.54,0,0,1-6.64-2.22A2.22,2.22,0,0,1,26.45,11.93Z" transform="translate(-0.19 -5.94)"/><path class="cls-7" d="M33.08,15.07A2.26,2.26,0,0,1,32.5,13c.14-.23.3-.19.3-.19A1.9,1.9,0,0,1,34,14.17c.3.93,0,1.44-.29,1.38C33.6,15.52,33.48,15.52,33.08,15.07Z" transform="translate(-0.19 -5.94)"/><path class="cls-8" d="M33.19,15a1.8,1.8,0,0,1-.46-1.68c.11-.17.24-.14.24-.14a1.49,1.49,0,0,1,.93,1.11c.24.74,0,1.14-.23,1.09S33.5,15.32,33.19,15Z" transform="translate(-0.19 -5.94)"/><path class="cls-9" d="M32.73,13.28a.25.25,0,0,1,.2-.14,1.82,1.82,0,0,1,.54.88c.2.64,0,1-.15,1.09L33.19,15A1.8,1.8,0,0,1,32.73,13.28Z" transform="translate(-0.19 -5.94)"/><path class="cls-10" d="M31.57,14.19l-.14-.06L31.05,14l-.53-.2-.3-.11-.32-.1-.62-.2L29,13.3l-.26-.07-.39-.09-.15,0,.14.05.38.13.55.17.62.2.62.2c.19.07.38.12.54.17l.38.12Z" transform="translate(-0.19 -5.94)"/><path class="cls-10" d="M27.82,12.26l.19,0,.49.12c.21,0,.45.1.7.17l.4.1.4.11.4.11.39.13.36.12.32.11.27.11.2.09.18.08-.17-.1-.2-.1-.26-.12-.32-.13a3,3,0,0,0-.36-.13l-.38-.13L30,12.72l-.4-.11-.4-.1-.71-.14C28.1,12.29,27.82,12.26,27.82,12.26Z" transform="translate(-0.19 -5.94)"/><path class="cls-5" d="M17.68,13a.67.67,0,0,1,.43-.71,36.4,36.4,0,0,1,4.1,1.31s-.12,0-.21.13a1.58,1.58,0,0,0,.41,1.51c.28.33.37.32.44.34A23.8,23.8,0,0,1,18.11,14,1.57,1.57,0,0,1,17.68,13Z" transform="translate(-0.19 -5.94)"/><path class="cls-6" d="M17.68,13a.94.94,0,0,1,.11-.46,1,1,0,0,0,0,.18,1.57,1.57,0,0,0,.43,1,23.19,23.19,0,0,0,4.12,1.43l.08.09c.28.33.37.32.44.34A23.8,23.8,0,0,1,18.11,14,1.57,1.57,0,0,1,17.68,13Z" transform="translate(-0.19 -5.94)"/><path class="cls-7" d="M22.41,15.21A1.58,1.58,0,0,1,22,13.7c.09-.16.21-.13.21-.13.16,0,.6.24.84,1s0,1-.2,1S22.69,15.54,22.41,15.21Z" transform="translate(-0.19 -5.94)"/><path class="cls-8" d="M22.49,15.13a1.27,1.27,0,0,1-.33-1.19c.08-.13.17-.11.17-.11a1.1,1.1,0,0,1,.67.8c.17.52,0,.81-.17.78S22.71,15.39,22.49,15.13Z" transform="translate(-0.19 -5.94)"/><path class="cls-9" d="M22.16,13.94a.2.2,0,0,1,.14-.11,1.38,1.38,0,0,1,.39.64c.14.45,0,.72-.11.77a.53.53,0,0,1-.09-.11A1.27,1.27,0,0,1,22.16,13.94Z" transform="translate(-0.19 -5.94)"/><path class="cls-10" d="M21.33,14.58l-.1,0L21,14.43l-.38-.14-.22-.07-.22-.08L19.7,14,19.49,14l-.19,0L19,13.83l-.1,0,.1,0,.27.09.39.12.44.15.44.14.39.13.28.08Z" transform="translate(-0.19 -5.94)"/><path class="cls-10" d="M18.65,13.21l.14,0,.35.08.5.12.28.07.29.08.29.08.28.09.25.09.23.08.19.08.15.06.12.06-.12-.07L21.46,14l-.19-.09-.22-.09-.26-.1-.28-.09-.28-.09-.29-.07-.29-.07-.5-.1C18.85,13.23,18.65,13.21,18.65,13.21Z" transform="translate(-0.19 -5.94)"/><path class="cls-5" d="M22.83,15.51a1.13,1.13,0,0,1-.48-1A26.14,26.14,0,0,1,26,12s-.1.08,0,.31a2.5,2.5,0,0,0,1.75,1c.48,0,.53,0,.59-.07a17.68,17.68,0,0,1-4.24,2.78A2.08,2.08,0,0,1,22.83,15.51Z" transform="translate(-0.19 -5.94)"/><path class="cls-7" d="M27.72,13.35a2.5,2.5,0,0,1-1.75-1c-.11-.23,0-.31,0-.31s.58-.32,1.47.17,1,1,.88,1.11S28.2,13.39,27.72,13.35Z" transform="translate(-0.19 -5.94)"/><path class="cls-8" d="M27.69,13.21a2,2,0,0,1-1.39-.82c-.08-.19,0-.25,0-.25s.46-.25,1.17.14.8.77.69.87S28.07,13.24,27.69,13.21Z" transform="translate(-0.19 -5.94)"/><path class="cls-9" d="M26.3,12.39a.35.35,0,0,1,0-.23,1.72,1.72,0,0,1,.86.24c.53.3.74.66.72.82h-.16A2,2,0,0,1,26.3,12.39Z" transform="translate(-0.19 -5.94)"/><path class="cls-10" d="M26.48,13.73l-.09,0-.26.14-.35.22a1.32,1.32,0,0,0-.2.12l-.2.13-.39.27-.17.14-.15.12a2.92,2.92,0,0,0-.23.19l-.08.07.09-.06L24.7,15l.33-.24.4-.26.39-.26.34-.24.24-.16Z" transform="translate(-0.19 -5.94)"/><path class="cls-10" d="M23.61,14.86l.11-.1.27-.24.41-.33.22-.19.25-.18.24-.19.24-.16.23-.15.21-.13.18-.1.15-.07.13-.07-.14.05-.15.06-.19.09a2.39,2.39,0,0,0-.22.12l-.24.14-.25.16-.24.18a2.23,2.23,0,0,0-.24.19,2.11,2.11,0,0,0-.23.19c-.15.12-.27.25-.39.35Z" transform="translate(-0.19 -5.94)"/><path class="cls-11" d="M39.11,10.48a.94.94,0,0,0-.2-1.33c-.76-.79-1.23-.48-1.49-.37s-2.23,2.07-2.93,2.73l-.24.24a1.34,1.34,0,0,1,1.66.21,1.26,1.26,0,0,1-.19,1.88l.17-.13C36.47,13.23,39,10.66,39.11,10.48Z" transform="translate(-0.19 -5.94)"/><path class="cls-12" d="M35.72,13.84A1.26,1.26,0,0,0,35.91,12a1.34,1.34,0,0,0-1.66-.21c-.58.61-1,1.33-.23,2.06a1.22,1.22,0,0,0,1.7,0Z" transform="translate(-0.19 -5.94)"/><path class="cls-13" d="M35.46,13.7a1.1,1.1,0,0,0,.2-1.56c-.51-.63-1.32-.12-1.33-.12-.47.53-.81,1.13-.23,1.71a1,1,0,0,0,1.36,0Z" transform="translate(-0.19 -5.94)"/><path class="cls-14" d="M34.51,13.26a.8.8,0,0,0,1.13,0,1.65,1.65,0,0,0,.26-.32,1,1,0,0,0-.24-.77.89.89,0,0,0-1-.26C34.28,12.31,34,12.79,34.51,13.26Z" transform="translate(-0.19 -5.94)"/><path class="cls-10" d="M37.92,9.09l-.08.1-.23.27-.32.37-.37.42-.38.42-.17.2-.15.17L36,11.3l-.09.1.08-.11a3.17,3.17,0,0,1,.2-.29l.13-.19.16-.21c.11-.14.24-.28.37-.42S37,10,37,10l.19-.2c.12-.13.25-.24.35-.34s.19-.18.25-.24Z" transform="translate(-0.19 -5.94)"/><path class="cls-10" d="M38.08,9.81l0,.07-.15.19-.22.26-.25.29-.26.28-.23.23-.18.17-.07.06.06-.08.14-.19.21-.26.25-.29a3.63,3.63,0,0,1,.27-.28,2.49,2.49,0,0,1,.24-.23L38,9.87Z" transform="translate(-0.19 -5.94)"/><path class="cls-11" d="M37.92,10.73a.22.22,0,0,0,0,.07l-.12.18c-.06.07-.11.16-.18.25l-.22.27-.23.27-.12.11-.1.1-.17.14-.06.05,0-.06s.07-.11.13-.18.27-.32.42-.5l.23-.27.2-.22.15-.16Z" transform="translate(-0.19 -5.94)"/><path class="cls-11" d="M23.74,14.58a1.22,1.22,0,0,0-.31-1.27,33.11,33.11,0,0,0-5.2.52s.15,0,.21.29a2.92,2.92,0,0,1-.9,2.21c-.43.4-.54.36-.62.37A22.41,22.41,0,0,0,23,16,2.51,2.51,0,0,0,23.74,14.58Z" transform="translate(-0.19 -5.94)"/><path class="cls-7" d="M17.59,16.33a2.9,2.9,0,0,0,.91-2.21c-.07-.29-.22-.29-.22-.29-.2,0-.77.16-1.27,1.25s-.25,1.62,0,1.62S17.16,16.73,17.59,16.33Z" transform="translate(-0.19 -5.94)"/><path class="cls-8" d="M17.52,16.18a2.34,2.34,0,0,0,.72-1.75c0-.22-.17-.22-.17-.22-.16,0-.62.12-1,1s-.2,1.27,0,1.27S17.18,16.5,17.52,16.18Z" transform="translate(-0.19 -5.94)"/><path class="cls-9" d="M18.24,14.43a.31.31,0,0,0-.14-.21,2,2,0,0,0-.63.84c-.3.66-.23,1.13-.09,1.25l.14-.13A2.34,2.34,0,0,0,18.24,14.43Z" transform="translate(-0.19 -5.94)"/><path class="cls-10" d="M19,15.74l.13,0,.34-.07.49-.08.28,0,.29,0,.56-.05h1l-.13,0-.35,0-.49,0-.56.07c-.19,0-.38,0-.56.06l-.49,0-.35,0Z" transform="translate(-0.19 -5.94)"/><path class="cls-10" d="M22.58,14.59H20.64l-.37,0-.35,0-.32,0-.3,0-.24,0-.19,0-.17,0,.17-.06.18-.06.25-.07.29-.06.33-.05.35,0,.36,0h.72c.23,0,.44,0,.62,0Z" transform="translate(-0.19 -5.94)"/><path class="cls-11" d="M25.1,15a1,1,0,0,1,.18-1.16,50.72,50.72,0,0,1,6-.48s-.17,0-.2.28a2.25,2.25,0,0,0,1.33,1.75c.55.26.66.21.75.21a33.47,33.47,0,0,1-7,.47A2.22,2.22,0,0,1,25.1,15Z" transform="translate(-0.19 -5.94)"/><path class="cls-6" d="M25.1,15a1.19,1.19,0,0,1-.1-.66c0,.08.05.15.08.24a2.18,2.18,0,0,0,1.09,1.06,33,33,0,0,0,6.11-.33l.14.08c.55.26.66.21.75.21a33.47,33.47,0,0,1-7,.47A2.22,2.22,0,0,1,25.1,15Z" transform="translate(-0.19 -5.94)"/><path class="cls-7" d="M32.42,15.43a2.25,2.25,0,0,1-1.33-1.75c0-.26.2-.28.2-.28a1.89,1.89,0,0,1,1.63.85c.63.75.51,1.35.25,1.39C33.08,15.64,33,15.69,32.42,15.43Z" transform="translate(-0.19 -5.94)"/><path class="cls-8" d="M32.48,15.29a1.79,1.79,0,0,1-1-1.38c0-.21.16-.23.16-.23a1.53,1.53,0,0,1,1.29.67c.5.6.4,1.07.2,1.1S32.92,15.5,32.48,15.29Z" transform="translate(-0.19 -5.94)"/><path class="cls-9" d="M31.43,13.91a.25.25,0,0,1,.12-.21,1.92,1.92,0,0,1,.84.61c.43.51.42.93.28,1.06l-.19-.08A1.79,1.79,0,0,1,31.43,13.91Z" transform="translate(-0.19 -5.94)"/><path class="cls-10" d="M30.69,15.18h-.55l-.57,0-.32,0-.33,0-.65.05-.3,0-.27,0-.4.06-.15,0h.16l.4,0,.56,0,.65-.05.65-.05.57,0,.4,0Z" transform="translate(-0.19 -5.94)"/><path class="cls-10" d="M26.49,14.83l.19,0,.51-.09.71-.11.4,0,.41-.05.42-.05c.14,0,.27,0,.41,0l.38,0h1l-.19,0-.23,0h-1l-.41,0-.42,0-.41.06-.41.06-.7.13C26.76,14.75,26.49,14.83,26.49,14.83Z" transform="translate(-0.19 -5.94)"/><path class="cls-15" d="M42.21,12a1,1,0,0,0-.36-1.11,50.31,50.31,0,0,0-6,.46s.17,0,.25.24a2.23,2.23,0,0,1-1,1.94c-.49.35-.61.32-.7.32a33.35,33.35,0,0,0,7-.63A2.21,2.21,0,0,0,42.21,12Z" transform="translate(-0.19 -5.94)"/><path class="cls-7" d="M35,13.52a2.23,2.23,0,0,0,1-1.94c-.08-.24-.25-.24-.25-.24a1.9,1.9,0,0,0-1.47,1.09c-.51.84-.29,1.41,0,1.41C34.42,13.84,34.54,13.87,35,13.52Z" transform="translate(-0.19 -5.94)"/><path class="cls-8" d="M35,13.39a1.79,1.79,0,0,0,.83-1.53c-.06-.2-.2-.2-.2-.2a1.51,1.51,0,0,0-1.16.87c-.4.67-.23,1.11,0,1.12S34.56,13.66,35,13.39Z" transform="translate(-0.19 -5.94)"/><path class="cls-9" d="M35.78,11.86a.26.26,0,0,0-.16-.19,2,2,0,0,0-.73.74c-.34.57-.26,1-.1,1.09l.16-.11A1.79,1.79,0,0,0,35.78,11.86Z" transform="translate(-0.19 -5.94)"/><path class="cls-10" d="M36.71,13l.15,0,.4-.06.56-.06.32,0,.33,0,.65,0h1.13l-.16,0-.4,0-.56,0-.65.06-.65,0-.57,0-.4,0Z" transform="translate(-0.19 -5.94)"/><path class="cls-10" d="M40.8,12H39l-.42,0-.42,0-.4,0-.38,0-.34,0-.28,0-.22,0-.19,0,.18,0,.22-.06L37,12.1l.33-.06.38,0,.41,0,.42,0h.83l.72,0Z" transform="translate(-0.19 -5.94)"/><path class="cls-5" d="M31.76,15.7a.94.94,0,0,1,1-.59A51,51,0,0,1,37,19.45s-.12-.11-.35,0a2.28,2.28,0,0,0-.5,2.14c.14.6.25.65.31.72a33.88,33.88,0,0,1-4.79-5.11A2.22,2.22,0,0,1,31.76,15.7Z" transform="translate(-0.19 -5.94)"/><path class="cls-7" d="M36.1,21.61a2.28,2.28,0,0,1,.5-2.14c.23-.13.35,0,.35,0a1.91,1.91,0,0,1,.38,1.8c-.18,1-.72,1.25-.92,1.08S36.24,22.21,36.1,21.61Z" transform="translate(-0.19 -5.94)"/><path class="cls-8" d="M36.25,21.57a1.77,1.77,0,0,1,.4-1.69c.17-.11.27,0,.27,0a1.53,1.53,0,0,1,.3,1.43c-.15.76-.57,1-.72.85S36.36,22,36.25,21.57Z" transform="translate(-0.19 -5.94)"/><path class="cls-9" d="M36.65,19.88a.29.29,0,0,1,.24,0,1.88,1.88,0,0,1,0,1c-.12.66-.45.91-.64.89,0-.06,0-.12,0-.2A1.77,1.77,0,0,1,36.65,19.88Z" transform="translate(-0.19 -5.94)"/><path class="cls-10" d="M35.19,20.12,35.1,20c-.07-.07-.15-.18-.26-.31l-.38-.42L34.24,19,34,18.79l-.46-.47-.22-.21-.2-.18-.29-.27-.12-.1.1.11.28.3.4.4q.21.24.45.48l.45.47.39.41c.12.12.22.21.28.28Z" transform="translate(-0.19 -5.94)"/><path class="cls-10" d="M32.8,16.65l.15.12.39.34.53.48.3.28.3.29.3.29.28.29.26.28.23.25.18.22.14.18.12.15-.11-.16-.12-.19-.18-.23L35.36,19l-.25-.29-.28-.3-.3-.3-.31-.28a3.65,3.65,0,0,0-.3-.27l-.55-.47C33,16.81,32.8,16.65,32.8,16.65Z" transform="translate(-0.19 -5.94)"/><path class="cls-5" d="M27.05,18.2a1,1,0,0,1,.63-1,50.38,50.38,0,0,1,5.7,2s-.16,0-.3.18a2.24,2.24,0,0,0,.51,2.13c.39.47.52.47.61.5a33.39,33.39,0,0,1-6.58-2.4A2.2,2.2,0,0,1,27.05,18.2Z" transform="translate(-0.19 -5.94)"/><path class="cls-7" d="M33.59,21.51a2.24,2.24,0,0,1-.51-2.13c.14-.22.3-.18.3-.18a1.92,1.92,0,0,1,1.15,1.44c.27.94-.08,1.44-.33,1.37C34.11,22,34,22,33.59,21.51Z" transform="translate(-0.19 -5.94)"/><path class="cls-8" d="M33.71,21.41a1.78,1.78,0,0,1-.41-1.69c.11-.17.24-.14.24-.14a1.51,1.51,0,0,1,.9,1.14c.22.74-.06,1.13-.26,1.08S34,21.78,33.71,21.41Z" transform="translate(-0.19 -5.94)"/><path class="cls-9" d="M33.3,19.72a.25.25,0,0,1,.2-.14,2,2,0,0,1,.52.9c.18.64,0,1-.18,1.08l-.13-.15A1.78,1.78,0,0,1,33.3,19.72Z" transform="translate(-0.19 -5.94)"/><path class="cls-10" d="M32.11,20.59,32,20.53l-.37-.16-.53-.21-.3-.11-.31-.12-.62-.21-.29-.09-.26-.07-.38-.1-.15,0,.14,0,.38.14.54.18.61.22.62.22.53.19.38.12Z" transform="translate(-0.19 -5.94)"/><path class="cls-10" d="M28.41,18.57l.19.05.49.12.7.19.39.11.4.12.4.13.38.13.36.13.32.13.26.11a1.23,1.23,0,0,1,.2.1l.18.08-.17-.1-.2-.11-.26-.13-.31-.13-.35-.15L31,19.21l-.4-.13L30.2,19l-.39-.1-.71-.17Z" transform="translate(-0.19 -5.94)"/><path class="cls-5" d="M16.66,12.75a1,1,0,0,1,1.14-.27,52.68,52.68,0,0,1,2.75,5.37.29.29,0,0,0-.34-.09,2.25,2.25,0,0,0-1.1,1.91c0,.6.05.69.09.77a33.81,33.81,0,0,1-3.11-6.27A2.2,2.2,0,0,1,16.66,12.75Z" transform="translate(-0.19 -5.94)"/><path class="cls-7" d="M19.11,19.67a2.25,2.25,0,0,1,1.1-1.91.29.29,0,0,1,.34.09,1.94,1.94,0,0,1-.16,1.83c-.46.87-1.06,1-1.19.76S19.07,20.27,19.11,19.67Z" transform="translate(-0.19 -5.94)"/><path class="cls-8" d="M19.26,19.67a1.76,1.76,0,0,1,.87-1.5c.2-.06.27.06.27.06a1.51,1.51,0,0,1-.13,1.45c-.36.69-.83.78-.94.6S19.23,20.15,19.26,19.67Z" transform="translate(-0.19 -5.94)"/><path class="cls-9" d="M20.13,18.17a.24.24,0,0,1,.24,0,1.87,1.87,0,0,1-.25,1c-.3.59-.7.74-.87.66a1.48,1.48,0,0,1,0-.2A1.76,1.76,0,0,1,20.13,18.17Z" transform="translate(-0.19 -5.94)"/><path class="cls-10" d="M18.67,18l-.06-.15-.16-.37c-.07-.15-.15-.33-.24-.51a1.55,1.55,0,0,0-.14-.29c0-.1-.09-.2-.14-.3s-.21-.4-.3-.58l-.15-.26-.14-.23c-.08-.15-.16-.26-.21-.35l-.08-.13.07.14q.06.13.18.36l.26.5.29.59.3.58c.09.18.18.36.26.5l.18.36Z" transform="translate(-0.19 -5.94)"/><path class="cls-10" d="M17.39,14a1.43,1.43,0,0,0,.1.16l.27.43c.11.18.24.39.37.62l.21.35.21.37c.06.12.13.24.2.36s.13.25.18.36l.17.34.14.31.12.27.08.2.07.19-.06-.19a1.15,1.15,0,0,0-.06-.21c0-.09-.06-.18-.1-.28s-.09-.2-.13-.31-.1-.23-.16-.35l-.18-.37-.2-.37-.21-.36-.21-.35c-.14-.22-.28-.43-.4-.6C17.56,14.18,17.39,14,17.39,14Z" transform="translate(-0.19 -5.94)"/><path class="cls-5" d="M32.79,16.88a1.14,1.14,0,0,0-.15,1.33,46.7,46.7,0,0,0,5.88,1.93s-.16-.07-.13-.37a2.74,2.74,0,0,1,1.84-1.65c.62-.17.72-.09.81-.06a30.09,30.09,0,0,0-6.86-2.13A2.47,2.47,0,0,0,32.79,16.88Z" transform="translate(-0.19 -5.94)"/><path class="cls-6" d="M32.79,16.88a1.37,1.37,0,0,0-.28.71,1,1,0,0,1,.14-.24,2.47,2.47,0,0,1,1.39-1,29.27,29.27,0,0,1,6,1.78l.17-.06c.62-.17.72-.09.81-.06a30.09,30.09,0,0,0-6.86-2.13A2.47,2.47,0,0,0,32.79,16.88Z" transform="translate(-0.19 -5.94)"/><path class="cls-7" d="M40.23,18.12a2.74,2.74,0,0,0-1.84,1.65c0,.3.13.37.13.37a2,2,0,0,0,1.87-.58c.85-.7.89-1.4.65-1.5C41,18,40.85,18,40.23,18.12Z" transform="translate(-0.19 -5.94)"/><path class="cls-8" d="M40.25,18.29A2.14,2.14,0,0,0,38.8,19.6c0,.23.1.29.1.29a1.54,1.54,0,0,0,1.48-.46c.67-.55.7-1.11.51-1.19S40.74,18.15,40.25,18.29Z" transform="translate(-0.19 -5.94)"/><path class="cls-9" d="M38.8,19.6a.27.27,0,0,0,.07.26,2,2,0,0,0,1-.49c.58-.48.68-.95.58-1.13l-.21.05A2.14,2.14,0,0,0,38.8,19.6Z" transform="translate(-0.19 -5.94)"/><path class="cls-10" d="M38.43,18l-.16,0-.4-.1-.56-.15L37,17.62l-.32-.1L36,17.31l-.29-.12-.25-.1-.38-.16L35,16.87l.15,0,.4.13.55.18.64.2.63.21.56.18.39.13Z" transform="translate(-0.19 -5.94)"/><path class="cls-10" d="M34.12,17.43l.18.08.48.21.68.29.39.15.4.16.41.14.39.13.37.12.34.09.29.07.22.05.2,0-.2,0-.23,0-.29-.06-.35-.07-.38-.1-.39-.13-.41-.14-.4-.16-.39-.16-.67-.32C34.37,17.58,34.12,17.43,34.12,17.43Z" transform="translate(-0.19 -5.94)"/><path class="cls-12" d="M39.1,14c-.56,1.19,0,1.22,0,1.22a1.83,1.83,0,0,0,1.28-.94c.38-.58.3-1,.09-1.24S39.62,12.93,39.1,14Z" transform="translate(-0.19 -5.94)"/><path class="cls-13" d="M39.28,14c-.51.92-.14,1-.14,1a1.26,1.26,0,0,0,1-.63.89.89,0,0,0,.18-1C40.16,13.23,39.74,13.19,39.28,14Z" transform="translate(-0.19 -5.94)"/><path class="cls-9" d="M40,14.05a1.12,1.12,0,0,0,.26-.72c-.2-.09-.55,0-.93.71a2.27,2.27,0,0,0-.26.64A1.37,1.37,0,0,0,40,14.05Z" transform="translate(-0.19 -5.94)"/><path class="cls-11" d="M40.14,12.9c-.36-.07-5.22-.67-5.86-.7-1,0-2.1,1.12-1.47,1.78a35.54,35.54,0,0,0,6,1.28h.22s-.53,0,0-1.22,1.09-1.14,1.34-1A.51.51,0,0,0,40.14,12.9Z" transform="translate(-0.19 -5.94)"/><path class="cls-16" d="M34.53,13.89h.16l.41,0,.58.06.66.07.67.08.58.08.41.07.15,0H38l-.42,0-.58,0-.67-.08-.66-.08L35.09,14l-.41-.06Z" transform="translate(-0.19 -5.94)"/><path class="cls-16" d="M35.8,13.23h.13l.35,0,.49.06.55.07.56.09.49.08.34.06.13,0h-.13l-.35,0-.49,0-.56-.08-.55-.08-.49-.08-.34-.06Z" transform="translate(-0.19 -5.94)"/><path class="cls-16" d="M34.72,12.45l.13,0,.34,0,.49.05.56.08.56.08.48.08.35.07.13,0h-.14l-.34,0-.49-.06-.56-.07-.56-.08-.48-.09-.34-.06Z" transform="translate(-0.19 -5.94)"/><path class="cls-15" d="M12.72,13.61a.8.8,0,0,0-1-.61.92.92,0,0,0-.87,1c0,.27.5,3,.67,4l.06.34s0-1.16.84-1.23,1.14.69,1.22,1.25c0-.09,0-.16,0-.21C13.53,17.36,12.79,13.82,12.72,13.61Z" transform="translate(-0.19 -5.94)"/><path class="cls-12" d="M13.64,18.32c-.08-.56-.4-1.32-1.22-1.25s-.84,1.22-.84,1.23c.19.83.52,1.56,1.33,1.38s.76-.94.73-1.36Z" transform="translate(-0.19 -5.94)"/><path class="cls-13" d="M13.44,18.45c-.08-.46-.35-1.11-1-1.07s-.63,1-.63,1c.16.69.44,1.32,1.08,1.19s.58-.77.55-1.13Z" transform="translate(-0.19 -5.94)"/><path class="cls-14" d="M12.73,19c.48-.1.48-.64.45-.94a1.49,1.49,0,0,0-.11-.4.79.79,0,0,0-.63-.25c-.39,0-.54.39-.6.67C12,18.6,12.22,19.07,12.73,19Z" transform="translate(-0.19 -5.94)"/><path class="cls-11" d="M11.27,13.77a.93.93,0,0,0,0,.13l.09.33c0,.14.08.31.12.48s.09.36.14.55.09.37.13.55l.06.25a1.23,1.23,0,0,1,.06.22c0,.14.07.26.09.34l0,.13,0-.12c0-.08-.07-.19-.11-.33s0-.15-.08-.22a2.41,2.41,0,0,0-.08-.25c0-.18-.09-.36-.14-.55A2.86,2.86,0,0,0,11.5,15l-.06-.27c0-.18-.06-.34-.09-.49s0-.26-.06-.34S11.27,13.77,11.27,13.77Z" transform="translate(-0.19 -5.94)"/><path class="cls-11" d="M11.84,14.05l0,.09a1.63,1.63,0,0,1,.07.23c0,.09.06.21.09.32l.09.38.09.37c0,.12.05.24.07.33s0,.18,0,.24a.62.62,0,0,1,0,.09l0-.09c0-.05,0-.13-.07-.22s-.06-.21-.1-.33L12,15.09l-.09-.38q0-.18-.06-.33t0-.24Z" transform="translate(-0.19 -5.94)"/><path class="cls-11" d="M12.4,14.72l0,.08.08.2c0,.09.06.19.1.29s.06.22.1.34.06.23.08.34l0,.16,0,.14c0,.09,0,.17,0,.22a.45.45,0,0,1,0,.08l0-.08s0-.12-.06-.21-.12-.4-.18-.63l-.09-.34c0-.11,0-.21-.07-.3s0-.16,0-.21A.73.73,0,0,0,12.4,14.72Z" transform="translate(-0.19 -5.94)"/><path class="cls-15" d="M18.88,12.32a.82.82,0,0,0,0-1.18.92.92,0,0,0-1.31-.23c-.25.11-2.32,2-3,2.62l-.26.23s1-.59,1.49.08a1.23,1.23,0,0,1-.44,1.69l.17-.13C16.08,14.94,18.73,12.48,18.88,12.32Z" transform="translate(-0.19 -5.94)"/><path class="cls-12" d="M15.32,15.53a1.23,1.23,0,0,0,.44-1.69c-.49-.67-1.48-.09-1.49-.08-.61.58-1.07,1.24-.5,1.85s1.2.17,1.55-.08Z" transform="translate(-0.19 -5.94)"/><path class="cls-13" d="M15.1,15.42c.36-.3.77-.87.4-1.4s-1.18,0-1.19,0c-.51.5-.9,1.06-.46,1.54s1,.1,1.25-.12Z" transform="translate(-0.19 -5.94)"/><path class="cls-14" d="M14.29,15.09c.34.36.8.08,1-.1a1.61,1.61,0,0,0,.28-.3A.78.78,0,0,0,15.5,14a.7.7,0,0,0-.88-.17C14.22,14.26,13.94,14.7,14.29,15.09Z" transform="translate(-0.19 -5.94)"/><path class="cls-11" d="M18,11.15l-.09.1-.24.25c-.1.1-.22.23-.35.35l-.39.4-.41.4-.18.18-.16.17-.25.25-.09.09.08-.1.22-.27.16-.18a2.61,2.61,0,0,1,.17-.2l.39-.4.21-.2a1.8,1.8,0,0,1,.2-.19c.13-.13.26-.24.37-.34l.26-.22Z" transform="translate(-0.19 -5.94)"/><path class="cls-11" d="M18,11.78l-.06.07-.16.18-.23.24-.28.28-.27.26-.25.23-.18.16-.07.05.06-.07.15-.17.23-.25.27-.28.28-.27.26-.22.18-.15Z" transform="translate(-0.19 -5.94)"/><path class="cls-11" d="M17.76,12.61l-.05.07-.13.17-.2.23-.24.26-.25.25-.12.11-.11.09-.17.14-.06.05.05-.06a1.93,1.93,0,0,1,.15-.16c.12-.13.28-.31.45-.48l.24-.25.22-.21.16-.15Z" transform="translate(-0.19 -5.94)"/><path class="cls-15" d="M27.14,15.54a.8.8,0,0,0,.26-1.14.92.92,0,0,0-1.23-.5c-.27,0-2.69,1.45-3.54,1.92l-.29.17s1.09-.36,1.43.39-.28,1.3-.79,1.56l.2-.09C23.86,17.52,27,15.68,27.14,15.54Z" transform="translate(-0.19 -5.94)"/><path class="cls-6" d="M27.4,14.4a1,1,0,0,0-.16-.23A.81.81,0,0,1,27,15.3c-.14.1-2,1.23-3.2,1.89a1.75,1.75,0,0,1-.8.75l.2-.09c.68-.33,3.79-2.17,4-2.31A.8.8,0,0,0,27.4,14.4Z" transform="translate(-0.19 -5.94)"/><path class="cls-12" d="M23,17.94c.51-.26,1.12-.81.79-1.56S22.34,16,22.34,16c-.73.44-1.32,1-.88,1.7s1.13.42,1.52.25Z" transform="translate(-0.19 -5.94)"/><path class="cls-13" d="M22.79,17.79c.42-.22.94-.69.69-1.29s-1.15-.27-1.16-.27c-.6.38-1.1.85-.77,1.41s.91.3,1.24.15Z" transform="translate(-0.19 -5.94)"/><path class="cls-14" d="M22.08,17.29c.24.42.76.25,1,.12a2.26,2.26,0,0,0,.34-.23.8.8,0,0,0,0-.68.72.72,0,0,0-.83-.35C22.18,16.46,21.81,16.84,22.08,17.29Z" transform="translate(-0.19 -5.94)"/><path class="cls-11" d="M26.52,14.22l-.11.08-.29.19-.41.27-.48.31-.47.3-.22.15-.19.13-.29.19-.12.07.11-.09.27-.22.19-.14.21-.15.47-.31.24-.16.24-.14c.15-.1.3-.18.43-.25l.3-.17Z" transform="translate(-0.19 -5.94)"/><path class="cls-11" d="M26.43,14.85l-.07.05-.19.14-.28.19-.33.21-.32.2-.3.17-.2.12-.08,0,.07-.06.19-.14.27-.19.33-.21c.11-.07.22-.15.33-.21l.29-.16.21-.11Z" transform="translate(-0.19 -5.94)"/><path class="cls-11" d="M26,15.6l-.07.05a1.22,1.22,0,0,1-.16.14l-.25.19-.28.2-.3.19-.14.08-.13.07-.19.1-.07,0,.06-.05.18-.13.54-.37.29-.19a2.85,2.85,0,0,1,.26-.17l.18-.11Z" transform="translate(-0.19 -5.94)"/><path class="cls-15" d="M20.44,9.36a1,1,0,0,0-.56-1.19A61.74,61.74,0,0,0,13,9.5s.2,0,.32.24A2.45,2.45,0,0,1,12.39,12c-.52.45-.66.44-.77.46a40.1,40.1,0,0,0,8-1.64A2.42,2.42,0,0,0,20.44,9.36Z" transform="translate(-0.19 -5.94)"/><path class="cls-12" d="M12.39,12a2.45,2.45,0,0,0,.94-2.28C13.21,9.47,13,9.5,13,9.5a2.18,2.18,0,0,0-1.55,1.41c-.46,1-.14,1.6.16,1.57C11.73,12.46,11.87,12.47,12.39,12Z" transform="translate(-0.19 -5.94)"/><path class="cls-13" d="M12.28,11.89A2,2,0,0,0,13,10.08c-.1-.2-.25-.19-.25-.19A1.73,1.73,0,0,0,11.55,11c-.37.79-.11,1.27.12,1.24S11.87,12.25,12.28,11.89Z" transform="translate(-0.19 -5.94)"/><path class="cls-9" d="M13,10.08a.29.29,0,0,0-.21-.18,2,2,0,0,0-.73.91c-.32.68-.17,1.13,0,1.22l.18-.14A2,2,0,0,0,13,10.08Z" transform="translate(-0.19 -5.94)"/><path class="cls-11" d="M14.25,11.23l.17-.05.45-.12.64-.15.37-.08.37-.07.75-.15.34,0,.31,0,.46,0,.18,0-.18,0-.45.09L17,10.7l-.74.15-.74.14-.65.13-.46.08Z" transform="translate(-0.19 -5.94)"/><path class="cls-11" d="M18.82,9.56l-.22,0L18,9.65l-.83.1-.46.06-.48.08-.48.07-.47.09-.43.09-.38.09-.32.09-.25.07-.21.06.2-.08.25-.09.32-.1.38-.11.43-.1.46-.09.48-.09.48-.07.47-.05c.31,0,.59-.06.84-.08C18.5,9.56,18.82,9.56,18.82,9.56Z" transform="translate(-0.19 -5.94)"/><path class="cls-11" d="M20.24,15.93a1,1,0,0,0-.18-1.16,51,51,0,0,0-6-.48s.17,0,.21.28a2.22,2.22,0,0,1-1.34,1.74c-.54.27-.65.22-.75.22a33.56,33.56,0,0,0,7,.47A2.26,2.26,0,0,0,20.24,15.93Z" transform="translate(-0.19 -5.94)"/><path class="cls-7" d="M12.91,16.31a2.22,2.22,0,0,0,1.34-1.74c0-.26-.21-.28-.21-.28a1.9,1.9,0,0,0-1.63.85c-.63.75-.5,1.34-.25,1.39C12.26,16.53,12.37,16.58,12.91,16.31Z" transform="translate(-0.19 -5.94)"/><path class="cls-8" d="M12.85,16.17a1.76,1.76,0,0,0,1.06-1.37c0-.21-.17-.23-.17-.23a1.52,1.52,0,0,0-1.28.67c-.5.6-.4,1.07-.2,1.1S12.42,16.39,12.85,16.17Z" transform="translate(-0.19 -5.94)"/><path class="cls-9" d="M13.91,14.8a.25.25,0,0,0-.13-.21,1.83,1.83,0,0,0-.83.61c-.43.51-.42.93-.28,1.06l.18-.09A1.76,1.76,0,0,0,13.91,14.8Z" transform="translate(-0.19 -5.94)"/><path class="cls-10" d="M14.64,16.07h.56l.57,0h.32l.33,0,.65.05.3,0,.26,0,.4.06.15,0H18l-.4,0-.57-.05-.65-.05-.65,0-.56-.05-.41,0Z" transform="translate(-0.19 -5.94)"/><path class="cls-10" d="M18.84,15.72l-.19,0-.5-.09-.71-.11-.4-.06-.42,0-.42-.05-.4,0-.38,0h-1l.19,0,.22,0h1l.4,0,.42,0,.42.06.4.06.71.13C18.57,15.64,18.84,15.72,18.84,15.72Z" transform="translate(-0.19 -5.94)"/><path class="cls-11" d="M31.67,17.34a.93.93,0,0,0-.18-1.15,51.36,51.36,0,0,0-6-.49s.17,0,.21.29a2.24,2.24,0,0,1-1.33,1.74c-.55.27-.66.22-.76.21a33.56,33.56,0,0,0,7,.47A2.22,2.22,0,0,0,31.67,17.34Z" transform="translate(-0.19 -5.94)"/><path class="cls-7" d="M24.35,17.73A2.24,2.24,0,0,0,25.68,16c0-.26-.21-.29-.21-.29a1.93,1.93,0,0,0-1.62.85c-.64.76-.51,1.35-.26,1.39S23.8,18,24.35,17.73Z" transform="translate(-0.19 -5.94)"/><path class="cls-8" d="M24.28,17.59a1.78,1.78,0,0,0,1.06-1.38c0-.2-.16-.22-.16-.22a1.53,1.53,0,0,0-1.29.67c-.5.59-.4,1.06-.2,1.1S23.85,17.8,24.28,17.59Z" transform="translate(-0.19 -5.94)"/><path class="cls-9" d="M25.34,16.21a.27.27,0,0,0-.12-.21,1.87,1.87,0,0,0-.84.61c-.43.52-.42.94-.28,1.06l.18-.08A1.78,1.78,0,0,0,25.34,16.21Z" transform="translate(-0.19 -5.94)"/><path class="cls-10" d="M26.08,17.49h.55l.57,0,.32,0,.33,0,.65.06.3,0,.27,0,.39.06.16,0h-.16l-.4,0-.57-.05-.64,0-.65-.05-.57-.05-.4,0Z" transform="translate(-0.19 -5.94)"/><path class="cls-10" d="M30.28,17.13l-.19,0L29.58,17l-.71-.11-.4-.06-.42-.05-.41-.05-.41,0-.38,0-.34,0h-.7l.19,0,.23,0h.63l.38,0,.4,0,.42,0,.42.05.4.06.71.14Z" transform="translate(-0.19 -5.94)"/><path class="cls-11" d="M35.7,12.58a.94.94,0,0,0-.83-.82A50.12,50.12,0,0,0,29.77,15s.15-.08.33.1a2.23,2.23,0,0,1,0,2.2c-.28.54-.4.57-.48.62a33.71,33.71,0,0,0,5.88-3.82A2.15,2.15,0,0,0,35.7,12.58Z" transform="translate(-0.19 -5.94)"/><path class="cls-7" d="M30.08,17.28a2.23,2.23,0,0,0,0-2.2c-.18-.18-.33-.1-.33-.1a1.92,1.92,0,0,0-.8,1.66c0,1,.41,1.38.63,1.26S29.8,17.82,30.08,17.28Z" transform="translate(-0.19 -5.94)"/><path class="cls-8" d="M30,17.21a1.78,1.78,0,0,0,0-1.74c-.14-.15-.26-.08-.26-.08a1.51,1.51,0,0,0-.63,1.31c0,.77.32,1.09.5,1S29.73,17.63,30,17.21Z" transform="translate(-0.19 -5.94)"/><path class="cls-9" d="M30,15.47a.23.23,0,0,0-.22-.09,1.84,1.84,0,0,0-.3,1c0,.67.22,1,.41,1l.1-.17A1.78,1.78,0,0,0,30,15.47Z" transform="translate(-0.19 -5.94)"/><path class="cls-10" d="M31.32,16.05l.12-.09c.08-.06.19-.15.33-.24l.46-.33.27-.17.28-.18.55-.35.26-.15.24-.13.36-.19.13-.07-.13.09-.34.21-.48.3-.55.36-.55.35-.48.3-.34.21Z" transform="translate(-0.19 -5.94)"/><path class="cls-10" d="M34.47,13.25l-.18.08-.45.24c-.19.09-.4.21-.63.34l-.36.19-.36.21-.36.22-.35.21-.31.21-.28.19-.24.17-.17.14-.15.12.14-.13.16-.15.23-.19.27-.2.31-.22.35-.22.36-.22.36-.21.36-.19.65-.32C34.2,13.35,34.47,13.25,34.47,13.25Z" transform="translate(-0.19 -5.94)"/><path class="cls-11" d="M22.57,20.81a1,1,0,0,1,.18-1.16,50.72,50.72,0,0,1,6-.48s-.17,0-.21.28a2.3,2.3,0,0,0,1.34,1.75c.55.26.66.21.75.21a33.47,33.47,0,0,1-7,.47A2.22,2.22,0,0,1,22.57,20.81Z" transform="translate(-0.19 -5.94)"/><path class="cls-7" d="M29.89,21.2a2.3,2.3,0,0,1-1.34-1.75c0-.26.21-.28.21-.28a1.89,1.89,0,0,1,1.63.85c.63.75.51,1.35.25,1.39C30.55,21.41,30.44,21.46,29.89,21.2Z" transform="translate(-0.19 -5.94)"/><path class="cls-8" d="M30,21.06a1.79,1.79,0,0,1-1.05-1.38c0-.21.16-.23.16-.23a1.53,1.53,0,0,1,1.29.67c.5.6.4,1.07.2,1.1S30.38,21.27,30,21.06Z" transform="translate(-0.19 -5.94)"/><path class="cls-9" d="M28.9,19.68a.23.23,0,0,1,.12-.21,1.92,1.92,0,0,1,.84.61c.43.51.42.93.27,1.06L30,21.06A1.79,1.79,0,0,1,28.9,19.68Z" transform="translate(-0.19 -5.94)"/><path class="cls-10" d="M28.16,21H27.6L27,21l-.33,0-.33,0-.65.05-.29,0-.27,0-.4.06-.15,0h.15l.41,0,.56-.05.65,0,.65-.05.57,0,.4,0Z" transform="translate(-0.19 -5.94)"/><path class="cls-10" d="M24,20.6l.19,0,.5-.09.71-.11.41-.05.41-.05.42-.05.4,0,.38,0h1.05l-.2,0-.22,0H27l-.41,0-.42,0-.41.06-.41.06-.71.13C24.23,20.52,24,20.6,24,20.6Z" transform="translate(-0.19 -5.94)"/><path class="cls-17" d="M19.45,10.12a.94.94,0,0,0-.73-.92,51,51,0,0,0-5.46,2.57s.16-.06.32.14a2.25,2.25,0,0,1-.29,2.18c-.34.51-.46.52-.55.56A33.32,33.32,0,0,0,19,11.58,2.21,2.21,0,0,0,19.45,10.12Z" transform="translate(-0.19 -5.94)"/><path class="cls-18" d="M13.29,14.09a2.25,2.25,0,0,0,.29-2.18c-.16-.2-.32-.14-.32-.14a1.93,1.93,0,0,0-1,1.55c-.17,1,.23,1.42.47,1.33C12.83,14.61,13,14.6,13.29,14.09Z" transform="translate(-0.19 -5.94)"/><path class="cls-19" d="M13.17,14a1.8,1.8,0,0,0,.23-1.72c-.13-.16-.26-.11-.26-.11a1.5,1.5,0,0,0-.78,1.22c-.14.76.18,1.12.37,1S12.9,14.4,13.17,14Z" transform="translate(-0.19 -5.94)"/><path class="cls-9" d="M13.4,12.28a.27.27,0,0,0-.22-.12,2,2,0,0,0-.42.95c-.12.66.1,1,.29,1.05l.12-.16A1.8,1.8,0,0,0,13.4,12.28Z" transform="translate(-0.19 -5.94)"/><path class="cls-11" d="M14.67,13,14.8,13l.35-.2.51-.27.29-.14.29-.14.6-.28.27-.11.25-.1.38-.15.14-.05-.14.07-.36.17-.51.24-.59.28-.59.28-.51.24-.37.17Z" transform="translate(-0.19 -5.94)"/><path class="cls-11" d="M18.14,10.63l-.18.06-.48.18-.67.26c-.13,0-.25.1-.38.15l-.39.16-.38.17-.37.17L15,12l-.3.16a2.8,2.8,0,0,0-.25.14l-.19.11-.17.1.16-.11a1.4,1.4,0,0,1,.18-.13l.25-.16.29-.17.34-.18.37-.17.38-.18.39-.15.38-.15.68-.24C17.86,10.69,18.14,10.63,18.14,10.63Z" transform="translate(-0.19 -5.94)"/><path class="cls-15" d="M16.7,14.36a.87.87,0,0,0-.62-1.08,1,1,0,0,0-1.31.43c-.16.23-1,3-1.37,3.92,0,.11-.07.22-.11.33s.6-1,1.39-.66a1.3,1.3,0,0,1,.5,1.77l.09-.2C15.56,18.15,16.66,14.58,16.7,14.36Z" transform="translate(-0.19 -5.94)"/><path class="cls-12" d="M15.18,19.07a1.3,1.3,0,0,0-.5-1.77c-.79-.37-1.38.66-1.39.66-.24.84-.31,1.68.54,1.95s1.17-.44,1.35-.84Z" transform="translate(-0.19 -5.94)"/><path class="cls-13" d="M14.93,19.08a1.15,1.15,0,0,0-.39-1.49c-.62-.3-1.08.57-1.08.57-.2.72-.25,1.42.4,1.64s.92-.38,1.07-.72Z" transform="translate(-0.19 -5.94)"/><path class="cls-9" d="M14.54,17.59c-.45-.22-.83.19-1,.43-.07.5,0,.93.47,1.1s.85-.39,1-.73l0-.09A.86.86,0,0,0,14.54,17.59Z" transform="translate(-0.19 -5.94)"/><path class="cls-11" d="M15.28,13.73a1.11,1.11,0,0,0,0,.13l-.08.35c0,.15-.08.32-.13.5l-.15.56-.15.56c-.05.18-.09.35-.13.5s0,.14,0,.19,0,.11,0,.16l0,.13,0-.14a1,1,0,0,1,0-.15l0-.2c0-.08,0-.16,0-.24s0-.17.06-.26.09-.38.14-.57.1-.39.16-.56.1-.35.15-.49l.12-.34Z" transform="translate(-0.19 -5.94)"/><path class="cls-11" d="M15.66,14.28l0,.1s0,.14-.06.24-.05.21-.08.33-.07.26-.1.39-.07.26-.11.38-.07.24-.1.34l-.08.23,0,.09a.62.62,0,0,1,0-.09c0-.06,0-.15.05-.25s0-.21.08-.34.06-.25.1-.38.07-.26.11-.39.08-.23.11-.33l.08-.23Z" transform="translate(-0.19 -5.94)"/><path class="cls-11" d="M15.84,15.18s0,.13,0,.31,0,.2-.05.31-.06.24-.08.36a3.57,3.57,0,0,1-.1.35.75.75,0,0,1-.05.16s0,.1,0,.14-.06.16-.08.21l0,.08a.45.45,0,0,1,0-.08c0-.06,0-.13,0-.22s.05-.2.07-.31a3.59,3.59,0,0,0,.08-.35c.06-.24.12-.48.18-.66a2.18,2.18,0,0,1,.06-.22Z" transform="translate(-0.19 -5.94)"/><path class="cls-15" d="M31.05,13a.93.93,0,0,0-.45-1.24,1,1,0,0,0-1.45.21c-.21.21-1.63,2.91-2.13,3.83l-.18.33s.81-1,1.57-.43a1.37,1.37,0,0,1,.2,1.93l.13-.19C29.17,16.78,31,13.26,31.05,13Z" transform="translate(-0.19 -5.94)"/><path class="cls-20" d="M30.82,12.86c-.07.18-1.23,2.46-1.91,3.73a1.87,1.87,0,0,1-.3,1.08l.13-.19c.43-.7,2.22-4.22,2.31-4.44a.93.93,0,0,0-.4-1.21A1,1,0,0,1,30.82,12.86Z" transform="translate(-0.19 -5.94)"/><path class="cls-12" d="M28.61,17.67a1.37,1.37,0,0,0-.2-1.93c-.76-.53-1.56.43-1.57.43-.41.84-.62,1.69.21,2.13s1.3-.25,1.56-.63Z" transform="translate(-0.19 -5.94)"/><path class="cls-13" d="M28.34,17.64A1.2,1.2,0,0,0,28.21,16c-.59-.43-1.23.39-1.23.39-.34.71-.52,1.44.12,1.79s1-.23,1.24-.56Z" transform="translate(-0.19 -5.94)"/><path class="cls-9" d="M28.21,16c-.43-.32-.9,0-1.11.26-.16.51-.15,1,.29,1.23s.95-.25,1.16-.58a.59.59,0,0,1,0-.08A.91.91,0,0,0,28.21,16Z" transform="translate(-0.19 -5.94)"/><path class="cls-11" d="M29.68,12.13l-.06.13-.16.35-.22.49-.26.56c-.09.19-.17.38-.26.56l-.22.49-.09.2-.06.15-.06.13,0-.14a1.56,1.56,0,0,0,.05-.16c0-.06,0-.13.07-.2l.1-.24c0-.08.06-.17.1-.26s.16-.38.25-.57l.27-.56.25-.48c.07-.14.14-.25.18-.33Z" transform="translate(-0.19 -5.94)"/><path class="cls-11" d="M30,12.77l0,.1a2.21,2.21,0,0,0-.1.24,3.52,3.52,0,0,0-.15.33l-.18.39-.18.38-.17.32-.12.23-.05.09,0-.09c0-.06.06-.15.1-.25s.08-.21.14-.34l.17-.38c.06-.13.13-.26.19-.38l.17-.33.13-.22Z" transform="translate(-0.19 -5.94)"/><path class="cls-11" d="M30,13.74l-.1.31c0,.1-.08.2-.12.32s-.1.24-.15.35a3.73,3.73,0,0,1-.16.35.8.8,0,0,1-.08.16s0,.1-.08.14-.09.16-.11.21l-.05.07,0-.08.09-.22.13-.31.15-.35c.11-.24.21-.48.3-.65l.1-.22Z" transform="translate(-0.19 -5.94)"/><path class="cls-15" d="M24.76,14.46a.88.88,0,0,0-.15-1.24.94.94,0,0,0-1.37-.11c-.25.14-2.13,2.32-2.8,3.07l-.23.27s.95-.72,1.54-.07a1.3,1.3,0,0,1-.23,1.82l.16-.15C22.23,17.51,24.63,14.65,24.76,14.46Z" transform="translate(-0.19 -5.94)"/><path class="cls-12" d="M21.52,18.2a1.3,1.3,0,0,0,.23-1.82c-.59-.65-1.53.06-1.54.07-.55.67-.94,1.42-.27,2s1.25.05,1.58-.25Z" transform="translate(-0.19 -5.94)"/><path class="cls-13" d="M21.28,18.12a1.14,1.14,0,0,0,.23-1.52c-.45-.53-1.22.09-1.23.09-.46.58-.78,1.21-.26,1.67s1,0,1.26-.24Z" transform="translate(-0.19 -5.94)"/><path class="cls-9" d="M21.51,16.6c-.34-.39-.84-.16-1.08,0-.26.44-.35.87,0,1.19s.93,0,1.19-.28l.06-.07A.86.86,0,0,0,21.51,16.6Z" transform="translate(-0.19 -5.94)"/><path class="cls-11" d="M23.69,13.33l-.08.11-.22.28-.31.41-.36.46-.36.46-.31.4a1.11,1.11,0,0,1-.12.16c0,.05-.07.09-.09.13l-.08.11.06-.12.09-.13a1.62,1.62,0,0,1,.1-.18,1.73,1.73,0,0,0,.14-.2L22.3,15c.12-.15.23-.31.36-.46s.24-.32.36-.46l.34-.39a3.47,3.47,0,0,1,.24-.26Z" transform="translate(-0.19 -5.94)"/><path class="cls-11" d="M23.82,14a.3.3,0,0,1-.05.08l-.14.2-.21.28-.24.32c-.09.1-.17.21-.25.31l-.23.26-.16.19-.07.07.05-.08.14-.21.21-.28.24-.32.25-.31.23-.26.17-.18Z" transform="translate(-0.19 -5.94)"/><path class="cls-11" d="M23.65,14.89l-.16.26-.18.27-.21.29-.22.29-.11.13-.1.11-.15.16-.06.06,0-.07.13-.18.19-.26.21-.29.42-.54.14-.17Z" transform="translate(-0.19 -5.94)"/><path class="cls-21" d="M16.91,18.09a1.51,1.51,0,0,1,.16,2.12h0l.14-.22c.5-.78,2.55-4.72,2.65-5a1,1,0,0,0-.44-1.34,1.13,1.13,0,0,0-1.58.29c-.24.23-1.86,3.25-2.44,4.29l-.2.37S16.11,17.54,16.91,18.09Z" transform="translate(-0.19 -5.94)"/><path class="cls-7" d="M17.07,20.21a1.51,1.51,0,0,0-.16-2.12c-.8-.55-1.7.53-1.71.54-.47.93-.73,1.88.15,2.33s1.42-.32,1.72-.75Z" transform="translate(-0.19 -5.94)"/><path class="cls-8" d="M16.78,20.18c.29-.5.53-1.32-.09-1.78s-1.35.48-1.35.49c-.38.78-.61,1.59.08,1.95s1.12-.29,1.36-.66Z" transform="translate(-0.19 -5.94)"/><path class="cls-6" d="M15.71,20.28c.52.27.95-.25,1.15-.56a2.18,2.18,0,0,0,.22-.54.94.94,0,0,0-.39-.78.77.77,0,0,0-.9.07.83.83,0,0,0-.14.16C15.32,19.29,15.13,20,15.71,20.28Z" transform="translate(-0.19 -5.94)"/><path class="cls-11" d="M18.47,14.09l-.07.15-.19.39-.27.55-.32.62-.34.61c-.1.2-.21.38-.3.53s-.16.29-.21.38l-.09.14.07-.15c.05-.09.11-.23.19-.39l.27-.55.32-.62.34-.61.3-.53c.09-.16.16-.29.22-.38Z" transform="translate(-0.19 -5.94)"/><path class="cls-11" d="M18.46,15l0,.1-.12.27-.17.37-.21.43c-.07.15-.14.29-.2.43l-.2.36a1.92,1.92,0,0,1-.14.26l-.05.1,0-.11.12-.27c0-.11.1-.24.16-.38s.13-.28.2-.43.14-.29.21-.42.14-.26.2-.36l.15-.26Z" transform="translate(-0.19 -5.94)"/><path class="cls-11" d="M18.58,16.09l0,.08c0,.06-.05.13-.09.22s-.18.42-.28.65l-.16.34-.14.3-.11.21a.46.46,0,0,0,0,.08.66.66,0,0,0,0-.09c0-.05,0-.13.08-.22l.11-.31.15-.35c.06-.11.11-.23.17-.34s.11-.21.15-.29Z" transform="translate(-0.19 -5.94)"/><path class="cls-17" d="M27.71,18.22A1.06,1.06,0,0,0,27.19,17a61.86,61.86,0,0,0-6.91,1s.19,0,.31.25a2.47,2.47,0,0,1-1,2.24c-.54.43-.68.41-.79.42a40.07,40.07,0,0,0,8-1.29A2.48,2.48,0,0,0,27.71,18.22Z" transform="translate(-0.19 -5.94)"/><path class="cls-18" d="M19.55,20.53a2.47,2.47,0,0,0,1-2.24c-.12-.27-.31-.25-.31-.25a2.19,2.19,0,0,0-1.61,1.34c-.51,1-.21,1.6.09,1.57C18.87,20.94,19,21,19.55,20.53Z" transform="translate(-0.19 -5.94)"/><path class="cls-19" d="M19.45,20.4a1.94,1.94,0,0,0,.81-1.78c-.09-.21-.24-.2-.24-.2a1.75,1.75,0,0,0-1.27,1.07c-.4.77-.16,1.26.07,1.24S19,20.74,19.45,20.4Z" transform="translate(-0.19 -5.94)"/><path class="cls-9" d="M20.26,18.62c-.06-.14-.14-.18-.2-.19a2.15,2.15,0,0,0-.77.88c-.35.67-.22,1.12,0,1.22a1.62,1.62,0,0,0,.19-.13A1.94,1.94,0,0,0,20.26,18.62Z" transform="translate(-0.19 -5.94)"/><path class="cls-11" d="M21.44,19.82l.17,0,.46-.1.65-.12.36-.07.38-.06.75-.1.35,0,.31,0,.46,0h.18l-.17,0-.47.07-.65.09-.74.12-.75.11-.65.1-.47.06Z" transform="translate(-0.19 -5.94)"/><path class="cls-11" d="M26.08,18.35l-.22,0-.59,0-.83.07-.47,0-.49,0-.48.06-.47.07-.43.07-.39.07-.32.07-.25.07-.22.05.21-.07.25-.08.32-.09.39-.09.43-.08.47-.08.48-.06.49,0,.47,0c.3,0,.59,0,.84,0C25.76,18.34,26.08,18.35,26.08,18.35Z" transform="translate(-0.19 -5.94)"/><path class="cls-12" d="M33.2,18.49c-1-.81-.58-1.08-.58-1.08a1.86,1.86,0,0,1,1.57.26c.6.35.72.77.64,1.07S34.16,19.24,33.2,18.49Z" transform="translate(-0.19 -5.94)"/><path class="cls-13" d="M33.35,18.4c-.86-.59-.57-.84-.57-.84a1.3,1.3,0,0,1,1.18.11c.49.25.64.58.61.83S34.15,18.94,33.35,18.4Z" transform="translate(-0.19 -5.94)"/><path class="cls-9" d="M34,18.09a1.1,1.1,0,0,1,.56.52c-.14.16-.5.24-1.16-.21a2.33,2.33,0,0,1-.52-.46A1.36,1.36,0,0,1,34,18.09Z" transform="translate(-0.19 -5.94)"/><path class="cls-15" d="M34.64,19c-.29.23-4.36,3-4.91,3.28-.87.49-2.38-.05-2.12-.92a35.85,35.85,0,0,1,4.81-3.87.75.75,0,0,1,.2-.1s-.45.27.58,1.08,1.49.51,1.63.25A.52.52,0,0,1,34.64,19Z" transform="translate(-0.19 -5.94)"/><path class="cls-11" d="M29.19,20.68l.13-.08.35-.22.5-.31.56-.37.55-.37.48-.33.34-.25.12-.09-.13.08-.35.22-.5.31-.56.37-.55.37-.48.33-.34.24Z" transform="translate(-0.19 -5.94)"/><path class="cls-11" d="M30.62,20.69l.11-.07.29-.18.41-.27.47-.32.46-.33c.15-.1.28-.2.39-.29L33,19l.1-.08L33,19l-.29.18-.41.27-.47.32-.46.33L31,20.4l-.28.21Z" transform="translate(-0.19 -5.94)"/><path class="cls-11" d="M30,21.87l.12-.06.29-.19.41-.27.46-.32.46-.33.4-.29.28-.21.1-.08-.11.07-.3.18-.41.27-.46.32-.46.33-.4.29-.27.21Z" transform="translate(-0.19 -5.94)"/><path class="cls-17" d="M28.62,16.32a1,1,0,0,1,.69-1,59.11,59.11,0,0,1,6.11,2.2.32.32,0,0,0-.33.17,2.27,2.27,0,0,0,.53,2.23c.41.49.55.49.64.53a37.1,37.1,0,0,1-7-2.64A2.24,2.24,0,0,1,28.62,16.32Z" transform="translate(-0.19 -5.94)"/><path class="cls-18" d="M35.62,19.91a2.27,2.27,0,0,1-.53-2.23.32.32,0,0,1,.33-.17A2,2,0,0,1,36.63,19c.29,1-.1,1.49-.37,1.42C36.17,20.4,36,20.4,35.62,19.91Z" transform="translate(-0.19 -5.94)"/><path class="cls-19" d="M35.74,19.81a1.8,1.8,0,0,1-.42-1.76c.12-.18.26-.14.26-.14a1.59,1.59,0,0,1,1,1.19c.23.78-.08,1.18-.29,1.12S36.07,20.19,35.74,19.81Z" transform="translate(-0.19 -5.94)"/><path class="cls-9" d="M35.32,18.05a.29.29,0,0,1,.22-.15,2,2,0,0,1,.54,1c.2.67,0,1.06-.2,1.11l-.14-.15A1.8,1.8,0,0,1,35.32,18.05Z" transform="translate(-0.19 -5.94)"/><path class="cls-11" d="M34,18.92l-.15-.07-.4-.17-.56-.23-.32-.13-.34-.12L31.6,18l-.31-.09L31,17.79c-.17-.06-.31-.09-.41-.12l-.16,0,.15.05.41.15.58.21.65.24.66.24.58.2.41.15Z" transform="translate(-0.19 -5.94)"/><path class="cls-11" d="M30.07,16.74l.21.05.53.14.74.21.42.13.43.13.43.14.41.15.38.14L34,18l.29.12.21.11.19.09-.18-.11-.21-.11L34,17.92l-.33-.15-.38-.15-.41-.16-.43-.14L32,17.19l-.42-.12c-.27-.08-.53-.13-.75-.19C30.37,16.78,30.07,16.74,30.07,16.74Z" transform="translate(-0.19 -5.94)"/><path class="cls-17" d="M35.9,14.31a1,1,0,0,0,.26,1.19,55.92,55.92,0,0,0,6.49.29.31.31,0,0,1-.24-.28,2.25,2.25,0,0,1,1.33-1.86c.57-.3.7-.25.8-.25A37.33,37.33,0,0,0,37,13.16,2.33,2.33,0,0,0,35.9,14.31Z" transform="translate(-0.19 -5.94)"/><path class="cls-18" d="M43.74,13.65a2.25,2.25,0,0,0-1.33,1.86.31.31,0,0,0,.24.28,2,2,0,0,0,1.69-.94c.64-.8.47-1.42.2-1.45C44.44,13.4,44.31,13.35,43.74,13.65Z" transform="translate(-0.19 -5.94)"/><path class="cls-19" d="M43.82,13.79a1.8,1.8,0,0,0-1.06,1.47c0,.21.19.23.19.23a1.64,1.64,0,0,0,1.34-.75c.51-.63.37-1.12.16-1.14S44.27,13.55,43.82,13.79Z" transform="translate(-0.19 -5.94)"/><path class="cls-9" d="M42.76,15.26a.26.26,0,0,0,.15.21,2,2,0,0,0,.86-.67c.43-.54.4-1,.24-1.1l-.19.09A1.8,1.8,0,0,0,42.76,15.26Z" transform="translate(-0.19 -5.94)"/><path class="cls-11" d="M41.9,14H40l-.7,0c-.12,0-.22,0-.33,0l-.28,0c-.18,0-.33,0-.43,0l-.17,0h.6l.61,0,.7,0,.7,0,.61,0,.44,0Z" transform="translate(-0.19 -5.94)"/><path class="cls-11" d="M37.41,14.48l.21,0,.54.07.77.08.43.05.45,0,.46,0,.43,0h1.53l-.21,0-.23,0-.31,0h-.37a2.8,2.8,0,0,1-.41,0h-.44l-.45,0-.45,0-.44,0c-.28,0-.54-.08-.77-.12C37.7,14.55,37.41,14.48,37.41,14.48Z" transform="translate(-0.19 -5.94)"/><path class="cls-11" d="M34.12,16.13a.92.92,0,0,0,.19,1.2,63.79,63.79,0,0,0,6.82.76s-.19,0-.23-.3A2.28,2.28,0,0,1,42.44,16c.62-.25.75-.2.86-.18a42.18,42.18,0,0,0-7.93-.79A2.39,2.39,0,0,0,34.12,16.13Z" transform="translate(-0.19 -5.94)"/><path class="cls-18" d="M42.44,16a2.28,2.28,0,0,0-1.54,1.76c0,.27.23.3.23.3A2.17,2.17,0,0,0,43,17.28c.73-.76.6-1.38.31-1.43C43.19,15.83,43.06,15.78,42.44,16Z" transform="translate(-0.19 -5.94)"/><path class="cls-19" d="M42.51,16.18a1.82,1.82,0,0,0-1.22,1.39.26.26,0,0,0,.19.24A1.77,1.77,0,0,0,43,17.17c.57-.6.47-1.09.24-1.14S43,16,42.51,16.18Z" transform="translate(-0.19 -5.94)"/><path class="cls-9" d="M41.29,17.57a.28.28,0,0,0,.14.22,2,2,0,0,0,1-.6c.5-.51.49-1,.33-1.09l-.21.08A1.82,1.82,0,0,0,41.29,17.57Z" transform="translate(-0.19 -5.94)"/><path class="cls-10" d="M40.47,16.21H40.3l-.46,0-.64,0-.37,0-.37,0L37.72,16l-.34-.05-.3,0-.45-.08-.17,0h.17l.46.05.64.08.74.07.73.08.65.07.45.06Z" transform="translate(-0.19 -5.94)"/><path class="cls-10" d="M35.7,16.4l.21,0,.57.11.81.15.46.07.47.07.47.07.46.05.43,0L40,17l.32,0h.48l-.22,0h-1l-.44,0L38.68,17l-.47-.06-.48-.08-.45-.08c-.3-.05-.57-.12-.81-.17C36,16.49,35.7,16.4,35.7,16.4Z" transform="translate(-0.19 -5.94)"/><path class="cls-12" d="M39.45,14.69c-.17,1.31.34,1.18.34,1.18a1.83,1.83,0,0,0,.93-1.29c.19-.67,0-1.06-.29-1.21S39.6,13.49,39.45,14.69Z" transform="translate(-0.19 -5.94)"/><path class="cls-13" d="M39.62,14.65c-.2,1,.18,1,.18,1a1.3,1.3,0,0,0,.76-.91.91.91,0,0,0-.15-1C40.21,13.61,39.81,13.71,39.62,14.65Z" transform="translate(-0.19 -5.94)"/><path class="cls-9" d="M40.26,14.45a1.06,1.06,0,0,0,0-.76c-.21,0-.52.18-.67,1a2.29,2.29,0,0,0,0,.69A1.35,1.35,0,0,0,40.26,14.45Z" transform="translate(-0.19 -5.94)"/><path class="cls-15" d="M40.1,13.3c-.37,0-5.18.95-5.8,1.12-1,.26-1.66,1.7-.86,2.14a35.08,35.08,0,0,0,6.14-.62l.21-.07s-.51.13-.34-1.18.69-1.41,1-1.32A.58.58,0,0,0,40.1,13.3Z" transform="translate(-0.19 -5.94)"/><path class="cls-11" d="M35.05,16l.15,0,.41-.1.57-.12.65-.14.66-.12.58-.1.4-.06.16,0-.15,0-.4.1-.58.12-.65.13-.66.13-.58.1-.4.06Z" transform="translate(-0.19 -5.94)"/><path class="cls-11" d="M36.06,14.94l.13,0,.34-.08.48-.09.56-.1.55-.09.49-.07.34,0,.13,0-.12,0-.34.07-.49.1-.55.1-.56.09-.48.07-.35,0Z" transform="translate(-0.19 -5.94)"/><path class="cls-11" d="M34.79,14.53l.13,0,.34-.08.48-.09.56-.1.55-.09.49-.07.35,0,.13,0-.13,0-.34.07-.48.1-.56.1-.55.09-.49.07-.35,0Z" transform="translate(-0.19 -5.94)"/><path class="cls-20" d="M44.54,13.4c-1.14-.14-2.19-.22-3.12-.27A2.23,2.23,0,0,0,42.21,12a.69.69,0,0,0,0-.13s0,0,0,0,0-.06,0-.09v-.17s0,0,0,0a.87.87,0,0,0-.39-.64,23,23,0,0,0-3.26.15c.29-.29.49-.51.52-.55a.94.94,0,0,0-.2-1.33l-.06-.07c-.73-.7-1.18-.4-1.43-.3s-2.23,2.07-2.93,2.73l-.24.24a3.65,3.65,0,0,0-.4.5,1.91,1.91,0,0,0-1,.65l-.92.6a1.29,1.29,0,0,0-.66-.1h-.42l.18-.37s0,0,0-.06v0s0,0,0,0v-.07a.88.88,0,0,0-.36-.94h0l-.1-.07h0l0,0a1,1,0,0,0-1.45.21,16.37,16.37,0,0,0-.89,1.54l-.3,0,.35-.29c.14-.13-.09-.68-.88-1.11S26.09,11.89,26,12s-.79.46-1.64,1a.93.93,0,0,0-1.08.11.87.87,0,0,0-.2.18,29.61,29.61,0,0,0-3.67.37,1.17,1.17,0,0,0-.94-.14c-.1-.18-.19-.35-.28-.5l.73-.7a.85.85,0,0,0,.22-.83,2.38,2.38,0,0,0,.27-.59l.2-.06a2.42,2.42,0,0,0,.87-1.48s0-.1,0-.15V9a.37.37,0,0,0,0-.11s0,0,0-.06v0a1,1,0,0,0-.54-.66A61.74,61.74,0,0,0,13,9.5a2.18,2.18,0,0,0-1.55,1.41c-.46,1-.14,1.6.16,1.57l1-.13a2.2,2.2,0,0,0-.3.72.9.9,0,0,0-.61-.07l-.14,0-.08,0h0a.9.9,0,0,0-.61.93c0,.27.5,3,.67,4l.06.34c.19.83.52,1.56,1.33,1.38a.75.75,0,0,0,.37-.17.94.94,0,0,0,.55.4.9.9,0,0,0,1-.27A1.09,1.09,0,0,0,15.35,21c.8.4,1.42-.32,1.72-.75l.14-.22c.16-.25.48-.83.85-1.51.17.32.36.65.56,1-.44.92-.15,1.5.14,1.47,1.39-.09,2.64-.24,3.72-.4h0a.29.29,0,0,0,0,.09v0l.05.12a2.22,2.22,0,0,0,1.09,1.07,29.76,29.76,0,0,0,4-.1,1.61,1.61,0,0,0,2.11.52c.21-.12.91-.58,1.72-1.12.81.28,1.73.57,2.75.83.25.07.6-.43.33-1.37,0-.05,0-.09-.05-.13.57.57,1.21,1.18,1.93,1.82.2.17.74-.11.92-1.08a2.26,2.26,0,0,0-.15-1.48l1.34.37a2,2,0,0,0,1.87-.58c.79-.65.88-1.29.7-1.47h0A2.17,2.17,0,0,0,43,17.28c.73-.76.6-1.38.31-1.43l-.37-.07a2.23,2.23,0,0,0,1.41-.93C45,14.05,44.81,13.43,44.54,13.4ZM12,17.1c-.28.36-.43.6-.53.12-.17-.77-.32-1.54-.41-2.09-.17-1.14-.19-1.9.41-2s.74.62.57,1.63-.45,1.74.18,1.84S12.24,16.78,12,17.1Zm1.48-6.77c.08-.5-.21-.8.11-.88.93-.23,3.47-.84,4.61-1s1.71-.3,1.86,0-.26,1.19-.76.88-.38-.37-1.53,0-3.24,1.47-4,1.71S13.4,10.82,13.47,10.33Zm.27,1.3a31.45,31.45,0,0,1,4-2c1.07-.41,1.94.4-.07,1.72s-3.85,1.89-3.78,1.41C14,11.8,13.54,11.76,13.74,11.63Zm.9,5.47a1,1,0,0,0-.73,0c-.21.1-.21-.15.15-1.33.52-1.71.95-2.62,1.55-2.53s.49.75.12,2.35S15.05,17.23,14.64,17.1Zm3.65-.1c-.93,1.79-1,1.08-1.5.92s-1.17.1-.95-.36.69-1.21,1.2-2.13c.92-1.65,1.39-2,2-1.66S19.21,15.21,18.29,17Zm17.12-6.27c1.17-1.1,2.14-2.25,2.82-1.92s.27,1-.31,1.67S34.32,11.75,35.41,10.73Zm-1.27,1.53c.83-.37,1.15.06.94.82s-1.68,1.62-3,2.34-2.2-.35-1.64-.75A26.45,26.45,0,0,1,34.14,12.26ZM27.8,14.68c1.19-2.25,1.6-3.06,2.27-2.92s.2,1.3-.34,2.55S27.19,15.82,27.8,14.68Zm-6,.09c.92-1.08,1.6-2,2.36-1.64s-.13,1.39-.87,2.33-1,1-1.49.75S20.9,15.77,21.76,14.77ZM21.37,18c1.62-.33,3.84-.75,5.1-.9s1.33,1.19-1.24,1.74C20.85,19.82,20.07,18.29,21.37,18Zm3.76,3.33c-2.4.06-1.85-.69-1.29-.79,1-.18,2.08-.45,3-.62s1.23-.13,1.42.15S27.53,21.29,25.13,21.36Zm5.41,0c-1,.76-3.81,1.12-2.5-.22,2.34-2.4,2.91-2.41,4-1.9S31.53,20.55,30.54,21.32Zm3.33-2.61c-1-.47-3.34-1.22-4.07-1.62s-.92-1.9-.1-1.6c1.56.55,4,1.23,4.55,2.07S34.92,19.18,33.87,18.71Zm.46-4.2c1.37-.39,3.55-.7,4.45-.86s.68.26.52.83-.56.95-2.84,1.42S32.61,15,34.33,14.51Zm6.77,2c-.48,1-.91.91-3,.87S34,17,37,16.49C38.46,16.27,41.58,15.55,41.1,16.54Zm-1.21-4.19c-3.36.24-4.26-.91-3.16-1.07s3.29-.35,4.17-.35S41.2,12.26,39.89,12.35Z" transform="translate(-0.19 -5.94)"/><g class="cls-22"><path class="cls-23" d="M20,7.36a2.45,2.45,0,0,0,2.86,0c.42-.34.65-.68,1.23-.75s.7.23,1.12.41c1,.5,1.77-.18,2.68-.62,1.33-.68,2.16.7,3.46.7a1.64,1.64,0,0,1,1.49.6c.28.39.39.6,1,.68.39,0,.77,0,1.16,0a1.36,1.36,0,0,1,.79.18c.33.22.42.6.69.86a.86.86,0,0,0,.35.19,3.1,3.1,0,0,1,.57.3,1.53,1.53,0,0,1,.79.92,2,2,0,0,1,0,1.2,1.37,1.37,0,0,1-.38.52c-.56.42-1.3.15-1.92,0a4.47,4.47,0,0,0-.82,0,1.54,1.54,0,0,0-1.11.36c-.23.25-.27.59-.66.69a2.63,2.63,0,0,1-1.8-.42A1.74,1.74,0,0,0,30,13.09c-.52.18-.91.55-1.48.57-.79,0-1-.33-1.57-.75a1.38,1.38,0,0,0-1.51-.13,2.78,2.78,0,0,0-.72,1.05,1.33,1.33,0,0,1-.91.67,2.15,2.15,0,0,1-1.15-.08,10.66,10.66,0,0,1-1-.62,2,2,0,0,0-1.25-.12,3.31,3.31,0,0,1-1.13.1,4,4,0,0,1-1.17-.3,1.14,1.14,0,0,1-.47-.4c-.3-.41-.07-.94.13-1.34s.26-.73-.19-.86-.86,0-1.26-.11a1,1,0,0,1-.5-1.23c.31-.68,1.39-.49,1.91-.88A1.16,1.16,0,0,0,18,8.3c.08-.14.12-.29.19-.43A1.3,1.3,0,0,1,20,7.36Z" transform="translate(-0.19 -5.94)"/></g><path class="cls-24" d="M20,7.14a2.46,2.46,0,0,0,2.86,0c.42-.34.65-.68,1.23-.76s.7.24,1.12.42c1,.5,1.77-.18,2.68-.63,1.33-.67,2.16.71,3.46.71a1.64,1.64,0,0,1,1.49.6c.28.39.39.6,1,.68.39,0,.77,0,1.16,0a1.29,1.29,0,0,1,.79.18c.33.22.42.59.69.86a1,1,0,0,0,.35.19,3.1,3.1,0,0,1,.57.3,1.54,1.54,0,0,1,.79.91,2,2,0,0,1,0,1.21,1.27,1.27,0,0,1-.38.51c-.56.43-1.3.16-1.92,0a5.58,5.58,0,0,0-.82,0,1.54,1.54,0,0,0-1.11.36c-.23.25-.27.58-.66.68a2.63,2.63,0,0,1-1.8-.41A1.7,1.7,0,0,0,30,12.87c-.52.18-.91.55-1.48.57-.79,0-1-.34-1.57-.75a1.36,1.36,0,0,0-1.51-.13c-.37.24-.5.68-.72,1a1.34,1.34,0,0,1-.91.68,2.06,2.06,0,0,1-1.15-.09,9,9,0,0,1-1-.62,2,2,0,0,0-1.25-.11,3.31,3.31,0,0,1-1.13.1,4.38,4.38,0,0,1-1.17-.3,1.14,1.14,0,0,1-.47-.4c-.3-.42-.07-.95.13-1.34s.26-.73-.19-.87-.86,0-1.26-.11a1,1,0,0,1-.5-1.22c.31-.68,1.39-.49,1.91-.88a1.16,1.16,0,0,0,.3-.36c.08-.14.12-.29.19-.44A1.3,1.3,0,0,1,20,7.14Z" transform="translate(-0.19 -5.94)"/><path class="cls-25" d="M25.59,10.6a.15.15,0,0,1,0-.06.77.77,0,0,1,.1-.15l.09-.08.11-.08.13-.07.15,0h.29l.13,0,.11,0a.79.79,0,0,1,.16.08l.06,0h-.07l-.07,0-.09,0-.12,0h-.12a.57.57,0,0,0-.13,0H26.2l-.13,0-.06,0-.06,0a.33.33,0,0,0-.1.06l-.09.06A1.1,1.1,0,0,0,25.59,10.6Z" transform="translate(-0.19 -5.94)"/><path class="cls-25" d="M16.57,9.45a.48.48,0,0,1,.11-.18l.07-.07.09-.07L17,9.08l.12,0,.13,0h.12l.11,0,.1,0a.59.59,0,0,1,.13,0l.06,0h-.06l-.14,0h-.31l-.12,0a.38.38,0,0,0-.1,0l-.1,0a.56.56,0,0,0-.17.11A.83.83,0,0,0,16.57,9.45Z" transform="translate(-0.19 -5.94)"/><path class="cls-25" d="M29.91,9.55l0-.06L30,9.43l.08-.08.1-.07a.47.47,0,0,1,.12-.07l.15-.05a.41.41,0,0,1,.16,0h.16l.15,0,.13.06.1.07.05,0,0,0,.06,0,.05.05-.06,0-.07,0-.09,0L31,9.33l-.12-.05-.14,0h-.14l-.14,0a.5.5,0,0,0-.13,0l-.12.05-.11.06L30,9.51Z" transform="translate(-0.19 -5.94)"/><path class="cls-25" d="M34.94,10.13a.86.86,0,0,1,.19-.15l.1-.05.12,0,.14,0h.23l.07,0,.13.06A.39.39,0,0,1,36,10a.65.65,0,0,1,.08.09l.06.08,0,.06,0,.06,0,0-.05-.06s0,0-.06-.06A.71.71,0,0,0,36,10.1l-.1-.06-.11,0-.07,0H35.5l-.12,0-.12,0-.11,0Z" transform="translate(-0.19 -5.94)"/><path class="cls-25" d="M32.16,10.9a.81.81,0,0,1,.09-.15,1.59,1.59,0,0,1,.13-.13l.09,0,.11,0h.11l.11,0,.09,0a.18.18,0,0,1,.07,0,.29.29,0,0,1,.1.08l0,0-.05,0,0,0-.07,0-.07,0-.08,0H32.6l-.09,0-.08,0-.07,0-.07,0Z" transform="translate(-0.19 -5.94)"/><path class="cls-25" d="M21.44,12.1a.87.87,0,0,1,.08-.26l.06-.11.09-.12.12-.11a.67.67,0,0,1,.14-.09l.16-.05h.17l.14,0,.13,0,.1,0,.07.05.07,0-.07,0-.08,0-.11,0-.12,0h-.13l-.15,0a.35.35,0,0,0-.13,0,.33.33,0,0,0-.13.07l-.11.09-.09.1-.08.1-.1.16Z" transform="translate(-0.19 -5.94)"/><path class="cls-25" d="M18.7,11.28a1.48,1.48,0,0,0-.05.22,1.3,1.3,0,0,0,0,.22.85.85,0,0,0,0,.26.57.57,0,0,0,0,.13l0,.12a.76.76,0,0,1,0,.11l.05.09.05.08s0,0,.05.05l0,0-.06,0-.06-.05-.06-.06-.07-.09a.34.34,0,0,1-.06-.12s0-.09,0-.13,0-.09,0-.14v-.14s0-.1,0-.14a1.55,1.55,0,0,1,.06-.23A.74.74,0,0,1,18.7,11.28Z" transform="translate(-0.19 -5.94)"/><path class="cls-25" d="M18.89,7.89a.1.1,0,0,1,0,0A.53.53,0,0,1,19,7.7l.08-.08.1-.07.12-.06.14,0h.14l.13,0,.12,0,.1,0a.68.68,0,0,1,.15.08l.05,0-.06,0-.16,0-.1,0h-.23l-.13,0-.12,0-.05,0-.06,0a.78.78,0,0,0-.18.11A.75.75,0,0,0,18.89,7.89Z" transform="translate(-0.19 -5.94)"/><path class="cls-25" d="M23.77,11.76a.17.17,0,0,1-.16.17.17.17,0,0,1,0-.34A.17.17,0,0,1,23.77,11.76Z" transform="translate(-0.19 -5.94)"/><path class="cls-25" d="M24.81,9.81a.16.16,0,1,1-.15-.17A.17.17,0,0,1,24.81,9.81Z" transform="translate(-0.19 -5.94)"/><path class="cls-25" d="M33.54,8.78a.16.16,0,1,1-.31,0,.16.16,0,1,1,.31,0Z" transform="translate(-0.19 -5.94)"/><path class="cls-25" d="M31.94,7.52a.16.16,0,1,1-.32,0,.16.16,0,1,1,.32,0Z" transform="translate(-0.19 -5.94)"/><path class="cls-25" d="M22.88,13.08a.16.16,0,1,1-.31,0,.16.16,0,1,1,.31,0Z" transform="translate(-0.19 -5.94)"/><ellipse class="cls-25" cx="27.85" cy="3.26" rx="0.16" ry="0.17"/><path class="cls-25" d="M18.73,8a.16.16,0,1,1-.31,0,.16.16,0,1,1,.31,0Z" transform="translate(-0.19 -5.94)"/><path class="cls-25" d="M33,12.69a.16.16,0,1,1-.15-.17A.17.17,0,0,1,33,12.69Z" transform="translate(-0.19 -5.94)"/><path class="cls-25" d="M21,12a.22.22,0,1,1-.43,0A.22.22,0,1,1,21,12Z" transform="translate(-0.19 -5.94)"/><path class="cls-25" d="M19.42,10.33a.22.22,0,1,1-.44,0,.22.22,0,1,1,.44,0Z" transform="translate(-0.19 -5.94)"/><path class="cls-25" d="M25.9,11.67a.22.22,0,1,1-.43,0,.22.22,0,1,1,.43,0Z" transform="translate(-0.19 -5.94)"/><path class="cls-25" d="M21.89,10.64a.17.17,0,1,1-.17-.18A.18.18,0,0,1,21.89,10.64Z" transform="translate(-0.19 -5.94)"/><path class="cls-25" d="M31.13,8.6a.17.17,0,0,1-.17.18.18.18,0,0,1,0-.36A.17.17,0,0,1,31.13,8.6Z" transform="translate(-0.19 -5.94)"/><path class="cls-25" d="M27.59,11.07a.22.22,0,1,1-.22-.24A.23.23,0,0,1,27.59,11.07Z" transform="translate(-0.19 -5.94)"/><ellipse class="cls-25" cx="19.61" cy="3.33" rx="0.17" ry="0.18"/><path class="cls-25" d="M20.63,7.88a.18.18,0,1,1-.35,0,.18.18,0,1,1,.35,0Z" transform="translate(-0.19 -5.94)"/><ellipse class="cls-25" cx="33.79" cy="4.92" rx="0.18" ry="0.19"/><path class="cls-25" d="M30,11.1a.18.18,0,1,1-.35,0,.18.18,0,1,1,.35,0Z" transform="translate(-0.19 -5.94)"/><path class="cls-25" d="M36.23,10.58a.13.13,0,1,1-.26,0,.13.13,0,1,1,.26,0Z" transform="translate(-0.19 -5.94)"/><path class="cls-25" d="M23.42,10.45a.18.18,0,0,1-.17.19.19.19,0,0,1-.18-.19.18.18,0,0,1,.18-.19A.17.17,0,0,1,23.42,10.45Z" transform="translate(-0.19 -5.94)"/><path class="cls-25" d="M31.72,9.81a.17.17,0,0,1-.17.19.19.19,0,0,1,0-.38A.17.17,0,0,1,31.72,9.81Z" transform="translate(-0.19 -5.94)"/><path class="cls-25" d="M17.27,9.81a.18.18,0,1,1-.18-.19A.18.18,0,0,1,17.27,9.81Z" transform="translate(-0.19 -5.94)"/><path class="cls-25" d="M35.41,9.05a.18.18,0,1,1-.35,0,.18.18,0,1,1,.35,0Z" transform="translate(-0.19 -5.94)"/><g class="cls-26"><path class="cls-24" d="M38.15,10.58a1.54,1.54,0,0,0-.79-.91,3.1,3.1,0,0,0-.57-.3,1,1,0,0,1-.35-.19c-.27-.27-.36-.64-.69-.86A1.29,1.29,0,0,0,35,8.14c-.39,0-.77,0-1.16,0-.6-.08-.71-.29-1-.68a1.64,1.64,0,0,0-1.49-.6c-1.3,0-2.13-1.38-3.46-.71-.91.45-1.67,1.13-2.68.63-.42-.18-.65-.44-1.12-.42s-.81.42-1.23.76a2.46,2.46,0,0,1-2.86,0,1.3,1.3,0,0,0-1.75.5c-.07.15-.11.3-.19.44a1.16,1.16,0,0,1-.3.36c-.52.39-1.6.2-1.91.88a1,1,0,0,0,.5,1.22c.4.13.85,0,1.26.11s.37.52.19.87-.43.92-.13,1.34a1.14,1.14,0,0,0,.47.4,4.38,4.38,0,0,0,1.17.3,3.31,3.31,0,0,0,1.13-.1,2,2,0,0,1,1.25.11,9,9,0,0,0,1,.62,2.06,2.06,0,0,0,1.15.09,1.34,1.34,0,0,0,.91-.68c.22-.36.35-.8.72-1a1.36,1.36,0,0,1,1.51.13c.55.41.78.78,1.57.75.57,0,1-.39,1.48-.57a1.7,1.7,0,0,1,1.43.08,2.63,2.63,0,0,0,1.8.41c.39-.1.43-.43.66-.68A1.54,1.54,0,0,1,35,12.32a5.58,5.58,0,0,1,.82,0c.62.12,1.36.39,1.92,0a1.27,1.27,0,0,0,.38-.51A2,2,0,0,0,38.15,10.58ZM36,11.93c-1-.58-2.09-.48-2.28.42s-.95,1.13-1.75.38-1.6-.84-2.07-.21a1.72,1.72,0,0,1-2.72,0c-1.1-1-2.09-.46-2.52.72s-1.66,1-2.29.2c-.88-1.16-2.08-.24-2.7-.18-2.41.23-1.78-1.44-1.46-2.31.13-.33.24-.8-.85-.62-.92.15-1.57-.37-1.37-.88s.69-.51,1.68-.67.39-.7,1-1.26c.92-.82,2.8.58,2.14,1.26-.46.49-.47,1-.24,1.09S21,9.61,22,9.37c1.21-.3,2.67.61,3.66.61A1.49,1.49,0,0,0,27,9.24a2.08,2.08,0,0,0,2.25-.82A2.06,2.06,0,0,1,32.8,8c.39.63.88.61,1.73.41,1.31-.32,1.17,1.14,1.7,1.13,1.15,0,1.79.51,1.89,1.44S37,12.51,36,11.93Z" transform="translate(-0.19 -5.94)"/></g><g class="cls-27"><path class="cls-24" d="M38.15,10.58a1.54,1.54,0,0,0-.79-.91,3.1,3.1,0,0,0-.57-.3,1,1,0,0,1-.35-.19c-.27-.27-.36-.64-.69-.86A1.29,1.29,0,0,0,35,8.14c-.39,0-.77,0-1.16,0-.6-.08-.71-.29-1-.68a1.64,1.64,0,0,0-1.49-.6c-1.3,0-2.13-1.38-3.46-.71-.91.45-1.67,1.13-2.68.63-.42-.18-.65-.44-1.12-.42s-.81.42-1.23.76a2.46,2.46,0,0,1-2.86,0,1.3,1.3,0,0,0-1.75.5c-.07.15-.11.3-.19.44a1.16,1.16,0,0,1-.3.36c-.52.39-1.6.2-1.91.88a1,1,0,0,0,.5,1.22c.4.13.85,0,1.26.11s.37.52.19.87-.43.92-.13,1.34a1.14,1.14,0,0,0,.47.4,4.38,4.38,0,0,0,1.17.3,3.31,3.31,0,0,0,1.13-.1,2,2,0,0,1,1.25.11,9,9,0,0,0,1,.62,2.06,2.06,0,0,0,1.15.09,1.34,1.34,0,0,0,.91-.68c.22-.36.35-.8.72-1a1.36,1.36,0,0,1,1.51.13c.55.41.78.78,1.57.75.57,0,1-.39,1.48-.57a1.7,1.7,0,0,1,1.43.08,2.63,2.63,0,0,0,1.8.41c.39-.1.43-.43.66-.68A1.54,1.54,0,0,1,35,12.32a5.58,5.58,0,0,1,.82,0c.62.12,1.36.39,1.92,0a1.27,1.27,0,0,0,.38-.51A2,2,0,0,0,38.15,10.58ZM25.08,11.82c-.37,0-.5.22-.64.52a1.72,1.72,0,0,1-.51.68,1.38,1.38,0,0,1-.83.1,1,1,0,0,1-.54-.26,1.61,1.61,0,0,0-1.22-.5c-.67,0-1.24.41-1.92.41-.43,0-.85,0-1-.45A1.75,1.75,0,0,1,18.64,11a.84.84,0,0,0,.09-.52c-.11-.73-1.25-.32-1.73-.44s-.81-.51-.41-.86c.57-.49,1.3,0,1.9-.32s.16-.85.42-1.2c.38-.52,1.33-.2,1.66.18.54.64-.41,1-.46,1.59,0,.43,0,1.22.6,1.13a1.1,1.1,0,0,0,.59-.39,1.69,1.69,0,0,1,.88-.42,1.92,1.92,0,0,1,1.31.22,3.87,3.87,0,0,0,.43.27,2.36,2.36,0,0,0,1,.08,3.65,3.65,0,0,0,.87-.26,1.31,1.31,0,0,1,.65-.09,1.09,1.09,0,0,1,1,.47c.45.77-.48,1.29-1.12,1.37C25.88,11.9,25.48,11.79,25.08,11.82Zm4.8.37c-.17.11-.32.31-.48.43a1,1,0,0,1-.71.21,4,4,0,0,1-1.55-.61c-.11-.05-.24-.17-.16-.31s.31-.12.45-.17.34-.3.54-.4.47,0,.67.17a1.47,1.47,0,0,0,.89.34c.17,0,.81-.36.9-.12s-.34.35-.49.42Zm7.83-.54a1.09,1.09,0,0,1-.77.21,1.9,1.9,0,0,1-.78-.18,6.44,6.44,0,0,0-.73-.4c-.42-.14-1.15-.31-1.52,0a2.38,2.38,0,0,0-.48.83,1.06,1.06,0,0,1-1.61.29c-.44-.47.06-1.05.15-1.55a.53.53,0,0,0-.29-.59.82.82,0,0,0-.68.11c-.39.22-.57.62-1,.73a1.37,1.37,0,0,1-1.25-.26c-.25-.23-.48-.84-.24-1.15a1.54,1.54,0,0,1,1-.45c.22-.06.71,0,.8-.29s-.34-.51-.41-.78c-.17-.67.87-.84,1.31-.74a1.58,1.58,0,0,1,.67.34c.22.19.31.48.51.69a2,2,0,0,0,1.37.49c.65,0,1.37-.46,1.89.13a2.5,2.5,0,0,0,.5.57c.4.26.9.33,1.31.57S38.28,11.19,37.71,11.65Z" transform="translate(-0.19 -5.94)"/></g><g class="cls-28"><path class="cls-25" d="M23.29,12.43c.36-.06.57-1,1-.71.26.15.07.52-.06.7s-.31.51-.64.57a1.54,1.54,0,0,1-1-.35,2.73,2.73,0,0,0-.55-.32c-.17-.05-.33-.07-.37-.28A.4.4,0,0,1,22,11.6a.7.7,0,0,1,.74.43C22.83,12.26,23,12.47,23.29,12.43Z" transform="translate(-0.19 -5.94)"/></g><g class="cls-28"><path class="cls-25" d="M18.84,12.35a.82.82,0,0,0,.73.31.87.87,0,0,0,.48-.11.29.29,0,0,0,.09-.23c0-.15-.13-.21-.24-.3s-.35-.19-.41-.42.13-.42.06-.61-.36-.21-.51-.05a1.3,1.3,0,0,0-.29,1.26A.54.54,0,0,0,18.84,12.35Z" transform="translate(-0.19 -5.94)"/></g><g class="cls-28"><path class="cls-25" d="M16.68,9.39a.61.61,0,0,0-.07.14.48.48,0,0,0,.44.51c.28,0,.25-.29.4-.45s.58-.11.43-.34-.32-.1-.46-.12h-.14A.76.76,0,0,0,16.68,9.39Z" transform="translate(-0.19 -5.94)"/></g><g class="cls-28"><path class="cls-25" d="M19.15,8.42c-.09.06-.22.1-.26,0-.09-.32.19-.59.45-.7a.75.75,0,0,1,.71,0c.11.07.23.32,0,.37a3.68,3.68,0,0,0-.57.06.59.59,0,0,0-.29.2Z" transform="translate(-0.19 -5.94)"/></g><g class="cls-28"><path class="cls-25" d="M26.17,10.3a1.15,1.15,0,0,1,.71,0c.19.06.48.32.2.48s-.57,0-.84,0-.37.22-.58.24a.14.14,0,0,1-.13-.19.71.71,0,0,1,.21-.3A1,1,0,0,1,26.17,10.3Z" transform="translate(-0.19 -5.94)"/></g><g class="cls-28"><path class="cls-25" d="M21.91,10.1a1.41,1.41,0,0,1,1,0c.11,0,.95.33.79.51s-.32.06-.43.06c-.27,0-.53-.1-.81-.08a4.05,4.05,0,0,0-.9.21c-.16.06-.32.17-.5.11s-.25-.19-.06-.3a1.34,1.34,0,0,1,.26-.09C21.5,10.38,21.69,10.2,21.91,10.1Z" transform="translate(-0.19 -5.94)"/></g><g class="cls-28"><path class="cls-25" d="M28.45,11.76c.29.14.57.41.91.32.1,0,.28-.23.26,0s-.21.28-.33.35a1.49,1.49,0,0,1-1.42.06c-.17-.1-.69-.3-.51-.58.08-.12.31-.14.44-.17A.91.91,0,0,1,28.45,11.76Z" transform="translate(-0.19 -5.94)"/></g><g class="cls-28"><path class="cls-25" d="M31.18,9.46c.12.07.24.17.2.33s-.25.14-.4.14c-.37,0-.79,0-1,.33-.11.17-.26.29-.36.05a.45.45,0,0,1,.07-.47,1.76,1.76,0,0,1,.4-.37A1.07,1.07,0,0,1,31.18,9.46Z" transform="translate(-0.19 -5.94)"/></g><g class="cls-28"><path class="cls-25" d="M31.49,8.35l.05.06c.22.23.61.77,1,.58.16-.08.07-.19,0-.25A3.2,3.2,0,0,1,32,8.45a3,3,0,0,1-.29-.53.64.64,0,0,0-.4-.3,1.48,1.48,0,0,0-1.11.13c-.09,0-.18.12-.13.25s.37.12.52.06a.41.41,0,0,1,.31,0,1.29,1.29,0,0,1,.38.12A.91.91,0,0,1,31.49,8.35Z" transform="translate(-0.19 -5.94)"/></g><g class="cls-28"><path class="cls-25" d="M33.31,11.11c0,.14,0,.32-.13.36s-.56-.34-.77,0,0,.44-.11.64-.27.17-.39,0a.6.6,0,0,1-.13-.43,1.17,1.17,0,0,1,.75-.9C32.85,10.71,33.23,10.73,33.31,11.11Z" transform="translate(-0.19 -5.94)"/></g><g class="cls-28"><path class="cls-25" d="M35.19,10.09c-.28,0-.66.4-.26.59s.57,0,.78.31.37.35.48,0a.61.61,0,0,0-.27-.81A1.16,1.16,0,0,0,35.19,10.09Z" transform="translate(-0.19 -5.94)"/></g><g class="cls-28"><path class="cls-25" d="M37.17,11.18c-.11.11-.26.07-.4.08s-.25.09-.07.2a1.09,1.09,0,0,0,.9.08.54.54,0,0,0,.17-.8,1,1,0,0,0-.41-.32.29.29,0,0,0-.24,0c-.13.11.05.25.11.34A.36.36,0,0,1,37.17,11.18Z" transform="translate(-0.19 -5.94)"/></g><path class="cls-29" d="M21,9.48v0Z" transform="translate(-0.19 -5.94)"/><path class="cls-30" d="M21,9.48c.07-.12.71-1.07,2.87-.35s2.78.32,2.87-.2C26.4,7.12,22.15,7.29,21,9.48Z" transform="translate(-0.19 -5.94)"/><path class="cls-31" d="M26.71,8.74c-.08-1-1.1-1.66-2.55-1.63S21.14,8.35,21,9.5v0c1.18-2.19,5.43-2.36,5.74-.55A.6.6,0,0,0,26.71,8.74Z" transform="translate(-0.19 -5.94)"/><g class="cls-32"><path class="cls-30" d="M26.31,8.23a1.24,1.24,0,0,0,.19.71c-.77.58-1.5.23-3.36-.16a1.89,1.89,0,0,0-2.08.56l0,.07h0c.19-.24.91-.92,2.82-.28s2.78.32,2.87-.2A1.21,1.21,0,0,0,26.31,8.23Z" transform="translate(-0.19 -5.94)"/></g><path class="cls-29" d="M31.75,7.05h0Z" transform="translate(-0.19 -5.94)"/><path class="cls-30" d="M31.75,7.05c-.11-.08-1-.69-2.67.74s-2.35,1.3-2.62.88C26.07,7,29.9,5.54,31.75,7.05Z" transform="translate(-0.19 -5.94)"/><path class="cls-31" d="M26.39,8.51c-.28-.89.36-1.88,1.66-2.39s3.13,0,3.71.94h0C29.9,5.54,26.07,7,26.46,8.67A1.11,1.11,0,0,1,26.39,8.51Z" transform="translate(-0.19 -5.94)"/><path class="cls-33" d="M26.36,8s0-1.16,1.6-1.83a3.33,3.33,0,0,1,2.95.24,4.92,4.92,0,0,0-3,0A2.6,2.6,0,0,0,26.36,8Z" transform="translate(-0.19 -5.94)"/><path class="cls-33" d="M26.26,8A2.42,2.42,0,0,0,24,7.2a3.71,3.71,0,0,0-2.47,1.27A4.15,4.15,0,0,1,26.26,8Z" transform="translate(-0.19 -5.94)"/><g class="cls-32"><path class="cls-30" d="M30.07,7c-.74.32-1.76,1.38-2.67,1.76-.5.21-.77.11-.92,0,.29.41,1.06.44,2.6-.9s2.49-.86,2.65-.75A1.66,1.66,0,0,0,30.07,7Z" transform="translate(-0.19 -5.94)"/></g><polygon class="cls-34" points="18.38 4.8 18.08 5.12 18.33 5.27 18.58 4.92 18.38 4.8"/><polygon class="cls-34" points="14.41 6.64 14.03 6.75 14.07 6.97 14.41 6.86 14.41 6.64"/><polygon class="cls-34" points="17.56 9.16 17.58 8.76 17.36 8.73 17.36 9.09 17.56 9.16"/><polygon class="cls-34" points="31.62 7.78 31.31 8.1 31.57 8.25 31.82 7.91 31.62 7.78"/><polygon class="cls-34" points="27.65 9.62 27.26 9.73 27.3 9.95 27.64 9.84 27.65 9.62"/><polygon class="cls-34" points="30.8 12.14 30.81 11.74 30.59 11.71 30.6 12.07 30.8 12.14"/><polygon class="cls-34" points="24.54 10.85 24.23 11.17 24.49 11.32 24.74 10.97 24.54 10.85"/><polygon class="cls-34" points="20.57 12.69 20.18 12.8 20.22 13.02 20.56 12.91 20.57 12.69"/><polygon class="cls-34" points="23.72 15.21 23.73 14.81 23.51 14.78 23.52 15.14 23.72 15.21"/><polygon class="cls-34" points="18.31 10.97 18 11.3 18.26 11.44 18.51 11.1 18.31 10.97"/><polygon class="cls-34" points="14.34 12.82 13.96 12.93 13.99 13.15 14.33 13.03 14.34 12.82"/><polygon class="cls-34" points="17.49 15.33 17.5 14.94 17.28 14.91 17.29 15.27 17.49 15.33"/><polygon class="cls-34" points="35.39 12.43 35.08 12.75 35.34 12.89 35.59 12.55 35.39 12.43"/><polygon class="cls-34" points="31.41 14.27 31.03 14.38 31.07 14.6 31.41 14.48 31.41 14.27"/><polygon class="cls-34" points="34.57 16.78 34.58 16.39 34.36 16.36 34.37 16.72 34.57 16.78"/><polygon class="cls-34" points="43.16 10.07 42.85 10.4 43.11 10.54 43.36 10.2 43.16 10.07"/><polygon class="cls-34" points="39.19 11.92 38.8 12.02 38.84 12.24 39.18 12.13 39.19 11.92"/><polygon class="cls-34" points="42.34 14.43 42.35 14.04 42.13 14.01 42.14 14.36 42.34 14.43"/><polygon class="cls-34" points="38.98 4.06 38.7 4.36 38.93 4.49 39.16 4.18 38.98 4.06"/><polygon class="cls-34" points="35.35 5.75 35.01 5.84 35.04 6.05 35.35 5.94 35.35 5.75"/><polygon class="cls-34" points="38.23 8.04 38.25 7.68 38.04 7.66 38.05 7.98 38.23 8.04"/><polygon class="cls-34" points="27.39 2.85 27.11 3.15 27.34 3.28 27.57 2.97 27.39 2.85"/><polygon class="cls-34" points="23.76 4.54 23.41 4.63 23.45 4.83 23.76 4.73 23.76 4.54"/><polygon class="cls-34" points="26.64 6.83 26.65 6.47 26.45 6.45 26.45 6.77 26.64 6.83"/><polygon class="cls-34" points="32.88 2.82 32.57 3.14 32.82 3.29 33.07 2.94 32.88 2.82"/><polygon class="cls-34" points="29.37 4.04 28.99 4.15 29.02 4.37 29.36 4.25 29.37 4.04"/><polygon class="cls-34" points="30.88 3.64 30.9 3.24 30.68 3.21 30.68 3.57 30.88 3.64"/><polygon class="cls-34" points="20.98 5.68 20.67 6.01 20.93 6.15 21.18 5.81 20.98 5.68"/><polygon class="cls-34" points="15.46 4.42 15.08 4.52 15.12 4.74 15.46 4.63 15.46 4.42"/><polygon class="cls-34" points="18.61 6.93 18.63 6.54 18.41 6.51 18.41 6.87 18.61 6.93"/><path class="cls-35" d="M19.25,9.18a.78.78,0,0,0-.55.26.06.06,0,0,0,0,0,.16.16,0,0,0,0,.07c0,.08.11.08.16.06A.57.57,0,0,0,19,9.53a.55.55,0,0,1,.18-.06c.1,0,.2,0,.23-.13S19.34,9.19,19.25,9.18Z" transform="translate(-0.19 -5.94)"/><path class="cls-35" d="M19.4,8a.73.73,0,0,0,.5-.33s0,0,0,0a.11.11,0,0,0,0-.08c0-.07-.13-.06-.18,0l-.11.09a.35.35,0,0,1-.17.09c-.1,0-.19,0-.21.16S19.31,8,19.4,8Z" transform="translate(-0.19 -5.94)"/><path class="cls-35" d="M20.52,9.13a.53.53,0,0,0,.16.43h.09c.06,0,.07-.08.05-.12a.31.31,0,0,0-.05-.1.8.8,0,0,1,0-.15c0-.08,0-.15-.09-.19S20.53,9.06,20.52,9.13Z" transform="translate(-0.19 -5.94)"/><path class="cls-35" d="M19.49,11.16a.57.57,0,0,0,.39-.25s0,0,0,0v-.06c0-.06-.1-.05-.14,0l-.08.08a.59.59,0,0,1-.14.06c-.07,0-.14,0-.16.13S19.42,11.17,19.49,11.16Z" transform="translate(-0.19 -5.94)"/><path class="cls-35" d="M14.46,13.66a.7.7,0,0,0-.54.26s0,0,0,0a.15.15,0,0,0,0,.07c0,.07.12.08.17.06a.5.5,0,0,0,.12-.08.7.7,0,0,1,.19-.06c.1,0,.19,0,.23-.13S14.55,13.67,14.46,13.66Z" transform="translate(-0.19 -5.94)"/><path class="cls-35" d="M15.9,14.94a.73.73,0,0,0,.5-.33s0,0,0,0a.11.11,0,0,0,0-.08c0-.07-.12-.06-.17,0a.53.53,0,0,0-.11.09.44.44,0,0,1-.18.09c-.09,0-.19,0-.21.16S15.81,15,15.9,14.94Z" transform="translate(-0.19 -5.94)"/><path class="cls-35" d="M16,13.3a.55.55,0,0,0,.16.44h0s0,0,.05,0,.07-.08.06-.12a.31.31,0,0,0-.05-.1.25.25,0,0,1,0-.15c0-.07,0-.15-.09-.18S16,13.23,16,13.3Z" transform="translate(-0.19 -5.94)"/><path class="cls-35" d="M14.71,15.64a.57.57,0,0,0,.39-.25v0a.13.13,0,0,0,0-.06c0-.06-.09-.05-.13,0l-.09.07s-.09.05-.13.07-.15,0-.16.13S14.64,15.65,14.71,15.64Z" transform="translate(-0.19 -5.94)"/><path class="cls-35" d="M21.27,10.23a.52.52,0,0,0-.37.17,0,0,0,0,0,0,0,.07.07,0,0,0,0,.05s.08,0,.12,0l.08,0s.08,0,.13,0,.13,0,.15-.09S21.33,10.23,21.27,10.23Z" transform="translate(-0.19 -5.94)"/><path class="cls-35" d="M22.65,12.63A.48.48,0,0,0,23,12.4s0,0,0,0v-.05a.09.09,0,0,0-.12,0,.23.23,0,0,0-.07.07.31.31,0,0,1-.12.05c-.07,0-.13,0-.15.12S22.59,12.63,22.65,12.63Z" transform="translate(-0.19 -5.94)"/><path class="cls-35" d="M22.06,10.84a.4.4,0,0,0,.11.3h.06s.05-.06,0-.08l0-.07a.38.38,0,0,1,0-.1c0-.05,0-.1-.06-.13S22.07,10.8,22.06,10.84Z" transform="translate(-0.19 -5.94)"/><path class="cls-35" d="M20.38,12.73a.36.36,0,0,0,.26-.17s0,0,0,0,0,0,0,0-.06,0-.09,0l-.06,0a.16.16,0,0,1-.09.05s-.1,0-.11.08S20.33,12.74,20.38,12.73Z" transform="translate(-0.19 -5.94)"/><path class="cls-35" d="M30.74,15.23a.73.73,0,0,0-.55.25.06.06,0,0,0,0,0,.21.21,0,0,0,0,.08c0,.07.11.07.16.05l.13-.07a.39.39,0,0,1,.19-.06c.09,0,.19,0,.23-.13S30.83,15.23,30.74,15.23Z" transform="translate(-0.19 -5.94)"/><path class="cls-35" d="M32.17,16.5a.74.74,0,0,0,.51-.33,0,0,0,0,0,0,0,.2.2,0,0,0,0-.07c0-.07-.12-.06-.17,0a.31.31,0,0,0-.11.09.42.42,0,0,1-.18.08c-.09,0-.18.06-.21.17S32.08,16.51,32.17,16.5Z" transform="translate(-0.19 -5.94)"/><path class="cls-35" d="M32.23,14.87a.54.54,0,0,0,.16.43s0,0,0,0h.06c.06,0,.07-.08.05-.12a.31.31,0,0,0-.05-.1.27.27,0,0,1,0-.15c0-.08,0-.15-.09-.19S32.24,14.8,32.23,14.87Z" transform="translate(-0.19 -5.94)"/><path class="cls-35" d="M31,17.21a.53.53,0,0,0,.39-.26,0,0,0,0,0,0,0v-.06c0-.05-.1,0-.14,0a.27.27,0,0,0-.08.07A.37.37,0,0,1,31,17c-.07,0-.14,0-.16.12S30.91,17.22,31,17.21Z" transform="translate(-0.19 -5.94)"/><path class="cls-35" d="M25,17.59a.81.81,0,0,0-.6.28.06.06,0,0,0,0,0,.22.22,0,0,0,0,.08c0,.08.12.09.18.07a.6.6,0,0,0,.13-.09.51.51,0,0,1,.21-.06c.1,0,.21,0,.25-.15S25,17.6,25,17.59Z" transform="translate(-0.19 -5.94)"/><path class="cls-35" d="M26.51,19a.75.75,0,0,0,.55-.36,0,0,0,0,0,0,0,.11.11,0,0,0,0-.08c0-.08-.14-.07-.19,0a.63.63,0,0,0-.12.1.47.47,0,0,1-.2.1c-.1,0-.2.06-.22.18S26.41,19,26.51,19Z" transform="translate(-0.19 -5.94)"/><path class="cls-35" d="M26.57,17.2a.6.6,0,0,0,.18.47s0,0,0,0a.07.07,0,0,0,.06,0c.07,0,.08-.09.06-.13a.37.37,0,0,0,0-.11.47.47,0,0,1,0-.16c0-.08,0-.17-.09-.2S26.58,17.12,26.57,17.2Z" transform="translate(-0.19 -5.94)"/><path class="cls-35" d="M25.21,19.75a.6.6,0,0,0,.43-.28v0a.13.13,0,0,0,0-.06c0-.06-.1-.06-.14,0a.39.39,0,0,0-.1.08s-.09.05-.15.07-.15.05-.17.14S25.14,19.76,25.21,19.75Z" transform="translate(-0.19 -5.94)"/><path class="cls-35" d="M18.71,19a.71.71,0,0,0-.55.26,0,0,0,0,0,0,0,.22.22,0,0,0,0,.08c0,.07.11.08.17.05a.37.37,0,0,0,.12-.07.39.39,0,0,1,.18-.06c.1,0,.2,0,.23-.13S18.8,19,18.71,19Z" transform="translate(-0.19 -5.94)"/><path class="cls-35" d="M20.14,20.25a.77.77,0,0,0,.51-.33s0,0,0,0a.22.22,0,0,0,0-.08c0-.07-.12-.06-.17,0a.48.48,0,0,0-.11.09.44.44,0,0,1-.18.09c-.09,0-.18.05-.21.16S20.05,20.26,20.14,20.25Z" transform="translate(-0.19 -5.94)"/><path class="cls-35" d="M20.2,18.61a.56.56,0,0,0,.16.44h0a.07.07,0,0,0,.06,0c.06,0,.07-.08.05-.12a.31.31,0,0,0-.05-.1.66.66,0,0,1,0-.15c0-.07,0-.15-.09-.19S20.21,18.54,20.2,18.61Z" transform="translate(-0.19 -5.94)"/><path class="cls-35" d="M19,21a.55.55,0,0,0,.39-.25,0,0,0,0,0,0,0v-.05c0-.06-.1-.05-.14,0l-.08.07a.37.37,0,0,1-.14.07c-.07,0-.14,0-.16.13S18.88,21,19,21Z" transform="translate(-0.19 -5.94)"/><path class="cls-35" d="M33.84,9.74a.6.6,0,0,0-.47.22s0,0,0,0a.15.15,0,0,0,0,.07c0,.06.1.07.15,0l.1-.07a.48.48,0,0,1,.17,0c.08,0,.16,0,.2-.11S33.92,9.74,33.84,9.74Z" transform="translate(-0.19 -5.94)"/><path class="cls-35" d="M35.08,10.84a.62.62,0,0,0,.44-.28v0a.13.13,0,0,0,0-.06c0-.06-.1-.05-.15,0l-.09.08a.29.29,0,0,1-.16.07c-.08,0-.16.05-.18.15S35,10.85,35.08,10.84Z" transform="translate(-0.19 -5.94)"/><path class="cls-35" d="M35.13,9.43a.47.47,0,0,0,.14.37s0,0,0,0h.05s0-.07,0-.11a.2.2,0,0,0,0-.08.31.31,0,0,1,0-.13c0-.07,0-.13-.08-.16S35.14,9.37,35.13,9.43Z" transform="translate(-0.19 -5.94)"/><path class="cls-35" d="M34.05,11.45a.48.48,0,0,0,.34-.22v0a.07.07,0,0,0,0-.05c0-.05-.08-.05-.11,0l-.08.07a.22.22,0,0,1-.12.05c-.06,0-.12,0-.13.11S34,11.46,34.05,11.45Z" transform="translate(-0.19 -5.94)"/><path class="cls-35" d="M28.42,10.54a.73.73,0,0,0-.55.25,0,0,0,0,0,0,0,.22.22,0,0,0,0,.08c0,.07.12.08.17.05l.12-.07a.42.42,0,0,1,.19-.06c.1,0,.19,0,.23-.13S28.51,10.54,28.42,10.54Z" transform="translate(-0.19 -5.94)"/><path class="cls-35" d="M32.08,11.74a.73.73,0,0,0,.5-.33s0,0,0,0a.11.11,0,0,0,0-.08c0-.07-.12-.06-.17,0a.53.53,0,0,0-.11.09.44.44,0,0,1-.18.09c-.09,0-.19.05-.21.16S32,11.75,32.08,11.74Z" transform="translate(-0.19 -5.94)"/><path class="cls-35" d="M29.5,11.3a.58.58,0,0,0,.16.43h.09c.06,0,.07-.08.05-.13a.41.41,0,0,0-.05-.09.8.8,0,0,1,0-.15c0-.08,0-.15-.09-.19S29.51,11.23,29.5,11.3Z" transform="translate(-0.19 -5.94)"/><path class="cls-35" d="M29.09,12.86a.55.55,0,0,0,.39-.26v-.08c0-.06-.1,0-.14,0a.27.27,0,0,0-.08.07.37.37,0,0,1-.14.07c-.07,0-.15,0-.16.13S29,12.87,29.09,12.86Z" transform="translate(-0.19 -5.94)"/><path class="cls-35" d="M24.54,9.71A.73.73,0,0,0,24,10a0,0,0,0,0,0,0,.17.17,0,0,0,0,.07c0,.08.11.08.17.06l.12-.07a.39.39,0,0,1,.19-.06c.09,0,.19,0,.23-.14S24.63,9.71,24.54,9.71Z" transform="translate(-0.19 -5.94)"/><path class="cls-35" d="M30.05,8.83a.75.75,0,0,0,.51-.33s0,0,0,0a.22.22,0,0,0,0-.08c0-.07-.12-.06-.17,0l-.11.09a.44.44,0,0,1-.18.09c-.09,0-.18.05-.21.16S30,8.84,30.05,8.83Z" transform="translate(-0.19 -5.94)"/><path class="cls-35" d="M26,9.35a.55.55,0,0,0,.17.43h.08c.06,0,.07-.08.06-.13l-.05-.09a.42.42,0,0,1,0-.15c0-.08,0-.15-.09-.19S26,9.28,26,9.35Z" transform="translate(-0.19 -5.94)"/><path class="cls-35" d="M24.78,11.69a.56.56,0,0,0,.39-.26,0,0,0,0,0,0,0,.06.06,0,0,0,0-.06c0-.05-.1,0-.13,0a.31.31,0,0,0-.09.07s-.09,0-.14.07-.14,0-.16.12S24.71,11.69,24.78,11.69Z" transform="translate(-0.19 -5.94)"/><path class="cls-35" d="M38.49,11.48a.69.69,0,0,0-.54.25s0,0,0,0a.22.22,0,0,0,0,.08c0,.07.12.08.17.05l.12-.07a.47.47,0,0,1,.19-.06c.1,0,.19,0,.23-.13S38.58,11.48,38.49,11.48Z" transform="translate(-0.19 -5.94)"/><path class="cls-35" d="M39.93,12.75a.69.69,0,0,0,.5-.32,0,0,0,0,0,0,0,.08.08,0,0,0,0-.07c0-.07-.13-.06-.18,0a.43.43,0,0,0-.1.09.61.61,0,0,1-.18.09c-.09,0-.19,0-.21.16S39.84,12.76,39.93,12.75Z" transform="translate(-0.19 -5.94)"/><path class="cls-35" d="M40,11.12a.53.53,0,0,0,.16.43s0,0,0,0h0c.06,0,.07-.08.06-.12a.31.31,0,0,0,0-.1.27.27,0,0,1,0-.15c0-.08,0-.15-.09-.19S40,11.05,40,11.12Z" transform="translate(-0.19 -5.94)"/><path class="cls-35" d="M38.74,13.46a.57.57,0,0,0,.39-.26v0a.11.11,0,0,0,0-.05c0-.06-.09,0-.13,0l-.09.07s-.09.05-.13.07-.15,0-.17.13S38.67,13.47,38.74,13.46Z" transform="translate(-0.19 -5.94)"/><path class="cls-35" d="M34.94,13.07a.69.69,0,0,0-.54.25,0,0,0,0,0,0,0,.17.17,0,0,0,0,.07c0,.08.12.08.17.06l.12-.07a.33.33,0,0,1,.19-.06c.1,0,.19,0,.23-.14S35,13.07,34.94,13.07Z" transform="translate(-0.19 -5.94)"/><path class="cls-35" d="M36.38,14.34a.7.7,0,0,0,.5-.33,0,0,0,0,0,0,0,.09.09,0,0,0,0-.07c0-.08-.13-.06-.18,0a.44.44,0,0,0-.11.09.45.45,0,0,1-.17.08c-.09,0-.19.06-.21.17S36.29,14.35,36.38,14.34Z" transform="translate(-0.19 -5.94)"/><path class="cls-35" d="M36.44,12.7a.55.55,0,0,0,.16.44h.08c.06,0,.07-.08.06-.13l-.05-.1a.24.24,0,0,1,0-.14c0-.08,0-.15-.09-.19S36.44,12.63,36.44,12.7Z" transform="translate(-0.19 -5.94)"/><path class="cls-35" d="M35.19,15.05a.61.61,0,0,0,.39-.26v0a.13.13,0,0,0,0-.06s-.09,0-.13,0l-.09.07a.22.22,0,0,1-.14.06c-.07,0-.14,0-.16.13S35.12,15.05,35.19,15.05Z" transform="translate(-0.19 -5.94)"/><path class="cls-35" d="M31.89,20.45a.67.67,0,0,0-.54.26s0,0,0,0a.22.22,0,0,0,0,.08c0,.07.12.08.17.05a.29.29,0,0,0,.12-.07.47.47,0,0,1,.19-.06c.1,0,.19,0,.23-.13S32,20.45,31.89,20.45Z" transform="translate(-0.19 -5.94)"/><path class="cls-35" d="M33.33,21.73a.73.73,0,0,0,.5-.33s0,0,0,0a.11.11,0,0,0,0-.08c0-.07-.12-.06-.18,0l-.1.09a.44.44,0,0,1-.18.09c-.09,0-.19.05-.21.16S33.24,21.74,33.33,21.73Z" transform="translate(-0.19 -5.94)"/><path class="cls-35" d="M33.39,20.09a.56.56,0,0,0,.16.44h.08c.06,0,.07-.08.06-.12a.31.31,0,0,0,0-.1.25.25,0,0,1,0-.15c0-.07,0-.15-.09-.19S33.39,20,33.39,20.09Z" transform="translate(-0.19 -5.94)"/><path class="cls-35" d="M32.14,22.43a.6.6,0,0,0,.39-.25v0a.11.11,0,0,0,0-.05c0-.06-.09-.05-.13,0l-.09.07s-.09.05-.13.07-.15,0-.17.13S32.07,22.44,32.14,22.43Z" transform="translate(-0.19 -5.94)"/><path class="cls-35" d="M36.83,16.86a.73.73,0,0,0-.55.25,0,0,0,0,0,0,0,.15.15,0,0,0,0,.07c0,.08.11.08.17.06l.12-.08a.38.38,0,0,1,.19-.05c.09,0,.19,0,.23-.14S36.92,16.86,36.83,16.86Z" transform="translate(-0.19 -5.94)"/><path class="cls-35" d="M38.27,18.13a.72.72,0,0,0,.5-.33,0,0,0,0,0,0,0v-.07c0-.08-.13-.07-.18,0l-.11.1a.43.43,0,0,1-.18.08c-.09,0-.18.06-.2.17S38.18,18.14,38.27,18.13Z" transform="translate(-0.19 -5.94)"/><path class="cls-35" d="M38.32,16.49a.59.59,0,0,0,.16.44h.09c.06,0,.07-.09.06-.13s0-.07-.05-.1a.37.37,0,0,1,0-.15c0-.07,0-.14-.09-.18S38.33,16.42,38.32,16.49Z" transform="translate(-0.19 -5.94)"/><path class="cls-35" d="M37.07,18.83a.52.52,0,0,0,.39-.25,0,0,0,0,0,0,0,.06.06,0,0,0,0-.06.09.09,0,0,0-.13,0,.31.31,0,0,0-.09.07.35.35,0,0,1-.14.06c-.07,0-.14,0-.16.13S37,18.84,37.07,18.83Z" transform="translate(-0.19 -5.94)"/></g></g></svg>