<svg xmlns="http://www.w3.org/2000/svg" viewBox="0 0 57.93 26.99"><defs><style>.cls-1{isolation:isolate;}.cls-2{fill:#dadada;}.cls-3{fill:#f4f4f4;}.cls-4{fill:#ebeaea;}.cls-5{fill:#006ec3;}.cls-6,.cls-7{fill:#f2d038;}.cls-12,.cls-15,.cls-23,.cls-34,.cls-35,.cls-7{mix-blend-mode:multiply;}.cls-8{fill:#bc2921;}.cls-9{fill:#e83426;}.cls-10{fill:#ee523b;}.cls-11,.cls-12{fill:#ca2c21;}.cls-13{fill:#ffbe60;}.cls-14{fill:#fff;}.cls-16{fill:#8ed20d;}.cls-17{fill:#b9ff2b;}.cls-18,.cls-29{fill:#7c3800;}.cls-19{fill:#851e15;}.cls-20{fill:#4a1c0d;}.cls-21{fill:#591b04;}.cls-22{fill:#b32c19;}.cls-23,.cls-39{opacity:0.5;}.cls-24{fill:#803728;}.cls-25{fill:#0b480c;}.cls-26{fill:#4b8b2d;}.cls-27{fill:#68b42e;}.cls-28{fill:#abdb91;}.cls-29,.cls-40{mix-blend-mode:screen;}.cls-30,.cls-35{fill:#e8ca5c;}.cls-31{fill:#9e6a1e;}.cls-32{fill:#955913;}.cls-33,.cls-34{fill:#c09336;}.cls-36,.cls-40{fill:#faed8d;}.cls-37{fill:#c4903c;}.cls-38{fill:#a97623;}</style></defs><g class="cls-1"><g id="Layer_1" data-name="Layer 1"><path class="cls-2" d="M58.4,25.52c0,6.34-13,11.48-29,11.48s-29-5.14-29-11.48S13.44,14,29.44,14,58.4,19.17,58.4,25.52Z" transform="translate(-0.47 -10)"/><path class="cls-3" d="M58.4,24.94c0,6.34-13,11.48-29,11.48s-29-5.14-29-11.48,13-11.48,29-11.48S58.4,18.6,58.4,24.94Z" transform="translate(-0.47 -10)"/><path class="cls-4" d="M49.19,23.76c0,4.32-8.84,7.83-19.75,7.83S9.68,28.08,9.68,23.76s8.85-7.84,19.76-7.84S49.19,19.43,49.19,23.76Z" transform="translate(-0.47 -10)"/><path class="cls-3" d="M48.51,23.9c0,4.1-8.54,7.43-19.07,7.43S10.37,28,10.37,23.9s8.54-7.43,19.07-7.43S48.51,19.8,48.51,23.9Z" transform="translate(-0.47 -10)"/><path class="cls-5" d="M29.44,14.33c7.5,0,14.54,1.12,19.83,3.16a19.11,19.11,0,0,1,5.92,3.39,5.43,5.43,0,0,1,2.09,3.95,5.41,5.41,0,0,1-2.09,3.94,18.72,18.72,0,0,1-5.92,3.39c-5.29,2-12.33,3.17-19.83,3.17S14.9,34.2,9.61,32.16a18.61,18.61,0,0,1-5.92-3.39A5.41,5.41,0,0,1,1.6,24.83a5.43,5.43,0,0,1,2.09-3.95,19,19,0,0,1,5.92-3.39c5.29-2,12.33-3.16,19.83-3.16Zm0-.41c-15.6,0-28.25,4.88-28.25,10.91S13.84,35.74,29.44,35.74s28.25-4.89,28.25-10.91S45,13.92,29.44,13.92Z" transform="translate(-0.47 -10)"/><path class="cls-5" d="M29.44,14.78a56.31,56.31,0,0,1,19.08,3,18.47,18.47,0,0,1,5.75,3.18,5.2,5.2,0,0,1,2.06,3.8,5.2,5.2,0,0,1-2.06,3.79,18.47,18.47,0,0,1-5.75,3.18,56.31,56.31,0,0,1-19.08,3,56.42,56.42,0,0,1-19.09-3,18.4,18.4,0,0,1-5.74-3.18,5.16,5.16,0,0,1-2.06-3.79,5.17,5.17,0,0,1,2.06-3.8,18.4,18.4,0,0,1,5.74-3.18,56.42,56.42,0,0,1,19.09-3Zm0-.2c-15,0-27.09,4.54-27.09,10.14S14.48,34.85,29.44,34.85s27.09-4.54,27.09-10.13S44.4,14.58,29.44,14.58Z" transform="translate(-0.47 -10)"/><path class="cls-6" d="M14.33,19.17S12,20,11.76,20.9s.56,1,1,1.3.48.48,0,.89-.92.79-.46,1.48,1,.66,1.63.73.86.17,1,.56,1,.9.62,1.48-.13.79.56,1a3.62,3.62,0,0,1,1.63.76c.15.28,1.09.28,1.88-.05a16.46,16.46,0,0,1,3.64-.82,17.22,17.22,0,0,0,4.18-1.09,39.18,39.18,0,0,0,5.73-2.85c1.1-.85,2.47-1.71,2.73-2.37s.61-.54,1.07-.72a1,1,0,0,0,.76-.86c.08-.46-.61-.46-1.32-.36s-5.71,1.48-9.22,2.24-6.32.82-8.08.08A29.94,29.94,0,0,1,14.33,19.17Z" transform="translate(-0.47 -10)"/><path class="cls-7" d="M13.85,19.94A2.23,2.23,0,0,0,14,21a1.37,1.37,0,0,0,1,.5,10.27,10.27,0,0,1,1.11.18,3.84,3.84,0,0,1,1.13.6c.4.27.77.57,1.19.82a4.16,4.16,0,0,0,1.49.53,3.62,3.62,0,0,1,1.48.43A12.11,12.11,0,0,0,22.9,25a1.78,1.78,0,0,0,1.47.19c.43-.19.81-.49,1.24-.69a35.72,35.72,0,0,1,3.47-1.37c1.17-.4,2.36-.73,3.55-1.06.58-.17,1.16-.34,1.71-.56S35.43,21,36,20.72a2.55,2.55,0,0,1,1.24-.3,1.53,1.53,0,0,1,.48.11,1.05,1.05,0,0,0,.05-.19c.08-.46-.61-.46-1.32-.36s-5.71,1.48-9.22,2.24-6.32.82-8.08.08a29.94,29.94,0,0,1-4.79-3.13l-.59.24A1.62,1.62,0,0,1,13.85,19.94Z" transform="translate(-0.47 -10)"/><path class="cls-7" d="M12.78,22.2c.46.33.48.48,0,.89s-.65.56-.65.94a1.46,1.46,0,0,1,.16-.19,5.63,5.63,0,0,1,1-.74c.19-.13.54-.35.44-.62a1.06,1.06,0,0,0-.43-.46A5.94,5.94,0,0,1,11.79,21l0-.05C11.54,21.76,12.32,21.87,12.78,22.2Z" transform="translate(-0.47 -10)"/><path class="cls-7" d="M19.73,28.64A3.68,3.68,0,0,0,19,29a.54.54,0,0,1-.32.09,2.07,2.07,0,0,1-.45-.17,4.49,4.49,0,0,0-.61-.23,5.33,5.33,0,0,1-1-.31.92.92,0,0,1-.54-.67,5.83,5.83,0,0,1,0-1.18,1.81,1.81,0,0,0-.23-1.07,1.41,1.41,0,0,0-1.1-.58c-.65,0-1.38.35-2,.18A2.64,2.64,0,0,0,14,25.3c.66.08.86.17,1,.56s1,.9.62,1.48-.13.79.56,1a3.62,3.62,0,0,1,1.63.76c.15.28,1.09.28,1.88-.05a6.89,6.89,0,0,1,.77-.26A.8.8,0,0,0,19.73,28.64Z" transform="translate(-0.47 -10)"/><path class="cls-8" d="M26.78,25.37a2.78,2.78,0,0,0,3.1,1.94c2.56-.21,2.88-2.22,2.67-3C31.49,25.07,26.78,25.37,26.78,25.37Z" transform="translate(-0.47 -10)"/><path class="cls-9" d="M32.45,24c.5.94-.54,1.81-2.28,2.19-1.57.35-3.19-.05-3.39-.79s1-1.55,2.6-2C30.65,23.07,32,23.16,32.45,24Z" transform="translate(-0.47 -10)"/><path class="cls-10" d="M32.2,24c.45.86-.5,1.65-2.09,2-1.44.32-2.92-.05-3.11-.73s1-1.42,2.38-1.8C30.55,23.17,31.8,23.25,32.2,24Z" transform="translate(-0.47 -10)"/><path class="cls-11" d="M29.8,23.58a1.07,1.07,0,0,0-.64.07c-.17.08-.32.18-.48.27l-.55.29c-.44.23-1,.69-.55,1.19.21.21.33.48.76.18a8.29,8.29,0,0,0,.85-.58,3.38,3.38,0,0,0,.58-.77,1.11,1.11,0,0,0,.14-.41C29.93,23.69,29.89,23.59,29.8,23.58Z" transform="translate(-0.47 -10)"/><path class="cls-12" d="M29.85,23.6a.16.16,0,0,1-.06.08.68.68,0,0,1-.23.14c-.26.1-.26.33-.28.55a.79.79,0,0,1-.22.47,1.07,1.07,0,0,0-.25.44,2.88,2.88,0,0,0,.38-.28,3.38,3.38,0,0,0,.58-.77,1.11,1.11,0,0,0,.14-.41A.2.2,0,0,0,29.85,23.6Z" transform="translate(-0.47 -10)"/><path class="cls-11" d="M29,25.59l.44-.44c.21-.21.07-.31.44-.66a1.74,1.74,0,0,1,.85-.48c.45-.16.64-.34.75-.3s.76.52.63,1-.36.54-.94.78a2.63,2.63,0,0,1-1.39.26,1.15,1.15,0,0,0-.6,0C28.93,25.8,28.91,25.71,29,25.59Z" transform="translate(-0.47 -10)"/><path class="cls-12" d="M29.64,25.1a4.13,4.13,0,0,0,.42-.31,1.2,1.2,0,0,1,.64-.31c.17,0,.56,0,.58-.28a2.23,2.23,0,0,1,0-.36.36.36,0,0,1,0-.11,5.7,5.7,0,0,1-.63.28,1.74,1.74,0,0,0-.85.48c-.37.35-.23.45-.44.66l-.07.07A1.23,1.23,0,0,0,29.64,25.1Z" transform="translate(-0.47 -10)"/><path class="cls-13" d="M28,24.86s0,0-.06,0l-.08,0a.18.18,0,0,0-.05.07s0,.05,0,.06A.13.13,0,0,0,28,25s0,0,0,0a.08.08,0,0,0,0,0S28,24.86,28,24.86Z" transform="translate(-0.47 -10)"/><path class="cls-13" d="M28.22,25.18s0,0-.06,0-.09,0-.1.06,0,.07.06.05l.08-.07S28.24,25.19,28.22,25.18Z" transform="translate(-0.47 -10)"/><path class="cls-13" d="M28.51,24.45s0,0,0,0h0a0,0,0,0,0,0,0h0s-.1.09,0,.12.06,0,.08,0l.08,0S28.52,24.45,28.51,24.45Z" transform="translate(-0.47 -10)"/><path class="cls-13" d="M28.92,24.08h-.1a.13.13,0,0,0-.11.08s0,.08.05.07a.34.34,0,0,0,.16-.1S29,24.08,28.92,24.08Z" transform="translate(-0.47 -10)"/><path class="cls-13" d="M30.37,25c0-.05-.07,0-.07,0a.47.47,0,0,1-.05.1s0,.05,0,.08a.06.06,0,0,0,0,0c.05,0,.1-.06.11-.1s0,0,0,0h0v0A.14.14,0,0,0,30.37,25Z" transform="translate(-0.47 -10)"/><path class="cls-13" d="M30.89,25.15a0,0,0,0,1,0,0l-.05-.06s0,0,0,0,0,.05,0,.08v.07s0,0,0,0h0s.07-.05.07-.08S30.91,25.15,30.89,25.15Z" transform="translate(-0.47 -10)"/><path class="cls-13" d="M31.52,24.81s0,0,0,0l0-.05s0,0,0,0a.25.25,0,0,1,0,.12s0,0,0,0,0,0,.05-.06S31.53,24.81,31.52,24.81Z" transform="translate(-0.47 -10)"/><path class="cls-13" d="M31.78,24.63a.08.08,0,0,0,0-.07s-.05,0,0,0v.07a.17.17,0,0,1,0,.07c0,.07.1,0,.09,0A.19.19,0,0,0,31.78,24.63Z" transform="translate(-0.47 -10)"/><path class="cls-14" d="M29.94,23.39a4.81,4.81,0,0,0-1.57.42,2.57,2.57,0,0,0-1.26.93c0,.06,0,.07.07,0a6.45,6.45,0,0,1,2.75-1.38Z" transform="translate(-0.47 -10)"/><path class="cls-14" d="M27.09,24.9a.39.39,0,0,0-.15.32s0,0,0,0a.11.11,0,0,0,.05-.08.42.42,0,0,1,.07-.24S27.11,24.87,27.09,24.9Z" transform="translate(-0.47 -10)"/><path class="cls-8" d="M26.52,30s.71,2.79,4.05,1.65c1.83-.79,2.6-2.62,2-4C31.87,28.72,26.52,30,26.52,30Z" transform="translate(-0.47 -10)"/><path class="cls-9" d="M32.39,27.38c.58.94-.25,2.5-1.85,3.3s-3.44.48-3.94-.5.5-2.34,2.11-3.13C30,26.4,31.76,26.35,32.39,27.38Z" transform="translate(-0.47 -10)"/><path class="cls-10" d="M32.23,27.37c.54.86-.27,2.33-1.8,3.09S27.16,31,26.7,30s.51-2.18,2-2.94C30,26.49,31.65,26.42,32.23,27.37Z" transform="translate(-0.47 -10)"/><path class="cls-11" d="M30.21,26.91a4.15,4.15,0,0,0-1.51.54,3.92,3.92,0,0,0-1.27,1.09.07.07,0,0,0,0,.06,1,1,0,0,0-.09.15,1.68,1.68,0,0,0-.12.63c0,.23-.17.57-.07.81.44,1.11,1.77-.47,2-1a5.82,5.82,0,0,1,1-1.63C30.3,27.43,30.67,26.88,30.21,26.91Z" transform="translate(-0.47 -10)"/><path class="cls-12" d="M30.37,26.93a1.3,1.3,0,0,1-.27.52,1.76,1.76,0,0,1-.86.43c-.27.07-.56.19-.53.53s.1.43.11.66a1.85,1.85,0,0,1-.19.84,3.46,3.46,0,0,0,.53-.71,5.82,5.82,0,0,1,1-1.63C30.28,27.45,30.56,27,30.37,26.93Z" transform="translate(-0.47 -10)"/><path class="cls-11" d="M31.56,27.17a1.12,1.12,0,0,0-.73.27,1.58,1.58,0,0,0-.62.73,2.93,2.93,0,0,1-.44,1c-.22.27-.49.5-.72.76-.07.09-.65.72-.43.86.38.23,1.07-.31,1.4-.46a3.78,3.78,0,0,0,1.29-.78,2.53,2.53,0,0,0,.59-1.19c.09-.31.18-.9-.11-1.08A.53.53,0,0,0,31.56,27.17Z" transform="translate(-0.47 -10)"/><path class="cls-12" d="M29.84,29.1a3.83,3.83,0,0,1,.43-.17,1.05,1.05,0,0,0,.44-.24c.23-.29-.15-.71-.1-1a.09.09,0,0,0,0,0,1.57,1.57,0,0,0-.41.57,3.18,3.18,0,0,1-.43,1Z" transform="translate(-0.47 -10)"/><path class="cls-13" d="M27.65,29.94s0,0-.06,0,0,0,0,0a.08.08,0,0,1,0,0s-.06.09,0,.12.06,0,.08,0l.07-.11S27.66,30,27.65,29.94Z" transform="translate(-0.47 -10)"/><path class="cls-13" d="M27.59,29.43l-.08.06a.26.26,0,0,0-.09.09.11.11,0,0,0,0,.05h0a.26.26,0,0,0,.09-.09.25.25,0,0,0,0-.07l0,0A0,0,0,0,0,27.59,29.43Z" transform="translate(-0.47 -10)"/><path class="cls-13" d="M27.48,29a.48.48,0,0,0-.17.12s0,.08,0,.06A.44.44,0,0,0,27.5,29S27.5,29,27.48,29Z" transform="translate(-0.47 -10)"/><path class="cls-13" d="M28.07,28.32l-.11,0a.29.29,0,0,0-.12.07s0,.06,0,.07.09-.05.13-.07.08-.05.1-.08S28.08,28.32,28.07,28.32Z" transform="translate(-0.47 -10)"/><path class="cls-13" d="M29.64,29.76s-.05,0-.05,0a2.09,2.09,0,0,1-.08.23,0,0,0,0,0,0,0h0s0,0,0,0a.41.41,0,0,0,.07-.15A.34.34,0,0,0,29.64,29.76Z" transform="translate(-0.47 -10)"/><path class="cls-13" d="M30,29.68s0,0,0,0,0,.07,0,.09l0,.13s0,0,0,0h0s.05,0,.06,0A.27.27,0,0,0,30,29.68Z" transform="translate(-0.47 -10)"/><path class="cls-13" d="M30.69,29.52s0-.09,0-.11,0,0,0,0,0,.09,0,.14S30.7,29.55,30.69,29.52Z" transform="translate(-0.47 -10)"/><path class="cls-13" d="M31.23,29.13l0,0-.07,0s0,0,0,0,0,.08.06.11,0,0,.05,0l0,0S31.25,29.14,31.23,29.13Z" transform="translate(-0.47 -10)"/><path class="cls-14" d="M30,26.76c-1.38.23-2.95,1-3.32,2.44,0,.09.1,0,.11,0a3,3,0,0,1,1.3-1.57,9.85,9.85,0,0,1,1-.51c.28-.11.58-.18.86-.29C30,26.81,30.07,26.76,30,26.76Z" transform="translate(-0.47 -10)"/><path class="cls-14" d="M26.75,29.47a.33.33,0,0,0,0-.14s-.07,0-.06.05a.17.17,0,0,1,0,.1s0,.05,0,.08a.11.11,0,0,0,.05.14s.08-.05.07-.08A.76.76,0,0,1,26.75,29.47Z" transform="translate(-0.47 -10)"/><path class="cls-8" d="M20.33,28a3,3,0,0,0,3.36,2.1c2.77-.23,3.12-2.41,2.89-3.29C25.43,27.69,20.33,28,20.33,28Z" transform="translate(-0.47 -10)"/><path class="cls-9" d="M26.47,26.5c.54,1-.59,2-2.47,2.38-1.7.37-3.45-.07-3.67-.86s1.14-1.68,2.81-2.13C24.52,25.53,26,25.63,26.47,26.5Z" transform="translate(-0.47 -10)"/><path class="cls-10" d="M26.2,26.52c.49.93-.54,1.79-2.27,2.18-1.55.34-3.16-.06-3.36-.79s1-1.54,2.58-1.95C24.41,25.63,25.77,25.72,26.2,26.52Z" transform="translate(-0.47 -10)"/><path class="cls-11" d="M23.6,26.08a1.16,1.16,0,0,0-.69.07c-.18.09-.35.2-.52.3s-.4.2-.6.31c-.47.25-1.12.75-.59,1.29.22.23.36.52.82.2a10.26,10.26,0,0,0,.92-.64,4,4,0,0,0,.63-.83,1.1,1.1,0,0,0,.15-.44C23.75,26.2,23.7,26.09,23.6,26.08Z" transform="translate(-0.47 -10)"/><path class="cls-12" d="M23.66,26.1l-.06.09a.79.79,0,0,1-.25.15c-.29.11-.29.36-.3.6a.92.92,0,0,1-.25.5,1.15,1.15,0,0,0-.27.48,3.38,3.38,0,0,0,.41-.31,4,4,0,0,0,.63-.83,1.1,1.1,0,0,0,.15-.44A.23.23,0,0,0,23.66,26.1Z" transform="translate(-0.47 -10)"/><path class="cls-11" d="M22.74,28.25l.48-.47c.23-.22.08-.34.49-.72a1.74,1.74,0,0,1,.91-.51c.48-.18.7-.37.81-.33s.83.56.68,1-.39.6-1,.85a2.76,2.76,0,0,1-1.5.28,1.19,1.19,0,0,0-.65,0C22.66,28.48,22.64,28.38,22.74,28.25Z" transform="translate(-0.47 -10)"/><path class="cls-12" d="M23.43,27.73c.16-.1.3-.23.45-.34a1.45,1.45,0,0,1,.69-.34c.19,0,.61,0,.64-.3a2.58,2.58,0,0,1,0-.39.61.61,0,0,1,.05-.12c-.13.05-.34.18-.68.31a1.74,1.74,0,0,0-.91.51c-.41.38-.26.5-.49.72l-.07.07A1.39,1.39,0,0,0,23.43,27.73Z" transform="translate(-0.47 -10)"/><path class="cls-13" d="M21.68,27.47h-.07a.11.11,0,0,0-.08,0,.11.11,0,0,0-.06.07s0,.06,0,.06a.13.13,0,0,0,.12-.05s0,0,0,0,0,0,0,0S21.69,27.47,21.68,27.47Z" transform="translate(-0.47 -10)"/><path class="cls-13" d="M21.9,27.81a.09.09,0,0,0-.07,0s-.1.05-.11.07,0,.09.06.06a.39.39,0,0,1,.1-.08S21.91,27.82,21.9,27.81Z" transform="translate(-0.47 -10)"/><path class="cls-13" d="M22.21,27s0,0,0,0,0,0,0,0h-.06s-.11.1-.05.12.06,0,.09,0l.07,0A0,0,0,0,0,22.21,27Z" transform="translate(-0.47 -10)"/><path class="cls-13" d="M22.65,26.62h-.11a.14.14,0,0,0-.12.09s0,.09,0,.07a.44.44,0,0,0,.19-.1S22.69,26.62,22.65,26.62Z" transform="translate(-0.47 -10)"/><path class="cls-13" d="M24.22,27.57c0-.05-.07,0-.08,0a.47.47,0,0,1-.05.1l0,.09a.06.06,0,0,0,0,0c.06,0,.1-.07.12-.11s0,0,0,0h0l0,0A.17.17,0,0,0,24.22,27.57Z" transform="translate(-0.47 -10)"/><path class="cls-13" d="M24.78,27.78a0,0,0,0,0,0,0l-.05-.07,0,0s0,.06,0,.09v.07s0,0,0,0h0s.07-.05.07-.08S24.8,27.77,24.78,27.78Z" transform="translate(-0.47 -10)"/><path class="cls-13" d="M25.46,27.41l0,0,0-.05s-.05,0,0,0a.23.23,0,0,1,0,.12s0,.05.05,0l.05-.05A0,0,0,0,0,25.46,27.41Z" transform="translate(-0.47 -10)"/><path class="cls-13" d="M25.75,27.21a.09.09,0,0,0,0-.07s0,0,0,0a.16.16,0,0,1,0,.07.28.28,0,0,1,0,.09c0,.07.1,0,.1-.05A.19.19,0,0,1,25.75,27.21Z" transform="translate(-0.47 -10)"/><path class="cls-14" d="M23.75,25.87a5.63,5.63,0,0,0-1.7.45,2.8,2.8,0,0,0-1.35,1c0,.07,0,.08.07,0a6.92,6.92,0,0,1,3-1.48S23.77,25.87,23.75,25.87Z" transform="translate(-0.47 -10)"/><path class="cls-14" d="M20.67,27.5a.46.46,0,0,0-.16.36s0,0,0,0a.08.08,0,0,0,.05-.08.5.5,0,0,1,.08-.26S20.7,27.48,20.67,27.5Z" transform="translate(-0.47 -10)"/><g class="cls-15"><path class="cls-6" d="M16.66,27.49a1,1,0,1,0,1,1A1,1,0,0,0,16.66,27.49Z" transform="translate(-0.47 -10)"/><path class="cls-6" d="M17,26.12a1,1,0,1,0-1,1A1,1,0,0,0,17,26.12Z" transform="translate(-0.47 -10)"/><path class="cls-6" d="M18.59,26a1,1,0,1,0,1,1A1,1,0,0,0,18.59,26Z" transform="translate(-0.47 -10)"/><path class="cls-6" d="M16.12,25a1,1,0,1,0-1-1A1,1,0,0,0,16.12,25Z" transform="translate(-0.47 -10)"/><path class="cls-6" d="M18.35,25.81a1,1,0,1,0-1-1A1,1,0,0,0,18.35,25.81Z" transform="translate(-0.47 -10)"/><path class="cls-6" d="M20.45,24.75a1,1,0,1,0,1,1A1,1,0,0,0,20.45,24.75Z" transform="translate(-0.47 -10)"/></g><path d="M13.06,20.65a.05.05,0,0,0,0,0,.08.08,0,0,0-.12,0,.44.44,0,0,0-.08.11l0,.06v0s0,0,0,0,0,.09.09.08.11-.06.14-.11a.5.5,0,0,0,0-.12v-.06Z" transform="translate(-0.47 -10)"/><path d="M13.67,21.62s-.1.06-.1.09a.19.19,0,0,0,0,.15h0a.12.12,0,0,0,.06.06s.08,0,.09-.05A.21.21,0,0,0,13.67,21.62Z" transform="translate(-0.47 -10)"/><path d="M14.46,22.45l0,0-.06,0s-.09.05-.09.08,0,.13,0,.15.13,0,.15-.05A.14.14,0,0,0,14.46,22.45Z" transform="translate(-0.47 -10)"/><path d="M15.5,22.3s0,0,0,0l0,0s-.07,0-.07.06,0,.08,0,.1.09,0,.11,0A.09.09,0,0,0,15.5,22.3Z" transform="translate(-0.47 -10)"/><path d="M15.38,21.89c-.07,0-.18.07-.13.13h0a.06.06,0,0,0,0,0c0,.08.09,0,.13,0A.12.12,0,0,0,15.38,21.89Z" transform="translate(-0.47 -10)"/><path d="M13.78,23.69s-.08,0-.09,0l0,.09a.2.2,0,0,0,0,.08.09.09,0,0,0,0,.1s.1,0,.13,0a.17.17,0,0,0,.07-.14A.84.84,0,0,0,13.78,23.69Z" transform="translate(-0.47 -10)"/><path d="M20,23.78l0-.05a.08.08,0,0,0-.07,0h0s-.06,0-.07,0-.05.06,0,.09.08.06.13.08S20,23.82,20,23.78Z" transform="translate(-0.47 -10)"/><path d="M18,22.78h0s0,0,0,0h0a.17.17,0,0,0-.1.12.08.08,0,0,0,0,.1s.07,0,.09,0a.31.31,0,0,0,.09-.18Z" transform="translate(-0.47 -10)"/><path d="M22.44,25h0c-.07,0-.13.06-.15.12a.49.49,0,0,0,0,.21s0,0,0,0a.2.2,0,0,0,.2-.16C22.49,25.1,22.52,25,22.44,25Z" transform="translate(-0.47 -10)"/><path d="M24.3,25a.06.06,0,0,0-.06.05.17.17,0,0,0,0,.13h0s0,0,0,.07,0,0,0,0,.12-.16.12-.25S24.32,25,24.3,25Z" transform="translate(-0.47 -10)"/><path d="M25.76,25a.1.1,0,0,0-.05,0h0a.2.2,0,0,0-.09.13s0,.1,0,.13.1,0,.14,0a.32.32,0,0,0,.07-.22C25.85,25,25.81,25,25.76,25Z" transform="translate(-0.47 -10)"/><path d="M26.27,24.58h0s0,0,0,0-.14.2-.12.27,0,0,0,0S26.32,24.66,26.27,24.58Z" transform="translate(-0.47 -10)"/><path d="M26.12,25.4s-.07,0-.09,0a.16.16,0,0,0-.11.13s0,.05,0,.05h0c0,.05,0,0,.06,0S26.13,25.46,26.12,25.4Z" transform="translate(-0.47 -10)"/><path d="M31.7,22.57s0,0,0-.06h0a.11.11,0,0,0-.09-.05c-.09,0-.2.07-.18.16s0,.08.09.1h0a.1.1,0,0,0,.09,0s0,0,0,0A.11.11,0,0,0,31.7,22.57Z" transform="translate(-0.47 -10)"/><path d="M32.79,22.3s0,0,0,0h0a.19.19,0,0,0-.11.05s-.08.1,0,.15a.11.11,0,0,0,0,.05s0,.05,0,.07.08,0,.09,0a.42.42,0,0,0,.08-.12,0,0,0,0,1,0,0h0A.17.17,0,0,0,32.79,22.3Z" transform="translate(-0.47 -10)"/><path d="M33,23a.23.23,0,0,0-.31.17s0,0,0,0v0s0,0,0,0a.1.1,0,0,0,.07,0,.21.21,0,0,0,.16-.13A.06.06,0,0,0,33,23S33.07,23,33,23Z" transform="translate(-0.47 -10)"/><path d="M33.44,22.28s0-.05,0-.07h-.08a.11.11,0,0,0-.09.06c0,.08,0,.13.1.13s0,0,0,0S33.46,22.33,33.44,22.28Z" transform="translate(-0.47 -10)"/><path class="cls-14" d="M13.66,21.64s-.06,0-.06.08.05,0,.06,0h0s0,0,0,0S13.67,21.64,13.66,21.64Z" transform="translate(-0.47 -10)"/><path class="cls-14" d="M14.36,22.42s-.06.07,0,.07S14.4,22.42,14.36,22.42Z" transform="translate(-0.47 -10)"/><path class="cls-14" d="M22.37,25l-.07.11a0,0,0,0,0,0,0,.23.23,0,0,0,.1-.14C22.45,25,22.38,25,22.37,25Z" transform="translate(-0.47 -10)"/><path class="cls-14" d="M24.27,25.05h0s-.06.06,0,.06h0S24.31,25.05,24.27,25.05Z" transform="translate(-0.47 -10)"/><path class="cls-14" d="M32.92,23s-.07.07,0,.07S33,23,32.92,23Z" transform="translate(-0.47 -10)"/><path class="cls-14" d="M31.6,22.48s-.1.09,0,.09S31.65,22.48,31.6,22.48Z" transform="translate(-0.47 -10)"/><path class="cls-16" d="M17.66,28.25a1,1,0,1,1-1-1A1,1,0,0,1,17.66,28.25Z" transform="translate(-0.47 -10)"/><path class="cls-17" d="M16.79,27.5c.1.18,0,.44-.3.59s-.56.12-.66-.05,0-.45.3-.59S16.68,27.32,16.79,27.5Z" transform="translate(-0.47 -10)"/><path class="cls-14" d="M16.28,27.35c-.24.09-.54.36-.52.64,0,.05.07,0,.08,0a1,1,0,0,1,.43-.55S16.32,27.34,16.28,27.35Z" transform="translate(-0.47 -10)"/><path class="cls-14" d="M15.81,28.3a.49.49,0,0,0,0-.12s-.06,0-.06,0-.06.21,0,.27.08,0,.08-.07A.43.43,0,0,0,15.81,28.3Z" transform="translate(-0.47 -10)"/><path class="cls-16" d="M17,25.86a1,1,0,0,1-2,0,1,1,0,1,1,2,0Z" transform="translate(-0.47 -10)"/><path class="cls-17" d="M16.12,25.11c.1.17,0,.44-.29.59s-.56.12-.66-.06,0-.44.3-.59S16,24.93,16.12,25.11Z" transform="translate(-0.47 -10)"/><path class="cls-14" d="M15.62,25c-.24.09-.54.36-.52.64,0,0,.07,0,.08,0a.91.91,0,0,1,.43-.55S15.66,25,15.62,25Z" transform="translate(-0.47 -10)"/><path class="cls-14" d="M15.15,25.91s0-.08,0-.12-.06,0-.06,0-.06.21,0,.26.08,0,.08-.06A.36.36,0,0,0,15.15,25.91Z" transform="translate(-0.47 -10)"/><path class="cls-16" d="M19.59,26.8a1,1,0,1,1-1-1A1,1,0,0,1,19.59,26.8Z" transform="translate(-0.47 -10)"/><path class="cls-17" d="M18.72,26.05c.1.17,0,.44-.3.59s-.55.12-.65-.06,0-.44.29-.59S18.62,25.87,18.72,26.05Z" transform="translate(-0.47 -10)"/><path class="cls-14" d="M18.21,25.9c-.24.09-.54.36-.51.64,0,.05.07,0,.07,0a1,1,0,0,1,.44-.56S18.25,25.88,18.21,25.9Z" transform="translate(-0.47 -10)"/><path class="cls-14" d="M17.74,26.84a.45.45,0,0,0,0-.11s-.05,0-.06,0-.05.21,0,.26.07,0,.07-.06A.5.5,0,0,0,17.74,26.84Z" transform="translate(-0.47 -10)"/><path class="cls-16" d="M17.12,23.71a1,1,0,1,1-1-1A1,1,0,0,1,17.12,23.71Z" transform="translate(-0.47 -10)"/><path class="cls-17" d="M16.25,23c.1.18,0,.45-.29.59s-.56.13-.66-.05,0-.44.29-.59S16.15,22.78,16.25,23Z" transform="translate(-0.47 -10)"/><path class="cls-14" d="M15.75,22.81c-.24.09-.54.36-.52.64,0,.05.07,0,.08,0a.9.9,0,0,1,.43-.56S15.79,22.79,15.75,22.81Z" transform="translate(-0.47 -10)"/><path class="cls-14" d="M15.28,23.75a.41.41,0,0,1,0-.11s-.06,0-.06,0-.06.21,0,.26.08,0,.08-.07S15.28,23.79,15.28,23.75Z" transform="translate(-0.47 -10)"/><path class="cls-16" d="M19.35,24.52a1,1,0,1,1-1-1A1,1,0,0,1,19.35,24.52Z" transform="translate(-0.47 -10)"/><path class="cls-17" d="M18.48,23.76c.1.18,0,.45-.3.59s-.55.13-.65-.05,0-.44.29-.59S18.38,23.59,18.48,23.76Z" transform="translate(-0.47 -10)"/><path class="cls-14" d="M18,23.62c-.24.09-.54.36-.51.64,0,0,.07,0,.07,0a1,1,0,0,1,.44-.56S18,23.6,18,23.62Z" transform="translate(-0.47 -10)"/><path class="cls-14" d="M17.51,24.56s0-.07,0-.11,0,0-.06,0-.05.21,0,.26.07,0,.07-.07S17.51,24.6,17.51,24.56Z" transform="translate(-0.47 -10)"/><path class="cls-16" d="M21.45,25.51a1,1,0,1,1-1-1A1,1,0,0,1,21.45,25.51Z" transform="translate(-0.47 -10)"/><path class="cls-17" d="M20.58,24.76c.1.17,0,.44-.3.59s-.56.12-.66-.06,0-.44.3-.59S20.48,24.58,20.58,24.76Z" transform="translate(-0.47 -10)"/><path class="cls-14" d="M20.07,24.61c-.24.09-.54.36-.51.64,0,.05.06,0,.07,0a1,1,0,0,1,.43-.55S20.11,24.6,20.07,24.61Z" transform="translate(-0.47 -10)"/><path class="cls-14" d="M19.6,25.56a.49.49,0,0,0,0-.12s-.05,0-.06,0-.05.21,0,.26.08,0,.08-.06A.36.36,0,0,0,19.6,25.56Z" transform="translate(-0.47 -10)"/><path class="cls-18" d="M14.52,16.08a10.5,10.5,0,0,1,3.19,2.1A10.19,10.19,0,0,0,23,20.39c1.73,0,6-1.24,8.46-1.7,1.18-.23,1.39-.32,1.78-.65a12.86,12.86,0,0,1,4.06-1.43,43.38,43.38,0,0,0,5.87-1.32v0c-.06-.29-.33-.53-.88-.78a40.73,40.73,0,0,1-4-2.17c-.92-.72-1.33-1.1-1.68-1.1a25.87,25.87,0,0,1-4.51-.2,13.47,13.47,0,0,0-5.68-1c-2.09.2-2.27.23-3.85.41a8.52,8.52,0,0,0-4.15,1.75,5.12,5.12,0,0,1-2.16,1,4.25,4.25,0,0,0-2.61,2.14C13.67,15.56,13.9,15.87,14.52,16.08Z" transform="translate(-0.47 -10)"/><path class="cls-19" d="M23.45,22.67a3.07,3.07,0,0,1-.16-1.57,1.14,1.14,0,0,0-.08-.71H23a10.19,10.19,0,0,1-5.28-2.21,10.5,10.5,0,0,0-3.19-2.1c-.62-.21-.85-.52-.91-.8l0,.11a1,1,0,0,0,0,1.14c.45.57.3.65.49,1.56a3.49,3.49,0,0,1,.15,1.56A1.08,1.08,0,0,0,14.89,21c.76.3,1.56.08,2.78,1a9.45,9.45,0,0,0,3,1.4,23.12,23.12,0,0,0,3,1.33A2.67,2.67,0,0,0,23.45,22.67Z" transform="translate(-0.47 -10)"/><path class="cls-20" d="M43.16,15.29a43.38,43.38,0,0,1-5.87,1.32A12.86,12.86,0,0,0,33.23,18c-.39.33-.6.42-1.78.65-2.33.44-6.38,1.62-8.24,1.7a1.14,1.14,0,0,1,.08.71,3.07,3.07,0,0,0,.16,1.57,2.67,2.67,0,0,1,.18,2.11h.05c.53,0,2.44-1.2,6.88-2.55a44.47,44.47,0,0,0,6.85-2.42c1.55-.79,2.65-1.34,3-1.47a3.48,3.48,0,0,0,1.26-.94c.57-.59,1.16-1.18,1.35-1.41A.73.73,0,0,0,43.16,15.29Z" transform="translate(-0.47 -10)"/><g class="cls-15"><path class="cls-21" d="M25.54,21.55c.14,0-.56-1-.81-1.36l-.34.06A9.81,9.81,0,0,0,25.54,21.55Z" transform="translate(-0.47 -10)"/><path class="cls-21" d="M28.52,20.7A3.3,3.3,0,0,0,29.61,22,2.44,2.44,0,0,0,28.52,20.7Z" transform="translate(-0.47 -10)"/><path class="cls-21" d="M31.47,20s.35.44.52.48S31.41,19.72,31.47,20Z" transform="translate(-0.47 -10)"/><path class="cls-21" d="M33.63,19a2.73,2.73,0,0,0,.66.59C34.55,19.66,33.92,19,33.63,19Z" transform="translate(-0.47 -10)"/><path class="cls-21" d="M39.65,17.12s.11.35.27.31S39.61,16.77,39.65,17.12Z" transform="translate(-0.47 -10)"/><path class="cls-21" d="M36.64,17.52a2.81,2.81,0,0,1,.48.46c.24.3.37.32.51.54s-.2-.52-.29-.74S36.56,17.34,36.64,17.52Z" transform="translate(-0.47 -10)"/></g><path class="cls-22" d="M14,16.2s-.22,0,0,.36a5.64,5.64,0,0,1,.58,1.33,3.41,3.41,0,0,0,0,1,6.7,6.7,0,0,0,.44,1.5c.08,0,0-.9.1-.88s.26.92.42.9.18-.1.38.16a1.38,1.38,0,0,0,.85.53c.28,0,.38.3.64.46s.62.26.42,0a1.52,1.52,0,0,1-.32-.79A8.61,8.61,0,0,1,18.46,22a3.68,3.68,0,0,0,1.24.8c.43.24.65.4.43,0s-.27-.7-.47-1.1-.48-.93-.36-.93.42.67.79,1.21a4.19,4.19,0,0,0,1,1.16,4.85,4.85,0,0,1,1.12.56c.28.24.9.61,1.07.55s-.12-.73-.39-1.05-.18-.62-.26-1.06-.3-1.06-.48-1.14-.34-.15-.24.18.4,1.14.16.8-.54-1.09-.82-1.17-.42-.22-.5,0c-.54-.68-1.35-1.52-1.55-1.48s-.26.3-.26.5-.32-.48-.66-.76-1-.32-1.61-.88-1.06-.93-1.4-1.19.38.89.5,1.81C15.09,17.5,14.43,16.26,14,16.2Z" transform="translate(-0.47 -10)"/><path class="cls-19" d="M16,18.69a8.53,8.53,0,0,1,.73,1.4C16.8,20.43,16.09,19.41,16,18.69Z" transform="translate(-0.47 -10)"/><path class="cls-19" d="M17.24,19.41s.48,1,.74,1.16S17.54,19.63,17.24,19.41Z" transform="translate(-0.47 -10)"/><path class="cls-19" d="M20.57,21.26s.34.88.54.92S21.09,21.74,20.57,21.26Z" transform="translate(-0.47 -10)"/><g class="cls-23"><path class="cls-24" d="M17.46,14.71c-.45,0-.62,0-.46-.25s-.06-.25-.39-.07-.74.19-.67-.08,1.23-.6,1.23-.6c.27-.09.23-.09.25.14s.35.4.69.63.62.31.92.5.42,0,.79-.1.92.08.77.43.09.23.36.4.13.46.4.59,1.06,0,1.14.2-.06.32-.52.44-.27-.2-.58-.37-.73-.06-1.07-.38a2.12,2.12,0,0,0-1-.54A3.42,3.42,0,0,1,18.15,15C17.82,14.73,17.69,14.69,17.46,14.71Z" transform="translate(-0.47 -10)"/><path class="cls-24" d="M21,12.44a1.05,1.05,0,0,0,.64-.07c.27-.15.35-.11.29.12s.25.19.5.14.41,0,.63.37a3.6,3.6,0,0,0,1.06,1.16c.37.22.56.16.7.39s.46.21.64.24.29.39.51.19.38-.66,0-.55a1.55,1.55,0,0,1-1.19-.24c-.46-.25-.6-.58-.87-.77s-.69-.44-.67-.7-.18-.39-.41-.49-.26-.24-.19-.49-.33-.26-.88-.05S20.6,12.48,21,12.44Z" transform="translate(-0.47 -10)"/><path class="cls-24" d="M23.05,17.91a.44.44,0,0,0,.29-.34.71.71,0,0,1,.59-.46c.17,0-.52.57-.22.49s.52-.13.59.1.15.33.5.32.27.14.39.38.35.35.83.42.67.05.45.21a.55.55,0,0,1-.7,0,1,1,0,0,0-.67-.18c-.31,0-.47-.21-.57-.52s-.33-.32-.65-.14C23.34,18.48,22.77,18.14,23.05,17.91Z" transform="translate(-0.47 -10)"/><path class="cls-24" d="M28.14,16.3s.54-.45.62-.15.14.38.47.36.89-.11.89.17.07.68.47.74.76,0,.62.2-.71.45-1,.23-.43-.28-.52-.51-.39-.14-.57-.13a.31.31,0,0,1-.35-.41c.09-.31-.21-.33-.47-.28S28.05,16.43,28.14,16.3Z" transform="translate(-0.47 -10)"/><path class="cls-24" d="M26.32,10.64a4.79,4.79,0,0,0,.8-.23c.33-.13.48-.15.33.1s-.39.42-.16.39.43-.08.58.13a1.56,1.56,0,0,0,.7.5,3.48,3.48,0,0,1,1,.66c.33.31.51.16.55.41s.19.15.34-.06.49-.41.41-.15-.52.36-.41.52.47,0,.51.19.13.23.48.2.37.09-.1.25a2.22,2.22,0,0,1-1,.15c-.1,0,.21-.35,0-.38a.71.71,0,0,1-.52-.35c-.13-.25-.52-.25-.69-.45s-.58-.13-.55-.42-.25-.33-.6-.41-.15-.31-.73-.39-.91.1-1.2,0S26,10.91,26.32,10.64Z" transform="translate(-0.47 -10)"/><path class="cls-24" d="M32.54,14.94s.64-.37.91-.17.46-.08.6.31.17.35.46.35.6-.08.7.25.15.17.39.07.58-.09.6.14-.62.25-1.07.35-.56,0-.62-.12-.12,0-.19-.29-.12-.27-.51-.29a1.43,1.43,0,0,1-.85-.27C32.77,15.12,32.36,15.12,32.54,14.94Z" transform="translate(-0.47 -10)"/><path class="cls-24" d="M34.41,11.52a1.5,1.5,0,0,1-.58.27c-.3,0-.41.13-.45.34s.09.3.5.28.77-.06.43.22-.09.31.65.29.77,0,1,.31a2.75,2.75,0,0,0,.92.57c.31.15.4.4.56.42s1,.13.89.46-.15.34.27.32.52-.07.46.23,0,.29.48.16,1-.18.63-.31-.42-.19-.31-.38-.07-.17-.38-.08-.61.29-.8-.11-.56-.33-.94-.63a3,3,0,0,0-1-.63c-.42-.16.06-.77-.34-.75s-1.11.06-1-.15,0-.21-.44-.29-.45-.21-.21-.36S34.84,11.3,34.41,11.52Z" transform="translate(-0.47 -10)"/></g><g class="cls-23"><path class="cls-24" d="M21.51,16.49a9,9,0,0,0-1.87-1,13.33,13.33,0,0,1-1.85-.82,4.14,4.14,0,0,0-1.23-.71c-.29.12-.58.26-.62.39s.35.25.67.08.54-.22.39.07,0,.29.46.25c.23,0,.36,0,.69.29a3.42,3.42,0,0,0,1.15.65,2.12,2.12,0,0,1,1,.54c.34.32.76.21,1.07.38s.12.48.58.37l.19-.06C21.94,16.75,21.72,16.63,21.51,16.49Z" transform="translate(-0.47 -10)"/><path class="cls-24" d="M23.68,13.65a5.17,5.17,0,0,1-.52-.62,3.07,3.07,0,0,0-.45-.56,3.33,3.33,0,0,0-1.21-.66c-.46.25-.84.66-.5.63a1.05,1.05,0,0,0,.64-.07c.27-.15.35-.11.29.12s.25.19.5.14.41,0,.63.37a3.6,3.6,0,0,0,1.06,1.16c.37.22.56.16.7.39s.46.21.64.24.29.39.51.19a1,1,0,0,0,.12-.16A5.43,5.43,0,0,1,23.68,13.65Z" transform="translate(-0.47 -10)"/><path class="cls-24" d="M25,18.43a5.13,5.13,0,0,0-1.64-.81.47.47,0,0,1-.28.29c-.28.23.29.57.83.26.32-.18.56-.17.65.14s.26.51.57.52a1,1,0,0,1,.67.18.59.59,0,0,0,.37.14A5.84,5.84,0,0,1,25,18.43Z" transform="translate(-0.47 -10)"/><path class="cls-24" d="M29.94,17.24a13.42,13.42,0,0,0-1.64-1l-.16.11c-.09.13-.07.27.2.22s.56,0,.47.28a.31.31,0,0,0,.35.41c.18,0,.49-.1.57.13s.28.29.52.51a.59.59,0,0,0,.57,0A5.55,5.55,0,0,1,29.94,17.24Z" transform="translate(-0.47 -10)"/><path class="cls-24" d="M30.1,13a15,15,0,0,1-1.44-1.08c-.21-.17-.38-.39-.6-.54a3.69,3.69,0,0,0-.74-.21c-.29-.11-.55-.38-.84-.52l-.16,0c-.36.27-.44.49-.15.62s.62,0,1.2,0,.39.31.73.39.64.12.6.41.37.23.55.42.56.2.69.45a.71.71,0,0,0,.52.35c.18,0-.13.34,0,.38a1.82,1.82,0,0,0,.72-.08A11.53,11.53,0,0,1,30.1,13Z" transform="translate(-0.47 -10)"/><path class="cls-24" d="M35,16c-.35-.18-.67-.41-1-.58a8.18,8.18,0,0,0-.82-.32,1.86,1.86,0,0,1-.42-.22l-.23.11c-.18.18.23.18.42.33a1.43,1.43,0,0,0,.85.27c.39,0,.43,0,.51.29s.13.2.19.29.18.22.62.12l.42-.07Z" transform="translate(-0.47 -10)"/><path class="cls-24" d="M38.7,14.64c-.56-.31-1.17-.54-1.71-.91-.28-.18-.53-.41-.8-.61a10,10,0,0,0-.86-.58,14.94,14.94,0,0,0-1.42-.77l-.08,0c-.3,0-.41.13-.45.34s.09.3.5.28.77-.06.43.22-.09.31.65.29.77,0,1,.31a2.75,2.75,0,0,0,.92.57c.31.15.4.4.56.42s1,.13.89.46-.15.34.27.32.52-.07.46.23,0,.29.48.16l.3-.08C39.47,15.1,39.1,14.86,38.7,14.64Z" transform="translate(-0.47 -10)"/></g><g class="cls-23"><path class="cls-18" d="M30,15.11a1.12,1.12,0,0,1-.45-1.47,1,1,0,0,0,.11,1.64,1.41,1.41,0,0,0,1.91-.17A3,3,0,0,1,30,15.11Z" transform="translate(-0.47 -10)"/><path class="cls-18" d="M29.79,13.45h0a5.23,5.23,0,0,1,.49-.32l-.63.37c-.82.23-4.19,1.07-5.59-.4,0,.61,1.53,2.34,5.34.55a5.72,5.72,0,0,0-.84.66c-1.12.72-3.52,2.08-5,1.57.51.62,1.57.88,3.72-.52-1.05,1.11-.72,2.16-.23,2.57a3.23,3.23,0,0,1,1.19-3.25,2.25,2.25,0,0,0-.4,2.1,4.44,4.44,0,0,1,2-3.31Z" transform="translate(-0.47 -10)"/><path class="cls-18" d="M29.56,13.51s-2,.05-.92-2.19A1.19,1.19,0,0,0,29.56,13.51Z" transform="translate(-0.47 -10)"/></g><path class="cls-25" d="M29.18,13.6s-3.61,2.67-5.63,2C24.19,16.37,25.72,16.58,29.18,13.6Z" transform="translate(-0.47 -10)"/><path class="cls-26" d="M28.77,14S26.46,15.33,27,17.64C26.39,17.09,26,15.42,28.77,14Z" transform="translate(-0.47 -10)"/><path class="cls-26" d="M29.61,13.34a1.12,1.12,0,0,0,.46,1.47,2.88,2.88,0,0,0,1.57,0,1.41,1.41,0,0,1-1.91.17A1,1,0,0,1,29.61,13.34Z" transform="translate(-0.47 -10)"/><path class="cls-27" d="M30.3,12.84s-2.44,1.33-2.47,3.64C27.55,15.28,27.71,14.23,30.3,12.84Z" transform="translate(-0.47 -10)"/><path class="cls-26" d="M29.84,13.15s-4.16,1.34-5.76-.34C24.08,13.44,25.72,15.27,29.84,13.15Z" transform="translate(-0.47 -10)"/><path class="cls-27" d="M29.61,13.21s-2,0-.91-2.19A1.19,1.19,0,0,0,29.61,13.21Z" transform="translate(-0.47 -10)"/><path class="cls-28" d="M24.32,13.11s1.51,1.2,4.7.29C28,14,25.34,14.17,24.32,13.11Z" transform="translate(-0.47 -10)"/><path class="cls-28" d="M27.82,14.68S26.36,16,27,17.35C26.5,17,26.73,15.61,27.82,14.68Z" transform="translate(-0.47 -10)"/><path class="cls-29" d="M25.72,10.6a19.42,19.42,0,0,0-3.31.25,6.93,6.93,0,0,0-1.42.31,5,5,0,0,0-1.22.8,12.92,12.92,0,0,1-1.36,1,6.64,6.64,0,0,1-1.61.54,4.46,4.46,0,0,0-1.41.62,6.23,6.23,0,0,0-1,.87s0,.08,0,0a6.19,6.19,0,0,1,1.17-.86,4.8,4.8,0,0,1,1.62-.43,5.32,5.32,0,0,0,2.33-1.18,6,6,0,0,1,1.33-.91,5.49,5.49,0,0,1,1.45-.29c1.07-.13,2.15-.16,3.21-.33C25.69,11,26,10.61,25.72,10.6Z" transform="translate(-0.47 -10)"/><path class="cls-29" d="M33,11.34c-.47-.12-.94-.16-1.41-.25a11.26,11.26,0,0,1-1.52-.38,9.94,9.94,0,0,0-1.43-.35c-.48-.06-1,.08-1.43,0,0,0-.09,0-.05.07a4.82,4.82,0,0,0,1.31.18,4.58,4.58,0,0,1,1.4.4,13.58,13.58,0,0,0,4,.46C34,11.5,33.2,11.4,33,11.34Z" transform="translate(-0.47 -10)"/><g class="cls-23"><path class="cls-24" d="M31.72,17.92c-.15,0-.25.18-.39.19l-.08-.06c-.09,0-.21.13-.2.2a.25.25,0,0,0,.17.24.46.46,0,0,0,.38-.13.53.53,0,0,0,.14-.12c0,.05.07,0,.09,0S32,18.07,32,18,31.78,17.91,31.72,17.92Z" transform="translate(-0.47 -10)"/><path class="cls-24" d="M32.07,13.86a1,1,0,0,0-.25.06.61.61,0,0,0-.17.07.1.1,0,0,0,0,0l-.18.09s-.11.1-.08.15.22,0,.32,0a1.19,1.19,0,0,1,.33,0,.37.37,0,0,0,.2-.12A.14.14,0,0,0,32.07,13.86Z" transform="translate(-0.47 -10)"/><path class="cls-24" d="M32.53,14.16l-.15,0a.66.66,0,0,1-.19.09s-.08.06-.08.09,0,0,0,0a0,0,0,0,0,0,.05c.14.1.37-.09.44-.2S32.59,14.16,32.53,14.16Z" transform="translate(-0.47 -10)"/><path class="cls-24" d="M40.52,15.52s-.07,0-.12,0-.18,0-.27,0a.58.58,0,0,0-.39.33s0,.05,0,.07a.66.66,0,0,0,.31,0,.75.75,0,0,0,.4-.19A.16.16,0,0,0,40.52,15.52Z" transform="translate(-0.47 -10)"/></g><path d="M22.72,17.72a.27.27,0,0,0,.07-.14c0-.07,0-.21-.07-.2h0a.13.13,0,0,0-.11.05.47.47,0,0,0-.13.25c0,.08,0,.17.13.15a.24.24,0,0,0,.12-.07h0v0Z" transform="translate(-0.47 -10)"/><path d="M21.9,19.14s0-.06,0-.07h-.06a.11.11,0,0,0-.11.07,0,0,0,0,0,0,.06s.1,0,.14,0l0-.05S21.9,19.15,21.9,19.14Z" transform="translate(-0.47 -10)"/><path d="M23.06,19.42h0l0,0,0,0s-.08,0-.1,0l0,0h0a.1.1,0,0,0,0,.1.05.05,0,0,0,0,0,.11.11,0,0,0,.12,0A.1.1,0,0,0,23.06,19.42Z" transform="translate(-0.47 -10)"/><path d="M18.72,17.64a.1.1,0,0,0,0,0,.05.05,0,0,0,0,.05s0,0,0,0a.12.12,0,0,0,0,.13.06.06,0,0,0,.08,0s0,0,0,0a.15.15,0,0,0,.12-.16C18.84,17.66,18.79,17.6,18.72,17.64Z" transform="translate(-0.47 -10)"/><path d="M18,16.61c0-.05-.05-.08-.09-.11s-.15-.05-.22,0-.08.09-.05.14a.31.31,0,0,0,.09.07c.06,0,.15.08.22.05a.3.3,0,0,0,.08-.08S18.08,16.61,18,16.61Z" transform="translate(-0.47 -10)"/><path d="M16.19,15.61a0,0,0,0,0,0,0s-.09,0-.11.06-.06.1,0,.13.16,0,.17-.11S16.21,15.62,16.19,15.61Z" transform="translate(-0.47 -10)"/><path d="M15.05,14.48c-.07,0-.18.18-.07.18S15.16,14.48,15.05,14.48Z" transform="translate(-0.47 -10)"/><path d="M21.13,13.68s-.09-.1-.15-.09-.14.2-.12.28.11.19.2.1h0a.16.16,0,0,0,.07-.09A.21.21,0,0,0,21.13,13.68Z" transform="translate(-0.47 -10)"/><path d="M19.13,12.56h0v0a.41.41,0,0,0-.05-.18s0,0-.06,0a.12.12,0,0,0-.06.08.7.7,0,0,0,0,.16c0,.07.06.11.13.08S19.17,12.6,19.13,12.56Z" transform="translate(-0.47 -10)"/><path d="M25.09,11.83Z" transform="translate(-0.47 -10)"/><path d="M25.34,11.71h-.1a.12.12,0,0,0-.08,0,.15.15,0,0,0-.05.06l0,0a.26.26,0,0,0,0,.19.1.1,0,0,0,.12.06.27.27,0,0,0,.17-.13S25.46,11.71,25.34,11.71Z" transform="translate(-0.47 -10)"/><path d="M20.06,15.23a.19.19,0,0,0-.25,0,.34.34,0,0,0-.18.27.23.23,0,0,0,.11.18.17.17,0,0,0,.21,0C20.06,15.55,20.19,15.35,20.06,15.23Z" transform="translate(-0.47 -10)"/><path d="M31.58,16.34a.11.11,0,0,0-.17-.05h0a.38.38,0,0,0-.16.19c0,.08,0,.17.08.2s.17-.06.22-.12A.31.31,0,0,0,31.58,16.34Z" transform="translate(-0.47 -10)"/><path d="M28.47,18.06a.13.13,0,0,0-.06-.12c-.07-.06-.16,0-.17.09a.13.13,0,0,0,.15.15.08.08,0,0,0,.07-.05S28.49,18.07,28.47,18.06Z" transform="translate(-0.47 -10)"/><path d="M26.9,17.71c-.08,0-.17.06-.22.12s0,0,0,0a.08.08,0,0,0,0,0,.32.32,0,0,0,0,.09.14.14,0,0,0,.07.12s.1,0,.13,0a.46.46,0,0,0,.07-.07C27,17.92,27,17.74,26.9,17.71Z" transform="translate(-0.47 -10)"/><path d="M32.07,12.74s-.08,0-.11,0a.19.19,0,0,0-.07.14.11.11,0,0,0,0,.08.1.1,0,0,0,.05.08s.07,0,.1,0S32.22,12.81,32.07,12.74Z" transform="translate(-0.47 -10)"/><path d="M34.67,13.8a.12.12,0,0,0-.05-.05.13.13,0,0,0-.08-.1c-.09,0-.18.07-.22.14s.08.35.24.26A.21.21,0,0,0,34.67,13.8Z" transform="translate(-0.47 -10)"/><path d="M37.05,14.67a.17.17,0,0,0-.1-.06c-.05,0-.12.06-.15.1s-.07.21,0,.24.13,0,.17-.08a.43.43,0,0,0,0-.07A.09.09,0,0,0,37.05,14.67Z" transform="translate(-0.47 -10)"/><path d="M33.51,11.42h0a.33.33,0,0,0-.17,0c-.05,0-.09,0-.13,0l-.09-.07s-.15.07-.14.12.17.17.26.19a.27.27,0,0,0,.2-.06h0s.07-.05.07-.09h0S33.54,11.39,33.51,11.42Z" transform="translate(-0.47 -10)"/><path d="M27,19.28h0l0,0h0a.12.12,0,0,0-.14,0,.24.24,0,0,0-.16.18s0,0,0,.05a.21.21,0,0,0,.19,0,.22.22,0,0,0,.1-.09S27,19.3,27,19.28Z" transform="translate(-0.47 -10)"/><path class="cls-14" d="M26.83,17.75s-.12.11,0,.11S26.89,17.75,26.83,17.75Z" transform="translate(-0.47 -10)"/><path class="cls-14" d="M22.7,17.43h-.05s-.08.07-.08.1,0,.06,0,.07.06,0,.08,0,0,0,0,0l0,0h0S22.76,17.43,22.7,17.43Z" transform="translate(-0.47 -10)"/><path class="cls-14" d="M25.27,11.76c-.06,0-.15.14-.06.14S25.35,11.76,25.27,11.76Z" transform="translate(-0.47 -10)"/><path class="cls-14" d="M19.85,15.41s0,0,0-.06a.06.06,0,0,0,0-.07h0c-.05,0-.14.07-.1.12h0v0s0,0,0,0,0,0,0,0h0l0,0Z" transform="translate(-0.47 -10)"/><path class="cls-14" d="M34.55,13.73h0s-.07,0-.08,0,0,0,0,.05,0,0,0,0h0S34.59,13.73,34.55,13.73Z" transform="translate(-0.47 -10)"/><path class="cls-30" d="M41.25,27.51a5,5,0,0,0,3.06-1.3c.91-.57,1.85-1,2.12-1.54A1.83,1.83,0,0,0,46.17,23a11.69,11.69,0,0,0-1.64-1.47l-6.21,4.64A4.79,4.79,0,0,0,41.25,27.51Z" transform="translate(-0.47 -10)"/><path class="cls-31" d="M38.32,26.12l-1.27.95a5.73,5.73,0,0,0,2.59,2.24,3.08,3.08,0,0,0,.81.23l.35-2.06A5.42,5.42,0,0,1,38.32,26.12Z" transform="translate(-0.47 -10)"/><path class="cls-32" d="M46.45,23.27,46.17,23a1.83,1.83,0,0,1,.26,1.72c-.27.57-1.21,1-2.12,1.54a5,5,0,0,1-3.06,1.3,1.71,1.71,0,0,1-.45,0l-.35,2.06c1.64.23,3.41-.78,4.43-1.32,1.18-.63,1.53-.8,1.85-1.85A3.07,3.07,0,0,0,46.45,23.27Z" transform="translate(-0.47 -10)"/><path class="cls-33" d="M46.11,24.16c0-.08-.14-.12-.21-.15-.26-.09-.29-.08-.33-.38s-.38-.27-.63-.41-.13-.25-.21-.38a.66.66,0,0,0-.27-.2s-.05,0-.07,0l0,0c-.09.19-.34.45-.27.67,0,0,.24.09.25.1s.1.23.23.25.42,0,.61.12a4.13,4.13,0,0,1,.32.49c.13.17.34.34.54.18A.31.31,0,0,0,46.11,24.16Z" transform="translate(-0.47 -10)"/><path class="cls-33" d="M44.23,25.18c-.34.06,0-.45-.23-.5a.23.23,0,0,1-.21-.27c0-.1,0-.13-.11-.17s-.15.1-.09.13,0,.17,0,.26a.45.45,0,0,0-.12.22c0,.08,0,.07,0,.13s.2,0,.24,0,0,.38.06.46a.09.09,0,0,0,.1,0l.16,0c.12,0,.11.2.12.26s.11.24.27.13a.52.52,0,0,0,.19-.36C44.64,25.2,44.49,25.13,44.23,25.18Z" transform="translate(-0.47 -10)"/><path class="cls-33" d="M43.06,26.24s-.08,0-.13-.06,0,0-.07-.05,0-.06,0-.1-.18,0-.22,0a.1.1,0,0,0,0,.1l-.09.1s-.12.17,0,.17.14-.08.2-.11,0,.12,0,.14a.59.59,0,0,1,.06.14c0,.1.17,0,.19-.08S43.11,26.33,43.06,26.24Z" transform="translate(-0.47 -10)"/><path class="cls-34" d="M45.76,24.06c-.24-.31-.62-.3-.92-.51a3.18,3.18,0,0,0-.7-.47.36.36,0,0,0,0,.28s.24.09.25.1.1.23.23.25.42,0,.61.12a4.13,4.13,0,0,1,.32.49c.12.16.31.31.48.21A1.56,1.56,0,0,0,45.76,24.06Z" transform="translate(-0.47 -10)"/><path class="cls-34" d="M44.17,25.43a.83.83,0,0,0-.37-.56l-.25-.15a.32.32,0,0,0,0,.13c0,.08,0,.07,0,.13s.2,0,.24,0,0,.38.06.46a.09.09,0,0,0,.1,0l.16,0c.12,0,.11.2.12.26s.1.23.24.15A.74.74,0,0,1,44.17,25.43Z" transform="translate(-0.47 -10)"/><path class="cls-34" d="M42.6,26.11s0,0,0,0l-.09.1s-.12.17,0,.17.14-.08.2-.11,0,.12,0,.14a.59.59,0,0,1,.06.14c0,.1.17,0,.19-.08l0,0A2,2,0,0,0,42.6,26.11Z" transform="translate(-0.47 -10)"/><path class="cls-35" d="M38.55,27.52a7.25,7.25,0,0,0,.8-.09,4.89,4.89,0,0,0,.74-.16,4.71,4.71,0,0,0,2.17-1.09A3.74,3.74,0,0,0,43.17,25c.23-.45.64-1.16.92-1.58s.58-.8.85-1.22l.18-.28a6.64,6.64,0,0,0-.59-.47l-6.21,4.64-1.27.95a3.67,3.67,0,0,0,.38.55C37.8,27.59,38.18,27.53,38.55,27.52Z" transform="translate(-0.47 -10)"/><path class="cls-36" d="M35.45,25.36c3,.33,4.69.09,6-.91s3.54-2.71,3.69-5.36a1.47,1.47,0,0,0-.56-.83c-.45-.32-1.5-.58-5.41.84-3.16,1.23-6,3-6.21,4.74,0,0,0,.13,0,.33C33.3,24.67,33.94,25.2,35.45,25.36Z" transform="translate(-0.47 -10)"/><path class="cls-37" d="M35.45,25.36c-1.51-.16-2.15-.69-2.42-1.19a6.46,6.46,0,0,0,.46,2c.43.91,3.51,1.44,5.65,1.15A10,10,0,0,0,40.42,27l-.07-1.93A10.47,10.47,0,0,1,35.45,25.36Z" transform="translate(-0.47 -10)"/><path class="cls-38" d="M45.19,19.09C45,21.74,43,23.35,41.5,24.45a4.94,4.94,0,0,1-1.15.63L40.42,27a5.19,5.19,0,0,0,2.85-2.56c.69-1.18,2.09-3.13,2.09-4.42A5.14,5.14,0,0,0,45.19,19.09Z" transform="translate(-0.47 -10)"/><path class="cls-33" d="M35,21.57s-.37.34-.56.53-.26.37,0,.25.28-.12.25.06.16.13.34.12.21.09.24.23.86.5,1.13.61.73.2.82.44.21.14.4.17a4.09,4.09,0,0,1,1,.55,1.17,1.17,0,0,0,.78.17,1.22,1.22,0,0,1,.78.15c.19.13.34.15.44.07s-.09-.23-.47-.32-.38,0-.44-.23-.12-.11-.4-.15-.22-.06-.21-.29-.13-.28-.5-.21-.36.16-.82-.16a5.65,5.65,0,0,0-1.26-.86c-.47-.16-.83-.14-.84-.41s-.08-.17-.3-.26-.17-.31-.13-.46S35.1,21.44,35,21.57Z" transform="translate(-0.47 -10)"/><path class="cls-33" d="M37.66,20.12s-.44.16-.31.29.54,0,.32.22-.42.55-.06.56.46-.06.52.21.22.16.54.1.47,0,.49.26a.48.48,0,0,0,.61.47c.3-.11.22-.48-.07-.39s-.13,0-.1-.4-.16-.38-.49-.38a5.9,5.9,0,0,0-.78-.08c-.26.05-.17-.16-.11-.48S38,20.1,37.66,20.12Z" transform="translate(-0.47 -10)"/><path class="cls-33" d="M40.63,22.15s-.34.23-.27.36.53-.14.47.14,0,.47.36.42a.71.71,0,0,1,.67.18,3.24,3.24,0,0,0,.69.35s.5-.26.43-.48-.33-.3-.53-.44-.36-.17-.6-.13-.31,0-.36-.27-.22-.37-.35-.23-.07.25-.23.13S40.73,22,40.63,22.15Z" transform="translate(-0.47 -10)"/><path class="cls-33" d="M44.19,21c-.11-.26-.51.09-.55-.35,0-.18,0-.35-.22-.43a2.75,2.75,0,0,0-.4,0c-.2,0-.38-.25-.55-.36a.48.48,0,0,0-.23-.07.88.88,0,0,1-.68-.32c-.19-.18-.76,0-.64-.35.19-.58-.71,0-.85.12s-.06.17,0,.09l0,0c0,.06,0,.11,0,.12s.44-.08.46.22c0,.06,0,.19,0,.25s.07.09.17.09a2.61,2.61,0,0,1,.74,0,1.9,1.9,0,0,1,1.07.41c.1.11.18.23.28.35a1.31,1.31,0,0,1,.29.53.56.56,0,0,0,.9.15A.45.45,0,0,0,44.19,21Z" transform="translate(-0.47 -10)"/><path class="cls-33" d="M44.47,19c-.24,0,0-.26-.09-.34a.36.36,0,0,0-.21-.14c-.19-.06-.26-.14-.42,0a.55.55,0,0,0-.3.2c-.12.16.11.21.22.21.37,0,.07.44.32.55a1.11,1.11,0,0,0,.65,0C45,19.31,44.78,18.93,44.47,19Z" transform="translate(-0.47 -10)"/><g class="cls-39"><path class="cls-34" d="M39.72,24.56a7.44,7.44,0,0,1-.91-.41c-.34-.17-.69-.33-1.05-.47a13.87,13.87,0,0,1-2-.92c-.27-.17-.51-.38-.78-.55a1.64,1.64,0,0,1-.4-.29l-.19.18c-.19.19-.26.37,0,.25s.28-.12.25.06.16.13.34.12.21.09.24.23.86.5,1.13.61.73.2.82.44.21.14.4.17a4.09,4.09,0,0,1,1,.55,1.17,1.17,0,0,0,.78.17,1.22,1.22,0,0,1,.78.15.42.42,0,0,0,.4.1A3,3,0,0,0,39.72,24.56Z" transform="translate(-0.47 -10)"/><path class="cls-33" d="M37.4,20.25c-.07.05-.1.11,0,.16s.29.06.36.09A.75.75,0,0,0,37.4,20.25Z" transform="translate(-0.47 -10)"/><path class="cls-34" d="M39.88,22.07a1.65,1.65,0,0,1-.24-.22c-.13,0-.13,0-.1-.1a.81.81,0,0,0-.35-.26c-.23-.09-.49,0-.72-.13a.93.93,0,0,1-.61-.55,1,1,0,0,0-.13-.28.18.18,0,0,1-.06.1c-.22.24-.42.55-.06.56s.46-.06.52.21.22.16.54.1.47,0,.49.26a.48.48,0,0,0,.61.47.3.3,0,0,0,.16-.12Z" transform="translate(-0.47 -10)"/><path class="cls-34" d="M41.6,22.75a7.13,7.13,0,0,0-1-.36l-.17-.06c-.05.06-.09.13-.06.18s.53-.14.47.14,0,.47.36.42a.71.71,0,0,1,.67.18,3.24,3.24,0,0,0,.69.35,1.54,1.54,0,0,0,.26-.17A11,11,0,0,0,41.6,22.75Z" transform="translate(-0.47 -10)"/><path class="cls-34" d="M43.81,21.29c-.15-.17-.3-.34-.47-.5a3.63,3.63,0,0,0-.64-.47,5.65,5.65,0,0,0-.85-.43,6.91,6.91,0,0,1-.79-.33c-.22-.11-.38-.32-.6-.41l-.22-.07a1,1,0,0,0-.17.13c-.07.05-.06.17,0,.09l0,0c0,.06,0,.11,0,.12s.44-.08.46.22c0,.06,0,.19,0,.25s.07.09.17.09a2.61,2.61,0,0,1,.74,0,1.9,1.9,0,0,1,1.07.41c.1.11.18.23.28.35a1.31,1.31,0,0,1,.29.53.58.58,0,0,0,.82.23A2.19,2.19,0,0,1,43.81,21.29Z" transform="translate(-0.47 -10)"/><path class="cls-34" d="M43.52,18.56a.27.27,0,0,0-.07.08c-.12.16.11.21.22.21.37,0,.07.44.32.55a.74.74,0,0,0,.36.05C44.1,19.14,43.89,18.74,43.52,18.56Z" transform="translate(-0.47 -10)"/></g><path class="cls-40" d="M39.25,19.46a22.19,22.19,0,0,0-3.85,1.82c-.86.54-1.85,1.19-1.91,2.32,0,.07.11,0,.12-.06.24-1.19,1.31-1.69,2.26-2.26s2.27-.94,3.35-1.51C39.33,19.72,39.47,19.38,39.25,19.46Z" transform="translate(-0.47 -10)"/><path class="cls-40" d="M43.17,18.5a3.43,3.43,0,0,0-1.68.12,11.28,11.28,0,0,0-1.58.53s-.19.17-.08.2a.71.71,0,0,0,.49-.08A7,7,0,0,1,41.1,19c.31-.07.61-.12.93-.18s.65,0,1,0C43.08,18.8,43.34,18.55,43.17,18.5Z" transform="translate(-0.47 -10)"/></g></g></svg>