<svg xmlns="http://www.w3.org/2000/svg" xmlns:xlink="http://www.w3.org/1999/xlink" viewBox="0 0 47.24 25.64"><defs><style>.cls-1{mask:url(#mask);}.cls-10,.cls-105,.cls-106,.cls-107,.cls-108,.cls-12,.cls-16,.cls-18,.cls-2,.cls-20,.cls-23,.cls-27,.cls-33,.cls-43,.cls-44,.cls-45,.cls-46,.cls-47,.cls-48,.cls-49,.cls-5,.cls-50,.cls-51,.cls-52,.cls-53,.cls-54,.cls-55,.cls-56,.cls-57,.cls-58,.cls-59,.cls-60,.cls-61,.cls-62,.cls-63,.cls-64,.cls-66,.cls-67,.cls-68,.cls-70,.cls-71,.cls-72,.cls-74,.cls-75,.cls-76,.cls-77,.cls-78,.cls-79,.cls-82,.cls-83,.cls-84,.cls-85,.cls-91,.cls-97,.cls-99{mix-blend-mode:multiply;}.cls-2{fill:url(#linear-gradient);}.cls-3{isolation:isolate;}.cls-4{mask:url(#mask-2);}.cls-104,.cls-5{opacity:0.7;}.cls-5{fill:url(#linear-gradient-2);}.cls-6,.cls-7{stroke:#b5b5b5;}.cls-17,.cls-22,.cls-26,.cls-30,.cls-31,.cls-35,.cls-6,.cls-7,.cls-8{stroke-miterlimit:10;}.cls-6{stroke-width:0.13px;fill:url(#radial-gradient);}.cls-17,.cls-22,.cls-26,.cls-30,.cls-31,.cls-35,.cls-7,.cls-8{stroke-width:0.06px;}.cls-7{fill:url(#radial-gradient-2);}.cls-8{stroke:#fff;fill:url(#radial-gradient-3);}.cls-9{fill:url(#linear-gradient-3);}.cls-10,.cls-23,.cls-83{opacity:0.4;}.cls-10{fill:url(#radial-gradient-4);}.cls-11,.cls-15,.cls-37,.cls-38,.cls-86,.cls-88,.cls-89{fill:#fff;}.cls-12,.cls-16,.cls-18,.cls-65,.cls-69,.cls-73,.cls-97{opacity:0.5;}.cls-12{fill:url(#radial-gradient-5);}.cls-105,.cls-13,.cls-15,.cls-20,.cls-38,.cls-39,.cls-43,.cls-44,.cls-45,.cls-46,.cls-47,.cls-48,.cls-49,.cls-50,.cls-51,.cls-52,.cls-53,.cls-54,.cls-62,.cls-81,.cls-89{opacity:0.2;}.cls-13,.cls-15,.cls-65,.cls-69,.cls-73,.cls-86{mix-blend-mode:overlay;}.cls-14{fill:url(#radial-gradient-6);}.cls-16{fill:#b6b8ba;}.cls-17,.cls-22,.cls-26,.cls-31,.cls-35{stroke:#a25d24;}.cls-17{fill:url(#linear-gradient-4);}.cls-19{fill:url(#linear-gradient-5);}.cls-21{fill:url(#linear-gradient-6);}.cls-22{fill:url(#linear-gradient-7);}.cls-24{fill:url(#linear-gradient-8);}.cls-25{fill:url(#linear-gradient-9);}.cls-26{fill:url(#linear-gradient-10);}.cls-106,.cls-27,.cls-37,.cls-40,.cls-55,.cls-56,.cls-57,.cls-58,.cls-59,.cls-60,.cls-61,.cls-86,.cls-87,.cls-88{opacity:0.3;}.cls-28{fill:url(#linear-gradient-11);}.cls-29{fill:url(#linear-gradient-12);}.cls-30{stroke:#372200;fill:url(#linear-gradient-13);}.cls-31{fill:url(#linear-gradient-14);}.cls-32{fill:url(#linear-gradient-15);}.cls-33,.cls-41{opacity:0.1;}.cls-34{fill:url(#linear-gradient-16);}.cls-35{fill:url(#linear-gradient-17);}.cls-36{fill:url(#linear-gradient-18);}.cls-42{fill:none;}.cls-43{fill:url(#linear-gradient-19);}.cls-44{fill:url(#linear-gradient-20);}.cls-45{fill:url(#linear-gradient-21);}.cls-46{fill:url(#linear-gradient-22);}.cls-47{fill:url(#linear-gradient-23);}.cls-48{fill:url(#linear-gradient-24);}.cls-49{fill:url(#linear-gradient-25);}.cls-50{fill:url(#linear-gradient-26);}.cls-51{fill:url(#linear-gradient-27);}.cls-52{fill:url(#linear-gradient-28);}.cls-53{fill:url(#linear-gradient-29);}.cls-54{fill:url(#linear-gradient-30);}.cls-55{fill:url(#linear-gradient-31);}.cls-56{fill:url(#linear-gradient-32);}.cls-57{fill:url(#linear-gradient-33);}.cls-58{fill:url(#linear-gradient-34);}.cls-59{fill:url(#linear-gradient-35);}.cls-60{fill:url(#linear-gradient-36);}.cls-61{fill:url(#linear-gradient-37);}.cls-62{fill:url(#linear-gradient-38);}.cls-107,.cls-108,.cls-63,.cls-64,.cls-66,.cls-67,.cls-68,.cls-70,.cls-71,.cls-72,.cls-74,.cls-75,.cls-76,.cls-77,.cls-78,.cls-79,.cls-82,.cls-84,.cls-85{opacity:0.9;}.cls-63{fill:url(#linear-gradient-39);}.cls-64{fill:url(#linear-gradient-40);}.cls-65{fill:url(#linear-gradient-41);}.cls-66{fill:url(#linear-gradient-42);}.cls-67{fill:url(#linear-gradient-43);}.cls-68{fill:url(#linear-gradient-44);}.cls-69{fill:url(#linear-gradient-45);}.cls-70{fill:url(#linear-gradient-46);}.cls-71{fill:url(#linear-gradient-47);}.cls-72{fill:url(#linear-gradient-48);}.cls-73{fill:url(#linear-gradient-49);}.cls-74{fill:url(#linear-gradient-50);}.cls-75{fill:url(#linear-gradient-51);}.cls-76{fill:url(#linear-gradient-52);}.cls-77{fill:url(#linear-gradient-53);}.cls-78{fill:url(#linear-gradient-54);}.cls-79{fill:url(#linear-gradient-55);}.cls-80{fill:url(#linear-gradient-56);}.cls-81{fill:url(#linear-gradient-57);}.cls-82{fill:url(#linear-gradient-58);}.cls-83{fill:#caa912;}.cls-84{fill:url(#linear-gradient-59);}.cls-85{fill:url(#linear-gradient-60);}.cls-87{fill:#fff459;}.cls-104,.cls-87,.cls-88,.cls-89{mix-blend-mode:screen;}.cls-100,.cls-90,.cls-92,.cls-98{stroke:#853609;stroke-linecap:round;stroke-linejoin:round;stroke-width:0.03px;}.cls-90{fill:url(#linear-gradient-61);}.cls-91{fill:url(#linear-gradient-62);}.cls-92{fill:url(#linear-gradient-63);}.cls-93{fill:url(#linear-gradient-64);}.cls-94{fill:url(#linear-gradient-65);}.cls-95{fill:url(#linear-gradient-66);}.cls-96{fill:#fff0d7;}.cls-97{fill:url(#linear-gradient-67);}.cls-98{fill:url(#linear-gradient-68);}.cls-99{fill:url(#linear-gradient-69);}.cls-100{fill:url(#linear-gradient-70);}.cls-101{fill:url(#linear-gradient-71);}.cls-102{fill:url(#linear-gradient-72);}.cls-103{fill:url(#linear-gradient-73);}.cls-104{fill:url(#linear-gradient-74);}.cls-105{fill:url(#linear-gradient-75);}.cls-106{fill:url(#linear-gradient-76);}.cls-107{fill:url(#linear-gradient-77);}.cls-108{fill:url(#linear-gradient-78);}.cls-109{filter:url(#luminosity-noclip-2);}.cls-110{filter:url(#luminosity-noclip);}</style><filter id="luminosity-noclip" x="4.96" y="-8208" width="47.07" height="32766" filterUnits="userSpaceOnUse" color-interpolation-filters="sRGB"><feFlood flood-color="#fff" result="bg"/><feBlend in="SourceGraphic" in2="bg"/></filter><mask id="mask" x="4.96" y="-8208" width="47.07" height="32766" maskUnits="userSpaceOnUse"><g class="cls-110"/></mask><linearGradient id="linear-gradient" x1="28.5" y1="7.39" x2="28.5" y2="40.25" gradientUnits="userSpaceOnUse"><stop offset="0.29" stop-color="#fff"/><stop offset="1"/></linearGradient><filter id="luminosity-noclip-2" x="4.96" y="13.76" width="47.07" height="16.8" filterUnits="userSpaceOnUse" color-interpolation-filters="sRGB"><feFlood flood-color="#fff" result="bg"/><feBlend in="SourceGraphic" in2="bg"/></filter><mask id="mask-2" x="0.06" y="8.84" width="47.07" height="16.8" maskUnits="userSpaceOnUse"><g class="cls-109"><g transform="translate(-4.9 -4.93)"><g class="cls-1"><path class="cls-2" d="M52,22.17c0,4.63-10.53,8.4-23.53,8.4S5,26.8,5,22.17,15.5,13.76,28.5,13.76,52,17.53,52,22.17Z"/></g></g></g></mask><linearGradient id="linear-gradient-2" x1="28.5" y1="7.39" x2="28.5" y2="40.25" gradientUnits="userSpaceOnUse"><stop offset="0.29" stop-color="#cacbc8"/><stop offset="1" stop-color="#fff"/></linearGradient><radialGradient id="radial-gradient" cx="15.71" cy="-2.49" r="42.26" gradientTransform="translate(-3.87 -5.33)" gradientUnits="userSpaceOnUse"><stop offset="0.17" stop-color="#fff"/><stop offset="1" stop-color="#cbccce"/></radialGradient><radialGradient id="radial-gradient-2" cx="16.39" cy="21.1" r="32.28" gradientTransform="translate(1.04 -0.4)" gradientUnits="userSpaceOnUse"><stop offset="0.17" stop-color="#fff"/><stop offset="1" stop-color="#dadad7"/></radialGradient><radialGradient id="radial-gradient-3" cx="29.72" cy="3.24" r="35.13" gradientTransform="translate(-3.87 -5.33)" gradientUnits="userSpaceOnUse"><stop offset="0.02" stop-color="#c7c6c5"/><stop offset="1" stop-color="#fff"/></radialGradient><linearGradient id="linear-gradient-3" x1="10.67" y1="15.25" x2="48.98" y2="24.45" gradientUnits="userSpaceOnUse"><stop offset="0.17" stop-color="#fff"/><stop offset="1" stop-color="#c7c6c5"/></linearGradient><radialGradient id="radial-gradient-4" cx="2.52" cy="8.6" r="28.63" gradientTransform="translate(1.04 -0.4)" xlink:href="#radial-gradient"/><radialGradient id="radial-gradient-5" cx="48.05" cy="9.78" r="22.23" xlink:href="#radial-gradient-2"/><radialGradient id="radial-gradient-6" cx="16.39" cy="21.1" r="32.28" xlink:href="#radial-gradient-2"/><linearGradient id="linear-gradient-4" x1="28.09" y1="26.49" x2="28.09" y2="12" gradientUnits="userSpaceOnUse"><stop offset="0" stop-color="#fed6b4"/><stop offset="0.37" stop-color="#f1af47"/><stop offset="0.76" stop-color="#946118"/><stop offset="0.92" stop-color="#744608"/></linearGradient><linearGradient id="linear-gradient-5" x1="26.48" y1="5.56" x2="26.78" y2="30.3" gradientTransform="translate(1.65 -0.09) rotate(0.48)" gradientUnits="userSpaceOnUse"><stop offset="0" stop-color="#fed6b4"/><stop offset="0.37" stop-color="#f1af47"/><stop offset="0.92" stop-color="#744608"/></linearGradient><linearGradient id="linear-gradient-6" x1="26.24" y1="5.56" x2="26.54" y2="30.31" xlink:href="#linear-gradient-5"/><linearGradient id="linear-gradient-7" x1="28.07" y1="22.5" x2="28.07" y2="11.48" xlink:href="#linear-gradient-4"/><linearGradient id="linear-gradient-8" x1="28.09" y1="8.72" x2="28.09" y2="25.99" gradientTransform="matrix(1, 0, 0, 1, 0, 0)" xlink:href="#linear-gradient-5"/><linearGradient id="linear-gradient-9" x1="28.24" y1="14.63" x2="28.24" y2="31.91" gradientTransform="matrix(1, 0, 0, 1, 0, 0)" xlink:href="#linear-gradient-5"/><linearGradient id="linear-gradient-10" x1="28.66" y1="19.79" x2="28.66" y2="10.77" xlink:href="#linear-gradient-4"/><linearGradient id="linear-gradient-11" x1="28.69" y1="21.47" x2="28.69" y2="11.08" gradientTransform="matrix(1, 0, 0, 1, 0, 0)" xlink:href="#linear-gradient-5"/><linearGradient id="linear-gradient-12" x1="28.93" y1="19.58" x2="27.24" y2="5.93" gradientTransform="matrix(1, 0, 0, 1, 0, 0)" xlink:href="#linear-gradient-5"/><linearGradient id="linear-gradient-13" x1="28.43" y1="18.8" x2="28.43" y2="6.42" gradientTransform="matrix(1, 0, 0, 1, 0, 0)" xlink:href="#linear-gradient-5"/><linearGradient id="linear-gradient-14" x1="28.43" y1="17.58" x2="28.43" y2="4.43" xlink:href="#linear-gradient-4"/><linearGradient id="linear-gradient-15" x1="28.45" y1="6.62" x2="28.45" y2="17.2" gradientTransform="matrix(1, 0, 0, 1, 0, 0)" xlink:href="#linear-gradient-5"/><linearGradient id="linear-gradient-16" x1="28.13" y1="16.78" x2="28.13" y2="11.82" gradientTransform="matrix(1, 0, 0, 1, 0, 0)" xlink:href="#linear-gradient-5"/><linearGradient id="linear-gradient-17" x1="28.74" y1="13.2" x2="28.74" y2="-0.13" gradientUnits="userSpaceOnUse"><stop offset="0" stop-color="#ffe8ca"/><stop offset="0.45" stop-color="#f1af47"/><stop offset="0.92" stop-color="#744608"/></linearGradient><linearGradient id="linear-gradient-18" x1="28.74" y1="15.16" x2="28.74" y2="1.82" gradientTransform="matrix(1, 0, 0, 1, 0, 0)" xlink:href="#linear-gradient-5"/><linearGradient id="linear-gradient-19" x1="11.81" y1="24.87" x2="35.79" y2="22.71" gradientTransform="matrix(1, 0, 0, 1, 0, 0)" xlink:href="#linear-gradient-5"/><linearGradient id="linear-gradient-20" x1="10.61" y1="11.39" x2="34.58" y2="9.24" gradientTransform="matrix(1, 0, 0, 1, 0, 0)" xlink:href="#linear-gradient-5"/><linearGradient id="linear-gradient-21" x1="10.47" y1="10" x2="34.46" y2="7.85" gradientTransform="matrix(1, 0, 0, 1, 0, 0)" xlink:href="#linear-gradient-5"/><linearGradient id="linear-gradient-22" x1="11.68" y1="23.41" x2="35.66" y2="21.25" gradientTransform="matrix(1, 0, 0, 1, 0, 0)" xlink:href="#linear-gradient-5"/><linearGradient id="linear-gradient-23" x1="11.59" y1="22.41" x2="35.57" y2="20.25" gradientTransform="matrix(1, 0, 0, 1, 0, 0)" xlink:href="#linear-gradient-5"/><linearGradient id="linear-gradient-24" x1="11.52" y1="21.64" x2="35.47" y2="19.49" gradientTransform="matrix(1, 0, 0, 1, 0, 0)" xlink:href="#linear-gradient-5"/><linearGradient id="linear-gradient-25" x1="11.85" y1="25.32" x2="35.84" y2="23.17" gradientTransform="matrix(1, 0, 0, 1, 0, 0)" xlink:href="#linear-gradient-5"/><linearGradient id="linear-gradient-26" x1="11.61" y1="22.66" x2="35.6" y2="20.51" gradientTransform="matrix(1, 0, 0, 1, 0, 0)" xlink:href="#linear-gradient-5"/><linearGradient id="linear-gradient-27" x1="11.9" y1="25.91" x2="35.89" y2="23.76" gradientTransform="matrix(1, 0, 0, 1, 0, 0)" xlink:href="#linear-gradient-5"/><linearGradient id="linear-gradient-28" x1="11.68" y1="23.5" x2="35.67" y2="21.35" gradientTransform="matrix(1, 0, 0, 1, 0, 0)" xlink:href="#linear-gradient-5"/><linearGradient id="linear-gradient-29" x1="11.9" y1="26" x2="35.9" y2="23.85" gradientTransform="matrix(1, 0, 0, 1, 0, 0)" xlink:href="#linear-gradient-5"/><linearGradient id="linear-gradient-30" x1="10.55" y1="10.88" x2="34.54" y2="8.73" gradientTransform="matrix(1, 0, 0, 1, 0, 0)" xlink:href="#linear-gradient-5"/><linearGradient id="linear-gradient-31" x1="28.4" y1="18.19" x2="20.25" y2="10.85" gradientTransform="matrix(1, 0, 0, 1, 0, 0)" xlink:href="#linear-gradient-5"/><linearGradient id="linear-gradient-32" x1="29.18" y1="9.39" x2="29.97" y2="9.39" gradientTransform="matrix(1, 0, 0, 1, 0, 0)" xlink:href="#linear-gradient-5"/><linearGradient id="linear-gradient-33" x1="33.01" y1="15.21" x2="37.94" y2="15.21" gradientTransform="matrix(1, 0, 0, 1, 0, 0)" xlink:href="#linear-gradient-5"/><linearGradient id="linear-gradient-34" x1="33" y1="20.55" x2="37.94" y2="20.55" gradientTransform="matrix(1, 0, 0, 1, 0, 0)" xlink:href="#linear-gradient-5"/><linearGradient id="linear-gradient-35" x1="20.42" y1="9.53" x2="24.33" y2="9.53" gradientTransform="matrix(1, 0, 0, 1, 0, 0)" xlink:href="#linear-gradient-5"/><linearGradient id="linear-gradient-36" x1="17.39" y1="16.48" x2="20.4" y2="16.48" gradientTransform="matrix(1, 0, 0, 1, 0, 0)" xlink:href="#linear-gradient-5"/><linearGradient id="linear-gradient-37" x1="34.85" y1="8.26" x2="39.03" y2="8.26" gradientTransform="matrix(1, 0, 0, 1, 0, 0)" xlink:href="#linear-gradient-5"/><linearGradient id="linear-gradient-38" x1="11.92" y1="26.21" x2="35.91" y2="24.05" gradientTransform="matrix(1, 0, 0, 1, 0, 0)" xlink:href="#linear-gradient-5"/><linearGradient id="linear-gradient-39" x1="39.14" y1="32.04" x2="39.14" y2="9.72" gradientUnits="userSpaceOnUse"><stop offset="0" stop-color="#fed6b4"/><stop offset="0.32" stop-color="#f1af47"/><stop offset="0.67" stop-color="#ffd6a0"/><stop offset="0.98" stop-color="#a18a5a"/></linearGradient><linearGradient id="linear-gradient-40" x1="13.92" y1="32.12" x2="13.92" y2="9.73" xlink:href="#linear-gradient-39"/><linearGradient id="linear-gradient-41" x1="19.6" y1="32.12" x2="19.6" y2="9.73" xlink:href="#linear-gradient-39"/><linearGradient id="linear-gradient-42" x1="37.44" y1="32.12" x2="37.44" y2="9.74" xlink:href="#linear-gradient-39"/><linearGradient id="linear-gradient-43" x1="25.68" y1="32.1" x2="25.68" y2="9.76" xlink:href="#linear-gradient-39"/><linearGradient id="linear-gradient-44" x1="20.13" y1="32.13" x2="20.13" y2="9.73" xlink:href="#linear-gradient-39"/><linearGradient id="linear-gradient-45" x1="34.47" y1="32.12" x2="34.47" y2="9.73" xlink:href="#linear-gradient-39"/><linearGradient id="linear-gradient-46" x1="36.22" y1="32.12" x2="36.22" y2="9.74" xlink:href="#linear-gradient-39"/><linearGradient id="linear-gradient-47" x1="39.64" y1="32.13" x2="39.64" y2="9.72" xlink:href="#linear-gradient-39"/><linearGradient id="linear-gradient-48" x1="20.57" y1="32.3" x2="20.57" y2="9.49" xlink:href="#linear-gradient-39"/><linearGradient id="linear-gradient-49" x1="24.51" y1="32.12" x2="24.51" y2="9.73" xlink:href="#linear-gradient-39"/><linearGradient id="linear-gradient-50" x1="28.84" y1="32.14" x2="28.84" y2="9.73" xlink:href="#linear-gradient-39"/><linearGradient id="linear-gradient-51" x1="18.48" y1="32.12" x2="18.48" y2="9.73" xlink:href="#linear-gradient-39"/><linearGradient id="linear-gradient-52" x1="30.67" y1="32.11" x2="30.67" y2="9.73" xlink:href="#linear-gradient-39"/><linearGradient id="linear-gradient-53" x1="21.48" y1="32.12" x2="21.48" y2="9.73" xlink:href="#linear-gradient-39"/><linearGradient id="linear-gradient-54" x1="15.34" y1="32.15" x2="15.34" y2="9.7" xlink:href="#linear-gradient-39"/><linearGradient id="linear-gradient-55" x1="24.93" y1="32.13" x2="24.93" y2="9.71" xlink:href="#linear-gradient-39"/><linearGradient id="linear-gradient-56" x1="29.35" y1="4.18" x2="29.35" y2="12.38" gradientTransform="matrix(1, 0, 0, 1, 0, 0)" xlink:href="#linear-gradient-5"/><linearGradient id="linear-gradient-57" x1="27.04" y1="29.28" x2="27.04" y2="8.95" xlink:href="#linear-gradient-39"/><linearGradient id="linear-gradient-58" x1="27.04" y1="32.12" x2="27.04" y2="9.73" xlink:href="#linear-gradient-39"/><linearGradient id="linear-gradient-59" x1="17.05" y1="26.56" x2="17.05" y2="3.26" xlink:href="#linear-gradient-39"/><linearGradient id="linear-gradient-60" x1="22.95" y1="8.88" x2="22.95" y2="0.78" xlink:href="#linear-gradient-39"/><linearGradient id="linear-gradient-61" x1="139.42" y1="8.44" x2="139.4" y2="6.16" gradientTransform="matrix(-1, 0.05, 0.05, 1, 170.05, -5.39)" gradientUnits="userSpaceOnUse"><stop offset="0" stop-color="#fed6b4"/><stop offset="0.46" stop-color="#f16847"/><stop offset="1" stop-color="#931e21"/></linearGradient><linearGradient id="linear-gradient-62" x1="140.07" y1="8.44" x2="140.06" y2="6.15" xlink:href="#linear-gradient-61"/><linearGradient id="linear-gradient-63" x1="138.7" y1="4.25" x2="141.79" y2="9.66" gradientTransform="matrix(-1, 0.05, 0.05, 1, 170.05, -5.39)" gradientUnits="userSpaceOnUse"><stop offset="0" stop-color="#fed6b4"/><stop offset="0.46" stop-color="#f16847"/><stop offset="1" stop-color="#740808"/></linearGradient><linearGradient id="linear-gradient-64" x1="138.75" y1="3.9" x2="140" y2="8.65" gradientTransform="matrix(-1, 0.05, 0.05, 1, 170.05, -5.39)" gradientUnits="userSpaceOnUse"><stop offset="0" stop-color="#fff0d7"/><stop offset="0.94" stop-color="#f16847"/></linearGradient><linearGradient id="linear-gradient-65" x1="138.53" y1="4.71" x2="141.46" y2="10.96" xlink:href="#linear-gradient-64"/><linearGradient id="linear-gradient-66" x1="139.12" y1="6.29" x2="140.05" y2="9.48" xlink:href="#linear-gradient-64"/><linearGradient id="linear-gradient-67" x1="31.42" y1="7.61" x2="27.91" y2="6.05" gradientTransform="matrix(1, 0, 0, 1, 0, 0)" xlink:href="#linear-gradient-63"/><linearGradient id="linear-gradient-68" x1="27.27" y1="9.93" x2="27.26" y2="7.37" gradientTransform="matrix(1, 0, 0, 1, 0, 0)" xlink:href="#linear-gradient-61"/><linearGradient id="linear-gradient-69" x1="28" y1="9.92" x2="27.99" y2="7.37" gradientTransform="matrix(1, 0, 0, 1, 0, 0)" xlink:href="#linear-gradient-61"/><linearGradient id="linear-gradient-70" x1="26.47" y1="5.24" x2="29.92" y2="11.29" gradientTransform="matrix(1, 0, 0, 1, 0, 0)" xlink:href="#linear-gradient-63"/><linearGradient id="linear-gradient-71" x1="26.53" y1="4.84" x2="27.92" y2="10.15" gradientTransform="matrix(1, 0, 0, 1, 0, 0)" xlink:href="#linear-gradient-64"/><linearGradient id="linear-gradient-72" x1="26.28" y1="5.75" x2="29.55" y2="12.74" gradientTransform="matrix(1, 0, 0, 1, 0, 0)" xlink:href="#linear-gradient-64"/><linearGradient id="linear-gradient-73" x1="26.94" y1="7.52" x2="27.98" y2="11.09" gradientTransform="matrix(1, 0, 0, 1, 0, 0)" xlink:href="#linear-gradient-64"/><linearGradient id="linear-gradient-74" x1="27.27" y1="5.6" x2="26.9" y2="8.67" gradientTransform="matrix(1, 0, 0, 1, 0, 0)" xlink:href="#linear-gradient-63"/><linearGradient id="linear-gradient-75" x1="10.33" y1="8.47" x2="34.32" y2="6.32" gradientTransform="matrix(1, 0, 0, 1, 0, 0)" xlink:href="#linear-gradient-5"/><linearGradient id="linear-gradient-76" x1="33.01" y1="10.4" x2="37.94" y2="10.4" gradientTransform="matrix(1, 0, 0, 1, 0, 0)" xlink:href="#linear-gradient-5"/><linearGradient id="linear-gradient-77" x1="35.2" y1="32.11" x2="35.2" y2="9.73" xlink:href="#linear-gradient-39"/><linearGradient id="linear-gradient-78" x1="34.45" y1="32.12" x2="34.45" y2="9.73" xlink:href="#linear-gradient-39"/></defs><g class="cls-3"><g id="Layer_1" data-name="Layer 1"><g class="cls-4"><path class="cls-5" d="M52,22.17c0,4.63-10.53,8.4-23.53,8.4S5,26.8,5,22.17,15.5,13.76,28.5,13.76,52,17.53,52,22.17Z" transform="translate(-4.9 -4.93)"/></g><ellipse class="cls-6" cx="23.62" cy="15.16" rx="23.56" ry="8.63"/><path class="cls-7" d="M52,19.86c0,4.64-10.53,8.4-23.53,8.4S5,24.5,5,19.86s10.54-8.4,23.54-8.4S52,15.22,52,19.86Z" transform="translate(-4.9 -4.93)"/><ellipse class="cls-8" cx="23.95" cy="14.37" rx="19.43" ry="6.93"/><path class="cls-9" d="M47.38,19.62c0,3.65-8.3,6.61-18.53,6.61s-18.54-3-18.54-6.61S18.61,13,28.85,13,47.38,16,47.38,19.62Z" transform="translate(-4.9 -4.93)"/><path class="cls-10" d="M22.39,12.18S12.25,13.56,9.21,18a2.77,2.77,0,0,0,.46,3L5.58,21s-1.15-3.24,3.14-5.48,9.08-3.14,15.68-3.73Z" transform="translate(-4.9 -4.93)"/><path class="cls-11" d="M21,28.12A57.38,57.38,0,0,0,41.83,27S35,29.16,21,28.12Z" transform="translate(-4.9 -4.93)"/><path class="cls-12" d="M51.66,19.36s-.34-2-3.1-3.67h0s-.37-.19-1-.49c-.38-.18-.79-.35-1.24-.52h0a37.8,37.8,0,0,0-13.48-2.54S43,13.41,46.2,15.88l.33.21a4.71,4.71,0,0,1,1.86,2.18c.4,1.45,0,1.91,0,1.91Z" transform="translate(-4.9 -4.93)"/><g class="cls-13"><path class="cls-14" d="M36.2,18.93c-7.7-2.25-14.32.14-22,3.07a18.87,18.87,0,0,1-7,1.43c3.77,2.85,11.89,4.83,21.3,4.83,13,0,23.53-3.76,23.53-8.4a2.59,2.59,0,0,0,0-.48C47.77,20.53,43.28,21,36.2,18.93Z" transform="translate(-4.9 -4.93)"/></g><path class="cls-15" d="M40.31,26.18c7.55-2.55,8.14-5.59,8.14-5.59l3.09-.68s1,5.09-15.32,7.4Z" transform="translate(-4.9 -4.93)"/><path class="cls-16" d="M14.26,18.91s-1.24,0-.77.77a6.77,6.77,0,0,0,2.28,1.57s1.1.52.11.59-1.18-.18-1.91.22-1.4.52-.81.74,1-.44,1.91-.26,1.21.26,1.76-.22a.94.94,0,0,1,1.33-.07,2.39,2.39,0,0,0,1.65.58c.88,0,.29.41,1.14.37s.84-.15.88.44-.11,1.29,1.06,1,1.36-.55,2.13-.44,1.76-.33,1.54-.81a10.09,10.09,0,0,0,3.23.3l2.13-.08c.08,0-.47,1.11.77,1s2.28-1.17,3.2-.73a2.76,2.76,0,0,0,2.28.18c.95-.22,1.12.59,2.13.3s-.78-.67-1-1.25a.87.87,0,0,0-.73-.63s2.9-.4,3.74-1.47-1.28-1.9-1.54-1.87S14.26,18.91,14.26,18.91Z" transform="translate(-4.9 -4.93)"/><path class="cls-17" d="M16,18.07s-2.38.59-2.19,1.23,1.61,1.43,2.9,2.06a36.83,36.83,0,0,0,8.82,1.71A39.32,39.32,0,0,0,34.49,23c4.14-.45,6.86-1.46,7.63-2.06s-.51-1.28-1.07-1.68S16,18.07,16,18.07Z" transform="translate(-4.9 -4.93)"/><g class="cls-18"><path class="cls-19" d="M18.13,21.37a43.22,43.22,0,0,0,5,1.24,34,34,0,0,0,6.7.23c2.09-.3,3.55-.24,5.79-.62s3.33-.58,4.8-.86a3.54,3.54,0,0,0,1.92-.79l0-.06c0-.47-.87-.93-1.3-1.23s-25-1.21-25-1.21a5.85,5.85,0,0,0-2.1.93C14.1,19.62,15.85,20.8,18.13,21.37Z" transform="translate(-4.9 -4.93)"/></g><g class="cls-20"><path class="cls-21" d="M16.45,19.91c.28.13.58.22.86.34a3.15,3.15,0,0,1,.63.39,3.29,3.29,0,0,0,1.74.58,10.47,10.47,0,0,1,1.77.13c.55.14,1.06.41,1.61.55a12.68,12.68,0,0,0,3.48.24,29.62,29.62,0,0,0,3.64-.31c.62-.09,1.25-.19,1.88-.23s1.18,0,1.77,0A9.69,9.69,0,0,0,37.54,21a7.43,7.43,0,0,1,1.51-.5,4.81,4.81,0,0,0,1.3-.35,4.38,4.38,0,0,0,.91-.76l-.21-.14c-.56-.39-25-1.21-25-1.21a9.37,9.37,0,0,0-1.49.52A5.74,5.74,0,0,0,16.45,19.91Z" transform="translate(-4.9 -4.93)"/></g><path class="cls-22" d="M16,15.11s-2.4,1.13-2.7,1.91,1,1.18,1.86,1.64a29.57,29.57,0,0,0,4.7,1.91,51.21,51.21,0,0,0,6.42.44,68.92,68.92,0,0,0,9.32-.32c2.57-.32,4.9-.54,6.24-1.56s1.15-1.33.27-1.89S41,15.92,40,15.77,16,15.11,16,15.11Z" transform="translate(-4.9 -4.93)"/><g class="cls-23"><path class="cls-24" d="M15,17.85c2.18.54,1.86,1.1,4.65,1.74a22.93,22.93,0,0,0,3.6.73,20.73,20.73,0,0,0,4.62,0c2.33-.15,3.41-.1,5.54-.2s1.37-.49,3.42-.39,3-.56,4.51-.88,1.44-1.05,1.44-1.14a2.22,2.22,0,0,0-.61-.5c-.88-.56-1.13-1.32-2.18-1.47s-23.94-.66-23.94-.66-2.4,1.13-2.69,1.91l0,.08A3.33,3.33,0,0,0,15,17.85Z" transform="translate(-4.9 -4.93)"/></g><g class="cls-20"><path class="cls-25" d="M17,16.75a25,25,0,0,1,2.9,1.41,11.42,11.42,0,0,0,1.73.5c.64.16,1.27.31,1.91.44a9.66,9.66,0,0,0,1.85.31,14.47,14.47,0,0,0,2-.21c.65-.07,1.3-.11,1.94-.21s1.15-.31,1.73-.39a4.08,4.08,0,0,1,1.66.23,5.5,5.5,0,0,0,1.8.23,9.91,9.91,0,0,0,3.35-.81,17.3,17.3,0,0,0,1.66-.85,5.46,5.46,0,0,1,1.11-.55c.26-.08.57-.15.87-.25A2.42,2.42,0,0,0,40,15.77c-1.05-.14-23.94-.66-23.94-.66s-.49.23-1,.55A3.41,3.41,0,0,0,17,16.75Z" transform="translate(-4.9 -4.93)"/></g><path class="cls-26" d="M16.42,13.25s-2,1-1.94,1.54.74,1.15,2.06,1.37,2.81,1,4,1.25A28.24,28.24,0,0,0,26,18.2c1.57-.05,3.75-.05,5-.18s4.23.2,7-.63,4.11-1.08,4.65-1.67-.39-1-1.88-1.54S16.42,13.25,16.42,13.25Z" transform="translate(-4.9 -4.93)"/><g class="cls-27"><path class="cls-28" d="M40.8,14.18c-1.5-.56-24.38-.93-24.38-.93a6.82,6.82,0,0,0-1.88,1.35c.35.77,3,1.7,5,1.91s3.16.78,5.21,1a13.67,13.67,0,0,0,4.95-.1,15.77,15.77,0,0,1,4-.17A14.18,14.18,0,0,0,38,16.56c1.74-.42,3.38-.47,3.82-.79a2.62,2.62,0,0,1,1-.39C42.81,15,42,14.63,40.8,14.18Z" transform="translate(-4.9 -4.93)"/></g><g class="cls-27"><path class="cls-29" d="M15.75,14.47a3.54,3.54,0,0,0,1,.34c.33.07.68.07,1,.13a7.38,7.38,0,0,1,1.44.48,6,6,0,0,0,.82.26,7.83,7.83,0,0,0,.83.1c1.22.15,2.37.61,3.57.83a17.47,17.47,0,0,0,3.82.21A31.52,31.52,0,0,0,32,16.66a4.7,4.7,0,0,0,1-.25c.26-.1.51-.2.77-.28a3,3,0,0,1,.9-.1,4.41,4.41,0,0,0,1,0,5.84,5.84,0,0,0,1.46-.72,3.17,3.17,0,0,1,1.54-.35,4.31,4.31,0,0,0,.95,0,5.08,5.08,0,0,0,.74-.2,9.76,9.76,0,0,1,1-.32l-.53-.2c-1.5-.56-24.38-.93-24.38-.93a11.9,11.9,0,0,0-1.23.74A1.73,1.73,0,0,0,15.75,14.47Z" transform="translate(-4.9 -4.93)"/></g><path class="cls-30" d="M16.83,10.57s-2.79.88-2.9,1.76,1.62,1.4,2.1,1.77a5.7,5.7,0,0,0,2.42.84,18.15,18.15,0,0,1,3.38.51,19.38,19.38,0,0,0,4.73.48c1.25.07,5.22-.29,6.5-.29a44.72,44.72,0,0,0,6-.66c1.8-.33,4.15-1.22,3.82-2.06a5.06,5.06,0,0,0-3.16-2.13C38.57,10.57,16.83,10.57,16.83,10.57Z" transform="translate(-4.9 -4.93)"/><path class="cls-31" d="M16.83,10.57s-2.79.88-2.9,1.76,1.62,1.4,2.1,1.77a5.7,5.7,0,0,0,2.42.84,18.15,18.15,0,0,1,3.38.51,19.38,19.38,0,0,0,4.73.48c1.25.07,5.22-.29,6.5-.29a44.72,44.72,0,0,0,6-.66c1.8-.33,4.15-1.22,3.82-2.06a5.06,5.06,0,0,0-3.16-2.13C38.57,10.57,16.83,10.57,16.83,10.57Z" transform="translate(-4.9 -4.93)"/><g class="cls-23"><path class="cls-32" d="M39.74,10.79c-1.17-.22-22.91-.22-22.91-.22s-2.48.79-2.85,1.61a.93.93,0,0,0,.65.73c.64.22,2.28.68,3.16.95a21.23,21.23,0,0,0,3,.61,34.22,34.22,0,0,0,3.48.37c1.35.08,4.06.05,5.48.05s3.31-.22,4.85-.22a20,20,0,0,0,4.85-.61c1.61-.41,3.25-.65,3.5-1a.39.39,0,0,0,0-.14A5.06,5.06,0,0,0,39.74,10.79Z" transform="translate(-4.9 -4.93)"/></g><g class="cls-33"><path class="cls-34" d="M15,11.45a.57.57,0,0,0,.31.28,4,4,0,0,0,1.23.33c.43.06.87.09,1.3.13a5.8,5.8,0,0,1,.6.06,6.28,6.28,0,0,1,1.32.53,9.29,9.29,0,0,0,3.72.7c1.24,0,2.49-.06,3.72.09a13.34,13.34,0,0,1,1.64.36,3.21,3.21,0,0,0,1.51.09c.58-.13,1.1-.45,1.68-.59a7.45,7.45,0,0,1,1.64-.22c.58,0,1.17,0,1.75,0a6.13,6.13,0,0,0,1.85-.31c.57-.18,1.12-.41,1.68-.61s1-.28,1.53-.46a5.62,5.62,0,0,0,.86-.39,5.22,5.22,0,0,0-1.57-.63c-1.17-.22-22.91-.22-22.91-.22a12.35,12.35,0,0,0-1.88.79A.37.37,0,0,0,15,11.45Z" transform="translate(-4.9 -4.93)"/></g><path class="cls-35" d="M28.14,6.53l-.14,0c-.61.12-3,.58-4.15.71a36.07,36.07,0,0,0-5.29,1.1c-.92.33-2.35.37-3,1.36s.41,1.28,1.73,1.61,3.23.55,4.59.85,5.25-.08,6.9.07A57.32,57.32,0,0,0,35.82,12c1.87-.15,5-.59,5.83-1.32s.77-1-1-1.88S35.12,7.34,33,6.9A19.65,19.65,0,0,0,28.14,6.53Z" transform="translate(-4.9 -4.93)"/><g class="cls-27"><path class="cls-36" d="M40.66,8.84C38.9,8,35.12,7.34,33,6.9a19.65,19.65,0,0,0-4.89-.37l-.14,0c-.61.12-3,.58-4.15.71a36.07,36.07,0,0,0-5.29,1.1c-.92.33-2.35.37-3,1.36a.81.81,0,0,0-.2.64c.5.49,1.78.59,2.77.75a28.47,28.47,0,0,0,4.75.39,56.88,56.88,0,0,1,5.8.17,36.88,36.88,0,0,0,4.7,0c1.74,0,2.72-.49,5.68-.64,2-.09,2.75-.46,3-.69C42.43,9.85,42.08,9.53,40.66,8.84Z" transform="translate(-4.9 -4.93)"/></g><path class="cls-37" d="M25.92,11.67s-1.47,0-2.42,0a23.34,23.34,0,0,1-3.29-.22c-1.34-.11-1.91-.18-1.6-.08s2.35.35,2.85.5a10,10,0,0,0,3.14.24c1.67-.07,3.71-.18,4.44-.09S28.51,11.71,25.92,11.67Z" transform="translate(-4.9 -4.93)"/><path class="cls-37" d="M39.67,11.25s-.77,0-1.6,0a27.73,27.73,0,0,0-2.86.35c-1.32.2-2.5.26-3.05.31s0,.15,1.12.09,3.49-.35,4.52-.42A6.19,6.19,0,0,0,39.67,11.25Z" transform="translate(-4.9 -4.93)"/><path class="cls-38" d="M17.91,14s-1.13-.29-1.71-.39,0,.12.36.42a4.82,4.82,0,0,0,2.53.78c1.17.05,1.73.22,2.2.2s.51-.3-.34-.37A14.6,14.6,0,0,1,17.91,14Z" transform="translate(-4.9 -4.93)"/><path class="cls-38" d="M23.15,14.94s-1-.12-.88.22,1.74.49,3.4.44a31.47,31.47,0,0,0,4.19-.12c1.78-.25,2.27,0,3.89-.17s1.56-.35.66-.42A18.4,18.4,0,0,0,31,15a28.61,28.61,0,0,1-6,.19Z" transform="translate(-4.9 -4.93)"/><path class="cls-38" d="M40.55,14.11h-.12a14.19,14.19,0,0,0-1.89.38c-.78.24-2.08.17-2.17.39s1.69-.05,3-.24S42.09,14.21,40.55,14.11Z" transform="translate(-4.9 -4.93)"/><path class="cls-38" d="M39.62,16.48a5,5,0,0,0-2.1.37c-1.28.46-2.55.39-2.4.71s1.64-.1,2.71-.34S40.14,16.65,39.62,16.48Z" transform="translate(-4.9 -4.93)"/><path class="cls-38" d="M31.89,17.44a9.79,9.79,0,0,0-1.59.17c-.93.17-2.75.1-2.5.29s2.13-.22,3.21-.15a10.32,10.32,0,0,0,3,0C34.24,17.51,31.89,17.44,31.89,17.44Z" transform="translate(-4.9 -4.93)"/><path class="cls-38" d="M23.91,17.63s-1.62-.36-2.65-.66-2.05-.41-1.76-.12a12.15,12.15,0,0,0,2.6.66C22.83,17.71,24.47,17.93,23.91,17.63Z" transform="translate(-4.9 -4.93)"/><path class="cls-38" d="M16,18.39a2.39,2.39,0,0,0-1-.17c-.27.1.93.44,1.57.78s2.05.81,2.67,1.1a5,5,0,0,0,2.74.47c1-.17-1-.49-2.18-.76a20.5,20.5,0,0,1-2.77-.93A4.25,4.25,0,0,1,16,18.39Z" transform="translate(-4.9 -4.93)"/><path class="cls-38" d="M29.34,20.37s-2.2.05-1.91.27a17,17,0,0,0,4.48.13c2.08-.1,3.11-.4,3.94-.37a5.78,5.78,0,0,0,2.25-.25c0-.17-1.1-.29-2.1-.24s-1,.34-2.38.41S29.34,20.37,29.34,20.37Z" transform="translate(-4.9 -4.93)"/><path class="cls-38" d="M41.51,19.05a9.49,9.49,0,0,0-1.57.37c-.71.24-1.37.54-.76.49S42.14,19.17,41.51,19.05Z" transform="translate(-4.9 -4.93)"/><path class="cls-37" d="M33.18,22.63c-.27,0-1.46.17-1.95.19s-1.55.2-1.23.27.91-.05,2.18-.07,2.42-.25,3-.3,1-.19,1.74-.22a7.34,7.34,0,0,0,2.35-.58c.2-.18-.83,0-1.84.09A31.38,31.38,0,0,1,33.18,22.63Z" transform="translate(-4.9 -4.93)"/><g class="cls-39"><path class="cls-11" d="M23.49,19.49s0-.22-.29,0-.2.3.07.3S23.61,19.66,23.49,19.49Z" transform="translate(-4.9 -4.93)"/><path class="cls-11" d="M24.25,19.88s-.1-.12-.22,0S24.32,20.15,24.25,19.88Z" transform="translate(-4.9 -4.93)"/><path class="cls-11" d="M25.27,19.84s.06.14.21,0,.1-.23-.08-.2S25.17,19.73,25.27,19.84Z" transform="translate(-4.9 -4.93)"/><path class="cls-11" d="M24.76,19.1s0,.12.12.11.18-.07.06-.15S24.76,19,24.76,19.1Z" transform="translate(-4.9 -4.93)"/><path class="cls-11" d="M24.34,19.44s.07.07.14,0S24.26,19.27,24.34,19.44Z" transform="translate(-4.9 -4.93)"/></g><g class="cls-39"><path class="cls-11" d="M39,9.82s-.05-.22-.3-.05-.19.3.08.3S39.08,10,39,9.82Z" transform="translate(-4.9 -4.93)"/><path class="cls-11" d="M39.71,10.21s-.09-.12-.22,0S39.79,10.48,39.71,10.21Z" transform="translate(-4.9 -4.93)"/><path class="cls-11" d="M40.74,10.17s0,.14.2,0,.11-.23-.08-.2S40.63,10.06,40.74,10.17Z" transform="translate(-4.9 -4.93)"/><path class="cls-11" d="M40.23,9.43s0,.12.12.11.17-.07,0-.15S40.22,9.32,40.23,9.43Z" transform="translate(-4.9 -4.93)"/><path class="cls-11" d="M39.8,9.77s.08.07.14,0S39.73,9.6,39.8,9.77Z" transform="translate(-4.9 -4.93)"/></g><g class="cls-40"><path class="cls-11" d="M16.22,9.58s-.07-.12-.18,0,0,.21.1.15S16.33,9.65,16.22,9.58Z" transform="translate(-4.9 -4.93)"/><path class="cls-11" d="M16.74,9.65s-.08-.05-.13.06S16.83,9.8,16.74,9.65Z" transform="translate(-4.9 -4.93)"/><path class="cls-11" d="M17.32,9.43s.06.07.12,0,0-.15-.08-.1S17.24,9.39,17.32,9.43Z" transform="translate(-4.9 -4.93)"/><path class="cls-11" d="M16.88,9.1s0,.08.09,0,.09-.07,0-.1S16.86,9,16.88,9.1Z" transform="translate(-4.9 -4.93)"/><path class="cls-11" d="M16.7,9.38s.06,0,.08-.05S16.63,9.3,16.7,9.38Z" transform="translate(-4.9 -4.93)"/></g><g class="cls-40"><path class="cls-11" d="M20.66,8.37s0-.14-.18,0-.1.19.07.17S20.75,8.46,20.66,8.37Z" transform="translate(-4.9 -4.93)"/><path class="cls-11" d="M21.15,8.55s-.07-.07-.13,0S21.22,8.71,21.15,8.55Z" transform="translate(-4.9 -4.93)"/><path class="cls-11" d="M21.77,8.45s.05.09.13,0,.05-.14-.07-.11S21.7,8.4,21.77,8.45Z" transform="translate(-4.9 -4.93)"/><path class="cls-11" d="M21.41,8s0,.07.08.06.1-.06,0-.1S21.4,8,21.41,8Z" transform="translate(-4.9 -4.93)"/><path class="cls-11" d="M21.18,8.28s.05,0,.08,0S21.12,8.18,21.18,8.28Z" transform="translate(-4.9 -4.93)"/></g><g class="cls-41"><path class="cls-11" d="M21.4,13.51s0-.22-.29,0-.2.29.07.29S21.53,13.68,21.4,13.51Z" transform="translate(-4.9 -4.93)"/><path class="cls-11" d="M22.16,13.89s-.09-.12-.22,0S22.24,14.16,22.16,13.89Z" transform="translate(-4.9 -4.93)"/><path class="cls-11" d="M23.18,13.85s.06.15.21,0,.11-.22-.08-.19S23.08,13.75,23.18,13.85Z" transform="translate(-4.9 -4.93)"/><path class="cls-11" d="M22.68,13.12s-.05.11.11.11.18-.08.06-.16S22.67,13,22.68,13.12Z" transform="translate(-4.9 -4.93)"/><path class="cls-11" d="M22.25,13.45a.09.09,0,0,0,.14,0C22.46,13.31,22.18,13.29,22.25,13.45Z" transform="translate(-4.9 -4.93)"/></g><g class="cls-39"><path class="cls-11" d="M34.23,13.85s0,.16.2.1S34.31,13.58,34.23,13.85Z" transform="translate(-4.9 -4.93)"/><path class="cls-11" d="M33.34,13.35s0-.16-.17-.12-.21.14,0,.21S33.37,13.49,33.34,13.35Z" transform="translate(-4.9 -4.93)"/><path class="cls-11" d="M33.38,14.24s.1-.08,0-.16-.19,0-.13.1S33.33,14.34,33.38,14.24Z" transform="translate(-4.9 -4.93)"/><path class="cls-11" d="M33.92,14.18a.09.09,0,0,0-.14,0C33.67,14.19,33.9,14.36,33.92,14.18Z" transform="translate(-4.9 -4.93)"/></g><g class="cls-39"><path class="cls-11" d="M21.67,21.89s0,.14.18.06.16-.15,0-.19S21.62,21.76,21.67,21.89Z" transform="translate(-4.9 -4.93)"/><path class="cls-11" d="M21.26,21.54s0,.09.14,0S21.25,21.37,21.26,21.54Z" transform="translate(-4.9 -4.93)"/><path class="cls-11" d="M20.62,21.43s0-.1-.13,0-.09.13,0,.13S20.67,21.51,20.62,21.43Z" transform="translate(-4.9 -4.93)"/><path class="cls-11" d="M20.83,22s.05-.06,0-.08-.12,0-.06.09S20.82,22,20.83,22Z" transform="translate(-4.9 -4.93)"/><path class="cls-11" d="M21.14,21.8s0-.05-.09,0S21.17,21.92,21.14,21.8Z" transform="translate(-4.9 -4.93)"/></g><g class="cls-39"><path class="cls-11" d="M32.55,22.06s0,.15.17.07.16-.15,0-.19S32.5,21.94,32.55,22.06Z" transform="translate(-4.9 -4.93)"/><path class="cls-11" d="M32.13,21.72a.09.09,0,0,0,.14,0C32.37,21.66,32.12,21.55,32.13,21.72Z" transform="translate(-4.9 -4.93)"/><path class="cls-11" d="M31.5,21.61s0-.1-.13,0-.1.12,0,.13S31.55,21.69,31.5,21.61Z" transform="translate(-4.9 -4.93)"/><path class="cls-11" d="M31.71,22.13s0-.06-.06-.08-.12,0,0,.09S31.7,22.2,31.71,22.13Z" transform="translate(-4.9 -4.93)"/><path class="cls-11" d="M32,22s0-.05-.09,0S32,22.09,32,22Z" transform="translate(-4.9 -4.93)"/></g><g class="cls-39"><path class="cls-11" d="M41.4,20.72s0,.14.17.07.16-.16,0-.2S41.35,20.59,41.4,20.72Z" transform="translate(-4.9 -4.93)"/><path class="cls-11" d="M40.08,20.59s0,.09.14,0S40.07,20.42,40.08,20.59Z" transform="translate(-4.9 -4.93)"/><path class="cls-11" d="M39.44,20.48s0-.1-.13,0-.09.13,0,.13S39.49,20.56,39.44,20.48Z" transform="translate(-4.9 -4.93)"/><path class="cls-11" d="M39.66,21s0-.06-.06-.08-.12,0-.06.09S39.64,21.08,39.66,21Z" transform="translate(-4.9 -4.93)"/><path class="cls-11" d="M40,20.85s0-.05-.09,0S40,21,40,20.85Z" transform="translate(-4.9 -4.93)"/></g><g class="cls-39"><path class="cls-11" d="M40.66,17.73s.05.22.3.05.21-.3-.07-.3S40.54,17.55,40.66,17.73Z" transform="translate(-4.9 -4.93)"/><path class="cls-11" d="M38.12,17.91s.1.12.23,0S38.05,17.63,38.12,17.91Z" transform="translate(-4.9 -4.93)"/><path class="cls-11" d="M40,18.32s-.06-.15-.21,0-.11.23.08.2S40.12,18.43,40,18.32Z" transform="translate(-4.9 -4.93)"/><path class="cls-11" d="M38.05,19s.05-.11-.12-.11-.18.07-.06.16S38.05,19.13,38.05,19Z" transform="translate(-4.9 -4.93)"/><path class="cls-11" d="M38.49,18.67s-.08-.07-.14,0S38.56,18.85,38.49,18.67Z" transform="translate(-4.9 -4.93)"/></g><g class="cls-39"><path class="cls-11" d="M39.77,15.8s0,.23.3.06.21-.3-.07-.31S39.65,15.62,39.77,15.8Z" transform="translate(-4.9 -4.93)"/><path class="cls-11" d="M39,15.39s.1.13.23,0S38.93,15.12,39,15.39Z" transform="translate(-4.9 -4.93)"/><path class="cls-11" d="M38,15.42s-.06-.15-.21,0-.12.23.08.21S38.05,15.53,38,15.42Z" transform="translate(-4.9 -4.93)"/><path class="cls-11" d="M38.46,16.18s0-.11-.12-.11-.18.07-.06.16S38.46,16.3,38.46,16.18Z" transform="translate(-4.9 -4.93)"/><path class="cls-11" d="M38.9,15.84s-.08-.07-.14,0S39,16,38.9,15.84Z" transform="translate(-4.9 -4.93)"/></g><g class="cls-39"><path class="cls-11" d="M34.53,19.51s0,.18.24,0,.16-.24-.06-.24S34.43,19.36,34.53,19.51Z" transform="translate(-4.9 -4.93)"/><path class="cls-11" d="M33.09,19.2s-.05-.12-.17,0-.09.18.06.16S33.17,19.29,33.09,19.2Z" transform="translate(-4.9 -4.93)"/><path class="cls-11" d="M33.84,19.54s-.06-.06-.11,0S33.9,19.67,33.84,19.54Z" transform="translate(-4.9 -4.93)"/></g><g class="cls-40"><path class="cls-11" d="M15.59,16.73s.07.14.22,0S15.57,16.45,15.59,16.73Z" transform="translate(-4.9 -4.93)"/><path class="cls-11" d="M14.58,16.56s0-.16-.2,0-.15.2,0,.21S14.66,16.68,14.58,16.56Z" transform="translate(-4.9 -4.93)"/><path class="cls-11" d="M14.92,17.38s.07-.1-.09-.13-.19,0-.09.14S14.9,17.49,14.92,17.38Z" transform="translate(-4.9 -4.93)"/></g><g class="cls-40"><path class="cls-11" d="M15.8,14.57s0,.07.11,0S15.79,14.43,15.8,14.57Z" transform="translate(-4.9 -4.93)"/><path class="cls-11" d="M15.28,14.48s0-.08-.1,0-.08.1,0,.1S15.32,14.54,15.28,14.48Z" transform="translate(-4.9 -4.93)"/><path class="cls-11" d="M15.46,14.9s0-.05-.05-.07-.1,0-.05.07S15.45,15,15.46,14.9Z" transform="translate(-4.9 -4.93)"/></g><g class="cls-40"><path class="cls-11" d="M15.49,12a.1.1,0,0,0,.15,0C15.74,11.92,15.48,11.79,15.49,12Z" transform="translate(-4.9 -4.93)"/><path class="cls-11" d="M14.82,11.86s0-.1-.13,0-.11.13,0,.14S14.87,12,14.82,11.86Z" transform="translate(-4.9 -4.93)"/><path class="cls-11" d="M15.05,12.41s0-.06-.06-.08-.13,0-.06.09S15,12.49,15.05,12.41Z" transform="translate(-4.9 -4.93)"/></g><path class="cls-42" d="M23,21.18c.39-.27.13-.64.28-1.1s.46-1.16.26-1.58,0-.66-.13-1-.07-.7.42-1.16,0-.59.31-1.06.55-.41,0-1.44.3-1.1.24-2,.55-1,.87-1.13,1.17-.5,1.37-.87-.36-.44-1-.62a1.81,1.81,0,0,1-1.08-.63.18.18,0,0,0-.12-.08l-.1,0c-.49.27.06.4-.93.55s-.39.09-1.71,1a1.89,1.89,0,0,1-1.17.42,2.7,2.7,0,0,1-.58-.08.47.47,0,0,0-.25.18c-.44.53-.61.47-1.07.95s.08.73-.24,1.91.24,1.12-.22,2.57-.07,1.36-.4,2.66.09,1.07.44,2,.37,1.2,1.16,1.34.7.44,1.14.47h.05a1.4,1.4,0,0,1,.29,0,6.75,6.75,0,0,1,1.53.23C22.63,22.61,22.61,21.43,23,21.18Z" transform="translate(-4.9 -4.93)"/><path class="cls-43" d="M26.23,23.48c-.06.39-.48.6-.95.62.52,0,1-.19,1.1-.62s-.08-.37-.34-.35C26.2,23.15,26.27,23.23,26.23,23.48Z" transform="translate(-4.9 -4.93)"/><path class="cls-44" d="M31.59,9.52l-.22,0a1.55,1.55,0,0,0,.37,0,2.94,2.94,0,0,1,.61-.11A2.45,2.45,0,0,0,31.59,9.52Z" transform="translate(-4.9 -4.93)"/><path class="cls-45" d="M37.45,7.71l-.09,0a9.36,9.36,0,0,0-1.16-.13c.33,0,.66.09,1,.13A1.06,1.06,0,0,0,37.45,7.71Z" transform="translate(-4.9 -4.93)"/><path class="cls-46" d="M19.79,22.67H20A1.89,1.89,0,0,0,19.79,22.67Z" transform="translate(-4.9 -4.93)"/><path class="cls-47" d="M16.36,22.08a1,1,0,0,1-.56.19,1.13,1.13,0,0,0,.7-.19,1.85,1.85,0,0,1,.67-.41C16.9,21.63,16.74,21.79,16.36,22.08Z" transform="translate(-4.9 -4.93)"/><path class="cls-48" d="M15.1,21.33h0Z" transform="translate(-4.9 -4.93)"/><path class="cls-49" d="M23.25,24.44a2.09,2.09,0,0,1-.32,0,1.61,1.61,0,0,0,.46,0c.79-.2.92-.39,1.19-.42C24.19,24,24.16,24.21,23.25,24.44Z" transform="translate(-4.9 -4.93)"/><path class="cls-50" d="M14.62,22.21c-.61,0-.92.42-1.3.46.45.06.76-.42,1.45-.46h-.15Z" transform="translate(-4.9 -4.93)"/><path class="cls-51" d="M33.75,24.07a2.93,2.93,0,0,1-.81.17,2.76,2.76,0,0,0,1-.17,8.77,8.77,0,0,1,1.51-.49C35,23.55,34.77,23.73,33.75,24.07Z" transform="translate(-4.9 -4.93)"/><path class="cls-52" d="M20.74,22.5a7.76,7.76,0,0,1,1.42.24.14.14,0,0,0,.11,0A6.75,6.75,0,0,0,20.74,22.5Z" transform="translate(-4.9 -4.93)"/><path class="cls-53" d="M39.34,23.13a1.3,1.3,0,0,0-1.2-.47,1.2,1.2,0,0,1,1,.47c.33.49,2.37.1,2.08.79a.7.7,0,0,1-.66.47.74.74,0,0,0,.81-.47C41.7,23.23,39.67,23.62,39.34,23.13Z" transform="translate(-4.9 -4.93)"/><path class="cls-54" d="M39.4,8.32l-.13,0v0Z" transform="translate(-4.9 -4.93)"/><path class="cls-55" d="M27.64,10A3.8,3.8,0,0,1,26,11c-.46.17-.46.28-.48.55s-.28.57-.53,1,.05,1.19.23,1.82A1.54,1.54,0,0,1,24.86,16a2,2,0,0,0-.52,1.63c0,.94-.27.46-.18,1.62a3.66,3.66,0,0,1-.3,2.4c-.39.66-.52,1.25.17,1.26s.69.37,1.28.33h0c-.45,0-.51-.32-1.13-.33s-.57-.6-.17-1.26a3.66,3.66,0,0,0,.3-2.4c-.1-1.16.2-.68.18-1.62A2,2,0,0,1,25,16a1.55,1.55,0,0,0,.35-1.56c-.18-.63-.49-1.38-.24-1.82s.52-.73.54-1,0-.38.47-.55a3.83,3.83,0,0,0,1.67-1,1.21,1.21,0,0,1,.71-.56C28.25,9.41,28,9.58,27.64,10Z" transform="translate(-4.9 -4.93)"/><path class="cls-56" d="M29.7,9.29a.6.6,0,0,1-.52.32.64.64,0,0,0,.66-.32A.2.2,0,0,1,30,9.18C29.84,9.16,29.75,9.18,29.7,9.29Z" transform="translate(-4.9 -4.93)"/><path class="cls-57" d="M37,17.21c.16-.28.35-.53.5-.81a2.13,2.13,0,0,0,0-1.45,2.15,2.15,0,0,1-.1-.76,1.64,1.64,0,0,1,0-.32,2.39,2.39,0,0,1,.09-.66A2.8,2.8,0,0,0,37.28,15a2.19,2.19,0,0,1-.18,1.95A1.58,1.58,0,0,0,37,17.21Z" transform="translate(-4.9 -4.93)"/><path class="cls-58" d="M36.29,22.14c.1-.16.22-.31.33-.46.33-.71.45-.62.33-1.33a5,5,0,0,1-.13-.93s0-.06,0-.09,0-.24,0-.36a2.54,2.54,0,0,0,.06,1.38c.13.81,0,.57-.48,1.68A.49.49,0,0,0,36.29,22.14Z" transform="translate(-4.9 -4.93)"/><path class="cls-59" d="M21.59,10.11c1.32-.9.71-.84,1.71-1s.44-.28.93-.55l.1,0a.36.36,0,0,0-.25,0c-.49.27.06.4-.93.55s-.39.09-1.71,1a2.07,2.07,0,0,1-1,.42A1.89,1.89,0,0,0,21.59,10.11Z" transform="translate(-4.9 -4.93)"/><path class="cls-60" d="M18.1,20.7c-.35-.91-.77-.67-.44-2s-.06-1.21.4-2.66-.09-1.4.22-2.57-.22-1.43.24-1.91.63-.42,1.07-.95a.47.47,0,0,1,.25-.18.4.4,0,0,0-.4.18c-.44.53-.61.47-1.06.95s.07.73-.24,1.91.24,1.12-.22,2.57-.08,1.36-.41,2.66.09,1.07.44,2,.37,1.2,1.16,1.34.7.5,1.29.47c-.44,0-.44-.34-1.14-.47S18.45,21.62,18.1,20.7Z" transform="translate(-4.9 -4.93)"/><path class="cls-61" d="M37.83,8c-.13.07-1,0-1.7.06s-.83.36-1.28.39c.56,0,.76-.25,1.44-.28s1.65,0,1.79,0a3.79,3.79,0,0,1,1,.08A4.5,4.5,0,0,0,37.83,8Z" transform="translate(-4.9 -4.93)"/><path class="cls-62" d="M37.76,23.89A4,4,0,0,1,37,24a3.18,3.18,0,0,0,.87-.11,3,3,0,0,1,.76-.13A2.8,2.8,0,0,0,37.76,23.89Z" transform="translate(-4.9 -4.93)"/><path class="cls-63" d="M39.25,8.32v0l-.23,0Z" transform="translate(-4.9 -4.93)"/><path class="cls-64" d="M13.82,21.51a3.3,3.3,0,0,1,1.25-.18,3.65,3.65,0,0,0-1.39.18c-1,.39-1.13,1-.62,1.14a.6.6,0,0,0,.26,0l-.11,0C12.7,22.49,12.84,21.9,13.82,21.51Z" transform="translate(-4.9 -4.93)"/><path class="cls-65" d="M24,8.05l0,0a9.35,9.35,0,0,1-2.68,1.15c-.76.2-2.31.15-2.82.54s-.11.63-.69,1-.87.46-.73,1.54,0,1-.33,1.53,0,.88.08,1.33a3,3,0,0,1-.13,1.56,2.31,2.31,0,0,0-.42,1.88,2.89,2.89,0,0,1-.13,2.46,1.32,1.32,0,0,1-1,.25c.48,0,.89,0,1.13-.25a2.89,2.89,0,0,0,.14-2.46,2.35,2.35,0,0,1,.41-1.88,3,3,0,0,0,.14-1.56c-.09-.45-.4-.77-.09-1.33s.47-.45.33-1.53.16-1.15.74-1.54.17-.63.68-1,2.07-.34,2.83-.54a9.35,9.35,0,0,0,2.68-1.15h0Z" transform="translate(-4.9 -4.93)"/><path class="cls-66" d="M37.68,22.7l.46,0a4.26,4.26,0,0,0-.61,0c-.25,0-.55.1-.8.11A5.55,5.55,0,0,0,37.68,22.7Z" transform="translate(-4.9 -4.93)"/><path class="cls-67" d="M25.46,23.19l.58-.06a6.17,6.17,0,0,0-.73.06Z" transform="translate(-4.9 -4.93)"/><path class="cls-68" d="M20.42,10.53a3,3,0,0,0-.58-.08A2.7,2.7,0,0,0,20.42,10.53Z" transform="translate(-4.9 -4.93)"/><path class="cls-69" d="M32.34,23.41c.26-.59,1.4-.3,2-.48a4.25,4.25,0,0,1,1-.15.61.61,0,0,0,.47-.91A1.67,1.67,0,0,1,36,20.46,1.08,1.08,0,0,0,36,19.24c-.23-.59.51-1.12.48-1.53a1.89,1.89,0,0,1,.23-1c.16-.39,0-.43-.14-1.08s0-.89.17-1.52,0-.71-.28-1.23.06-1.06.16-1.53-.76-.69-1.52-.85a9.27,9.27,0,0,1-1.81-.88,2.06,2.06,0,0,0-1-.23,2.34,2.34,0,0,1,.81.23,9.56,9.56,0,0,0,1.81.88c.76.16,1.62.37,1.52.85s-.41,1-.16,1.53.42.61.28,1.23-.35.87-.17,1.52.31.69.15,1.08a1.9,1.9,0,0,0-.24,1c0,.41-.71.94-.47,1.53a1.12,1.12,0,0,1-.06,1.22,1.6,1.6,0,0,0-.16,1.41.62.62,0,0,1-.48.91,4.25,4.25,0,0,0-1,.15c-.57.18-1.71-.11-2,.48s0,.86.75.83C32.34,24.21,32.16,23.82,32.34,23.41Z" transform="translate(-4.9 -4.93)"/><path class="cls-70" d="M35.4,23.58a1.77,1.77,0,0,1,.39.09A3.13,3.13,0,0,0,37,24a3.75,3.75,0,0,1-1.1-.33A1.29,1.29,0,0,0,35.4,23.58Z" transform="translate(-4.9 -4.93)"/><path class="cls-71" d="M38.67,23.76c.35,0,.51.17.89.36a2.11,2.11,0,0,0,1,.27,2.24,2.24,0,0,1-.9-.27C39.28,23.9,39.13,23.73,38.67,23.76Z" transform="translate(-4.9 -4.93)"/><path class="cls-72" d="M20.45,22.5h.29A1.4,1.4,0,0,0,20.45,22.5Z" transform="translate(-4.9 -4.93)"/><path class="cls-73" d="M25.68,9.25a1.81,1.81,0,0,1-1.08-.63.25.25,0,0,0-.27-.08.18.18,0,0,1,.12.08,1.81,1.81,0,0,0,1.08.63c.67.18,1.24.26,1,.62s-1.06.72-1.37.87-.92.23-.87,1.13-.8,1-.24,2,.37,1,0,1.44.19.6-.31,1.06-.53.85-.42,1.16-.07.55.13,1-.11,1.12-.26,1.58.11.83-.28,1.1-.33,1.43-.69,1.55h0c.48.09.43-1.28.81-1.56s.13-.64.28-1.1.46-1.16.25-1.58,0-.66-.12-1-.08-.7.42-1.16,0-.59.31-1.06.55-.41,0-1.44.3-1.1.24-2,.55-1,.86-1.13,1.18-.5,1.38-.87S26.34,9.43,25.68,9.25Z" transform="translate(-4.9 -4.93)"/><path class="cls-74" d="M28.5,9.45l.16.06a1,1,0,0,0,.52.1,1.12,1.12,0,0,1-.38-.1A.41.41,0,0,0,28.5,9.45Z" transform="translate(-4.9 -4.93)"/><path class="cls-75" d="M17.6,21.76a.75.75,0,0,0-.43-.09,1.15,1.15,0,0,1,.29.09c.49.2.51.49,1.42.77a2.49,2.49,0,0,0,.91.14,2.56,2.56,0,0,1-.77-.14C18.12,22.25,18.09,22,17.6,21.76Z" transform="translate(-4.9 -4.93)"/><path class="cls-76" d="M30,9.18a4.75,4.75,0,0,0,1.4.38C30.78,9.52,30.24,9.11,30,9.18Z" transform="translate(-4.9 -4.93)"/><path class="cls-77" d="M22.29,23.52c0-.39-.16-.42-1-.45s-.76-.19-.94-.35a.36.36,0,0,0-.28,0,.21.21,0,0,1,.13,0c.19.16.06.31.94.35s1.06.06,1,.45,0,1,.78,1C22.31,24.45,22.28,23.84,22.29,23.52Z" transform="translate(-4.9 -4.93)"/><path class="cls-78" d="M14.88,22.2c.35,0,.65.08.92.07C15.53,22.25,15.24,22.2,14.88,22.2Z" transform="translate(-4.9 -4.93)"/><path class="cls-79" d="M24.58,24a1.15,1.15,0,0,1,.22,0,2,2,0,0,0,.48,0,1.86,1.86,0,0,1-.33,0A1.1,1.1,0,0,0,24.58,24Z" transform="translate(-4.9 -4.93)"/><g class="cls-20"><path class="cls-80" d="M23.69,8.18c.76.44-.22.79.81,1s.29.86,1.63.88a5.52,5.52,0,0,0,2.33-.24c.72-.24,1.13.22,1.64-.15s1.25.64,2.06.25,1.76,0,1.86-.62.14-.68,1.12-1.07c.79-.32-.47-.55-.81-1.1L33,6.9a19.65,19.65,0,0,0-4.89-.37l-.14,0c-.61.12-3,.58-4.15.71-.16,0-.34,0-.54.07A.8.8,0,0,0,23.69,8.18Z" transform="translate(-4.9 -4.93)"/></g><path class="cls-81" d="M39.19,23.13a1.63,1.63,0,0,0-1.66-.43c-.66.08-1.64.43-1.2-.67s.61-.87.48-1.68a2.43,2.43,0,0,1,0-1.62c.23-.79-.1-1.15.28-1.83A2.19,2.19,0,0,0,37.28,15a2.69,2.69,0,0,1,.13-1.81c.14-.24.83-1.76-.08-2.42s-1.91-.63-2.68-1S32.91,9.32,33,9s.41-.26.68-.53.39-.08,1,0,.77-.35,1.46-.39,1.57,0,1.7-.06a6.61,6.61,0,0,1,1.42.28s.2-.56-.51-.69-.9.14-1.53.06a3.28,3.28,0,0,0-1.86,0C34.68,8,34,8.31,33.92,8s.16-.82-.61-1.26a8.73,8.73,0,0,0-3-.84s.11-.68-.28-.88-1,0-1.44.17-1.64.33-2.26.54a4.52,4.52,0,0,0-2.07,1.07c-.43.56-.13,1-.37,1.29a9.35,9.35,0,0,1-2.68,1.15c-.76.2-2.31.15-2.82.54s-.11.63-.69,1-.87.46-.73,1.54,0,1-.33,1.53,0,.88.08,1.33a3,3,0,0,1-.13,1.56,2.31,2.31,0,0,0-.42,1.88,2.89,2.89,0,0,1-.13,2.46c-.44.47-1.43,0-2.41.43s-1.13,1-.62,1.14.81-.39,1.56-.44,1.23.23,1.74-.13.61-.53,1.1-.32.51.49,1.42.77,1.1,0,1.28.19.06.31.94.35,1.06.06,1,.45,0,1.19,1.1.92.93-.53,1.55-.38,1.35-.06,1.43-.58-.32-.33-.92-.29-.59-.32-1.28-.33-.56-.6-.17-1.26a3.66,3.66,0,0,0,.3-2.4c-.09-1.16.2-.68.18-1.62A2,2,0,0,1,24.86,16a1.54,1.54,0,0,0,.34-1.56C25,13.76,24.71,13,25,12.57s.51-.73.53-1,0-.38.48-.55a3.8,3.8,0,0,0,1.66-1c.4-.53.72-.66,1-.5a.76.76,0,0,0,1-.22c.2-.42,1.06.46,1.89.23a1.93,1.93,0,0,1,1.57.12,9.56,9.56,0,0,0,1.81.88c.76.16,1.62.37,1.52.85s-.41,1-.16,1.53.42.61.28,1.23-.35.87-.17,1.52.31.69.15,1.08a1.9,1.9,0,0,0-.24,1c0,.41-.71.94-.47,1.53a1.12,1.12,0,0,1-.06,1.22,1.6,1.6,0,0,0-.16,1.41.62.62,0,0,1-.48.91,4.25,4.25,0,0,0-1,.15c-.57.18-1.71-.11-2,.48s.21,1.11,1.56.66,1.39-.61,2-.4a2.5,2.5,0,0,0,2,.22,1.73,1.73,0,0,1,1.8.23c.6.3,1.43.5,1.71-.2S39.52,23.62,39.19,23.13ZM26.56,9.87c-.2.37-1.06.72-1.37.87s-.92.23-.87,1.13-.8,1-.24,2,.37,1,0,1.44.19.6-.31,1.06-.53.85-.42,1.16-.07.55.13,1-.11,1.12-.26,1.58.11.83-.28,1.1-.33,1.65-.8,1.56a6.19,6.19,0,0,0-1.71-.24c-.64.06-.55-.31-1.34-.46S18.3,21.62,18,20.7s-.77-.67-.44-2-.05-1.21.41-2.66-.09-1.4.22-2.57-.22-1.43.24-1.91.62-.42,1.06-.95.68.38,2-.52.72-.84,1.71-1,.44-.28.93-.55c0,0,.24-.13.37,0a1.81,1.81,0,0,0,1.08.63C26.2,9.43,26.77,9.51,26.56,9.87Z" transform="translate(-4.9 -4.93)"/><path class="cls-82" d="M39.19,23.13a1.63,1.63,0,0,0-1.66-.43c-.66.08-1.64.43-1.2-.67s.61-.87.48-1.68a2.43,2.43,0,0,1,0-1.62c.23-.79-.1-1.15.28-1.83A2.19,2.19,0,0,0,37.28,15a2.69,2.69,0,0,1,.13-1.81c.14-.24.83-1.76-.08-2.42s-1.91-.63-2.68-1S32.91,9.32,33,9s.41-.26.68-.53.39-.08,1,0,.77-.35,1.46-.39,1.57,0,1.7-.06a6.61,6.61,0,0,1,1.42.28s.2-.56-.51-.69-.9.14-1.53.06a3.28,3.28,0,0,0-1.86,0C34.68,8,34,8.31,33.92,8s.16-.82-.61-1.26a8.73,8.73,0,0,0-3-.84s.11-.68-.28-.88-1,0-1.44.17-1.64.33-2.26.54a4.52,4.52,0,0,0-2.07,1.07c-.43.56-.13,1-.37,1.29a9.35,9.35,0,0,1-2.68,1.15c-.76.2-2.31.15-2.82.54s-.11.63-.69,1-.87.46-.73,1.54,0,1-.33,1.53,0,.88.08,1.33a3,3,0,0,1-.13,1.56,2.31,2.31,0,0,0-.42,1.88,2.89,2.89,0,0,1-.13,2.46c-.44.47-1.43,0-2.41.43s-1.13,1-.62,1.14.81-.39,1.56-.44,1.23.23,1.74-.13.61-.53,1.1-.32.51.49,1.42.77,1.1,0,1.28.19.06.31.94.35,1.06.06,1,.45,0,1.19,1.1.92.93-.53,1.55-.38,1.35-.06,1.43-.58-.32-.33-.92-.29-.59-.32-1.28-.33-.56-.6-.17-1.26a3.66,3.66,0,0,0,.3-2.4c-.09-1.16.2-.68.18-1.62A2,2,0,0,1,24.86,16a1.54,1.54,0,0,0,.34-1.56C25,13.76,24.71,13,25,12.57s.51-.73.53-1,0-.38.48-.55a3.8,3.8,0,0,0,1.66-1c.4-.53.72-.66,1-.5a.76.76,0,0,0,1-.22c.2-.42,1.06.46,1.89.23a1.93,1.93,0,0,1,1.57.12,9.56,9.56,0,0,0,1.81.88c.76.16,1.62.37,1.52.85s-.41,1-.16,1.53.42.61.28,1.23-.35.87-.17,1.52.31.69.15,1.08a1.9,1.9,0,0,0-.24,1c0,.41-.71.94-.47,1.53a1.12,1.12,0,0,1-.06,1.22,1.6,1.6,0,0,0-.16,1.41.62.62,0,0,1-.48.91,4.25,4.25,0,0,0-1,.15c-.57.18-1.71-.11-2,.48s.21,1.11,1.56.66,1.39-.61,2-.4a2.5,2.5,0,0,0,2,.22,1.73,1.73,0,0,1,1.8.23c.6.3,1.43.5,1.71-.2S39.52,23.62,39.19,23.13ZM26.56,9.87c-.2.37-1.06.72-1.37.87s-.92.23-.87,1.13-.8,1-.24,2,.37,1,0,1.44.19.6-.31,1.06-.53.85-.42,1.16-.07.55.13,1-.11,1.12-.26,1.58.11.83-.28,1.1-.33,1.65-.8,1.56a6.19,6.19,0,0,0-1.71-.24c-.64.06-.55-.31-1.34-.46S18.3,21.62,18,20.7s-.77-.67-.44-2-.05-1.21.41-2.66-.09-1.4.22-2.57-.22-1.43.24-1.91.62-.42,1.06-.95.68.38,2-.52.72-.84,1.71-1,.44-.28.93-.55c0,0,.24-.13.37,0a1.81,1.81,0,0,0,1.08.63C26.2,9.43,26.77,9.51,26.56,9.87Z" transform="translate(-4.9 -4.93)"/><path class="cls-42" d="M17,11.6a2.13,2.13,0,0,0,0,1.21c0-.13,0-.29,0-.49A2.5,2.5,0,0,1,17,11.6Z" transform="translate(-4.9 -4.93)"/><path class="cls-83" d="M17,19.93a11,11,0,0,1,1,1.21.2.2,0,0,0,.09.09L18,20.7c-.35-.91-.77-.67-.44-2s-.05-1.21.41-2.66-.09-1.4.22-2.57-.22-1.43.24-1.91.62-.42,1.06-.95.68.38,2-.52.72-.84,1.71-1,.44-.28.93-.55c0,0,.24-.13.37,0a.46.46,0,0,0-.6-.16c-.41.18.07.4-.89.5s-.82.16-1.41.69a1.86,1.86,0,0,1-2,.3c-.52-.26-.26.84-1.21,1.37s-.39,1.23-.59,2-.48.86-.15,1.56a2,2,0,0,1-.18,1.82A1.46,1.46,0,0,0,17.29,18C17.46,18.67,16.61,19.42,17,19.93Z" transform="translate(-4.9 -4.93)"/><path class="cls-84" d="M17,11.6a1.44,1.44,0,0,1,.08-.25A.61.61,0,0,0,17,11.6Z" transform="translate(-4.9 -4.93)"/><path class="cls-83" d="M39.19,23.13a1.63,1.63,0,0,0-1.66-.43c-.66.08-1.64.43-1.2-.67s.61-.87.48-1.68a2.43,2.43,0,0,1,0-1.62c.23-.79-.1-1.15.28-1.83A2.19,2.19,0,0,0,37.28,15a2.69,2.69,0,0,1,.13-1.81c.14-.24.83-1.76-.08-2.42s-1.91-.63-2.68-1S32.91,9.32,33,9s.41-.26.68-.53.39-.08,1,0,.77-.35,1.46-.39,1.57,0,1.7-.06a6.61,6.61,0,0,1,1.42.28s.2-.56-.51-.69h-.1c.13.09.29.24.06.29s-.63-.13-1.14,0-1-.35-1.78,0-1.14.55-1.56.4-.5-.25-.7,0a2.32,2.32,0,0,1-.94.64c-.29.13.54.24,1,.44a7.58,7.58,0,0,0,1.82.67c.68.12,2,.34,1.92,1.79s-.31,1.29-.22,2-.16.57,0,1.47-.42,1.51-.38,2.11a3.48,3.48,0,0,1-.32,1.73c-.25.51.33.93.06,1.87s-.81,2-.3,2.06,1.82-.57,2.45,0a2.2,2.2,0,0,0,1.68.64c.67,0,1,.48,0,.63h0a.81.81,0,0,0,1-.46C41.56,23.23,39.52,23.62,39.19,23.13Z" transform="translate(-4.9 -4.93)"/><path class="cls-83" d="M37.82,23.59c-1,.22-1.09.25-1.58,0a1.25,1.25,0,0,0-1.31-.14c-.73.24-2.77,1-2.64.05a1.15,1.15,0,0,1,.1-.33.56.56,0,0,0-.2.23c-.25.59.21,1.11,1.56.66s1.39-.61,2-.4a2.5,2.5,0,0,0,2,.22A1.9,1.9,0,0,1,39,23.83C39,23.74,38.67,23.39,37.82,23.59Z" transform="translate(-4.9 -4.93)"/><path class="cls-42" d="M27.85,9.76a.26.26,0,0,0,.11-.1Z" transform="translate(-4.9 -4.93)"/><polygon class="cls-85" points="22.95 4.83 22.95 4.83 22.95 4.83 22.95 4.83"/><path class="cls-83" d="M31.24,8.21a8.46,8.46,0,0,1,.23-1.09c.09-.33.2-.65.32-1a7.25,7.25,0,0,0-1.43-.27s.11-.68-.28-.88-1,0-1.44.17-1.64.33-2.26.54a4.52,4.52,0,0,0-2.07,1.07,1.44,1.44,0,0,0-.26,1,1.5,1.5,0,0,0,.4.63A4.83,4.83,0,0,0,27,9.45c.5,0,.53.17.29.5s-1.59.69-2,1.17-.18,1-.73,1.56.16,1,.29,1.91a2.15,2.15,0,0,1-.75,2c-.57.7.05,1.31-.33,1.93s.4,1.53-.19,2.77-.64,1.84-.18,1.86.77-.2,1.16.14-1.9,1.4-2.06.5-.37-.79-.86-.79a1.87,1.87,0,0,1-1-.18,2.61,2.61,0,0,0-1.27-.28c-.73,0-.92-.15-1.47-.79s-.9-.53-1.63-.09a1.61,1.61,0,0,1-1.52.26c-.59-.11-.92.6-1.38.38s.2-.73.95-.75,1.29.2,1.75-.24.6-.62.44-1.78-.59-1.34-.13-2.2.61-.57.53-1.64-.33-1.32,0-2.13a1.06,1.06,0,0,0,.06-.73c0,.57-.11.58-.37,1s0,.88.08,1.33a3,3,0,0,1-.13,1.56,2.31,2.31,0,0,0-.42,1.88,2.89,2.89,0,0,1-.13,2.46c-.44.47-1.43,0-2.41.43s-1.13,1-.62,1.14.81-.39,1.56-.44,1.23.23,1.74-.13.61-.53,1.1-.32.51.49,1.42.77,1.1,0,1.28.19.06.31.94.35,1.06.06,1,.45,0,1.19,1.1.92.93-.53,1.55-.38,1.35-.06,1.43-.58-.32-.33-.92-.29-.59-.32-1.28-.33-.56-.6-.17-1.26a3.66,3.66,0,0,0,.3-2.4c-.09-1.16.2-.68.18-1.62A2,2,0,0,1,24.86,16a1.54,1.54,0,0,0,.34-1.56C25,13.76,24.71,13,25,12.57s.51-.73.53-1,0-.38.48-.55a3.8,3.8,0,0,0,1.66-1,1.84,1.84,0,0,1,.21-.25h0l.11-.1a.78.78,0,0,0,.13-.36c0-.34.14-.25.75-.12s.33-.61.73-.48.94.75,1.56.7C31.18,9,31.18,8.61,31.24,8.21Z" transform="translate(-4.9 -4.93)"/><path class="cls-86" d="M33.88,23.32a1.34,1.34,0,0,0-1.27,0c-.53.38.06.76.59.56a5.51,5.51,0,0,1,1.37-.49c.51,0,.71,0,.75-.22S34.61,23.47,33.88,23.32Z" transform="translate(-4.9 -4.93)"/><path class="cls-86" d="M36.79,23.14s-.68,0-.61.21.42.4,1,.27a8.37,8.37,0,0,1,1.16-.26c.31,0,.14-.29-.29-.34S37.32,23.19,36.79,23.14Z" transform="translate(-4.9 -4.93)"/><path class="cls-87" d="M36.33,20.56s-.08-.42-.32-.21a1.45,1.45,0,0,0-.26,1.22C35.84,22,36.43,21.37,36.33,20.56Z" transform="translate(-4.9 -4.93)"/><path class="cls-87" d="M36.88,11.73s0-.3-.29,0a1.28,1.28,0,0,0,0,1.31C36.81,13.23,37,12.37,36.88,11.73Z" transform="translate(-4.9 -4.93)"/><path class="cls-87" d="M36.77,15.1s-.15-.16-.21.16.12.74.3.6A.59.59,0,0,0,36.77,15.1Z" transform="translate(-4.9 -4.93)"/><path class="cls-88" d="M26.8,9.55s.48-.09.26.29-1.08.7-.9.52S27,10,26.8,9.55Z" transform="translate(-4.9 -4.93)"/><path class="cls-88" d="M24.72,11.17s-.4.23-.2.59S25,11,24.72,11.17Z" transform="translate(-4.9 -4.93)"/><path class="cls-88" d="M24,13.15s-.14.14.15.71.43,1,.32,1.19.28.12.14-.39-.42-.71-.41-1.07S24.1,13,24,13.15Z" transform="translate(-4.9 -4.93)"/><path class="cls-88" d="M18.8,9.69a.58.58,0,0,0-.5.53c0,.46-.24.56-.55.69s-.7.38-.61.85.32-.09.65-.58.65-.22.66-.73S19.21,9.58,18.8,9.69Z" transform="translate(-4.9 -4.93)"/><path class="cls-88" d="M16.71,17.44s-.23-.3-.35.25.16,1.57.41,1.13A1.43,1.43,0,0,0,16.71,17.44Z" transform="translate(-4.9 -4.93)"/><path class="cls-88" d="M16.82,20.35s-.1-.11-.06.12-.15.41-.27.56.33.27.44-.13S16.82,20.35,16.82,20.35Z" transform="translate(-4.9 -4.93)"/><path class="cls-88" d="M23.28,23.24s-.16.12-.24-.23-.41-.47-.45-.05,0,1,.51.94S24.25,23.25,23.28,23.24Z" transform="translate(-4.9 -4.93)"/><path class="cls-88" d="M23.75,16.85s-.31-.24-.34.27.18.46.18.83.16.57.22.2-.28-.75-.17-1Z" transform="translate(-4.9 -4.93)"/><path class="cls-89" d="M34,9.76s-.24-.08-.18.08.42.17.62.39.7.21.95.27,1,.29,1,.43.27,0,0-.21a2.37,2.37,0,0,0-1.18-.44c-.44-.09-.65-.08-.73-.21A1.63,1.63,0,0,0,34,9.76Z" transform="translate(-4.9 -4.93)"/><path class="cls-88" d="M35.35,8s.17-.21-.26,0-.6.31-.71.3.06.18.52,0S35.35,8,35.35,8Z" transform="translate(-4.9 -4.93)"/><path class="cls-90" d="M28.38,6s0-.22.44-.25v0s-.53.07-.25.74A6.22,6.22,0,0,0,30.46,8.7a2.05,2.05,0,0,0,2.23-.07c.56-.33,1.18-.47,1.1-1.22.26.88-.8,1.29-1.64,1.73a2.11,2.11,0,0,1-2.55-.57C28.84,7.82,28.17,6.73,28.38,6Z" transform="translate(-4.9 -4.93)"/><path class="cls-91" d="M28.63,7.23c.13.18.28.35.43.52a6.3,6.3,0,0,0,1,.93,2.49,2.49,0,0,0,1.21.53,1.52,1.52,0,0,0,.6,0A1.31,1.31,0,0,1,32.43,9l-.28.14a2.11,2.11,0,0,1-2.55-.57,5.19,5.19,0,0,1-1.08-1.51Z" transform="translate(-4.9 -4.93)"/><path class="cls-92" d="M32.69,8.63a2.05,2.05,0,0,1-2.23.07,6.22,6.22,0,0,1-1.88-2.18c-.28-.67.25-.74.25-.74v0a2.49,2.49,0,0,1,.44,0c.89.13,4.09.54,4.48,1.51l0,.12C33.87,8.16,33.25,8.3,32.69,8.63Z" transform="translate(-4.9 -4.93)"/><path class="cls-93" d="M29.49,6.72s-.49-.55,0-.56a19.5,19.5,0,0,1,2.35.62c.79.17,1.81.5,1.46,1s-.82.44-1.29.81S30.68,8.83,29.49,6.72Z" transform="translate(-4.9 -4.93)"/><path class="cls-94" d="M30,7s-.4-.45,0-.46A17,17,0,0,1,32,7c.64.14,1.46.4,1.18.8s-.66.36-1,.65S31,8.65,30,7Z" transform="translate(-4.9 -4.93)"/><path class="cls-95" d="M30.7,7.19s-.23-.25,0-.25a7.38,7.38,0,0,1,1.06.28c.37.08.83.23.67.45s-.37.2-.59.37S31.24,8.15,30.7,7.19Z" transform="translate(-4.9 -4.93)"/><path class="cls-96" d="M32,6.69s.2-.22.16-.24S31.89,6.72,32,6.69Z" transform="translate(-4.9 -4.93)"/><path class="cls-96" d="M32.36,6.77s.27-.13.24-.16S32.28,6.77,32.36,6.77Z" transform="translate(-4.9 -4.93)"/><path class="cls-96" d="M32.8,7s.27-.13.24-.17S32.72,7,32.8,7Z" transform="translate(-4.9 -4.93)"/><path class="cls-96" d="M30.61,6.33s.11-.23.07-.24S30.55,6.37,30.61,6.33Z" transform="translate(-4.9 -4.93)"/><path class="cls-96" d="M31,6.42s.15-.26.1-.27S31,6.46,31,6.42Z" transform="translate(-4.9 -4.93)"/><path class="cls-96" d="M31.48,6.53s.23-.2.19-.23S31.41,6.55,31.48,6.53Z" transform="translate(-4.9 -4.93)"/><path class="cls-96" d="M29,6s.25.16.27.11S28.92,6,29,6Z" transform="translate(-4.9 -4.93)"/><path class="cls-96" d="M29.67,5.92s0,.25.08.23S29.69,5.86,29.67,5.92Z" transform="translate(-4.9 -4.93)"/><path class="cls-96" d="M30.21,6s0,.24,0,.24S30.24,6,30.21,6Z" transform="translate(-4.9 -4.93)"/><path class="cls-96" d="M28.92,6.48s.23,0,.23,0S28.87,6.44,28.92,6.48Z" transform="translate(-4.9 -4.93)"/><path class="cls-96" d="M29,6.79s.3,0,.29,0S29,6.75,29,6.79Z" transform="translate(-4.9 -4.93)"/><path class="cls-96" d="M29.23,7.16s.3,0,.3,0S29.17,7.12,29.23,7.16Z" transform="translate(-4.9 -4.93)"/><path class="cls-96" d="M30.29,8.4s.15-.14.13-.16S30.24,8.41,30.29,8.4Z" transform="translate(-4.9 -4.93)"/><path class="cls-96" d="M29.47,7.45s.22-.06.2-.09S29.41,7.44,29.47,7.45Z" transform="translate(-4.9 -4.93)"/><path class="cls-96" d="M29.64,7.75s.29-.1.26-.14S29.57,7.74,29.64,7.75Z" transform="translate(-4.9 -4.93)"/><path class="cls-96" d="M29.94,8.11s.29-.1.26-.14S29.87,8.1,29.94,8.11Z" transform="translate(-4.9 -4.93)"/><path class="cls-96" d="M33.36,7.06s-.18.15-.2.11S33.39,7,33.36,7.06Z" transform="translate(-4.9 -4.93)"/><path class="cls-96" d="M33.21,8.19s-.3.05-.3,0S33.27,8.15,33.21,8.19Z" transform="translate(-4.9 -4.93)"/><path class="cls-96" d="M32.87,8.45s-.18-.06-.16-.08S32.92,8.45,32.87,8.45Z" transform="translate(-4.9 -4.93)"/><path class="cls-96" d="M32.47,8.67s-.1-.16-.07-.17S32.51,8.69,32.47,8.67Z" transform="translate(-4.9 -4.93)"/><path class="cls-97" d="M32.31,8.69a.79.79,0,0,1-.66-.92,9.35,9.35,0,0,0,.2-1,2.58,2.58,0,0,0,0-.48,22.29,22.29,0,0,0-2.56-.48,2.49,2.49,0,0,0-.44,0v0s-.53.07-.25.74A6.22,6.22,0,0,0,30.46,8.7a2,2,0,0,0,2.07,0Z" transform="translate(-4.9 -4.93)"/><path class="cls-98" d="M30.22,5.32s0-.25-.51-.25v0s.59.05.32.81a6.91,6.91,0,0,1-2,2.54,2.27,2.27,0,0,1-2.49.05c-.64-.34-1.34-.46-1.29-1.3-.24,1,1,1.4,1.92,1.84A2.36,2.36,0,0,0,29,8.26C29.81,7.38,30.49,6.13,30.22,5.32Z" transform="translate(-4.9 -4.93)"/><path class="cls-99" d="M30,6.7a5.41,5.41,0,0,1-.46.61,6.49,6.49,0,0,1-1.06,1.1,3,3,0,0,1-1.31.66,1.56,1.56,0,0,1-.68,0c-.15,0-.45-.2-.64-.15l.32.14A2.36,2.36,0,0,0,29,8.26a5.79,5.79,0,0,0,1.12-1.75Z" transform="translate(-4.9 -4.93)"/><path class="cls-100" d="M25.55,8.5A2.27,2.27,0,0,0,28,8.45a6.91,6.91,0,0,0,2-2.54c.27-.76-.32-.81-.32-.81v0a2.45,2.45,0,0,0-.49,0c-1,.2-4.53.84-4.92,1.94a.74.74,0,0,0,0,.14C24.21,8,24.91,8.16,25.55,8.5Z" transform="translate(-4.9 -4.93)"/><path class="cls-101" d="M29,6.18s.52-.64-.05-.62a21.27,21.27,0,0,0-2.59.83c-.88.23-2,.66-1.58,1.19s.94.44,1.49.82S27.81,8.61,29,6.18Z" transform="translate(-4.9 -4.93)"/><path class="cls-102" d="M28.42,6.47s.42-.52,0-.5a16.55,16.55,0,0,0-2.1.66c-.71.2-1.62.54-1.28,1s.76.36,1.21.67S27.44,8.43,28.42,6.47Z" transform="translate(-4.9 -4.93)"/><path class="cls-103" d="M27.7,6.78s.23-.29,0-.28a11.41,11.41,0,0,0-1.17.37c-.4.11-.91.3-.72.55s.42.2.68.37S27.15,7.88,27.7,6.78Z" transform="translate(-4.9 -4.93)"/><path class="cls-96" d="M26.26,6.29S26,6.05,26.07,6,26.34,6.32,26.26,6.29Z" transform="translate(-4.9 -4.93)"/><path class="cls-96" d="M25.82,6.4s-.31-.12-.28-.17S25.9,6.4,25.82,6.4Z" transform="translate(-4.9 -4.93)"/><path class="cls-96" d="M25.34,6.66s-.31-.13-.28-.17S25.43,6.66,25.34,6.66Z" transform="translate(-4.9 -4.93)"/><path class="cls-96" d="M27.75,5.82s-.14-.26-.1-.27S27.81,5.86,27.75,5.82Z" transform="translate(-4.9 -4.93)"/><path class="cls-96" d="M27.28,5.94s-.18-.29-.13-.3S27.36,6,27.28,5.94Z" transform="translate(-4.9 -4.93)"/><path class="cls-96" d="M26.78,6.08s-.26-.21-.22-.24S26.87,6.1,26.78,6.08Z" transform="translate(-4.9 -4.93)"/><path class="cls-96" d="M29.57,5.38s-.27.2-.29.15S29.61,5.3,29.57,5.38Z" transform="translate(-4.9 -4.93)"/><path class="cls-96" d="M28.77,5.31s0,.27-.07.26S28.74,5.24,28.77,5.31Z" transform="translate(-4.9 -4.93)"/><path class="cls-96" d="M28.18,5.44s0,.27,0,.27S28.14,5.38,28.18,5.44Z" transform="translate(-4.9 -4.93)"/><path class="cls-96" d="M29.64,5.88s-.26,0-.25,0S29.69,5.84,29.64,5.88Z" transform="translate(-4.9 -4.93)"/><path class="cls-96" d="M29.53,6.23s-.34,0-.33,0S29.6,6.19,29.53,6.23Z" transform="translate(-4.9 -4.93)"/><path class="cls-96" d="M29.33,6.66s-.34,0-.33,0S29.4,6.61,29.33,6.66Z" transform="translate(-4.9 -4.93)"/><path class="cls-96" d="M28.21,8.11S28,8,28.07,7.94,28.27,8.12,28.21,8.11Z" transform="translate(-4.9 -4.93)"/><path class="cls-96" d="M29.09,7s-.25-.06-.24-.1S29.15,7,29.09,7Z" transform="translate(-4.9 -4.93)"/><path class="cls-96" d="M28.91,7.34s-.33-.09-.3-.14S29,7.33,28.91,7.34Z" transform="translate(-4.9 -4.93)"/><path class="cls-96" d="M28.59,7.76s-.32-.09-.3-.14S28.68,7.75,28.59,7.76Z" transform="translate(-4.9 -4.93)"/><path class="cls-96" d="M24.71,6.78s.22.16.24.12S24.68,6.72,24.71,6.78Z" transform="translate(-4.9 -4.93)"/><path class="cls-96" d="M25,8s.34,0,.33,0S24.88,8,25,8Z" transform="translate(-4.9 -4.93)"/><path class="cls-96" d="M25.34,8.31s.2-.08.18-.1S25.29,8.31,25.34,8.31Z" transform="translate(-4.9 -4.93)"/><path class="cls-96" d="M25.8,8.53s.1-.19.07-.2S25.75,8.56,25.8,8.53Z" transform="translate(-4.9 -4.93)"/><path class="cls-104" d="M24.89,7.3A5.44,5.44,0,0,1,27,6.66a4.9,4.9,0,0,1,1,.29,1.62,1.62,0,0,0,1.2-.12l.6-.3A4,4,0,0,0,30,5.91c.27-.76-.32-.81-.32-.81v0a2.45,2.45,0,0,0-.49,0c-1,.2-4.53.84-4.92,1.94a.74.74,0,0,0,0,.14.92.92,0,0,0,0,.24A2.65,2.65,0,0,0,24.89,7.3Z" transform="translate(-4.9 -4.93)"/><path class="cls-105" d="M30.36,5.88a8.73,8.73,0,0,1,3,.84c.77.44.57.93.61,1.26,0,.12.12.16.29.14-.08,0-.14-.06-.14-.14,0-.33.15-.82-.62-1.26a8.67,8.67,0,0,0-3-.84s.11-.68-.28-.88a.83.83,0,0,0-.42-.07.89.89,0,0,1,.28.07C30.47,5.2,30.36,5.88,30.36,5.88Z" transform="translate(-4.9 -4.93)"/><path class="cls-106" d="M37.69,12.42c.09-.17.17-.35.24-.52a1.23,1.23,0,0,0-.45-1.18c-.91-.66-1.91-.63-2.68-1S33.06,9.32,33.16,9s.4-.26.67-.53a.42.42,0,0,1,.23-.13.38.38,0,0,0-.37.13c-.27.27-.58.25-.68.53s.87.22,1.64.64,1.78.38,2.68,1A1.52,1.52,0,0,1,37.69,12.42Z" transform="translate(-4.9 -4.93)"/><path class="cls-107" d="M35.5,7.72a1.82,1.82,0,0,1,.7-.16,2.06,2.06,0,0,0-.85.16,5.62,5.62,0,0,1-1.14.4A3.42,3.42,0,0,0,35.5,7.72Z" transform="translate(-4.9 -4.93)"/><path class="cls-108" d="M34.06,8.38a6,6,0,0,0,.61.11h.14A5.44,5.44,0,0,0,34.06,8.38Z" transform="translate(-4.9 -4.93)"/></g></g></svg>