<svg id="Layer_1" data-name="Layer 1" xmlns="http://www.w3.org/2000/svg" viewBox="0 0 45.93 31.22"><defs><style>.cls-1{fill:#f9ffff;}.cls-2{fill:#e5a04d;}.cls-3{fill:#cf292d;}.cls-4{fill:#4b3c1f;}.cls-5{fill:#f8ce4f;}.cls-6{fill:#977432;}.cls-7{fill:#ad7e3b;}.cls-8{fill:#f4d8b6;}</style></defs><path class="cls-1" d="M47.44,18.64c1,1.07,2.21,0,2.72.64S51.28,17,48.81,15.2C48.81,15.2,46.42,17.58,47.44,18.64Z" transform="translate(-5.78 -2.14)"/><path class="cls-2" d="M8.18,13.56c0,.1,0,.2,0,.3.9,6.27,10,7,19.79,7,8.52,0,15.78-1.44,18.56-5.39a6.33,6.33,0,0,0,.93-1.92,7.3,7.3,0,0,0,.28-2c0-5.16-8.85-9.34-19.77-9.34S9,6.37,8.24,11.48A8.2,8.2,0,0,0,8.18,13.56Z" transform="translate(-5.78 -2.14)"/><path class="cls-3" d="M9.37,18a4.85,4.85,0,0,0,.6.6h0a9.45,9.45,0,0,0,1.9,1.23,31.49,31.49,0,0,0,7.9,2.46c4.64.9,7.8,1.47,10.07.79s8-.34,9.5-1.58,8.78-2,7.22-6.13c-2.78,4-10,5.39-18.56,5.39-9.8,0-18.89-.68-19.79-6.95A5.48,5.48,0,0,0,9.37,18Z" transform="translate(-5.78 -2.14)"/><path class="cls-4" d="M7.33,17.36a13.21,13.21,0,0,0,1.59,5.09c1.3,2.41,4.48,3.75,7.71,4.74l1.22.35a68,68,0,0,0,7.59,1.59s4.75-.45,8.25-.57c1.48,0,2.6,0,3.54-.06a5.35,5.35,0,0,0,3.25-1.07c1.39-1,4-1.88,5.85-3.5a6.75,6.75,0,0,0,1.45-1.7,3.38,3.38,0,0,0,.53-1.43.88.88,0,0,0,0-.23,8.26,8.26,0,0,0-2.51.24c-1,.28-7.35,2.55-9.62,2.62a44.06,44.06,0,0,0-8.67,1.37h0a5.37,5.37,0,0,0-1.59.7c-1.47,1.13-2.49,1.92-3.29,1.13a24.72,24.72,0,0,0-3-2.15,32.32,32.32,0,0,0-3.27-1.92c-.87-.4-2.94-1.7-4.5-2.69L10,18.65h0L7.38,17.39Z" transform="translate(-5.78 -2.14)"/><path class="cls-5" d="M11.88,19.88c1.56,1,3.63,2.29,4.5,2.69a32.32,32.32,0,0,1,3.27,1.92s3.83.56,4.79.14c1.66-.72,2.58-.3,3.07.17a44.06,44.06,0,0,1,8.67-1.37c2.27-.07,8.6-2.34,9.62-2.62a8.26,8.26,0,0,1,2.51-.24.88.88,0,0,1,0,.23,7,7,0,0,1,1.56,0c1.47.4,2.38-1.07,1.47-2.66A40.83,40.83,0,0,0,47.5,13.5a6.33,6.33,0,0,1-.93,1.92c1.56,4.17-5.75,4.88-7.22,6.13s-7.24.9-9.5,1.58-5.43.11-10.07-.79A31.49,31.49,0,0,1,11.88,19.88ZM48.81,15.2C51.28,17,50.66,20,50.16,19.28s-1.7.43-2.72-.64S48.81,15.2,48.81,15.2Z" transform="translate(-5.78 -2.14)"/><path class="cls-5" d="M7.33,17.36l0,0L10,18.64a4.85,4.85,0,0,1-.6-.6,5.48,5.48,0,0,1-1.15-4.18c0-.1,0-.2,0-.3a4,4,0,0,0-1.64,1.23C5.18,16.23,5.76,16.6,7.33,17.36Z" transform="translate(-5.78 -2.14)"/><path class="cls-1" d="M19.65,24.49a24.72,24.72,0,0,1,3,2.15c.8.79,1.82,0,3.29-1.13a5.37,5.37,0,0,1,1.59-.7h0c-.49-.47-1.41-.89-3.07-.17C23.48,25.05,19.65,24.49,19.65,24.49Z" transform="translate(-5.78 -2.14)"/><path class="cls-6" d="M12.23,22.25a2.52,2.52,0,0,0,1.35,2c1.36.8.94,1.39-1.35,0s-3.4-2-2.89-3.44S14,20.27,12.23,22.25Z" transform="translate(-5.78 -2.14)"/><path class="cls-6" d="M38.28,26.75a2.18,2.18,0,0,0-2.21-1.19c-1.78,0,1.09-.21,1.53-1.31s2.54-1.74,2.2-.38S39.55,26.07,38.28,26.75Z" transform="translate(-5.78 -2.14)"/><path class="cls-6" d="M44.05,23.43S44,23,42.94,23.09s.68-1.51,1.78-1.6S47.27,21.47,44.05,23.43Z" transform="translate(-5.78 -2.14)"/><path class="cls-7" d="M43.62,16.48s2.29-3.05,1.19-5.43-5.6-5.94-5.6-5.94S53.38,11.56,43.62,16.48Z" transform="translate(-5.78 -2.14)"/><path class="cls-8" d="M22.07,19.38s-6.94-2.64-7.72-7.9-.43-5.86-.43-5.86-4.45,2.56-4.7,7.21S22.07,19.38,22.07,19.38Z" transform="translate(-5.78 -2.14)"/><path class="cls-2" d="M8.92,22.45c.83,4.73,1.52,6.42,8.65,9.48s19.35.51,23.59-.94,5.17-7.06,5.17-7.06c-1.87,1.62-4.46,2.46-5.85,3.5-1.81,1.36-3.28,1-6.79,1.13s-8.25.57-8.25.57a68,68,0,0,1-7.59-1.59C14.23,26.52,10.39,25.17,8.92,22.45Z" transform="translate(-5.78 -2.14)"/><path class="cls-6" d="M29.2,25.6s.25,2.19-2.72,2.31-5.18.28-7.81-2.31S23,27,23,27,26.85,27.26,29.2,25.6Z" transform="translate(-5.78 -2.14)"/><path class="cls-1" d="M7.87,17.63s-2.24-.8-1.5-1.53,1.5-1.62,1.5-1.62S7.06,16.65,7.87,17.63Z" transform="translate(-5.78 -2.14)"/><path class="cls-8" d="M10.2,24.05a6.07,6.07,0,0,0,2.11,3.38A9.67,9.67,0,0,0,16,28.84S10.47,26.11,10.2,24.05Z" transform="translate(-5.78 -2.14)"/></svg>