<svg xmlns="http://www.w3.org/2000/svg" xmlns:xlink="http://www.w3.org/1999/xlink" viewBox="0 0 244.01 124.93"><defs><style>.cls-1{mask:url(#mask);}.cls-107,.cls-13,.cls-2,.cls-26,.cls-27,.cls-29,.cls-4,.cls-46,.cls-49,.cls-57,.cls-6,.cls-8,.cls-80,.cls-81,.cls-99{mix-blend-mode:multiply;}.cls-2{fill:url(#radial-gradient);}.cls-3{mask:url(#mask-2);}.cls-4{fill:url(#radial-gradient-2);}.cls-5{mask:url(#mask-3);}.cls-6{fill:url(#radial-gradient-3);}.cls-7{mask:url(#mask-4);}.cls-8{fill:url(#radial-gradient-4);}.cls-9{fill:none;}.cls-10{isolation:isolate;}.cls-11{fill:#ededed;}.cls-12,.cls-13{fill:#dbdbdb;}.cls-14{fill:#f7f7f7;}.cls-15{fill:#e0e0e0;}.cls-16{fill:#ebebeb;}.cls-17{fill:#821800;}.cls-18{fill:#bd1800;}.cls-19{fill:#ed1800;}.cls-20{fill:#fff;}.cls-21{clip-path:url(#clip-path);}.cls-22{fill:url(#radial-gradient-5);}.cls-23,.cls-29{fill:url(#radial-gradient-6);}.cls-24,.cls-26{fill:url(#radial-gradient-7);}.cls-25{fill:url(#radial-gradient-8);}.cls-107,.cls-26,.cls-27,.cls-29,.cls-49,.cls-57,.cls-80,.cls-81,.cls-99{opacity:0.5;}.cls-28{fill:url(#radial-gradient-10);}.cls-30{fill:url(#radial-gradient-12);}.cls-31{fill:url(#radial-gradient-13);}.cls-32{fill:url(#radial-gradient-14);}.cls-33{fill:#d8901d;}.cls-34{fill:url(#radial-gradient-15);}.cls-35{fill:url(#radial-gradient-17);}.cls-36{fill:url(#radial-gradient-18);}.cls-37{fill:url(#radial-gradient-19);}.cls-38{fill:url(#radial-gradient-20);}.cls-39{fill:url(#radial-gradient-23);}.cls-40{fill:url(#radial-gradient-24);}.cls-41{fill:url(#radial-gradient-25);}.cls-42{fill:url(#radial-gradient-26);}.cls-43{fill:url(#radial-gradient-27);}.cls-44,.cls-49{fill:url(#radial-gradient-29);}.cls-45{fill:url(#radial-gradient-30);}.cls-47{mask:url(#mask-5);}.cls-48{fill:url(#radial-gradient-31);}.cls-50{fill:url(#radial-gradient-33);}.cls-51{fill:url(#radial-gradient-34);}.cls-52{fill:url(#radial-gradient-35);}.cls-53,.cls-57{fill:url(#radial-gradient-37);}.cls-54{fill:url(#radial-gradient-38);}.cls-55{mask:url(#mask-6);}.cls-56{fill:url(#radial-gradient-39);}.cls-58{fill:url(#radial-gradient-41);}.cls-59{fill:url(#radial-gradient-42);}.cls-60{fill:url(#radial-gradient-43);}.cls-61{fill:url(#radial-gradient-45);}.cls-62{fill:url(#radial-gradient-46);}.cls-63{fill:url(#radial-gradient-47);}.cls-64{fill:url(#radial-gradient-48);}.cls-65{fill:url(#radial-gradient-50);}.cls-66{fill:url(#radial-gradient-51);}.cls-67{fill:url(#radial-gradient-52);}.cls-118,.cls-119,.cls-120,.cls-121,.cls-122,.cls-123,.cls-124,.cls-125,.cls-126,.cls-68,.cls-69,.cls-70,.cls-71,.cls-72,.cls-73,.cls-74,.cls-75,.cls-76{mix-blend-mode:screen;}.cls-68{fill:url(#radial-gradient-54);}.cls-69{fill:url(#radial-gradient-55);}.cls-70{fill:url(#radial-gradient-56);}.cls-71{fill:url(#radial-gradient-57);}.cls-72{fill:url(#radial-gradient-58);}.cls-73{fill:url(#radial-gradient-59);}.cls-74{fill:url(#radial-gradient-60);}.cls-75{fill:url(#radial-gradient-61);}.cls-76{fill:url(#radial-gradient-62);}.cls-77{fill:url(#radial-gradient-63);}.cls-78,.cls-81{fill:url(#radial-gradient-64);}.cls-79,.cls-80{fill:url(#radial-gradient-65);}.cls-82{fill:url(#radial-gradient-68);}.cls-83{fill:url(#radial-gradient-69);}.cls-84{fill:url(#radial-gradient-70);}.cls-85{fill:url(#radial-gradient-71);}.cls-86{fill:url(#radial-gradient-73);}.cls-87{fill:url(#radial-gradient-74);}.cls-88{fill:url(#radial-gradient-75);}.cls-89{fill:url(#radial-gradient-76);}.cls-90{fill:url(#radial-gradient-79);}.cls-91{fill:url(#radial-gradient-80);}.cls-92{fill:url(#radial-gradient-81);}.cls-93{fill:url(#radial-gradient-82);}.cls-94{fill:url(#radial-gradient-83);}.cls-95,.cls-99{fill:url(#radial-gradient-85);}.cls-96{fill:url(#radial-gradient-86);}.cls-97{mask:url(#mask-7);}.cls-98{fill:url(#radial-gradient-87);}.cls-100{fill:url(#radial-gradient-89);}.cls-101{fill:url(#radial-gradient-90);}.cls-102{fill:url(#radial-gradient-91);}.cls-103,.cls-107{fill:url(#radial-gradient-93);}.cls-104{fill:url(#radial-gradient-94);}.cls-105{mask:url(#mask-8);}.cls-106{fill:url(#radial-gradient-95);}.cls-108{fill:url(#radial-gradient-97);}.cls-109{fill:url(#radial-gradient-98);}.cls-110{fill:url(#radial-gradient-99);}.cls-111{fill:url(#radial-gradient-101);}.cls-112{fill:url(#radial-gradient-102);}.cls-113{fill:url(#radial-gradient-103);}.cls-114{fill:url(#radial-gradient-104);}.cls-115{fill:url(#radial-gradient-106);}.cls-116{fill:url(#radial-gradient-107);}.cls-117{fill:url(#radial-gradient-108);}.cls-118{fill:url(#radial-gradient-110);}.cls-119{fill:url(#radial-gradient-111);}.cls-120{fill:url(#radial-gradient-112);}.cls-121{fill:url(#radial-gradient-113);}.cls-122{fill:url(#radial-gradient-114);}.cls-123{fill:url(#radial-gradient-115);}.cls-124{fill:url(#radial-gradient-116);}.cls-125{fill:url(#radial-gradient-117);}.cls-126{fill:url(#radial-gradient-118);}.cls-127{filter:url(#luminosity-noclip-8);}.cls-128{filter:url(#luminosity-noclip-7);}.cls-129{filter:url(#luminosity-noclip-6);}.cls-130{filter:url(#luminosity-noclip-5);}.cls-131{filter:url(#luminosity-noclip-4);}.cls-132{filter:url(#luminosity-noclip-3);}.cls-133{filter:url(#luminosity-noclip-2);}.cls-134{filter:url(#luminosity-noclip);}</style><filter id="luminosity-noclip" x="122.7" y="-8262" width="56.86" height="32766" filterUnits="userSpaceOnUse" color-interpolation-filters="sRGB"><feFlood flood-color="#fff" result="bg"/><feBlend in="SourceGraphic" in2="bg"/></filter><mask id="mask" x="122.7" y="-8262" width="56.86" height="32766" maskUnits="userSpaceOnUse"><g class="cls-134"/></mask><radialGradient id="radial-gradient" cx="162.9" cy="17.78" r="48.75" gradientUnits="userSpaceOnUse"><stop offset="0.29"/><stop offset="1" stop-color="#fff"/></radialGradient><filter id="luminosity-noclip-2" x="66.71" y="-8262" width="56.14" height="32766" filterUnits="userSpaceOnUse" color-interpolation-filters="sRGB"><feFlood flood-color="#fff" result="bg"/><feBlend in="SourceGraphic" in2="bg"/></filter><mask id="mask-2" x="66.71" y="-8262" width="56.14" height="32766" maskUnits="userSpaceOnUse"><g class="cls-133"/></mask><radialGradient id="radial-gradient-2" cx="98.07" cy="13.53" r="51.04" xlink:href="#radial-gradient"/><filter id="luminosity-noclip-3" x="124.89" y="-8262" width="56.86" height="32766" filterUnits="userSpaceOnUse" color-interpolation-filters="sRGB"><feFlood flood-color="#fff" result="bg"/><feBlend in="SourceGraphic" in2="bg"/></filter><mask id="mask-3" x="124.89" y="-8262" width="56.86" height="32766" maskUnits="userSpaceOnUse"><g class="cls-132"/></mask><radialGradient id="radial-gradient-3" cx="165.08" cy="46.33" r="48.75" xlink:href="#radial-gradient"/><filter id="luminosity-noclip-4" x="68.89" y="-8262" width="56.14" height="32766" filterUnits="userSpaceOnUse" color-interpolation-filters="sRGB"><feFlood flood-color="#fff" result="bg"/><feBlend in="SourceGraphic" in2="bg"/></filter><mask id="mask-4" x="68.89" y="-8262" width="56.14" height="32766" maskUnits="userSpaceOnUse"><g class="cls-131"/></mask><radialGradient id="radial-gradient-4" cx="100.25" cy="42.09" r="51.04" xlink:href="#radial-gradient"/><clipPath id="clip-path" transform="translate(-7.69 -10)"><path class="cls-9" d="M231.88,50.86s6.06,2.08.26,5.37S153.28,98,153.28,98s-6.21,2.75-12.19.45-26.62-9.3-26.62-9.3L97.55,83.43,87.89,80l-17,1.19S32.7,75,28.31,72.07a68.25,68.25,0,0,0-10.46-5.28S7,61.22,6.9,60.52s-13.55-2.39-3-14.85L14.47,33.22l17-9.86,28.39,13L92.57,20.27l109.09,7,29.09,21.92Z"/></clipPath><radialGradient id="radial-gradient-5" cx="159.87" cy="44.86" r="18.4" gradientUnits="userSpaceOnUse"><stop offset="0.25" stop-color="#de9000"/><stop offset="1" stop-color="#cc6a00"/></radialGradient><radialGradient id="radial-gradient-6" cx="107.85" cy="38.33" r="21.92" xlink:href="#radial-gradient-5"/><radialGradient id="radial-gradient-7" cx="31.08" cy="38.33" r="20.66" xlink:href="#radial-gradient-5"/><radialGradient id="radial-gradient-8" cx="96.61" cy="20.61" r="21.67" xlink:href="#radial-gradient-5"/><radialGradient id="radial-gradient-10" cx="104.3" cy="30.61" r="21.67" xlink:href="#radial-gradient-5"/><radialGradient id="radial-gradient-12" cx="167.57" cy="54.86" r="18.4" xlink:href="#radial-gradient-5"/><radialGradient id="radial-gradient-13" cx="117.31" cy="39.63" r="22.91" gradientUnits="userSpaceOnUse"><stop offset="0.06" stop-color="#f1b800"/><stop offset="1" stop-color="#da8700"/></radialGradient><radialGradient id="radial-gradient-14" cx="129.67" cy="28.86" r="32.69" gradientUnits="userSpaceOnUse"><stop offset="0.29" stop-color="#ffe67b"/><stop offset="1" stop-color="#fbbe4e"/></radialGradient><radialGradient id="radial-gradient-15" cx="141.13" cy="14.92" r="50.48" xlink:href="#radial-gradient-14"/><radialGradient id="radial-gradient-17" cx="66.6" cy="20.38" r="19.23" xlink:href="#radial-gradient-14"/><radialGradient id="radial-gradient-18" cx="74.3" cy="30.38" r="19.23" xlink:href="#radial-gradient-14"/><radialGradient id="radial-gradient-19" cx="223.18" cy="55.35" r="18.3" xlink:href="#radial-gradient-14"/><radialGradient id="radial-gradient-20" cx="223.38" cy="64.3" r="19.03" xlink:href="#radial-gradient-13"/><radialGradient id="radial-gradient-23" cx="183.52" cy="49.17" r="29.74" xlink:href="#radial-gradient-14"/><radialGradient id="radial-gradient-24" cx="211.4" cy="26.56" r="45.36" xlink:href="#radial-gradient-14"/><radialGradient id="radial-gradient-25" cx="206.32" cy="57.5" r="18.78" xlink:href="#radial-gradient-13"/><radialGradient id="radial-gradient-26" cx="198.9" cy="54.55" r="24.12" xlink:href="#radial-gradient-14"/><radialGradient id="radial-gradient-27" cx="223.43" cy="39.93" r="26.91" xlink:href="#radial-gradient-14"/><radialGradient id="radial-gradient-29" cx="177.03" cy="35.54" r="48.38" xlink:href="#radial-gradient-13"/><radialGradient id="radial-gradient-30" cx="163.09" cy="31.43" r="37.68" xlink:href="#radial-gradient-14"/><filter id="luminosity-noclip-5" x="122.7" y="32.98" width="56.86" height="20.9" filterUnits="userSpaceOnUse" color-interpolation-filters="sRGB"><feFlood flood-color="#fff" result="bg"/><feBlend in="SourceGraphic" in2="bg"/></filter><mask id="mask-5" x="115.01" y="22.98" width="56.86" height="20.9" maskUnits="userSpaceOnUse"><g class="cls-130"><g transform="translate(-7.69 -10)"><g class="cls-1"><path class="cls-2" d="M141.24,43.27c1.18-1.73,4.24-3.67,7.95-5.54C138.94,41.19,128.38,46,122.7,52.2c3,.65,5.73,1.21,8.21,1.68a168.39,168.39,0,0,1,48.65-20.44L179,33C161.89,35.17,137.5,48.74,141.24,43.27Z"/></g></g></g></mask><radialGradient id="radial-gradient-31" cx="162.9" cy="17.78" r="48.75" xlink:href="#radial-gradient-14"/><radialGradient id="radial-gradient-33" cx="39.21" cy="35.03" r="43.56" xlink:href="#radial-gradient-14"/><radialGradient id="radial-gradient-34" cx="30.67" cy="40.02" r="41.82" xlink:href="#radial-gradient-13"/><radialGradient id="radial-gradient-35" cx="48.44" cy="33.11" r="42.39" xlink:href="#radial-gradient-14"/><radialGradient id="radial-gradient-37" cx="102.28" cy="43.48" r="16.18" gradientUnits="userSpaceOnUse"><stop offset="0.19" stop-color="#f1b700"/><stop offset="1" stop-color="#e39900"/></radialGradient><radialGradient id="radial-gradient-38" cx="110.25" cy="33.92" r="51.75" xlink:href="#radial-gradient-14"/><filter id="luminosity-noclip-6" x="66.71" y="32.2" width="56.14" height="22.86" filterUnits="userSpaceOnUse" color-interpolation-filters="sRGB"><feFlood flood-color="#fff" result="bg"/><feBlend in="SourceGraphic" in2="bg"/></filter><mask id="mask-6" x="59.01" y="22.2" width="56.14" height="22.86" maskUnits="userSpaceOnUse"><g class="cls-129"><g transform="translate(-7.69 -10)"><g class="cls-3"><path class="cls-4" d="M88.9,44c2.49-2.49,7.84-5.32,13.41-7.82C88.69,41.89,70.69,50,66.71,55.07c6.23-.63,11.15-1.13,15-1.54,15-9.48,41.13-20.09,41.13-20.09l-1.58-1.24C112.33,36.32,83.57,49.37,88.9,44Z"/></g></g></g></mask><radialGradient id="radial-gradient-39" cx="98.07" cy="13.53" r="51.04" xlink:href="#radial-gradient-14"/><radialGradient id="radial-gradient-41" cx="96.64" cy="50.82" r="45.49" xlink:href="#radial-gradient-14"/><radialGradient id="radial-gradient-42" cx="84.81" cy="61.63" r="20.43" xlink:href="#radial-gradient-13"/><radialGradient id="radial-gradient-43" cx="97.78" cy="41.03" r="25.05" xlink:href="#radial-gradient-14"/><radialGradient id="radial-gradient-45" cx="11.85" cy="41.27" r="16.47" xlink:href="#radial-gradient-14"/><radialGradient id="radial-gradient-46" cx="27.03" cy="43.72" r="44.17" xlink:href="#radial-gradient-13"/><radialGradient id="radial-gradient-47" cx="12.96" cy="54.24" r="30.29" xlink:href="#radial-gradient-14"/><radialGradient id="radial-gradient-48" cx="8.9" cy="45.66" r="30.56" xlink:href="#radial-gradient-14"/><radialGradient id="radial-gradient-50" cx="160.51" cy="65.22" r="31.21" xlink:href="#radial-gradient-13"/><radialGradient id="radial-gradient-51" cx="138.17" cy="52.63" r="51.74" xlink:href="#radial-gradient-14"/><radialGradient id="radial-gradient-52" cx="122.27" cy="43.03" r="48.49" xlink:href="#radial-gradient-14"/><radialGradient id="radial-gradient-54" cx="134.55" cy="54.32" r="11.6" xlink:href="#radial-gradient-14"/><radialGradient id="radial-gradient-55" cx="97.15" cy="53.16" r="11.27" xlink:href="#radial-gradient-14"/><radialGradient id="radial-gradient-56" cx="108.18" cy="35.75" r="9.78" xlink:href="#radial-gradient-14"/><radialGradient id="radial-gradient-57" cx="43.28" cy="35.74" r="9.15" xlink:href="#radial-gradient-14"/><radialGradient id="radial-gradient-58" cx="164.17" cy="35.58" r="10.89" xlink:href="#radial-gradient-14"/><radialGradient id="radial-gradient-59" cx="229.35" cy="39.93" r="28.25" xlink:href="#radial-gradient-14"/><radialGradient id="radial-gradient-60" cx="232.98" cy="44.71" r="28.93" xlink:href="#radial-gradient-14"/><radialGradient id="radial-gradient-61" cx="63.55" cy="26.56" r="15.52" xlink:href="#radial-gradient-14"/><radialGradient id="radial-gradient-62" cx="129.75" cy="26.1" r="13.49" xlink:href="#radial-gradient-14"/><radialGradient id="radial-gradient-63" cx="162.06" cy="73.41" r="18.4" xlink:href="#radial-gradient-5"/><radialGradient id="radial-gradient-64" cx="110.03" cy="66.89" r="21.92" xlink:href="#radial-gradient-5"/><radialGradient id="radial-gradient-65" cx="33.27" cy="66.89" r="20.66" xlink:href="#radial-gradient-5"/><radialGradient id="radial-gradient-68" cx="169.75" cy="83.41" r="18.4" xlink:href="#radial-gradient-5"/><radialGradient id="radial-gradient-69" cx="119.49" cy="68.18" r="22.91" xlink:href="#radial-gradient-13"/><radialGradient id="radial-gradient-70" cx="131.86" cy="57.41" r="32.69" xlink:href="#radial-gradient-14"/><radialGradient id="radial-gradient-71" cx="143.31" cy="43.47" r="50.48" xlink:href="#radial-gradient-14"/><radialGradient id="radial-gradient-73" cx="68.79" cy="48.94" r="19.23" xlink:href="#radial-gradient-14"/><radialGradient id="radial-gradient-74" cx="76.48" cy="58.94" r="19.23" xlink:href="#radial-gradient-14"/><radialGradient id="radial-gradient-75" cx="225.37" cy="83.91" r="18.3" xlink:href="#radial-gradient-14"/><radialGradient id="radial-gradient-76" cx="225.56" cy="92.85" r="19.03" xlink:href="#radial-gradient-13"/><radialGradient id="radial-gradient-79" cx="185.71" cy="77.72" r="29.74" xlink:href="#radial-gradient-14"/><radialGradient id="radial-gradient-80" cx="213.59" cy="55.12" r="45.36" xlink:href="#radial-gradient-14"/><radialGradient id="radial-gradient-81" cx="208.5" cy="86.05" r="18.78" xlink:href="#radial-gradient-13"/><radialGradient id="radial-gradient-82" cx="201.08" cy="83.1" r="24.12" xlink:href="#radial-gradient-14"/><radialGradient id="radial-gradient-83" cx="225.62" cy="68.49" r="26.91" xlink:href="#radial-gradient-14"/><radialGradient id="radial-gradient-85" cx="179.21" cy="64.09" r="48.38" xlink:href="#radial-gradient-13"/><radialGradient id="radial-gradient-86" cx="165.27" cy="59.99" r="37.68" xlink:href="#radial-gradient-14"/><filter id="luminosity-noclip-7" x="124.89" y="61.54" width="56.86" height="20.9" filterUnits="userSpaceOnUse" color-interpolation-filters="sRGB"><feFlood flood-color="#fff" result="bg"/><feBlend in="SourceGraphic" in2="bg"/></filter><mask id="mask-7" x="117.19" y="51.54" width="56.86" height="20.9" maskUnits="userSpaceOnUse"><g class="cls-128"><g transform="translate(-7.69 -10)"><g class="cls-5"><path class="cls-6" d="M143.42,71.83c1.18-1.74,4.24-3.68,8-5.54-10.25,3.45-20.81,8.24-26.48,14.46,3,.66,5.72,1.21,8.2,1.68,6.07-3.81,25-14.92,48.65-20.44l-.58-.45C164.07,63.73,139.68,77.29,143.42,71.83Z"/></g></g></g></mask><radialGradient id="radial-gradient-87" cx="165.08" cy="46.33" r="48.75" xlink:href="#radial-gradient-14"/><radialGradient id="radial-gradient-89" cx="41.39" cy="63.58" r="43.56" xlink:href="#radial-gradient-14"/><radialGradient id="radial-gradient-90" cx="32.85" cy="68.58" r="41.82" xlink:href="#radial-gradient-13"/><radialGradient id="radial-gradient-91" cx="50.62" cy="61.66" r="42.39" xlink:href="#radial-gradient-14"/><radialGradient id="radial-gradient-93" cx="104.46" cy="72.04" r="16.18" xlink:href="#radial-gradient-37"/><radialGradient id="radial-gradient-94" cx="112.43" cy="62.48" r="51.75" xlink:href="#radial-gradient-14"/><filter id="luminosity-noclip-8" x="68.89" y="60.76" width="56.14" height="22.86" filterUnits="userSpaceOnUse" color-interpolation-filters="sRGB"><feFlood flood-color="#fff" result="bg"/><feBlend in="SourceGraphic" in2="bg"/></filter><mask id="mask-8" x="61.19" y="50.76" width="56.14" height="22.86" maskUnits="userSpaceOnUse"><g class="cls-127"><g transform="translate(-7.69 -10)"><g class="cls-7"><path class="cls-8" d="M91.09,72.59c2.49-2.49,7.84-5.31,13.4-7.82C90.87,70.44,72.87,78.6,68.89,83.62c6.24-.62,11.15-1.13,15-1.54C98.92,72.61,125,62,125,62l-1.58-1.23C114.52,64.88,85.75,77.93,91.09,72.59Z"/></g></g></g></mask><radialGradient id="radial-gradient-95" cx="100.25" cy="42.09" r="51.04" xlink:href="#radial-gradient-14"/><radialGradient id="radial-gradient-97" cx="98.82" cy="79.37" r="45.49" xlink:href="#radial-gradient-14"/><radialGradient id="radial-gradient-98" cx="86.99" cy="90.18" r="20.43" xlink:href="#radial-gradient-13"/><radialGradient id="radial-gradient-99" cx="99.97" cy="69.58" r="25.05" xlink:href="#radial-gradient-14"/><radialGradient id="radial-gradient-101" cx="14.04" cy="69.82" r="16.47" xlink:href="#radial-gradient-14"/><radialGradient id="radial-gradient-102" cx="29.22" cy="72.28" r="44.17" xlink:href="#radial-gradient-13"/><radialGradient id="radial-gradient-103" cx="15.14" cy="82.79" r="30.29" xlink:href="#radial-gradient-14"/><radialGradient id="radial-gradient-104" cx="11.09" cy="74.22" r="30.56" xlink:href="#radial-gradient-14"/><radialGradient id="radial-gradient-106" cx="162.7" cy="93.77" r="31.21" xlink:href="#radial-gradient-13"/><radialGradient id="radial-gradient-107" cx="140.35" cy="81.18" r="51.74" xlink:href="#radial-gradient-14"/><radialGradient id="radial-gradient-108" cx="124.46" cy="71.59" r="48.49" xlink:href="#radial-gradient-14"/><radialGradient id="radial-gradient-110" cx="136.73" cy="82.88" r="11.6" xlink:href="#radial-gradient-14"/><radialGradient id="radial-gradient-111" cx="99.34" cy="81.71" r="11.27" xlink:href="#radial-gradient-14"/><radialGradient id="radial-gradient-112" cx="110.36" cy="64.3" r="9.78" xlink:href="#radial-gradient-14"/><radialGradient id="radial-gradient-113" cx="45.46" cy="64.3" r="9.15" xlink:href="#radial-gradient-14"/><radialGradient id="radial-gradient-114" cx="166.35" cy="64.13" r="10.89" xlink:href="#radial-gradient-14"/><radialGradient id="radial-gradient-115" cx="231.54" cy="68.49" r="28.25" xlink:href="#radial-gradient-14"/><radialGradient id="radial-gradient-116" cx="235.17" cy="73.27" r="28.93" xlink:href="#radial-gradient-14"/><radialGradient id="radial-gradient-117" cx="65.74" cy="55.12" r="15.52" xlink:href="#radial-gradient-14"/><radialGradient id="radial-gradient-118" cx="131.94" cy="54.66" r="13.5" xlink:href="#radial-gradient-14"/></defs><g class="cls-10"><g id="Layer_1" data-name="Layer 1"><path class="cls-11" d="M143.8,58.49,31.94,63,42,92.81a10.06,10.06,0,0,0,6.71,7.45c5.77,1.87,94.45,34.28,94.45,34.28a13.6,13.6,0,0,0,5,.29c0-.14-.06-.23-.06-.23Z" transform="translate(-7.69 -10)"/><path class="cls-12" d="M143.8,58.49l4.33,76.11s0,.09.06.23a13.11,13.11,0,0,0,5.77-2.15c5.22-3.54,61.67-37.82,61.67-37.82a12,12,0,0,0,4.84-5.59c1.68-3.91,14-31.48,14-31.48l.94-3Z" transform="translate(-7.69 -10)"/><path class="cls-13" d="M235.38,54.81,31.94,63,34,69.22l108.62,39.3a7.23,7.23,0,0,0,7.45.25c3.49-2,66.39-36.78,81.81-45.32l2.52-5.66Z" transform="translate(-7.69 -10)"/><path class="cls-14" d="M123.41,10.28a15.29,15.29,0,0,0-9.31,1.12c-5,2.23-87.38,40.05-87.38,40.05S16.29,56.3,21,60.39s122.58,44,122.58,44a8.55,8.55,0,0,0,7.64-.74c4.1-2.43,85.51-46.95,85.51-46.95s5-3.91.19-7.45Z" transform="translate(-7.69 -10)"/><path class="cls-12" d="M116.77,40.65,57.67,69.6c34,11.87,83.87,28.8,83.87,28.8s6,2.42,11.74-.38c3.65-1.76,33.88-18,55.63-29.66C189.66,61.48,129.19,39.91,125,39A9.64,9.64,0,0,0,116.77,40.65Z" transform="translate(-7.69 -10)"/><path class="cls-15" d="M117.26,12.89C113.91,14,31,53.13,31,53.13s-7.08,3.17-4.29,5.21c.93.69,13.94,5.35,30.89,11.26L116.7,40.65a9.18,9.18,0,0,1,4.87-1.89l-1.74-26.39A10.75,10.75,0,0,0,117.26,12.89Z" transform="translate(-7.69 -10)"/><path class="cls-16" d="M234.63,51.82,123.23,12.7a9.17,9.17,0,0,0-3.4-.33l1.74,26.39a10.49,10.49,0,0,1,3.33.21c4.22.94,64.69,22.51,83.95,29.39L231.28,56.3S236.49,54.06,234.63,51.82Z" transform="translate(-7.69 -10)"/><path class="cls-17" d="M192.53,69.15c-5.59-1.68-12.48,4.1-16.4,5.59s-5.59-.93-5-3,0-4.47-5.21-4.85-6.71,2.61-6.9,4.1.56,4.29-3,5-3-5.59-7.45-4.1-1.12,7.27-2.42,9.51-7.08,1.49-10.06-.38.56-3.35,1.86-5.77.56-3.36-3-3.17-.74-2.79,0-4.66.38-4.47-5.59-3.91-5.77,5.78-9.87,8.57S102,71,95.47,72.5s-2.8,6.15.74,8c1.73.9,2,2.08,1.89,3,23.37,8,43.44,14.83,43.44,14.83s6,2.42,11.74-.38c2.95-1.42,23.29-12.3,42.46-22.58C196.11,73,195.69,70.1,192.53,69.15Z" transform="translate(-7.69 -10)"/><path class="cls-17" d="M84.81,66.78a5.08,5.08,0,0,0-2.76-.16,4.38,4.38,0,0,0-4.26,2.24c-1,2,1.53,3,3.08,3.24a4.84,4.84,0,0,0,5.36-2.84C86.73,68.09,85.84,67.16,84.81,66.78Z" transform="translate(-7.69 -10)"/><path class="cls-17" d="M113.44,53.67a3,3,0,0,0-2.51-1.12h0c-.36,0-.7,0-1,0h-.29a3.68,3.68,0,0,0-.64-.07,3.76,3.76,0,0,0-1.45.3c-.84.38-2.19,1-2.55,2-1.13,3,2.66,2.86,4.55,2.69C111.18,57.26,114.66,55.86,113.44,53.67Z" transform="translate(-7.69 -10)"/><path class="cls-17" d="M143.67,60c-2.78.92-5.78,1-8.31-.67-1.91-1.3-1.7-3.07.12-4.29,2.13-1.43,4.59-.92,6.85-.07S147.24,58.87,143.67,60Z" transform="translate(-7.69 -10)"/><path class="cls-17" d="M117.31,60.28a1.52,1.52,0,0,1-1,0,.61.61,0,0,1-.42-.54.6.6,0,0,0,.29-.09.69.69,0,0,0,.23-.19,1.06,1.06,0,0,1,.72-.18c.26,0,.7.14.69.47S117.51,60.19,117.31,60.28Z" transform="translate(-7.69 -10)"/><path class="cls-18" d="M111.27,53.83c-.36-.83-1.82-.89-2.55-.86l-.42.06a.43.43,0,0,0-.29,0,3.82,3.82,0,0,0-1.19.52c-.53.33-1.5,1.2-1.34,1.94.21,1,1.36,1.11,2.22,1.16a4.49,4.49,0,0,0,3-.93A1.64,1.64,0,0,0,111.27,53.83Z" transform="translate(-7.69 -10)"/><path class="cls-18" d="M84.39,68.28c-.36-1-1.7-1.27-2.65-1.17a3.57,3.57,0,0,0-.59.13,4.06,4.06,0,0,0-1.06.28,2.45,2.45,0,0,0-1,.78c-.47.4-.72.87-.49,1.38.13,1.83,3.74,1.18,4.74.56C84,69.85,84.66,69.09,84.39,68.28Z" transform="translate(-7.69 -10)"/><path class="cls-18" d="M85.18,69.1Z" transform="translate(-7.69 -10)"/><path class="cls-18" d="M85.38,68.57c-.22,0-.43.37-.2.53s.35-.07.39-.22S85.61,68.52,85.38,68.57Z" transform="translate(-7.69 -10)"/><path class="cls-18" d="M112.25,54.05c0,.14-.12.34.06.41s.39-.1.45-.27C112.89,53.83,112.35,53.78,112.25,54.05Z" transform="translate(-7.69 -10)"/><path class="cls-18" d="M116.86,59.58c-.26,0-.52.52-.19.52S117.2,59.58,116.86,59.58Z" transform="translate(-7.69 -10)"/><path class="cls-18" d="M140.84,56c-.58-.8-2.1-1.13-3.36-1a3.15,3.15,0,0,0-2.27,1.07c-1.2,1.54,2.13,2.2,3,2.19S142,57.53,140.84,56Z" transform="translate(-7.69 -10)"/><path class="cls-18" d="M143.89,57.59a.51.51,0,0,0-.6-.07c-.49.22-.42.92,0,.79a.54.54,0,0,0,.31-.06C143.85,58.16,144.11,57.8,143.89,57.59Z" transform="translate(-7.69 -10)"/><path class="cls-18" d="M134,73a11.92,11.92,0,0,0-1.32.17c-3.34.47-.82-3.1-.55-3.62.82-1.51.76-3.67-.78-4.65-1.15-.72-3.86-.14-4.85.72a7.72,7.72,0,0,0-1.79,2.33,24.27,24.27,0,0,1-1.33,2.15,33.43,33.43,0,0,0-2.42,2.52c-5.38,4.07-13,1.07-18.89.44-1.78-.19-5.6-.72-7.24.81-1,.42-1.19,1.84-.54,3.05.94,1.78,3.83,2.66,5.28,3.94.58.5.73,1.35,1.28,1.87A8.4,8.4,0,0,0,104.14,84c3.13.87,9.69,3.48,13,2,.68-.31,1.57-.88,1.61-1.76.11-2.59-1.15-4.94.49-6.85a8.25,8.25,0,0,1,1.31-.86c3.58-1.9,4.13,2.71,4.12,5,0,1.59,1.87,2,3.07,2.16,1.91.35,3.17-.94,4.07-2.6a4,4,0,0,0,.48-.67,20.93,20.93,0,0,1,2.4-3.84,9.94,9.94,0,0,0,1.81-2C137.37,72.86,135.93,72.68,134,73Z" transform="translate(-7.69 -10)"/><path class="cls-18" d="M191.73,71.39a3,3,0,0,0-.33-.42c-1-1.11-3.12-.52-4.35-.15a17.62,17.62,0,0,0-4.82,2.66c-1.22.85-2.86,2.36-4.37,2.65a24.43,24.43,0,0,1-3.6.45,5.42,5.42,0,0,1-2.46-.67c-3.37-1.57-1.69-5.79-4.26-7.63-1.5-1.07-3.88-.69-5.4.09-2.82,1.47-2.06,5.54-4.07,7.72a3.64,3.64,0,0,1-4.79.45c-1.4-.84-2.24-2.73-3.93-3-.86-.15-1.49.71-1.72,1.37a2.94,2.94,0,0,0,0,1.56c0,.37,0,.73,0,1a21.56,21.56,0,0,0,.38,2.66c.32,2.25-2,3-3.81,3.22a13.7,13.7,0,0,1-2.79.12c-1-.07-2.61-.57-3.6-.28-3.21,1,1.36,4.36,2.44,4.86,3.43,1.57-1.86,3.81-2.53,4.25a2.33,2.33,0,0,0-.9,1.7c-.33,1.68,3.44,2,4.36,2.13,3.43.51,6.93,1.49,10-.75a4,4,0,0,0,1.51-1.91,3.27,3.27,0,0,0,.19-1.28c-.34-4.17,5-4.33,7.35-4.36A35.53,35.53,0,0,0,175.52,84c2-1,3.85-2.29,5.86-3.29s4.14-1.66,6-2.83S193.38,74.11,191.73,71.39Z" transform="translate(-7.69 -10)"/><path class="cls-18" d="M134.77,85.51c-1.5-.94-4-1.55-5.7-.74a2.8,2.8,0,0,0-2,2.43c-.34,2.85,4.3,3.62,6.24,3.27C135.64,90,137.07,87,134.77,85.51Z" transform="translate(-7.69 -10)"/><path class="cls-18" d="M125.42,85.46c-.28-.51-.92-.25-1.14.18-.22.26-.34.59,0,.81a.71.71,0,0,0,.8,0C125.34,86.24,125.62,85.8,125.42,85.46Z" transform="translate(-7.69 -10)"/><path class="cls-19" d="M82.3,67.43a3.44,3.44,0,0,0-2.31.35,2.19,2.19,0,0,0-1.07,1.35.71.71,0,0,0,.26.81c.13.1.29-.08.28-.21,0-.65.75-1.15,1.26-1.43.32-.18.61-.38.94-.54a4.47,4.47,0,0,0,.64-.25S82.35,67.43,82.3,67.43Z" transform="translate(-7.69 -10)"/><path class="cls-19" d="M99.59,73.53a5.47,5.47,0,0,0-.58-.15h0s0,0,0,0h0a4.63,4.63,0,0,0-3.36.47c-.44.3-1,.83-1.06,1.42,0,.79.44,1.14.67,1.82,0,.12.19,0,.2-.09a2,2,0,0,0,0-.25.31.31,0,0,0,0-.08.22.22,0,0,1,0-.08c0-.15,0-.3,0-.45a1.46,1.46,0,0,1,.9-1.52,6.32,6.32,0,0,1,3.21-1S99.64,73.55,99.59,73.53Z" transform="translate(-7.69 -10)"/><path class="cls-19" d="M130.37,65.36a3,3,0,0,0-2.82.23l-.15.11a1.09,1.09,0,0,0-.15.08,6.62,6.62,0,0,0-1.54,1.63c-1.73,2.43-2.85,4.9-5.45,6.53l-.19.12c-.06,0-.11.17,0,.18,1.23,0,2.89-1.22,3.73-2,1.42-1.37,2-3.24,3-4.87a4.63,4.63,0,0,1,3.49-1.86C130.36,65.49,130.44,65.4,130.37,65.36Z" transform="translate(-7.69 -10)"/><path class="cls-19" d="M148.89,81.44c0-.19-.27,0-.29.1a2.94,2.94,0,0,1-2,2.16,8,8,0,0,1-3.32.81s-.1.07-.05.08h0c.48.81,2.81.19,3.49,0a2.9,2.9,0,0,0,1.94-1.76A2.35,2.35,0,0,0,148.89,81.44Z" transform="translate(-7.69 -10)"/><path class="cls-19" d="M166.59,68.44a4,4,0,0,0-4.75,1c-.09.08-.19.15-.28.24-1.23,1.22-1.37,2.55-1.69,4.19,0,.07.09,0,.11,0a11.72,11.72,0,0,1,1.87-3.44,5.27,5.27,0,0,1,.55-.51,7.82,7.82,0,0,1,4.16-1.37S166.61,68.46,166.59,68.44Z" transform="translate(-7.69 -10)"/><path class="cls-19" d="M179.59,76.12a14.71,14.71,0,0,1-2.92.74c-1,.18-2.39.56-3.31.15,0,0-.06,0,0,0,.65.81,1.88.8,2.83.7a6.07,6.07,0,0,0,3.5-1.44C179.75,76.25,179.75,76.06,179.59,76.12Z" transform="translate(-7.69 -10)"/><path class="cls-19" d="M109,53.36a3.89,3.89,0,0,0-2.41.72,2,2,0,0,0-.65.84c-.11.44,0,.64.29,1,0,.08.15,0,.15-.08-.08-1,.89-1.52,1.56-2,0,0,0,0,0-.07.38-.16.75-.28,1-.38A0,0,0,0,0,109,53.36Z" transform="translate(-7.69 -10)"/><path class="cls-19" d="M138.7,55.28a3,3,0,0,0-2.28.16,1.34,1.34,0,0,0-1,1.51c0,.07.12,0,.13,0,.32-1.3,2.08-1.28,3.1-1.59C138.7,55.32,138.73,55.29,138.7,55.28Z" transform="translate(-7.69 -10)"/><path class="cls-13" d="M127.14,39.9a17.25,17.25,0,0,0-3-.58l-4.22-24.38V39.5a9.75,9.75,0,0,0-3.17,1.15L60.63,68.22s52-24.41,55.7-26.08a16,16,0,0,1,8-1.68c1.31.19,11.55,2.24,11.55,2.24Z" transform="translate(-7.69 -10)"/><path class="cls-20" d="M124.34,13.07,230.53,50.52S137.76,15.87,124.34,13.07Z" transform="translate(-7.69 -10)"/><path class="cls-20" d="M32.5,52.38l82-38.19S53.36,44.37,32.5,52.38Z" transform="translate(-7.69 -10)"/><g class="cls-21"><polygon class="cls-22" points="136.21 46.64 158.83 40.05 182.32 38.91 166.28 49.51 136.21 46.64"/><polygon class="cls-23" points="80.06 42.92 106.13 29.17 134.2 34.32 123.03 45.49 80.06 42.92"/><polygon class="cls-24" points="17.05 38.33 27.93 34.61 66.03 40.05 64.02 46.93 39.68 50.94 17.05 38.33"/><polygon class="cls-25" points="94.67 45.21 115.01 42.2 122.74 61.53 73.86 61.44 94.67 45.21"/><path class="cls-26" d="M35.63,44.61,24.74,48.33,47.37,60.94l24.35-4,2-6.88Zm4.21,7.8c-8.89-4.13-6.35-6.64-4.63-5.64,0,0,14.31,4.29,21.18,5.14S50.1,57.18,39.84,52.41Z" transform="translate(-7.69 -10)"/><g class="cls-27"><path class="cls-28" d="M122.7,52.2l-20.33,3L81.55,71.44l48.89.1Zm-9.51,14.63A7.07,7.07,0,0,0,110,64.92l2.39-.79,1.91-7.79c1.27-1.11,1.58-1.75,1.27,2.7s1.43,6,1.43,6A12.92,12.92,0,0,0,113.19,66.83Z" transform="translate(-7.69 -10)"/></g><path class="cls-29" d="M113.82,39.17,87.76,52.92l43,2.57L141.9,44.32Zm8.9,10.31L119,48.61l-1.17,3-5.37.87-2.47-3.34-5.22-.58s6.82-3.34,9.43-4.22,9.37.16,12.16.59C129.26,45.41,122.72,49.48,122.72,49.48Z" transform="translate(-7.69 -10)"/><g class="cls-27"><path class="cls-30" d="M166.53,50.05,143.9,56.64,174,59.5l16-10.59Zm.13,5.8c-3,.1-7.3-.43-5.47-.54,0,0,10.09-1.72,11.38-1.18S169.67,55.74,166.66,55.85Z" transform="translate(-7.69 -10)"/></g><path class="cls-31" d="M85.28,41q.28.78.66,1.77c23.49-1,58.25,1.71,58.25,1.71l5.15-9A180.91,180.91,0,0,0,85.28,41Z" transform="translate(-7.69 -10)"/><path class="cls-32" d="M84.23,37.83s.25,1,1,3.2a180.91,180.91,0,0,1,64.06-5.49l-4.2-4.39C117.07,24.85,84.23,37.83,84.23,37.83Z" transform="translate(-7.69 -10)"/><path class="cls-33" d="M145.28,31c-13.38-2.95-27.38-1.85-40.7.87A124.51,124.51,0,0,0,84,37.75s-.09,0-.08.09a46,46,0,0,0,1.73,5c0,.08.22.08.28.08,19.35-.77,38.87.23,58.16,1.72.1,0,.3,0,.35-.09l5.16-9a.06.06,0,0,0,0-.06l-4.2-4.39c-.12-.13-.65,0-.55.07L149,35.53A17.38,17.38,0,0,1,147.65,38q-1.6,2.77-3.2,5.57l-.42.72c-.18.31-.12.1.22.12l-.66,0q-14.52-1.07-29.08-1.55c-7-.24-14-.38-20.94-.31-1.63,0-3.26,0-4.89.1l-2.35.08c-.49,0-1.2-2.87-1.36-3.34a9.67,9.67,0,0,0-.49-1.44l.75-.29a135.5,135.5,0,0,1,29.83-7.19c9.93-1.26,20.13-1.32,29.94.84C145.17,31.29,145.65,31.13,145.28,31Z" transform="translate(-7.69 -10)"/><g class="cls-27"><path class="cls-34" d="M125.14,31.15c2.84-1.56,11.26-1.12,17-.61-27.34-4.77-57.86,7.29-57.86,7.29s.25,1,1,3.2a180.91,180.91,0,0,1,64.06-5.49l-.72-.75C142.37,34.47,121.35,33.22,125.14,31.15Z" transform="translate(-7.69 -10)"/></g><g class="cls-27"><path class="cls-31" d="M126.08,37.88c4.64-2.51,18.84-2,22.93-1.76l.33-.58A180.91,180.91,0,0,0,85.28,41q.28.78.66,1.77c23.49-1,58.25,1.71,58.25,1.71l4.06-7.07C136.55,40.52,120.88,40.7,126.08,37.88Z" transform="translate(-7.69 -10)"/></g><polygon class="cls-35" points="60.87 23.63 92.76 29.93 84.36 34.32 50.94 29.17 60.87 23.63"/><path class="cls-33" d="M68.43,33.73l20,4L99,39.77l1.07.21c.37.08.23-.14,0,0L94.81,42.7,92.43,44l-.54.28c-.09,0,.5,0,.2,0l-2.58-.39L77.74,42l-13.2-2-4.35-.67-1.11-.17c-.41-.06-.22.12-.07,0l9.81-5.47c.17-.09-.37-.17-.5-.1l-9.93,5.54c-.12.06,0,.14.11.15l19.79,3,11.4,1.76,2.2.34c.79.12,2-.86,2.62-1.2L100.66,40c.14-.07.06-.16-.06-.18l-31.89-6.3C68.54,33.49,68.06,33.66,68.43,33.73Z" transform="translate(-7.69 -10)"/><g class="cls-27"><path class="cls-36" d="M70.15,33.94c6.94,1.68,19.36,5,14.22,5.9-5.57,1-17.89-1.38-22.66-2.39l-3.07,1.72,33.42,5.15,8.4-4.39Z" transform="translate(-7.69 -10)"/></g><path class="cls-37" d="M248.83,58.84,242.15,52s-18.91-1.14-44.49,4.78a7.85,7.85,0,0,0-.12,1.46C229.39,54.65,248.83,58.84,248.83,58.84Z" transform="translate(-7.69 -10)"/><path class="cls-38" d="M197.54,58.2c0,6.25,6.23,13.62,6.23,13.62l6.49-.57s22.34-10.5,39-6.11l-.38-6.3S229.39,54.65,197.54,58.2Z" transform="translate(-7.69 -10)"/><path class="cls-33" d="M203.64,72.12l-.09-.11c-.26-.31-6.29-7.53-6.3-13.81a8.89,8.89,0,0,1,.12-1.51l0-.19.18,0A183.53,183.53,0,0,1,238,51.59c2.65,0,4.15.09,4.17.09h.11l6.83,7,.41,6.81-.38-.11a35.29,35.29,0,0,0-8.91-1.06c-14.46,0-29.7,7.09-29.85,7.16l-.1,0ZM197.91,57a7.9,7.9,0,0,0-.09,1.23c0,5.66,5.3,12.37,6.07,13.32l6.29-.55c1-.44,15.87-7.19,30-7.19a36.11,36.11,0,0,1,8.67,1l-.35-5.8L242,52.24c-.39,0-1.79-.08-4-.08A183.28,183.28,0,0,0,197.91,57Z" transform="translate(-7.69 -10)"/><g class="cls-27"><path class="cls-37" d="M234.88,54.35c.82-1.22,5.22-1.47,8.14-1.49l-.87-.9s-18.91-1.14-44.49,4.78a7.85,7.85,0,0,0-.12,1.46c31.85-3.55,51.29.64,51.29.64l-2.18-2.25C241.4,56.26,234.07,55.57,234.88,54.35Z" transform="translate(-7.69 -10)"/></g><g class="cls-27"><path class="cls-38" d="M223,62.37c7.33-3.34,20.45-2.7,25.95-2.25l-.08-1.28s-19.44-4.19-51.29-.64c0,6.25,6.23,13.62,6.23,13.62l6.49-.57s22.34-10.5,39-6.11c0-.27,0-.53,0-.78C239.81,61.79,214.37,66.27,223,62.37Z" transform="translate(-7.69 -10)"/></g><path class="cls-39" d="M147.81,56.35s29.79-6.49,75.43-4.58L225,43.94s-28.26-3-52.51-1.53S142.09,55,142.09,55Z" transform="translate(-7.69 -10)"/><path class="cls-33" d="M147.9,56.46c4.77-1,9.64-1.69,14.48-2.3a348.26,348.26,0,0,1,39.53-2.6q10.64-.12,21.27.33c.1,0,.32,0,.35-.15q.85-3.91,1.72-7.83s-.13-.08-.15-.08c-9.31-1-18.69-1.53-28-1.81-8-.24-16.1-.22-24.13.25a59.79,59.79,0,0,0-19.38,4,30.46,30.46,0,0,0-9.19,5.7,13,13,0,0,0-2.55,3c0,.06,0,.1.08.11l5.73,1.33c.14,0,.67-.13.39-.2l-5.17-1.2c-.33-.08-.42-.13-.48,0a.35.35,0,0,0,0-.08c.11-.18.24-.36.36-.54a21.32,21.32,0,0,1,6-5.3,44.14,44.14,0,0,1,16.13-5.72c8.29-1.43,16.91-1.34,25.3-1.26,10,.09,20.11.63,30.12,1.51,1.15.1,2.3.2,3.44.32l.82.08c.36,0,.07,0,.09-.06q-.87,3.91-1.72,7.83l.35-.15c-24.18-1-48.84-.24-72.71,4.05-1,.17-1.92.34-2.87.55C147.35,56.33,147.66,56.51,147.9,56.46Z" transform="translate(-7.69 -10)"/><g class="cls-27"><path class="cls-40" d="M176.46,46.62c3.41-2.86,14.88-3.94,25.83-4.29a288.89,288.89,0,0,0-29.84.08C148.2,43.94,142.09,55,142.09,55l5.72,1.33s29.79-6.49,75.43-4.58c.59-2.67,1-4.43,1.23-5.59C211,46.19,169.77,52.22,176.46,46.62Z" transform="translate(-7.69 -10)"/></g><path class="cls-41" d="M197.85,62.46l32.08-3.62,2.48-6.31s-34.75,4.73-52.18,8.37C189,62,197.85,62.46,197.85,62.46Z" transform="translate(-7.69 -10)"/><path class="cls-42" d="M165.38,57.88c3.14,1.3,9,2.3,14.85,3,17.43-3.64,52.18-8.37,52.18-8.37l-4-4.2C190,46.81,165.38,57.88,165.38,57.88Z" transform="translate(-7.69 -10)"/><path class="cls-33" d="M197.85,62.75h0c-.09,0-9-.49-17.64-1.56-7.17-.89-12.19-1.91-14.92-3l-.61-.26.61-.27c.21-.1,22-9.72,55.87-9.72,2.41,0,4.85.05,7.27.15h.12l4.21,4.42-2.61,6.63-.17,0Zm-31.7-4.88c2.79,1,7.54,1.93,14.11,2.75,8.44,1,17.06,1.53,17.58,1.56l31.88-3.61,2.36-6-3.81-4c-2.37-.1-4.77-.14-7.13-.14C190.64,48.48,170,56.3,166.15,57.87Z" transform="translate(-7.69 -10)"/><g class="cls-27"><path class="cls-43" d="M198.8,52.73c.32-3,22.27-4.06,29.67-4.32l-.07-.08c-38.38-1.52-63,9.55-63,9.55,3.14,1.3,9,2.3,14.85,3,17.43-3.64,52.18-8.37,52.18-8.37l-.74-.77C225.36,52.58,198.46,55.93,198.8,52.73Z" transform="translate(-7.69 -10)"/></g><g class="cls-27"><path class="cls-41" d="M211.5,58.07c.6-1.32,15.84-4.16,20.71-5l.2-.51s-34.75,4.73-52.18,8.37c8.77,1.08,17.62,1.56,17.62,1.56l32.08-3.62.4-1C223.91,58.33,211,59.26,211.5,58.07Z" transform="translate(-7.69 -10)"/></g><path class="cls-44" d="M142.32,55.78s14.47-8.88,36.67-13l.57-9.31a168.39,168.39,0,0,0-48.65,20.44C137.71,55.17,142.32,55.78,142.32,55.78Z" transform="translate(-7.69 -10)"/><path class="cls-45" d="M122.7,52.2c3,.65,5.73,1.21,8.21,1.68a168.39,168.39,0,0,1,48.65-20.44l-3.29-2.58S136,37.59,122.7,52.2Z" transform="translate(-7.69 -10)"/><path class="cls-33" d="M122.52,52.31c1.59.35,3.19.69,4.79,1,1,.2,2.59.84,3.62.66s2.19-1.3,3-1.8c3.52-2.09,7.13-4,10.79-5.86a161.48,161.48,0,0,1,34.91-12.79s.26-.11.17-.18L178,31.9c-.36-.28-1.08-1.13-1.57-1.16a5.52,5.52,0,0,0-1.33.22c-3,.56-6.05,1.21-9.05,1.91-10.3,2.41-20.61,5.46-30.15,10.09-4.87,2.35-9.71,5.22-13.41,9.23-.15.15.4.14.51,0,3.5-3.8,8-6.53,12.62-8.83a113.26,113.26,0,0,1,16-6.31,189.94,189.94,0,0,1,23.72-5.93l.81-.14c.4-.07-.26-.2.19.15l2.4,1.89.44.33c.25.2.11,0-.18.09-1,.24-2,.5-3.06.76a158.79,158.79,0,0,0-22.15,7.65,177.33,177.33,0,0,0-16.27,8c-1.77,1-3.51,2-5.24,3-.33.19-.65.39-1,.59-.56.35-.92.14-1.59,0q-3.4-.66-6.78-1.4C122.75,52.06,122.23,52.25,122.52,52.31Z" transform="translate(-7.69 -10)"/><path class="cls-33" d="M142.39,56.08h-.1s-4.7-.64-11.43-1.91c-2.78-.52-5.54-1.09-8.22-1.68l-.48-.11.33-.36c13.24-14.52,53.33-21.36,53.73-21.43l.12,0,3.52,2.75-.6,9.68L179,43c-21.89,4.1-36.42,12.91-36.56,13Zm-19.13-4c2.52.55,5.11,1.08,7.7,1.57,6.18,1.17,10.6,1.79,11.3,1.88a120,120,0,0,1,36.46-13l.55-8.94-3.08-2.41C173.74,31.59,136.31,38.31,123.26,52Z" transform="translate(-7.69 -10)"/><g class="cls-46"><g class="cls-47"><path class="cls-48" d="M141.24,43.27c1.18-1.73,4.24-3.67,7.95-5.54C138.94,41.19,128.38,46,122.7,52.2c3,.65,5.73,1.21,8.21,1.68a168.39,168.39,0,0,1,48.65-20.44L179,33C161.89,35.17,137.5,48.74,141.24,43.27Z" transform="translate(-7.69 -10)"/></g></g><path class="cls-49" d="M148.38,47.7c7.4-5.76,25.72-11.78,31.13-13.49l.05-.77a168.39,168.39,0,0,0-48.65,20.44c6.8,1.29,11.41,1.9,11.41,1.9s14.47-8.88,36.67-13c0-.2,0-.38,0-.57C163,43.85,140.15,54.1,148.38,47.7Z" transform="translate(-7.69 -10)"/><path class="cls-50" d="M33.43,32.29l-7.83,2.3S63.47,45.8,83.32,47.27c2.36-1.37,5.18-3.08,8.54-5.24C70.86,41.84,33.43,32.29,33.43,32.29Z" transform="translate(-7.69 -10)"/><path class="cls-51" d="M24.65,40.89C45.27,51.77,72,52.53,72,52.53s2.4-.12,11.32-5.26C63.47,45.8,25.6,34.59,25.6,34.59A17.87,17.87,0,0,0,24.65,40.89Z" transform="translate(-7.69 -10)"/><path class="cls-33" d="M33.24,32.18l-6.94,2c-.57.17-.92.12-1.11.68a19.63,19.63,0,0,0-.83,6s0,.07.07.09c11.91,6.24,25.33,9.39,38.61,11,2.95.36,5.93.64,8.9.75A3.42,3.42,0,0,0,73,52.46a32.05,32.05,0,0,0,5.16-2.18A147.79,147.79,0,0,0,92.1,42.13c.18-.12-.22-.22-.29-.22C79.44,41.77,67.06,39.44,55,37c-7.18-1.43-14.35-3-21.44-4.81h0c-.23-.06-.56.09-.18.19C40.14,34.12,47,35.63,53.87,37c12,2.44,24.22,4.71,36.47,5.09.53,0,1,0,1.58,0l-.29-.21c-5.69,3.64-11.56,7.52-17.91,9.93a8.28,8.28,0,0,1-4.29.41,126,126,0,0,1-35.81-7.51c-1.44-.54-2.85-1.13-4.25-1.75-.92-.4-4.45-1.51-4.43-2.62a20.33,20.33,0,0,1,.47-4.12c.06-.27.42-1.6.39-1.59l7.82-2.28C33.91,32.32,33.39,32.14,33.24,32.18Z" transform="translate(-7.69 -10)"/><g class="cls-27"><path class="cls-52" d="M36.07,32.94c5.08,1.35,13.33,3.51,20.8,5.26,11.84,2.79,14.62,7.07-1.49,3.49a267.13,267.13,0,0,1-27.31-7.83l-2.47.73S63.47,45.8,83.32,47.27c2.36-1.37,5.18-3.08,8.54-5.24C74.21,41.87,44.94,35.1,36.07,32.94Z" transform="translate(-7.69 -10)"/></g><g class="cls-27"><path class="cls-51" d="M25.6,34.59v0c5.49,1.9,17.55,6,27.8,9.12,13.34,4-7.59,6.71-28.74-3.09v.23C45.27,51.77,72,52.53,72,52.53s2.4-.12,11.32-5.26C63.47,45.8,25.6,34.59,25.6,34.59Z" transform="translate(-7.69 -10)"/></g><path class="cls-53" d="M94.78,52.06s16.61-8.74,27.64-12l.43-6.59S96.73,44.05,81.72,53.53C92,52.44,94.78,52.06,94.78,52.06Z" transform="translate(-7.69 -10)"/><path class="cls-54" d="M66.71,55.07c6.23-.63,11.15-1.13,15-1.54,15-9.48,41.13-20.09,41.13-20.09l-4.59-3.58S73.29,46.76,66.71,55.07Z" transform="translate(-7.69 -10)"/><path class="cls-33" d="M118.11,29.77c-5.31,2-10.58,4.12-15.82,6.3A249.53,249.53,0,0,0,75,48.86c-3,1.67-6.36,3.5-8.54,6.2-.09.1.25.12.28.12,7.17-.72,14.34-1.45,21.5-2.24,1.84-.2,3.69-.41,5.53-.63A4.05,4.05,0,0,0,95,52.1c8.81-4.62,18-9.1,27.54-12,.05,0,.13,0,.13-.1q.22-3.3.43-6.59c0-.31-1.77-1.41-2-1.59l-2.62-2c-.12-.09-.66,0-.49.16l4.14,3.22c.58.46.38.62.32,1.53-.08,1.27-.16,2.54-.25,3.81,0,.26,0,1.43-.3,1.54l-1,.32c-.83.27-1.66.56-2.49.86-3,1.09-6,2.35-9,3.65-4.7,2.06-9.33,4.29-13.9,6.64-.71.37-.69.43-1.26.5-1.66.21-3.33.4-5,.59-7.51.84-15,1.6-22.55,2.35l.28.12c2.09-2.58,5.35-4.34,8.18-6,4.24-2.42,8.66-4.55,13.09-6.6,8.43-3.9,17-7.45,25.68-10.83q2.23-.88,4.49-1.73C118.76,29.82,118.28,29.71,118.11,29.77Z" transform="translate(-7.69 -10)"/><g class="cls-46"><g class="cls-55"><path class="cls-56" d="M88.9,44c2.49-2.49,7.84-5.32,13.41-7.82C88.69,41.89,70.69,50,66.71,55.07c6.23-.63,11.15-1.13,15-1.54,15-9.48,41.13-20.09,41.13-20.09l-1.58-1.24C112.33,36.32,83.57,49.37,88.9,44Z" transform="translate(-7.69 -10)"/></g></g><path class="cls-57" d="M97.81,46.5c6.48-4,20.61-10.21,25-12.11l.06-1S96.73,44.05,81.72,53.53C92,52.44,94.78,52.06,94.78,52.06s16.61-8.74,27.64-12c0-.41,0-.8.07-1.16C112.13,43,90.88,50.73,97.81,46.5Z" transform="translate(-7.69 -10)"/><path class="cls-58" d="M109.36,50.14c-30.79,0-62.19,7.46-62.19,7.46a85.59,85.59,0,0,0,9.4,5.47L113,55.49S113.39,55.31,109.36,50.14Z" transform="translate(-7.69 -10)"/><path class="cls-59" d="M72,67.77c14.74-.09,38.68-4.56,38.68-4.56L113,55.49,56.57,63.07C61.32,65.44,67.09,67.69,72,67.77Z" transform="translate(-7.69 -10)"/><path class="cls-33" d="M109.42,50a275.4,275.4,0,0,0-42.71,3.73c-6.57,1-13.15,2.21-19.63,3.75-.08,0-.27.1-.14.19A69.11,69.11,0,0,0,63.79,66.3a28.1,28.1,0,0,0,9.91,1.56c3.13-.08,6.25-.32,9.36-.61,9.25-.86,18.49-2.23,27.63-3.93.07,0,.24,0,.26-.12l2.34-7.61a.84.84,0,0,0-.16-.64,37.39,37.39,0,0,0-3.5-4.88c-.11-.13-.64,0-.54.14,1.19,1.53,3,3.32,3.66,5.2.16.47-.62,2.15-.8,2.75q-.78,2.52-1.55,5c0-.1.42-.13.1-.08l-.45.09-1.89.33c-11.66,2-23.55,3.9-35.41,4.1-4.44.08-8.78-1.45-12.8-3.19A78.16,78.16,0,0,1,49.5,58.87c-.69-.43-1.37-.87-2-1.33-.08-.06-.31.18-.12.14l.38-.09c1.22-.28,2.45-.54,3.68-.8a317.64,317.64,0,0,1,41.19-5.88q8.34-.63,16.71-.65C109.54,50.26,109.81,50,109.42,50Z" transform="translate(-7.69 -10)"/><g class="cls-27"><path class="cls-60" d="M69,56c4.24-3.76,34.27-5.18,40.69-5.45l-.35-.45c-30.79,0-62.19,7.46-62.19,7.46a85.59,85.59,0,0,0,9.4,5.47L113,55.49s.14-.08-.79-1.46C104.13,55.14,64.62,59.92,69,56Z" transform="translate(-7.69 -10)"/></g><g class="cls-27"><path class="cls-59" d="M87.47,61.37c4.55-2,20.21-4.18,25.25-4.83l.32-1L56.57,63.07c4.75,2.37,10.52,4.62,15.42,4.7,14.74-.09,38.68-4.56,38.68-4.56l.51-1.64C101.37,63.42,82.44,63.62,87.47,61.37Z" transform="translate(-7.69 -10)"/></g><path class="cls-61" d="M20.54,41.13a1.8,1.8,0,0,0-.2-.19c-.81-.63-6.77,2.16-6.77,2.16L8.37,53.59c2.37-1.88,6.47-4.86,8.81-5A51.9,51.9,0,0,1,20.54,41.13Z" transform="translate(-7.69 -10)"/><path class="cls-62" d="M80.19,66.12c-27.11-6.73-48-13.73-59.65-25a51.9,51.9,0,0,0-3.36,7.48s21.65,16.58,57.7,20.6A17.32,17.32,0,0,0,80.19,66.12Z" transform="translate(-7.69 -10)"/><path class="cls-63" d="M17.18,48.61c-2.34.12-6.44,3.1-8.81,5l-.39.8s9.84,9.84,23.56,14.26c11.57,3.73,31.94,5,43.34.56C38.83,65.19,17.18,48.61,17.18,48.61Z" transform="translate(-7.69 -10)"/><path class="cls-33" d="M20.8,41.09c-1.14-1.07-3.66.31-4.79.77-.88.36-1.76.74-2.62,1.14-.26.12-.41.69-.52.92L7.71,54.33s0,.06,0,.09a60.16,60.16,0,0,0,26.38,15.1,85.26,85.26,0,0,0,19.66,2.61A61,61,0,0,0,73.13,70a20.08,20.08,0,0,0,7.33-3.81c.09-.08-.16-.16-.19-.16-11.87-3-23.74-6.15-35.14-10.63C36.39,52,27.64,47.64,20.8,41.09c-.11-.1-.66-.08-.51.07,9,8.62,21.16,13.48,32.79,17.4,7.68,2.6,15.51,4.74,23.36,6.74l3.13.79c.28.07-1.95,1.62-2.21,1.77A24.41,24.41,0,0,1,72.06,70a49.8,49.8,0,0,1-9.93,1.68c-14.5,1.21-29.75-1.11-42.35-8.61A63.42,63.42,0,0,1,8.53,54.64c-.41-.39-.2-.35.07-.91.19-.37.37-.74.55-1.11L12,46.9l1.35-2.71c.11-.22.35-.95.53-1,.78-.36,1.56-.7,2.35-1s3.33-1.67,4.07-1C20.4,41.27,21,41.24,20.8,41.09Z" transform="translate(-7.69 -10)"/><g class="cls-27"><path class="cls-64" d="M17.18,48.61h-.1c10.61,9.24,21.63,16.09,10.74,15.11-6.19-.55-12.35-3.75-16.62-6.5A64.52,64.52,0,0,0,31.54,68.65c11.57,3.73,31.94,5,43.34.56C38.83,65.19,17.18,48.61,17.18,48.61Z" transform="translate(-7.69 -10)"/></g><g class="cls-27"><path class="cls-62" d="M20.54,41.13l-.61,1.17C24,45.91,32.81,52.46,47.17,57.6,60,62.44,40.7,62.51,17.29,48.31l-.11.3s21.65,16.58,57.7,20.6a17.32,17.32,0,0,0,5.31-3.09C53.08,59.39,32.23,52.39,20.54,41.13Z" transform="translate(-7.69 -10)"/></g><path class="cls-65" d="M160.66,62.8C138.74,62.66,117,60.36,117,60.36c3.29,7.17,4.15,8.31,4.15,8.31s48.84,7.45,82.21,1.58l.71-12.32C199.47,60.51,182.57,62.94,160.66,62.8Z" transform="translate(-7.69 -10)"/><path class="cls-66" d="M120,49.77s-3,6.58-3,10.59c0,0,21.76,2.3,43.68,2.44s38.81-2.29,43.39-4.87l-4.58-2.44S155.21,60.08,120,49.77Z" transform="translate(-7.69 -10)"/><path class="cls-33" d="M199.39,55.38c-6.55.68-13.17.89-19.76,1a239.77,239.77,0,0,1-43.15-3,145.3,145.3,0,0,1-16.35-3.71c-.09,0-.37-.05-.42.06a46.71,46.71,0,0,0-2.1,5.61,21.61,21.61,0,0,0-.9,4.37,4,4,0,0,0,.66,2.13c.42.91.85,1.81,1.29,2.71a42.84,42.84,0,0,0,2.11,4c.16.24.44.22.7.26,7.46,1.1,15,1.87,22.48,2.5,19.69,1.64,40,2.41,59.53-1,.05,0,.14,0,.14-.1l.72-12.32a.13.13,0,0,0,0-.06l-4.58-2.43c-.14-.07-.67,0-.5.11l4.44,2.36c.16.08.1.19.07.56-.08,1.47-.17,3-.25,4.42s-.19,3.15-.28,4.73c0,.81.22,2.49-.78,2.66s-2.06.33-3.09.48c-14,2-28.27,1.91-42.36,1.22-10.47-.52-20.93-1.47-31.32-2.81l-3.43-.46-.8-.12c-.34,0-.06,0,0,0a26.78,26.78,0,0,1-1.72-3.21c-.75-1.51-1.47-3-2.18-4.56s.2-3.71.6-5.13a40.28,40.28,0,0,1,2.18-5.91l-.42.06c14.45,4.2,29.54,5.93,44.53,6.54a276.05,276.05,0,0,0,31.51-.49c1.22-.09,2.44-.18,3.66-.3C199.93,55.57,199.64,55.36,199.39,55.38Z" transform="translate(-7.69 -10)"/><g class="cls-27"><path class="cls-67" d="M199.47,55.49S155.72,60,120.59,49.94c5.3,1.88,23.5,7.56,50.38,7.56,15.6.14-12,8-53.61-.1a13.65,13.65,0,0,0-.38,3s21.76,2.3,43.68,2.44,38.81-2.29,43.39-4.87Z" transform="translate(-7.69 -10)"/></g><g class="cls-27"><path class="cls-65" d="M160.66,62.8C138.74,62.66,117,60.36,117,60.36q.13.31.27.6c3.15.43,8,1,12.67,1.29,7.61.44,16.55,1.65,13.9,1.65s-7.17,3.54-9.6,1.77-3.86-2.43-10.71-1.66a13.8,13.8,0,0,1-4.91-.19,38.6,38.6,0,0,0,2.53,4.85s48.84,7.45,82.21,1.58l.71-12.32C199.47,60.51,182.57,62.94,160.66,62.8Z" transform="translate(-7.69 -10)"/></g><path class="cls-20" d="M174.68,57.35h-.49a.29.29,0,0,0,0,.57h.49A.29.29,0,0,0,174.68,57.35Z" transform="translate(-7.69 -10)"/><path class="cls-20" d="M183,57.2c-.13,0-.21.14-.33.16-.36.06-.21.61.16.55.13,0,.21-.14.32-.16C183.53,57.69,183.38,57.13,183,57.2Z" transform="translate(-7.69 -10)"/><path class="cls-20" d="M181.48,60.91a.29.29,0,0,0-.11.55c.1.26.56.23.55-.1A.39.39,0,0,0,181.48,60.91Z" transform="translate(-7.69 -10)"/><path class="cls-20" d="M60.55,38.88a.29.29,0,0,0,0,.57A.29.29,0,0,0,60.55,38.88Z" transform="translate(-7.69 -10)"/><path class="cls-20" d="M80.88,36.55a.29.29,0,0,0,0,.57A.29.29,0,0,0,80.88,36.55Z" transform="translate(-7.69 -10)"/><path class="cls-20" d="M75.91,50a.29.29,0,0,0,0,.58A.29.29,0,0,0,75.91,50Z" transform="translate(-7.69 -10)"/><path class="cls-20" d="M62.93,51.92h-.57a.29.29,0,0,0,0,.58h.57A.29.29,0,0,0,62.93,51.92Z" transform="translate(-7.69 -10)"/><path class="cls-20" d="M66.75,47.34a.29.29,0,0,0,0,.57A.29.29,0,0,0,66.75,47.34Z" transform="translate(-7.69 -10)"/><path class="cls-20" d="M59.49,45.05a1.34,1.34,0,0,0-.77.46.29.29,0,0,0,.4.41c.09-.09.24-.28.37-.3C59.85,45.58,59.86,45,59.49,45.05Z" transform="translate(-7.69 -10)"/><path class="cls-20" d="M71,37.6a1.33,1.33,0,0,0-.78.47c-.26.26.15.66.41.4.09-.09.23-.28.37-.3C71.31,38.13,71.32,37.56,71,37.6Z" transform="translate(-7.69 -10)"/><path class="cls-20" d="M156,46.45a.84.84,0,0,0-.26.07s-.19.13-.12.12c-.36,0-.37.62,0,.57a.84.84,0,0,0,.26-.07S156,47,156,47C156.31,47,156.32,46.4,156,46.45Z" transform="translate(-7.69 -10)"/><path class="cls-20" d="M92.91,60.61h-.57a.29.29,0,0,0,0,.57h.57A.29.29,0,0,0,92.91,60.61Z" transform="translate(-7.69 -10)"/><path class="cls-20" d="M93.85,54.39a1.39,1.39,0,0,1-.94.21.29.29,0,0,0,0,.57,2,2,0,0,0,1.35-.37C94.53,54.55,94.13,54.15,93.85,54.39Z" transform="translate(-7.69 -10)"/><path class="cls-20" d="M87.47,60.33a.29.29,0,0,0,0,.57A.29.29,0,0,0,87.47,60.33Z" transform="translate(-7.69 -10)"/><path class="cls-20" d="M99.21,53.16a.29.29,0,0,0,0,.58A.29.29,0,0,0,99.21,53.16Z" transform="translate(-7.69 -10)"/><path class="cls-20" d="M94.91,45.72a.29.29,0,0,0,0,.57A.29.29,0,0,0,94.91,45.72Z" transform="translate(-7.69 -10)"/><path class="cls-20" d="M102.07,42.57a.29.29,0,0,0,0,.57A.29.29,0,0,0,102.07,42.57Z" transform="translate(-7.69 -10)"/><path class="cls-20" d="M92.91,40.56a.29.29,0,0,0,0,.57A.29.29,0,0,0,92.91,40.56Z" transform="translate(-7.69 -10)"/><path class="cls-20" d="M93.77,35.69c-.37,0-.37.61,0,.57a.58.58,0,0,0,.57-.57A.29.29,0,0,0,93.77,35.69Z" transform="translate(-7.69 -10)"/><path class="cls-20" d="M115.17,37.61a.71.71,0,0,1-.69,0c-.33-.16-.63.33-.29.49a1.3,1.3,0,0,0,1.27,0C115.79,37.94,115.5,37.45,115.17,37.61Z" transform="translate(-7.69 -10)"/><path class="cls-20" d="M112,35c-.34,0-.35.44-.07.55.08.3.57.28.56-.06A.5.5,0,0,0,112,35Z" transform="translate(-7.69 -10)"/><path class="cls-20" d="M113.55,42.68a1.32,1.32,0,0,0-1,.28c-.28.25.13.66.4.41a.86.86,0,0,1,.59-.11A.29.29,0,0,0,113.55,42.68Z" transform="translate(-7.69 -10)"/><path class="cls-20" d="M122.59,36.19h-.39a.29.29,0,0,0,0,.58h.39A.29.29,0,0,0,122.59,36.19Z" transform="translate(-7.69 -10)"/><path class="cls-20" d="M145.07,55.62a.73.73,0,0,1-.7,0c-.33-.16-.62.33-.29.49a1.32,1.32,0,0,0,1.28,0C145.69,56,145.4,55.46,145.07,55.62Z" transform="translate(-7.69 -10)"/><path class="cls-20" d="M141.87,53c-.34,0-.36.44-.08.55.08.29.58.28.56-.07A.49.49,0,0,0,141.87,53Z" transform="translate(-7.69 -10)"/><path class="cls-20" d="M237.57,55.21a1.36,1.36,0,0,0-1,.28c-.27.25.14.65.41.4a.86.86,0,0,1,.59-.11A.29.29,0,0,0,237.57,55.21Z" transform="translate(-7.69 -10)"/><path class="cls-20" d="M137.14,50.74c-.16.18-.24.41-.39.59s.16.69.4.41.24-.41.4-.59S137.39,50.47,137.14,50.74Z" transform="translate(-7.69 -10)"/><path class="cls-20" d="M147.18,46.92h-.4a.29.29,0,0,0,0,.57h.4A.29.29,0,0,0,147.18,46.92Z" transform="translate(-7.69 -10)"/><path class="cls-20" d="M152.49,54.2h-.39a.29.29,0,0,0,0,.57h.39A.29.29,0,0,0,152.49,54.2Z" transform="translate(-7.69 -10)"/><path class="cls-20" d="M112.56,50.83l-.2.2c-.26.26.14.67.4.4l.2-.19C113.22,51,112.82,50.57,112.56,50.83Z" transform="translate(-7.69 -10)"/><path class="cls-20" d="M109.22,50.16h-.4a.29.29,0,0,0,0,.57h.4A.29.29,0,0,0,109.22,50.16Z" transform="translate(-7.69 -10)"/><path class="cls-20" d="M38.11,64.5a1,1,0,0,1-.89,0c-.33-.15-.62.34-.29.5a1.65,1.65,0,0,0,1.47,0C38.74,64.84,38.45,64.35,38.11,64.5Z" transform="translate(-7.69 -10)"/><path class="cls-20" d="M36.81,61.12h-.12a.29.29,0,0,0,0,.57c.29,0,.62-.06.66-.4S36.87,60.78,36.81,61.12Z" transform="translate(-7.69 -10)"/><path class="cls-20" d="M42.19,61.12H42a.29.29,0,0,0,0,.57h.19A.29.29,0,0,0,42.19,61.12Z" transform="translate(-7.69 -10)"/><path class="cls-20" d="M161.48,61.91h-.39a.29.29,0,0,0,0,.58h.39A.29.29,0,0,0,161.48,61.91Z" transform="translate(-7.69 -10)"/><path class="cls-20" d="M165.48,64.68c-.11-.28-.59-.26-.55.08a.5.5,0,0,0,.49.48C165.76,65.25,165.78,64.76,165.48,64.68Z" transform="translate(-7.69 -10)"/><path class="cls-20" d="M155.69,41.05a1.3,1.3,0,0,0-.78.48c-.27.26.14.66.4.4.09-.09.24-.29.38-.31C156.06,41.58,156.06,41,155.69,41.05Z" transform="translate(-7.69 -10)"/><path class="cls-20" d="M141.34,37.74a.76.76,0,0,0-.59.28.29.29,0,0,0,.41.41c.09-.1.07-.11.18-.11A.29.29,0,0,0,141.34,37.74Z" transform="translate(-7.69 -10)"/><path class="cls-20" d="M144.51,43.61a.84.84,0,0,1-.58-.11c-.27-.25-.68.15-.4.4a1.31,1.31,0,0,0,1,.28A.29.29,0,0,0,144.51,43.61Z" transform="translate(-7.69 -10)"/><path class="cls-20" d="M52.4,40.54a.29.29,0,0,0,0,.57A.29.29,0,0,0,52.4,40.54Z" transform="translate(-7.69 -10)"/><path class="cls-20" d="M129.64,38.52a.29.29,0,0,0,0,.57A.29.29,0,0,0,129.64,38.52Z" transform="translate(-7.69 -10)"/><path class="cls-20" d="M134,33a.29.29,0,0,0,0,.57A.29.29,0,0,0,134,33Z" transform="translate(-7.69 -10)"/><path class="cls-20" d="M130.62,31.67h-.39a.29.29,0,0,0,0,.58h.39A.29.29,0,0,0,130.62,31.67Z" transform="translate(-7.69 -10)"/><path class="cls-20" d="M37.77,40.38a1.69,1.69,0,0,1-.83.16.29.29,0,0,0,0,.57,2.4,2.4,0,0,0,1.12-.23C38.4,40.72,38.11,40.23,37.77,40.38Z" transform="translate(-7.69 -10)"/><path class="cls-20" d="M126.31,45c-.11,0-.09,0-.18-.11-.27-.26-.67.14-.41.4a.77.77,0,0,0,.59.28A.29.29,0,0,0,126.31,45Z" transform="translate(-7.69 -10)"/><path class="cls-20" d="M83.71,45.82a1.51,1.51,0,0,0-.48.09,1.63,1.63,0,0,1-.31.11c-.36,0-.37.6,0,.57s.51-.18.79-.19S84.08,45.81,83.71,45.82Z" transform="translate(-7.69 -10)"/><path class="cls-20" d="M223.1,52.89a1.84,1.84,0,0,0-1.18.47c-.27.25.14.66.41.41a1.17,1.17,0,0,1,.77-.31C223.47,53.45,223.47,52.87,223.1,52.89Z" transform="translate(-7.69 -10)"/><path class="cls-20" d="M165.62,46a.29.29,0,0,0,0,.57A.29.29,0,0,0,165.62,46Z" transform="translate(-7.69 -10)"/><path class="cls-20" d="M34,38a.29.29,0,0,0,0,.57A.29.29,0,0,0,34,38Z" transform="translate(-7.69 -10)"/><path class="cls-20" d="M37.92,50.52a.35.35,0,1,0,.48.48A.42.42,0,0,0,37.92,50.52Z" transform="translate(-7.69 -10)"/><path class="cls-20" d="M34.91,47.39h-.12a.29.29,0,0,0,0,.57c.29,0,.62-.06.67-.4S35,47.05,34.91,47.39Z" transform="translate(-7.69 -10)"/><path class="cls-20" d="M57.09,54.24H56.7a.29.29,0,0,0,0,.57h.39A.29.29,0,0,0,57.09,54.24Z" transform="translate(-7.69 -10)"/><path class="cls-20" d="M75.49,45a.29.29,0,0,0,0,.57A.29.29,0,0,0,75.49,45Z" transform="translate(-7.69 -10)"/><path class="cls-20" d="M80.63,40.58l-1.18.59c-.33.16,0,.65.29.49l1.18-.59C81.25,40.91,81,40.41,80.63,40.58Z" transform="translate(-7.69 -10)"/><path class="cls-20" d="M138.75,65.17a.29.29,0,0,0,0,.57A.29.29,0,0,0,138.75,65.17Z" transform="translate(-7.69 -10)"/><path class="cls-20" d="M124.83,56.78a1.33,1.33,0,0,0-.78.47c-.26.26.14.66.41.4.09-.09.23-.28.37-.29C125.19,57.31,125.19,56.74,124.83,56.78Z" transform="translate(-7.69 -10)"/><path class="cls-20" d="M136.16,58.57a1.3,1.3,0,0,0-.78.47c-.26.26.14.67.4.4.1-.09.24-.28.38-.29C136.52,59.1,136.52,58.53,136.16,58.57Z" transform="translate(-7.69 -10)"/><path class="cls-20" d="M217.18,46.86a.29.29,0,0,0,0,.57A.29.29,0,0,0,217.18,46.86Z" transform="translate(-7.69 -10)"/><path class="cls-20" d="M240.27,59.78l-1.18.58c-.33.17,0,.66.29.5l1.18-.59C240.89,60.11,240.6,59.61,240.27,59.78Z" transform="translate(-7.69 -10)"/><path class="cls-20" d="M81.16,55.8a.29.29,0,0,0,0,.58A.29.29,0,0,0,81.16,55.8Z" transform="translate(-7.69 -10)"/><path class="cls-20" d="M83.89,53.73c-.09.1-.24.29-.38.31-.36,0-.37.62,0,.57a1.32,1.32,0,0,0,.79-.47A.29.29,0,0,0,83.89,53.73Z" transform="translate(-7.69 -10)"/><path class="cls-20" d="M63.52,62.65a.29.29,0,0,0,0,.57A.29.29,0,0,0,63.52,62.65Z" transform="translate(-7.69 -10)"/><path class="cls-20" d="M82.52,58.35a.29.29,0,0,0,0,.58A.29.29,0,0,0,82.52,58.35Z" transform="translate(-7.69 -10)"/><path class="cls-20" d="M80.51,53.2a.29.29,0,0,0,0,.57A.29.29,0,0,0,80.51,53.2Z" transform="translate(-7.69 -10)"/><path class="cls-20" d="M71.31,58.46a2,2,0,0,0-.48.08c-.1,0-.2.11-.3.11-.37,0-.37.61,0,.58s.5-.19.78-.2S71.68,58.44,71.31,58.46Z" transform="translate(-7.69 -10)"/><path class="cls-20" d="M63.09,57.68a.29.29,0,0,0,0,.57A.29.29,0,0,0,63.09,57.68Z" transform="translate(-7.69 -10)"/><path class="cls-20" d="M68.23,53.21l-1.17.59c-.33.17,0,.66.28.5l1.18-.59C68.85,53.54,68.56,53.05,68.23,53.21Z" transform="translate(-7.69 -10)"/><path class="cls-20" d="M76.78,61.58c-.09.1-.24.29-.38.31-.36,0-.37.62,0,.57a1.35,1.35,0,0,0,.79-.47C77.45,61.73,77,61.32,76.78,61.58Z" transform="translate(-7.69 -10)"/><path class="cls-20" d="M52.4,48.56a.29.29,0,0,0,0,.58A.29.29,0,0,0,52.4,48.56Z" transform="translate(-7.69 -10)"/><path class="cls-20" d="M54.74,50.6l-.39.39c-.26.27.14.67.4.41l.4-.39C55.41,50.75,55,50.34,54.74,50.6Z" transform="translate(-7.69 -10)"/><path class="cls-20" d="M27.61,53.49H27a.29.29,0,0,0,0,.57h.58A.29.29,0,0,0,27.61,53.49Z" transform="translate(-7.69 -10)"/><path class="cls-20" d="M107.43,56.7a1.34,1.34,0,0,0-.77.46.29.29,0,0,0,.4.41c.09-.09.24-.28.37-.3C107.79,57.23,107.8,56.66,107.43,56.7Z" transform="translate(-7.69 -10)"/><path class="cls-20" d="M21.77,55.8h-.39a.29.29,0,0,0,0,.58h.39A.29.29,0,0,0,21.77,55.8Z" transform="translate(-7.69 -10)"/><path class="cls-20" d="M19.42,52.17l-.39.39c-.26.26.14.67.4.4s.26-.26.39-.39S19.68,51.91,19.42,52.17Z" transform="translate(-7.69 -10)"/><path class="cls-20" d="M181.08,50.33c-.11,0-.1,0-.19-.11-.26-.26-.67.14-.41.4a.75.75,0,0,0,.6.28A.29.29,0,0,0,181.08,50.33Z" transform="translate(-7.69 -10)"/><path class="cls-20" d="M174.42,47.4h-.19a.29.29,0,0,0,0,.57h.19A.29.29,0,0,0,174.42,47.4Z" transform="translate(-7.69 -10)"/><path class="cls-20" d="M213.82,53.7a1.07,1.07,0,0,0-.39.07,2.5,2.5,0,0,1-.25.09c-.37,0-.37.61,0,.57.22,0,.42-.15.64-.16C214.19,54.25,214.19,53.68,213.82,53.7Z" transform="translate(-7.69 -10)"/><path class="cls-20" d="M170.23,48.67a.34.34,0,1,0,.45.45C170.68,48.82,170.53,48.68,170.23,48.67Z" transform="translate(-7.69 -10)"/><path class="cls-20" d="M162.93,52.77h-.49a.29.29,0,0,0,0,.57h.49A.29.29,0,0,0,162.93,52.77Z" transform="translate(-7.69 -10)"/><path class="cls-20" d="M171.27,52.62c-.13,0-.21.14-.33.16-.36.06-.2.62.16.55.13,0,.21-.14.32-.16C171.78,53.11,171.63,52.56,171.27,52.62Z" transform="translate(-7.69 -10)"/><path class="cls-20" d="M218,58.28a.29.29,0,0,0,0,.57A.29.29,0,0,0,218,58.28Z" transform="translate(-7.69 -10)"/><path class="cls-20" d="M187.73,49.26a.29.29,0,0,0,0,.58A.29.29,0,0,0,187.73,49.26Z" transform="translate(-7.69 -10)"/><path class="cls-20" d="M183.5,44.29a.29.29,0,0,0,0,.57A.29.29,0,0,0,183.5,44.29Z" transform="translate(-7.69 -10)"/><path class="cls-20" d="M199,48.6c-.11,0-.09,0-.19-.12-.26-.26-.66.15-.4.41a.76.76,0,0,0,.59.28A.29.29,0,0,0,199,48.6Z" transform="translate(-7.69 -10)"/><path class="cls-20" d="M192.31,45.66h-.2a.29.29,0,0,0,0,.57h.2A.29.29,0,0,0,192.31,45.66Z" transform="translate(-7.69 -10)"/><path class="cls-20" d="M188.12,46.94a.34.34,0,1,0,.44.44A.39.39,0,0,0,188.12,46.94Z" transform="translate(-7.69 -10)"/><path class="cls-20" d="M198.89,62.13c-.11,0-.1,0-.19-.11a.29.29,0,0,0-.4.41.78.78,0,0,0,.59.28A.29.29,0,0,0,198.89,62.13Z" transform="translate(-7.69 -10)"/><path class="cls-20" d="M216.39,64.5a.29.29,0,0,0,0,.57A.29.29,0,0,0,216.39,64.5Z" transform="translate(-7.69 -10)"/><path class="cls-20" d="M204.9,56.47a.29.29,0,0,0,0,.57A.29.29,0,0,0,204.9,56.47Z" transform="translate(-7.69 -10)"/><path class="cls-20" d="M220.35,60.78c-.11,0-.09,0-.18-.12a.29.29,0,0,0-.41.41.76.76,0,0,0,.59.28A.29.29,0,0,0,220.35,60.78Z" transform="translate(-7.69 -10)"/><path class="cls-20" d="M213.7,57.84h-.19a.29.29,0,0,0,0,.57h.19A.29.29,0,0,0,213.7,57.84Z" transform="translate(-7.69 -10)"/><path class="cls-20" d="M209.51,59.12c-.33,0-.36.45-.1.55a.29.29,0,0,0,.55-.11A.4.4,0,0,0,209.51,59.12Z" transform="translate(-7.69 -10)"/><path class="cls-20" d="M205.62,47.53a.29.29,0,0,0,0,.57A.29.29,0,0,0,205.62,47.53Z" transform="translate(-7.69 -10)"/><path class="cls-20" d="M217.47,50.08c-.11,0-.09,0-.19-.11-.26-.26-.67.14-.4.4a.73.73,0,0,0,.59.28A.29.29,0,0,0,217.47,50.08Z" transform="translate(-7.69 -10)"/><path class="cls-20" d="M210.82,47.15h-.2a.29.29,0,0,0,0,.57h.2A.29.29,0,0,0,210.82,47.15Z" transform="translate(-7.69 -10)"/><path class="cls-20" d="M117.91,40.14c-.27.12-.25.59.08.55a.49.49,0,0,0,.48-.48C118.49,39.87,118,39.85,117.91,40.14Z" transform="translate(-7.69 -10)"/><path class="cls-20" d="M126,43.54a1.85,1.85,0,0,0-1.18.48c-.27.25.13.65.41.4a1.21,1.21,0,0,1,.77-.3C126.37,44.1,126.37,43.53,126,43.54Z" transform="translate(-7.69 -10)"/><path class="cls-20" d="M121.11,48a.29.29,0,0,0,0,.58A.29.29,0,0,0,121.11,48Z" transform="translate(-7.69 -10)"/><path class="cls-68" d="M120.78,50.39s18.88,5,26.31,6.07-12.85,2.25-27.42-2.87A19.4,19.4,0,0,1,120.78,50.39Z" transform="translate(-7.69 -10)"/><path class="cls-69" d="M109.77,51.2l1.33,1.59s-19.52,2.7-27.35,1.66C75.42,53.33,109.77,51.2,109.77,51.2Z" transform="translate(-7.69 -10)"/><path class="cls-70" d="M118.17,30.15s-16.63,6.57-21.42,9.49,22.8-8.1,22.8-8.1Z" transform="translate(-7.69 -10)"/><path class="cls-71" d="M33.72,32.64s14.21,3.66,19,4.76-.73,1.16-9-.75a89.92,89.92,0,0,1-12.12-3.46Z" transform="translate(-7.69 -10)"/><path class="cls-72" d="M175.78,31.37S156.26,35.62,151,38.25c-5.94,3,26.32-5.87,26.32-5.87Z" transform="translate(-7.69 -10)"/><path class="cls-73" d="M224.43,44.2s-25.08-2.2-33.36-.09,33.19,1,33.19,1Z" transform="translate(-7.69 -10)"/><path class="cls-74" d="M228.27,48.75s-18.4.42-21.7,2.12S229.65,50,229.65,50Z" transform="translate(-7.69 -10)"/><path class="cls-75" d="M68.74,34.15s11.67,2.41,11.79,3.61-14.32-2-14.32-2Z" transform="translate(-7.69 -10)"/><path class="cls-76" d="M145,31.51s-8.49-1.46-12.14-.82,13.41,2.1,13.41,2.1Z" transform="translate(-7.69 -10)"/><polygon class="cls-77" points="138.39 75.19 161.02 68.61 184.5 67.46 168.47 78.06 138.39 75.19"/><polygon class="cls-78" points="82.25 71.47 108.31 57.72 136.38 62.88 125.21 74.05 82.25 71.47"/><polygon class="cls-79" points="19.23 66.89 30.12 63.16 68.21 68.61 66.21 75.48 41.86 79.49 19.23 66.89"/><path class="cls-80" d="M37.81,73.16,26.93,76.89l22.62,12.6,24.35-4,2-6.87ZM42,81c-8.89-4.13-6.35-6.64-4.63-5.64,0,0,14.31,4.29,21.19,5.15S52.28,85.73,42,81Z" transform="translate(-7.69 -10)"/><path class="cls-81" d="M116,67.72,89.94,81.47l43,2.58,11.17-11.17ZM124.91,78l-3.78-.87-1.16,3-5.37.87-2.47-3.34-5.23-.58s6.82-3.34,9.44-4.21,9.36.15,12.16.58S124.91,78,124.91,78Z" transform="translate(-7.69 -10)"/><g class="cls-27"><path class="cls-82" d="M168.71,78.61l-22.63,6.58,30.08,2.87,16-10.6Zm.14,5.79c-3,.11-7.3-.43-5.48-.54,0,0,10.09-1.71,11.38-1.18S171.85,84.29,168.85,84.4Z" transform="translate(-7.69 -10)"/></g><path class="cls-83" d="M87.46,69.58c.19.52.41,1.11.67,1.77,23.49-.95,58.24,1.72,58.24,1.72l5.16-9A181,181,0,0,0,87.46,69.58Z" transform="translate(-7.69 -10)"/><path class="cls-84" d="M86.41,66.39s.25,1,1,3.19a181,181,0,0,1,64.07-5.49l-4.21-4.39C119.25,53.4,86.41,66.39,86.41,66.39Z" transform="translate(-7.69 -10)"/><path class="cls-33" d="M147.47,59.6c-13.38-3-27.38-1.85-40.7.87A122.43,122.43,0,0,0,86.2,66.31s-.09,0-.08.08a46.89,46.89,0,0,0,1.73,5c0,.07.22.08.28.07,19.35-.76,38.87.24,58.17,1.72.09,0,.29,0,.35-.09l5.15-9a0,0,0,0,0,0-.06l-4.2-4.4c-.12-.12-.64,0-.55.08q2.07,2.17,4.16,4.34a18,18,0,0,1-1.38,2.46c-1.07,1.86-2.13,3.72-3.2,5.57l-.42.73c-.17.31-.12.09.22.12l-.66,0c-9.68-.72-19.38-1.22-29.08-1.56-7-.24-14-.37-20.94-.3-1.63,0-3.25,0-4.88.09l-2.36.08c-.49,0-1.2-2.87-1.35-3.34a8.81,8.81,0,0,0-.5-1.44l.76-.28A135.39,135.39,0,0,1,117.25,59c9.92-1.26,20.12-1.32,29.93.84C147.35,59.84,147.83,59.68,147.47,59.6Z" transform="translate(-7.69 -10)"/><g class="cls-27"><path class="cls-85" d="M127.32,59.7c2.85-1.56,11.26-1.12,17-.6-27.34-4.78-57.86,7.29-57.86,7.29s.25,1,1,3.19a181,181,0,0,1,64.07-5.49s0,0-.72-.75C144.55,63,123.53,61.78,127.32,59.7Z" transform="translate(-7.69 -10)"/></g><g class="cls-27"><path class="cls-83" d="M128.26,66.44c4.64-2.52,18.84-2,22.93-1.77l.34-.58a181,181,0,0,0-64.07,5.49c.19.52.41,1.11.67,1.77,23.49-.95,58.24,1.72,58.24,1.72L150.43,66C138.74,69.07,123.06,69.25,128.26,66.44Z" transform="translate(-7.69 -10)"/></g><polygon class="cls-86" points="63.06 52.18 94.95 58.48 86.54 62.88 53.13 57.72 63.06 52.18"/><path class="cls-33" d="M70.61,62.29l20,3.94,10.6,2.1,1.07.21c.38.07.23-.15,0,0L97,71.26,94.61,72.5l-.54.28c-.09,0,.51,0,.2,0l-2.58-.4L79.92,70.54l-13.2-2-4.35-.67-1.1-.17c-.42-.07-.22.12-.07,0L71,62.24c.17-.1-.37-.18-.5-.11l-9.93,5.54c-.11.07,0,.15.11.16l19.79,3,11.41,1.76,2.19.34c.79.12,2-.87,2.63-1.2l6.14-3.22c.14-.07.06-.15-.06-.18l-31.89-6.3C70.72,62.05,70.25,62.21,70.61,62.29Z" transform="translate(-7.69 -10)"/><g class="cls-27"><path class="cls-87" d="M72.33,62.5c6.94,1.67,19.36,5,14.23,5.89C81,69.41,68.66,67,63.9,66l-3.08,1.71,33.42,5.16,8.4-4.39Z" transform="translate(-7.69 -10)"/></g><path class="cls-88" d="M251,87.39l-6.69-6.87s-18.9-1.15-44.49,4.77a8,8,0,0,0-.12,1.47C231.57,83.21,251,87.39,251,87.39Z" transform="translate(-7.69 -10)"/><path class="cls-89" d="M199.72,86.76c0,6.24,6.23,13.62,6.23,13.62l6.49-.58s22.34-10.5,39-6.11l-.38-6.3S231.57,83.21,199.72,86.76Z" transform="translate(-7.69 -10)"/><path class="cls-33" d="M205.83,100.67l-.1-.11c-.26-.3-6.29-7.52-6.3-13.8a8,8,0,0,1,.13-1.52l0-.19.18,0a183.53,183.53,0,0,1,40.41-4.87c2.66,0,4.15.09,4.17.09h.11l6.84,7,.41,6.8-.39-.1a34.82,34.82,0,0,0-8.91-1.07c-14.45,0-29.69,7.09-29.85,7.16l-.09,0Zm-5.74-15.14a7.86,7.86,0,0,0-.08,1.23c0,5.65,5.29,12.36,6.06,13.32l6.3-.56c.95-.44,15.86-7.19,30-7.19a35.68,35.68,0,0,1,8.68,1l-.35-5.81L244.2,80.8c-.38,0-1.79-.09-4-.09A182.89,182.89,0,0,0,200.09,85.53Z" transform="translate(-7.69 -10)"/><g class="cls-27"><path class="cls-88" d="M237.06,82.91c.82-1.23,5.22-1.47,8.15-1.49l-.88-.9s-18.9-1.15-44.49,4.77a8,8,0,0,0-.12,1.47c31.85-3.55,51.3.63,51.3.63l-2.19-2.24C243.58,84.81,236.25,84.12,237.06,82.91Z" transform="translate(-7.69 -10)"/></g><g class="cls-27"><path class="cls-89" d="M225.14,90.92c7.34-3.33,20.45-2.7,26-2.25L251,87.39s-19.45-4.18-51.3-.63c0,6.24,6.23,13.62,6.23,13.62l6.49-.58s22.34-10.5,39-6.11c0-.27,0-.52-.05-.77C242,90.34,216.55,94.83,225.14,90.92Z" transform="translate(-7.69 -10)"/></g><path class="cls-90" d="M150,84.91s29.79-6.49,75.43-4.58l1.71-7.83S198.88,69.44,174.63,71s-30.36,12.6-30.36,12.6Z" transform="translate(-7.69 -10)"/><path class="cls-33" d="M150.08,85c4.77-1,9.65-1.69,14.48-2.3a348.4,348.4,0,0,1,39.53-2.59c7.09-.09,14.19,0,21.27.32.11,0,.32,0,.35-.14.57-2.61,1.15-5.22,1.72-7.83,0-.06-.12-.08-.15-.09-9.31-1-18.68-1.53-28-1.81-8.05-.24-16.11-.22-24.14.25a59.79,59.79,0,0,0-19.38,4.05,30.66,30.66,0,0,0-9.19,5.7,12.85,12.85,0,0,0-2.55,3c0,.05,0,.09.09.1L149.8,85c.14,0,.68-.14.39-.2L145,83.6c-.33-.07-.41-.13-.47,0l0-.07c.12-.19.24-.37.37-.54a21.33,21.33,0,0,1,6-5.31,44.1,44.1,0,0,1,16.14-5.71c8.28-1.44,16.91-1.34,25.29-1.27,10.06.1,20.11.64,30.13,1.51l3.43.32.82.08c.36,0,.07,0,.09,0-.57,2.61-1.15,5.21-1.72,7.82l.35-.14c-24.18-1-48.83-.25-72.71,4-1,.17-1.92.35-2.87.56C149.53,84.89,149.84,85.06,150.08,85Z" transform="translate(-7.69 -10)"/><g class="cls-27"><path class="cls-91" d="M178.64,75.17c3.41-2.86,14.88-3.94,25.83-4.29a291.82,291.82,0,0,0-29.84.09c-24.25,1.53-30.36,12.6-30.36,12.6L150,84.91s29.79-6.49,75.43-4.58c.58-2.68,1-4.44,1.22-5.6C213.15,74.75,172,80.77,178.64,75.17Z" transform="translate(-7.69 -10)"/></g><path class="cls-92" d="M200,91l32.08-3.63,2.48-6.3s-34.74,4.72-52.18,8.37C191.18,90.54,200,91,200,91Z" transform="translate(-7.69 -10)"/><path class="cls-93" d="M167.57,86.44c3.13,1.3,9,2.29,14.84,3,17.44-3.65,52.18-8.37,52.18-8.37l-4-4.2C192.2,75.36,167.57,86.44,167.57,86.44Z" transform="translate(-7.69 -10)"/><path class="cls-33" d="M200,91.31h0c-.09,0-8.95-.49-17.64-1.56-7.17-.89-12.19-1.91-14.91-3l-.62-.25.61-.28c.21-.09,22-9.71,55.88-9.71,2.4,0,4.85.05,7.26.14h.12L234.93,81l-2.62,6.64-.17,0Zm-31.71-4.89c2.8,1,7.54,1.94,14.11,2.75,8.45,1,17.06,1.53,17.58,1.56l31.89-3.61,2.35-6-3.81-4c-2.37-.09-4.76-.14-7.12-.14C192.82,77,172.17,84.85,168.33,86.42Z" transform="translate(-7.69 -10)"/><g class="cls-27"><path class="cls-94" d="M201,81.28c.32-3,22.27-4,29.67-4.32a.46.46,0,0,0-.07-.07c-38.38-1.53-63,9.55-63,9.55,3.13,1.3,9,2.29,14.84,3,17.44-3.65,52.18-8.37,52.18-8.37l-.74-.78C227.54,81.14,200.65,84.48,201,81.28Z" transform="translate(-7.69 -10)"/></g><g class="cls-27"><path class="cls-92" d="M213.68,86.63c.6-1.33,15.84-4.16,20.71-5l.2-.5s-34.74,4.72-52.18,8.37C191.18,90.54,200,91,200,91l32.08-3.63.41-1C226.09,86.89,213.14,87.81,213.68,86.63Z" transform="translate(-7.69 -10)"/></g><path class="cls-95" d="M144.51,84.34s14.46-8.88,36.66-13l.57-9.31c-23.61,5.52-42.58,16.63-48.65,20.44C139.89,83.72,144.51,84.34,144.51,84.34Z" transform="translate(-7.69 -10)"/><path class="cls-96" d="M124.89,80.75c3,.66,5.72,1.21,8.2,1.68,6.07-3.81,25-14.92,48.65-20.44l-3.29-2.57S138.21,66.15,124.89,80.75Z" transform="translate(-7.69 -10)"/><path class="cls-33" d="M124.7,80.87c1.59.35,3.19.69,4.79,1,1,.21,2.6.84,3.62.67s2.2-1.31,3-1.8c3.51-2.1,7.12-4,10.78-5.86a161,161,0,0,1,34.91-12.8s.26-.1.17-.17l-1.87-1.47c-.36-.28-1.08-1.13-1.56-1.16a6.16,6.16,0,0,0-1.34.23c-3,.55-6,1.2-9.05,1.9-10.3,2.41-20.61,5.47-30.15,10.09-4.86,2.36-9.71,5.22-13.41,9.23-.14.16.41.14.51,0,3.51-3.8,8-6.53,12.63-8.82a111.65,111.65,0,0,1,16-6.32,187.59,187.59,0,0,1,23.71-5.92l.81-.15c.4-.07-.26-.19.19.16l2.41,1.88.43.34c.26.2.11,0-.18.08-1,.24-2,.5-3.06.77a156.94,156.94,0,0,0-22.14,7.65,173.69,173.69,0,0,0-16.28,8q-2.64,1.47-5.24,3c-.32.2-.64.4-1,.59-.56.36-.91.15-1.59,0q-3.39-.66-6.78-1.41C124.93,80.61,124.41,80.81,124.7,80.87Z" transform="translate(-7.69 -10)"/><path class="cls-33" d="M144.57,84.63h-.1c-.05,0-4.7-.63-11.43-1.9-2.77-.53-5.54-1.09-8.21-1.69l-.49-.1.34-.37C137.91,66.05,178,59.2,178.4,59.13l.13,0L182,61.86l-.6,9.68-.22,0c-21.89,4.1-36.42,12.91-36.56,13Zm-19.13-4c2.52.55,5.11,1.08,7.71,1.57,6.17,1.17,10.59,1.79,11.3,1.89,1.25-.75,15.47-9,36.45-13l.55-8.93-3.08-2.41C175.92,60.15,138.5,66.86,125.44,80.58Z" transform="translate(-7.69 -10)"/><g class="cls-46"><g class="cls-97"><path class="cls-98" d="M143.42,71.83c1.18-1.74,4.24-3.68,8-5.54-10.25,3.45-20.81,8.24-26.48,14.46,3,.66,5.72,1.21,8.2,1.68,6.07-3.81,25-14.92,48.65-20.44l-.58-.45C164.07,63.73,139.68,77.29,143.42,71.83Z" transform="translate(-7.69 -10)"/></g></g><path class="cls-99" d="M150.57,76.25C158,70.5,176.28,64.47,181.7,62.77l0-.78c-23.61,5.52-42.58,16.63-48.65,20.44,6.8,1.29,11.42,1.91,11.42,1.91s14.46-8.88,36.66-13c0-.19,0-.38,0-.57C165.17,72.4,142.34,82.65,150.57,76.25Z" transform="translate(-7.69 -10)"/><path class="cls-100" d="M35.61,60.85l-7.82,2.29S65.66,74.36,85.5,75.82c2.37-1.36,5.19-3.07,8.55-5.23C73,70.4,35.61,60.85,35.61,60.85Z" transform="translate(-7.69 -10)"/><path class="cls-101" d="M26.83,69.44C47.45,80.33,74.19,81.09,74.19,81.09S76.58,81,85.5,75.82C65.66,74.36,27.79,63.14,27.79,63.14A17.71,17.71,0,0,0,26.83,69.44Z" transform="translate(-7.69 -10)"/><path class="cls-33" d="M35.43,60.73l-6.95,2c-.56.16-.91.11-1.1.67a19,19,0,0,0-.83,6,.11.11,0,0,0,.07.1c11.91,6.23,25.32,9.39,38.6,11,3,.35,5.93.64,8.9.75a3.45,3.45,0,0,0,1.1-.2,30.59,30.59,0,0,0,5.15-2.18,146.53,146.53,0,0,0,13.91-8.15c.19-.11-.22-.21-.29-.22C81.63,70.33,69.24,68,57.15,65.57c-7.18-1.44-14.34-3-21.44-4.82h0c-.24-.06-.57.1-.19.19,6.8,1.74,13.66,3.24,20.54,4.64,12,2.44,24.21,4.71,36.46,5.1l1.58,0a3.15,3.15,0,0,0-.29-.22C88.13,74.14,82.25,78,75.9,80.43a8.36,8.36,0,0,1-4.29.4A125.41,125.41,0,0,1,35.8,73.32c-1.43-.54-2.85-1.13-4.25-1.75-.92-.4-4.44-1.51-4.43-2.62a20.41,20.41,0,0,1,.47-4.12c.06-.27.43-1.59.39-1.58L35.8,61C36.09,60.88,35.57,60.69,35.43,60.73Z" transform="translate(-7.69 -10)"/><g class="cls-27"><path class="cls-102" d="M38.25,61.5c5.08,1.35,13.34,3.5,20.8,5.26,11.84,2.78,14.63,7.06-1.49,3.48a268,268,0,0,1-27.3-7.82l-2.47.72S65.66,74.36,85.5,75.82c2.37-1.36,5.19-3.07,8.55-5.23C76.39,70.43,47.12,63.65,38.25,61.5Z" transform="translate(-7.69 -10)"/></g><g class="cls-27"><path class="cls-101" d="M27.79,63.14l0,0c5.49,1.9,17.56,6,27.8,9.13,13.35,4-7.59,6.71-28.74-3.1v.23C47.45,80.33,74.19,81.09,74.19,81.09S76.58,81,85.5,75.82C65.66,74.36,27.79,63.14,27.79,63.14Z" transform="translate(-7.69 -10)"/></g><path class="cls-103" d="M97,80.61s16.61-8.73,27.64-12L125,62S98.92,72.61,83.9,82.08C94.22,81,97,80.61,97,80.61Z" transform="translate(-7.69 -10)"/><path class="cls-104" d="M68.89,83.62c6.24-.62,11.15-1.13,15-1.54C98.92,72.61,125,62,125,62l-4.58-3.58S75.48,75.31,68.89,83.62Z" transform="translate(-7.69 -10)"/><path class="cls-33" d="M120.3,58.33c-5.32,2-10.59,4.12-15.83,6.3A251.17,251.17,0,0,0,77.16,77.41c-3,1.68-6.37,3.5-8.55,6.2-.09.11.25.13.29.12,7.17-.71,14.33-1.44,21.5-2.23l5.52-.64a4,4,0,0,0,1.29-.21c8.82-4.61,18-9.1,27.54-12,0,0,.13,0,.14-.11.14-2.2.28-4.39.43-6.59,0-.3-1.77-1.4-2-1.58l-2.62-2c-.12-.1-.66,0-.49.15l4.14,3.23c.58.45.38.61.32,1.52l-.24,3.81c0,.26,0,1.44-.31,1.54l-1,.33c-.84.27-1.67.56-2.49.85-3.06,1.1-6,2.35-9,3.65-4.7,2.07-9.33,4.3-13.89,6.64-.72.37-.7.43-1.26.51-1.67.21-3.33.39-5,.58-7.51.84-15,1.6-22.55,2.36l.29.12c2.08-2.59,5.35-4.34,8.18-6,4.24-2.43,8.65-4.55,13.08-6.6,8.44-3.91,17-7.46,25.68-10.84,1.49-.58,3-1.17,4.49-1.73C121,58.37,120.46,58.26,120.3,58.33Z" transform="translate(-7.69 -10)"/><g class="cls-46"><g class="cls-105"><path class="cls-106" d="M91.09,72.59c2.49-2.49,7.84-5.31,13.4-7.82C90.87,70.44,72.87,78.6,68.89,83.62c6.24-.62,11.15-1.13,15-1.54C98.92,72.61,125,62,125,62l-1.58-1.23C114.52,64.88,85.75,77.93,91.09,72.59Z" transform="translate(-7.69 -10)"/></g></g><path class="cls-107" d="M100,75.06c6.48-4,20.6-10.21,25-12.12L125,62S98.92,72.61,83.9,82.08C94.22,81,97,80.61,97,80.61s16.61-8.73,27.64-12c0-.41.05-.8.08-1.16C114.31,71.59,93.06,79.29,100,75.06Z" transform="translate(-7.69 -10)"/><path class="cls-108" d="M111.54,78.69c-30.78,0-62.18,7.46-62.18,7.46a83.89,83.89,0,0,0,9.39,5.48L115.22,84S115.57,83.87,111.54,78.69Z" transform="translate(-7.69 -10)"/><path class="cls-109" d="M74.18,96.32c14.73-.09,38.68-4.56,38.68-4.56L115.22,84,58.75,91.63C63.5,94,69.27,96.24,74.18,96.32Z" transform="translate(-7.69 -10)"/><path class="cls-33" d="M111.6,78.57a276.64,276.64,0,0,0-42.71,3.74c-6.57,1-13.15,2.21-19.62,3.74-.08,0-.28.1-.15.19A69,69,0,0,0,66,94.86a28.07,28.07,0,0,0,9.9,1.55c3.13-.08,6.25-.32,9.36-.61,9.25-.86,18.5-2.22,27.63-3.92.07,0,.24,0,.26-.13l2.34-7.6a.81.81,0,0,0-.16-.65,35.51,35.51,0,0,0-3.5-4.87c-.1-.13-.64,0-.54.13,1.19,1.53,3,3.32,3.66,5.21.16.46-.62,2.15-.8,2.75-.52,1.68-1,3.36-1.55,5,0-.1.42-.14.11-.08l-.45.08-1.89.33c-11.67,2-23.56,3.9-35.41,4.11-4.44.07-8.79-1.46-12.81-3.2a78,78,0,0,1-10.44-5.57c-.69-.44-1.38-.88-2-1.34-.08,0-.31.19-.11.14l.37-.09c1.23-.28,2.45-.54,3.68-.8a317.62,317.62,0,0,1,41.19-5.87c5.56-.42,11.13-.65,16.71-.66C111.73,78.81,112,78.57,111.6,78.57Z" transform="translate(-7.69 -10)"/><g class="cls-27"><path class="cls-110" d="M71.2,84.59c4.25-3.76,34.27-5.18,40.69-5.44l-.35-.46c-30.78,0-62.18,7.46-62.18,7.46a83.89,83.89,0,0,0,9.39,5.48L115.22,84s.14-.07-.79-1.45C106.32,83.7,66.81,88.48,71.2,84.59Z" transform="translate(-7.69 -10)"/></g><g class="cls-27"><path class="cls-109" d="M89.66,89.92c4.54-2,20.2-4.17,25.24-4.83l.32-1L58.75,91.63C63.5,94,69.27,96.24,74.18,96.32c14.73-.09,38.68-4.56,38.68-4.56l.5-1.64C103.56,92,84.63,92.17,89.66,89.92Z" transform="translate(-7.69 -10)"/></g><path class="cls-111" d="M22.73,69.68a1.8,1.8,0,0,1-.2-.19c-.82-.63-6.77,2.17-6.77,2.17l-5.2,10.48c2.37-1.88,6.47-4.85,8.81-5A50.74,50.74,0,0,1,22.73,69.68Z" transform="translate(-7.69 -10)"/><path class="cls-112" d="M82.37,94.67c-27.11-6.73-48-13.73-59.64-25a50.74,50.74,0,0,0-3.36,7.48S41,93.74,77.06,97.77A17.34,17.34,0,0,0,82.37,94.67Z" transform="translate(-7.69 -10)"/><path class="cls-113" d="M19.37,77.16c-2.34.13-6.44,3.1-8.81,5l-.4.8S20,92.78,33.72,97.2c11.57,3.73,31.94,5,43.34.57C41,93.74,19.37,77.16,19.37,77.16Z" transform="translate(-7.69 -10)"/><path class="cls-33" d="M23,69.65c-1.14-1.07-3.65.31-4.79.77-.88.36-1.76.73-2.62,1.13-.26.12-.4.69-.52.93L9.89,82.88s0,.06,0,.09A60.18,60.18,0,0,0,36.29,98.08,85.26,85.26,0,0,0,56,100.68a61.07,61.07,0,0,0,19.36-2.13,20.14,20.14,0,0,0,7.32-3.82c.09-.08-.15-.15-.19-.16C70.58,91.62,58.71,88.42,47.31,84,38.57,80.52,29.83,76.2,23,69.65c-.11-.11-.66-.08-.5.07,9,8.62,21.15,13.47,32.79,17.4,7.68,2.59,15.5,4.73,23.35,6.74l3.13.79c.28.07-2,1.61-2.21,1.76a24,24,0,0,1-5.29,2.14,49.91,49.91,0,0,1-9.94,1.69c-14.5,1.2-29.75-1.12-42.35-8.62a63.78,63.78,0,0,1-11.25-8.43c-.41-.38-.2-.35.08-.91.18-.37.36-.74.55-1.11.94-1.9,1.89-3.81,2.83-5.72l1.35-2.71c.11-.22.35-.94.53-1,.78-.36,1.56-.7,2.36-1s3.33-1.67,4.07-1C22.59,69.82,23.14,69.8,23,69.65Z" transform="translate(-7.69 -10)"/><g class="cls-27"><path class="cls-114" d="M19.37,77.16l-.11,0C29.87,86.41,40.9,93.27,30,92.29c-6.2-.56-12.36-3.76-16.63-6.5A64.84,64.84,0,0,0,33.72,97.2c11.57,3.73,31.94,5,43.34.57C41,93.74,19.37,77.16,19.37,77.16Z" transform="translate(-7.69 -10)"/></g><g class="cls-27"><path class="cls-112" d="M22.73,69.68l-.61,1.17C26.21,74.46,35,81,49.36,86.15c12.8,4.84-6.48,4.92-29.89-9.29,0,.1-.07.2-.1.3S41,93.74,77.06,97.77a17.34,17.34,0,0,0,5.31-3.1C55.26,87.94,34.41,80.94,22.73,69.68Z" transform="translate(-7.69 -10)"/></g><path class="cls-115" d="M162.84,91.35c-21.91-.14-43.68-2.43-43.68-2.43,3.29,7.16,4.15,8.3,4.15,8.3s48.84,7.45,82.21,1.58l.71-12.32C201.65,89.06,184.75,91.5,162.84,91.35Z" transform="translate(-7.69 -10)"/><path class="cls-116" d="M122.17,78.32s-3,6.59-3,10.6c0,0,21.77,2.29,43.68,2.43s38.81-2.29,43.39-4.87l-4.58-2.43S157.4,88.63,122.17,78.32Z" transform="translate(-7.69 -10)"/><path class="cls-33" d="M201.58,83.94c-6.56.67-13.18.89-19.76,1a237.83,237.83,0,0,1-43.15-3,145,145,0,0,1-16.36-3.71c-.09,0-.37,0-.42.07a46.51,46.51,0,0,0-2.09,5.6,20.57,20.57,0,0,0-.9,4.37,3.94,3.94,0,0,0,.65,2.13c.42.91.86,1.81,1.29,2.72a41.83,41.83,0,0,0,2.12,4c.15.24.43.22.69.26,7.46,1.09,15,1.87,22.49,2.49,19.68,1.64,40,2.41,59.52-1,.05,0,.14,0,.15-.1q.34-6.15.71-12.32a.05.05,0,0,0,0,0L201.9,84c-.13-.07-.67,0-.5.11l4.44,2.36c.16.09.1.2.08.57-.09,1.47-.17,2.94-.26,4.41l-.27,4.73c0,.81.21,2.49-.79,2.66s-2.06.33-3.09.48c-14,2-28.27,1.91-42.36,1.22q-15.71-.77-31.32-2.8c-1.14-.15-2.28-.3-3.42-.47l-.81-.11c-.34-.05,0,0,0,0A26.68,26.68,0,0,1,121.84,94c-.75-1.5-1.47-3-2.17-4.56s.19-3.71.59-5.12a42.83,42.83,0,0,1,2.18-5.92l-.42.07c14.45,4.2,29.54,5.92,44.54,6.54a280.55,280.55,0,0,0,31.5-.49c1.22-.09,2.45-.19,3.67-.31C202.12,84.12,201.82,83.91,201.58,83.94Z" transform="translate(-7.69 -10)"/><g class="cls-27"><path class="cls-117" d="M201.65,84.05s-43.75,4.53-78.88-5.56c5.3,1.89,23.5,7.56,50.38,7.56,15.6.14-12,8-53.61-.09a14.3,14.3,0,0,0-.38,3s21.77,2.29,43.68,2.43,38.81-2.29,43.39-4.87Z" transform="translate(-7.69 -10)"/></g><g class="cls-27"><path class="cls-115" d="M162.84,91.35c-21.91-.14-43.68-2.43-43.68-2.43.09.2.18.4.28.6,3.14.42,8,1,12.66,1.28,7.61.44,16.55,1.66,13.9,1.66s-7.17,3.53-9.6,1.76-3.86-2.42-10.7-1.65a13.81,13.81,0,0,1-4.92-.2,40.83,40.83,0,0,0,2.53,4.85s48.84,7.45,82.21,1.58l.71-12.32C201.65,89.06,184.75,91.5,162.84,91.35Z" transform="translate(-7.69 -10)"/></g><path class="cls-20" d="M176.86,85.9h-.48a.29.29,0,0,0,0,.57h.48A.29.29,0,0,0,176.86,85.9Z" transform="translate(-7.69 -10)"/><path class="cls-20" d="M185.2,85.75c-.13,0-.21.14-.32.16-.37.07-.21.62.15.55.13,0,.21-.14.32-.16C185.72,86.24,185.56,85.69,185.2,85.75Z" transform="translate(-7.69 -10)"/><path class="cls-20" d="M183.66,89.46a.34.34,0,1,0,.45.45A.41.41,0,0,0,183.66,89.46Z" transform="translate(-7.69 -10)"/><path class="cls-20" d="M62.73,67.44a.29.29,0,0,0,0,.57A.29.29,0,0,0,62.73,67.44Z" transform="translate(-7.69 -10)"/><path class="cls-20" d="M83.06,65.1a.29.29,0,0,0,0,.58A.29.29,0,0,0,83.06,65.1Z" transform="translate(-7.69 -10)"/><path class="cls-20" d="M78.1,78.57a.29.29,0,0,0,0,.57A.29.29,0,0,0,78.1,78.57Z" transform="translate(-7.69 -10)"/><path class="cls-20" d="M65.11,80.48h-.57a.29.29,0,0,0,0,.57h.57A.29.29,0,0,0,65.11,80.48Z" transform="translate(-7.69 -10)"/><path class="cls-20" d="M68.93,75.89a.29.29,0,0,0,0,.58A.29.29,0,0,0,68.93,75.89Z" transform="translate(-7.69 -10)"/><path class="cls-20" d="M61.67,73.6a1.31,1.31,0,0,0-.77.47.28.28,0,0,0,.4.4c.1-.09.24-.28.37-.29C62,74.13,62,73.56,61.67,73.6Z" transform="translate(-7.69 -10)"/><path class="cls-20" d="M73.13,66.16a1.24,1.24,0,0,0-.77.46.29.29,0,0,0,.4.41c.09-.09.24-.28.37-.3C73.49,66.68,73.5,66.11,73.13,66.16Z" transform="translate(-7.69 -10)"/><path class="cls-20" d="M158.13,75a.72.72,0,0,0-.25.07s-.2.13-.13.12c-.36,0-.36.62,0,.58a1.11,1.11,0,0,0,.26-.07s.2-.13.12-.12C158.49,75.53,158.5,75,158.13,75Z" transform="translate(-7.69 -10)"/><path class="cls-20" d="M95.09,89.17h-.57a.29.29,0,0,0,0,.57h.57A.29.29,0,0,0,95.09,89.17Z" transform="translate(-7.69 -10)"/><path class="cls-20" d="M96,83a1.44,1.44,0,0,1-.94.2.29.29,0,0,0,0,.57,1.9,1.9,0,0,0,1.35-.37C96.72,83.11,96.31,82.7,96,83Z" transform="translate(-7.69 -10)"/><path class="cls-20" d="M89.65,88.88a.29.29,0,0,0,0,.57A.29.29,0,0,0,89.65,88.88Z" transform="translate(-7.69 -10)"/><path class="cls-20" d="M101.39,81.72a.29.29,0,0,0,0,.57A.29.29,0,0,0,101.39,81.72Z" transform="translate(-7.69 -10)"/><path class="cls-20" d="M97.1,74.27a.29.29,0,0,0,0,.57A.29.29,0,0,0,97.1,74.27Z" transform="translate(-7.69 -10)"/><path class="cls-20" d="M104.26,71.12a.29.29,0,0,0,0,.57A.29.29,0,0,0,104.26,71.12Z" transform="translate(-7.69 -10)"/><path class="cls-20" d="M95.09,69.12a.29.29,0,0,0,0,.57A.29.29,0,0,0,95.09,69.12Z" transform="translate(-7.69 -10)"/><path class="cls-20" d="M96,64.25c-.36,0-.37.6,0,.57a.58.58,0,0,0,.57-.57C96.54,63.88,96,63.88,96,64.25Z" transform="translate(-7.69 -10)"/><path class="cls-20" d="M117.35,66.16a.66.66,0,0,1-.69,0c-.33-.16-.62.34-.29.5a1.3,1.3,0,0,0,1.27,0C118,66.5,117.69,66,117.35,66.16Z" transform="translate(-7.69 -10)"/><path class="cls-20" d="M114.16,63.57c-.34,0-.36.43-.08.54.08.3.57.28.56-.06A.49.49,0,0,0,114.16,63.57Z" transform="translate(-7.69 -10)"/><path class="cls-20" d="M115.73,71.24a1.34,1.34,0,0,0-1,.28c-.27.25.13.65.4.4a.86.86,0,0,1,.59-.11A.29.29,0,0,0,115.73,71.24Z" transform="translate(-7.69 -10)"/><path class="cls-20" d="M124.78,64.75h-.4a.29.29,0,0,0,0,.57h.4A.29.29,0,0,0,124.78,64.75Z" transform="translate(-7.69 -10)"/><path class="cls-20" d="M147.25,84.17a.71.71,0,0,1-.69,0c-.34-.16-.63.34-.29.49a1.3,1.3,0,0,0,1.27,0C147.87,84.51,147.58,84,147.25,84.17Z" transform="translate(-7.69 -10)"/><path class="cls-20" d="M144.05,81.57c-.34,0-.35.44-.07.55.08.3.57.28.55-.06A.5.5,0,0,0,144.05,81.57Z" transform="translate(-7.69 -10)"/><path class="cls-20" d="M239.75,83.76a1.34,1.34,0,0,0-1,.28c-.28.25.13.66.4.41s.39-.11.59-.11A.29.29,0,0,0,239.75,83.76Z" transform="translate(-7.69 -10)"/><path class="cls-20" d="M139.32,79.3c-.16.18-.23.41-.39.59s.16.68.4.4.24-.41.4-.59S139.57,79,139.32,79.3Z" transform="translate(-7.69 -10)"/><path class="cls-20" d="M149.36,75.48H149a.29.29,0,0,0,0,.57h.39A.29.29,0,0,0,149.36,75.48Z" transform="translate(-7.69 -10)"/><path class="cls-20" d="M154.67,82.75h-.39a.29.29,0,0,0,0,.58h.39A.29.29,0,0,0,154.67,82.75Z" transform="translate(-7.69 -10)"/><path class="cls-20" d="M114.74,79.39l-.2.19A.29.29,0,0,0,115,80l.19-.2C115.41,79.53,115,79.13,114.74,79.39Z" transform="translate(-7.69 -10)"/><path class="cls-20" d="M111.4,78.71H111a.29.29,0,0,0,0,.58h.39A.29.29,0,0,0,111.4,78.71Z" transform="translate(-7.69 -10)"/><path class="cls-20" d="M40.3,93.06a1.06,1.06,0,0,1-.89,0c-.34-.16-.63.34-.29.49a1.65,1.65,0,0,0,1.47,0C40.92,93.4,40.63,92.9,40.3,93.06Z" transform="translate(-7.69 -10)"/><path class="cls-20" d="M39,89.67h-.12a.29.29,0,0,0,0,.58c.29,0,.62-.07.67-.41S39.06,89.33,39,89.67Z" transform="translate(-7.69 -10)"/><path class="cls-20" d="M44.38,89.67h-.2a.29.29,0,0,0,0,.58h.2A.29.29,0,0,0,44.38,89.67Z" transform="translate(-7.69 -10)"/><path class="cls-20" d="M163.66,90.47h-.39a.29.29,0,0,0,0,.57h.39A.29.29,0,0,0,163.66,90.47Z" transform="translate(-7.69 -10)"/><path class="cls-20" d="M167.66,93.24c-.11-.28-.59-.27-.55.07a.5.5,0,0,0,.49.48C167.94,93.81,168,93.32,167.66,93.24Z" transform="translate(-7.69 -10)"/><path class="cls-20" d="M157.88,69.6a1.39,1.39,0,0,0-.79.48c-.26.26.14.67.4.4.1-.09.24-.29.39-.3C158.24,70.13,158.24,69.56,157.88,69.6Z" transform="translate(-7.69 -10)"/><path class="cls-20" d="M143.53,66.3a.75.75,0,0,0-.6.28c-.26.26.15.66.41.4.09-.09.08-.11.19-.11A.29.29,0,0,0,143.53,66.3Z" transform="translate(-7.69 -10)"/><path class="cls-20" d="M146.7,72.16c-.2,0-.43,0-.58-.11s-.68.16-.41.41a1.38,1.38,0,0,0,1,.28A.29.29,0,0,0,146.7,72.16Z" transform="translate(-7.69 -10)"/><path class="cls-20" d="M54.58,69.09a.29.29,0,0,0,0,.58A.29.29,0,0,0,54.58,69.09Z" transform="translate(-7.69 -10)"/><path class="cls-20" d="M131.82,67.08a.29.29,0,0,0,0,.57A.29.29,0,0,0,131.82,67.08Z" transform="translate(-7.69 -10)"/><path class="cls-20" d="M136.13,61.6a.29.29,0,0,0,0,.57A.29.29,0,0,0,136.13,61.6Z" transform="translate(-7.69 -10)"/><path class="cls-20" d="M132.8,60.23h-.39a.29.29,0,0,0,0,.57h.39A.29.29,0,0,0,132.8,60.23Z" transform="translate(-7.69 -10)"/><path class="cls-20" d="M40,68.94a1.85,1.85,0,0,1-.84.15.29.29,0,0,0,0,.58,2.47,2.47,0,0,0,1.13-.24C40.58,69.27,40.29,68.78,40,68.94Z" transform="translate(-7.69 -10)"/><path class="cls-20" d="M128.5,73.53c-.11,0-.1,0-.19-.11-.26-.26-.67.15-.41.41a.81.81,0,0,0,.6.28A.29.29,0,0,0,128.5,73.53Z" transform="translate(-7.69 -10)"/><path class="cls-20" d="M85.89,74.38a1.56,1.56,0,0,0-.48.08,1.82,1.82,0,0,1-.3.11c-.37,0-.37.6,0,.58s.5-.19.78-.2S86.26,74.36,85.89,74.38Z" transform="translate(-7.69 -10)"/><path class="cls-20" d="M225.29,81.44a1.83,1.83,0,0,0-1.18.48c-.28.25.13.65.4.4a1.22,1.22,0,0,1,.78-.3C225.66,82,225.66,81.43,225.29,81.44Z" transform="translate(-7.69 -10)"/><path class="cls-20" d="M167.8,74.58a.29.29,0,0,0,0,.57A.29.29,0,0,0,167.8,74.58Z" transform="translate(-7.69 -10)"/><path class="cls-20" d="M36.19,66.55a.29.29,0,0,0,0,.57A.29.29,0,0,0,36.19,66.55Z" transform="translate(-7.69 -10)"/><path class="cls-20" d="M40.1,79.07a.29.29,0,0,0-.07.56.28.28,0,0,0,.55-.07C40.58,79.23,40.43,79.07,40.1,79.07Z" transform="translate(-7.69 -10)"/><path class="cls-20" d="M37.09,75.94H37a.29.29,0,0,0,0,.58c.29,0,.62-.07.67-.41S37.16,75.6,37.09,75.94Z" transform="translate(-7.69 -10)"/><path class="cls-20" d="M59.28,82.79h-.39a.29.29,0,0,0,0,.57h.39A.29.29,0,0,0,59.28,82.79Z" transform="translate(-7.69 -10)"/><path class="cls-20" d="M77.67,73.59a.29.29,0,0,0,0,.58A.29.29,0,0,0,77.67,73.59Z" transform="translate(-7.69 -10)"/><path class="cls-20" d="M82.81,69.13l-1.17.59c-.34.16,0,.66.28.49l1.18-.58C83.43,69.46,83.14,69,82.81,69.13Z" transform="translate(-7.69 -10)"/><path class="cls-20" d="M140.93,93.73a.29.29,0,0,0,0,.57A.29.29,0,0,0,140.93,93.73Z" transform="translate(-7.69 -10)"/><path class="cls-20" d="M127,85.34a1.37,1.37,0,0,0-.78.46c-.26.26.15.67.41.41.09-.09.23-.28.37-.3C127.37,85.87,127.38,85.29,127,85.34Z" transform="translate(-7.69 -10)"/><path class="cls-20" d="M138.34,87.13a1.31,1.31,0,0,0-.78.46c-.26.26.15.67.41.41.09-.09.23-.28.37-.3C138.7,87.66,138.7,87.08,138.34,87.13Z" transform="translate(-7.69 -10)"/><path class="cls-20" d="M219.36,75.42a.29.29,0,0,0,0,.57A.29.29,0,0,0,219.36,75.42Z" transform="translate(-7.69 -10)"/><path class="cls-20" d="M242.45,88.33l-1.17.59c-.33.16,0,.66.29.49l1.17-.58C243.07,88.66,242.78,88.17,242.45,88.33Z" transform="translate(-7.69 -10)"/><path class="cls-20" d="M83.35,84.36a.29.29,0,0,0,0,.57A.29.29,0,0,0,83.35,84.36Z" transform="translate(-7.69 -10)"/><path class="cls-20" d="M86.08,82.29c-.1.09-.24.29-.39.31-.36,0-.36.61,0,.57a1.29,1.29,0,0,0,.79-.48C86.75,82.43,86.34,82,86.08,82.29Z" transform="translate(-7.69 -10)"/><path class="cls-20" d="M65.7,91.2a.29.29,0,0,0,0,.58A.29.29,0,0,0,65.7,91.2Z" transform="translate(-7.69 -10)"/><path class="cls-20" d="M84.7,86.91a.29.29,0,0,0,0,.57A.29.29,0,0,0,84.7,86.91Z" transform="translate(-7.69 -10)"/><path class="cls-20" d="M82.7,81.75a.29.29,0,0,0,0,.57A.29.29,0,0,0,82.7,81.75Z" transform="translate(-7.69 -10)"/><path class="cls-20" d="M73.49,87a1.63,1.63,0,0,0-.48.09,1.54,1.54,0,0,1-.3.11c-.37,0-.37.6,0,.57s.5-.18.78-.19S73.86,87,73.49,87Z" transform="translate(-7.69 -10)"/><path class="cls-20" d="M65.27,86.23a.29.29,0,0,0,0,.57A.29.29,0,0,0,65.27,86.23Z" transform="translate(-7.69 -10)"/><path class="cls-20" d="M70.41,81.77l-1.17.59c-.33.16,0,.65.29.49l1.17-.59C71,82.1,70.74,81.6,70.41,81.77Z" transform="translate(-7.69 -10)"/><path class="cls-20" d="M79,90.14c-.1.09-.25.29-.39.31-.36,0-.37.61,0,.57a1.29,1.29,0,0,0,.79-.48A.28.28,0,0,0,79,90.14Z" transform="translate(-7.69 -10)"/><path class="cls-20" d="M54.58,77.12a.29.29,0,0,0,0,.57A.29.29,0,0,0,54.58,77.12Z" transform="translate(-7.69 -10)"/><path class="cls-20" d="M56.92,79.16l-.39.39c-.26.26.15.66.41.4l.39-.39C57.59,79.3,57.18,78.9,56.92,79.16Z" transform="translate(-7.69 -10)"/><path class="cls-20" d="M29.79,82h-.57a.29.29,0,0,0,0,.58h.57A.29.29,0,0,0,29.79,82Z" transform="translate(-7.69 -10)"/><path class="cls-20" d="M109.61,85.25a1.31,1.31,0,0,0-.77.47.28.28,0,0,0,.4.4c.09-.09.24-.28.37-.29C110,85.78,110,85.21,109.61,85.25Z" transform="translate(-7.69 -10)"/><path class="cls-20" d="M24,84.36h-.4a.29.29,0,0,0,0,.57H24A.29.29,0,0,0,24,84.36Z" transform="translate(-7.69 -10)"/><path class="cls-20" d="M21.6,80.72l-.39.39c-.26.27.14.67.4.41l.4-.39C22.27,80.87,21.86,80.46,21.6,80.72Z" transform="translate(-7.69 -10)"/><path class="cls-20" d="M183.26,78.89c-.11,0-.1,0-.19-.12a.29.29,0,0,0-.4.41.76.76,0,0,0,.59.28A.29.29,0,0,0,183.26,78.89Z" transform="translate(-7.69 -10)"/><path class="cls-20" d="M176.61,76h-.2a.29.29,0,0,0,0,.57h.2A.29.29,0,0,0,176.61,76Z" transform="translate(-7.69 -10)"/><path class="cls-20" d="M216,82.25a1.76,1.76,0,0,0-.4.07c-.08,0-.17.09-.25.09-.36,0-.37.61,0,.58s.42-.15.65-.17S216.38,82.23,216,82.25Z" transform="translate(-7.69 -10)"/><path class="cls-20" d="M172.41,77.23c-.33,0-.36.45-.1.55a.29.29,0,0,0,.55-.11A.39.39,0,0,0,172.41,77.23Z" transform="translate(-7.69 -10)"/><path class="cls-20" d="M165.11,81.32h-.48a.29.29,0,0,0,0,.58h.48A.29.29,0,0,0,165.11,81.32Z" transform="translate(-7.69 -10)"/><path class="cls-20" d="M173.45,81.17c-.13,0-.21.14-.32.16-.37.07-.21.62.15.56.13,0,.21-.15.32-.16C174,81.66,173.81,81.11,173.45,81.17Z" transform="translate(-7.69 -10)"/><path class="cls-20" d="M220.14,86.83a.29.29,0,0,0,0,.57A.29.29,0,0,0,220.14,86.83Z" transform="translate(-7.69 -10)"/><path class="cls-20" d="M189.91,77.82a.29.29,0,0,0,0,.57A.29.29,0,0,0,189.91,77.82Z" transform="translate(-7.69 -10)"/><path class="cls-20" d="M185.69,72.85a.29.29,0,0,0,0,.57A.29.29,0,0,0,185.69,72.85Z" transform="translate(-7.69 -10)"/><path class="cls-20" d="M201.14,77.15c-.11,0-.09,0-.18-.11-.27-.26-.67.14-.41.4a.74.74,0,0,0,.59.28A.29.29,0,0,0,201.14,77.15Z" transform="translate(-7.69 -10)"/><path class="cls-20" d="M194.49,74.22h-.19a.29.29,0,0,0,0,.57h.19A.29.29,0,0,0,194.49,74.22Z" transform="translate(-7.69 -10)"/><path class="cls-20" d="M190.3,75.49a.34.34,0,1,0,.45.45C190.74,75.64,190.6,75.49,190.3,75.49Z" transform="translate(-7.69 -10)"/><path class="cls-20" d="M201.07,90.69c-.11,0-.09,0-.19-.11-.26-.27-.66.14-.4.4a.76.76,0,0,0,.59.28A.29.29,0,0,0,201.07,90.69Z" transform="translate(-7.69 -10)"/><path class="cls-20" d="M218.57,93.06a.29.29,0,0,0,0,.57A.29.29,0,0,0,218.57,93.06Z" transform="translate(-7.69 -10)"/><path class="cls-20" d="M207.08,85a.29.29,0,0,0,0,.57A.29.29,0,0,0,207.08,85Z" transform="translate(-7.69 -10)"/><path class="cls-20" d="M222.54,89.33c-.11,0-.1,0-.19-.11-.26-.26-.67.14-.41.4a.75.75,0,0,0,.6.28A.29.29,0,0,0,222.54,89.33Z" transform="translate(-7.69 -10)"/><path class="cls-20" d="M215.88,86.4h-.19a.29.29,0,0,0,0,.57h.19A.29.29,0,0,0,215.88,86.4Z" transform="translate(-7.69 -10)"/><path class="cls-20" d="M211.69,87.67a.34.34,0,1,0,.45.45A.4.4,0,0,0,211.69,87.67Z" transform="translate(-7.69 -10)"/><path class="cls-20" d="M207.8,76.08a.29.29,0,0,0,0,.57A.29.29,0,0,0,207.8,76.08Z" transform="translate(-7.69 -10)"/><path class="cls-20" d="M219.65,78.63c-.11,0-.09,0-.18-.11a.29.29,0,0,0-.41.41.76.76,0,0,0,.59.28A.29.29,0,0,0,219.65,78.63Z" transform="translate(-7.69 -10)"/><path class="cls-20" d="M213,75.7h-.19a.29.29,0,0,0,0,.57H213A.29.29,0,0,0,213,75.7Z" transform="translate(-7.69 -10)"/><path class="cls-20" d="M120.1,68.7c-.28.11-.26.59.08.54a.48.48,0,0,0,.47-.47C120.67,68.42,120.18,68.4,120.1,68.7Z" transform="translate(-7.69 -10)"/><path class="cls-20" d="M128.18,72.1a1.79,1.79,0,0,0-1.18.47c-.27.25.14.66.41.41a1.17,1.17,0,0,1,.77-.31C128.55,72.66,128.55,72.08,128.18,72.1Z" transform="translate(-7.69 -10)"/><path class="cls-20" d="M123.29,76.6a.29.29,0,0,0,0,.57A.29.29,0,0,0,123.29,76.6Z" transform="translate(-7.69 -10)"/><path class="cls-118" d="M123,78.94s18.89,5,26.31,6.07-12.85,2.26-27.42-2.87A19.86,19.86,0,0,1,123,78.94Z" transform="translate(-7.69 -10)"/><path class="cls-119" d="M112,79.76l1.34,1.58S93.76,84.05,85.93,83C77.6,81.88,112,79.76,112,79.76Z" transform="translate(-7.69 -10)"/><path class="cls-120" d="M120.35,58.7s-16.62,6.58-21.42,9.49,22.81-8.1,22.81-8.1Z" transform="translate(-7.69 -10)"/><path class="cls-121" d="M35.9,61.2s14.21,3.66,19,4.75-.73,1.17-9-.75a89.36,89.36,0,0,1-12.11-3.46Z" transform="translate(-7.69 -10)"/><path class="cls-122" d="M178,59.92s-19.52,4.25-24.76,6.89c-5.94,3,26.32-5.88,26.32-5.88Z" transform="translate(-7.69 -10)"/><path class="cls-123" d="M226.62,72.76s-25.09-2.21-33.37-.09,33.19,1,33.19,1Z" transform="translate(-7.69 -10)"/><path class="cls-124" d="M230.45,77.3s-18.4.43-21.7,2.13,23.08-.85,23.08-.85Z" transform="translate(-7.69 -10)"/><path class="cls-125" d="M70.92,62.71s11.67,2.4,11.79,3.61-14.32-2-14.32-2Z" transform="translate(-7.69 -10)"/><path class="cls-126" d="M147.17,60.06s-8.49-1.46-12.14-.82,13.42,2.1,13.42,2.1Z" transform="translate(-7.69 -10)"/></g></g></g></svg>