<svg id="Layer_1" data-name="Layer 1" xmlns="http://www.w3.org/2000/svg" viewBox="0 0 58.27 34.3"><defs><style>.cls-1{fill:#e5a04d;}.cls-2{fill:#f4d8b6;}.cls-3{fill:#f8ce4f;}.cls-4{fill:#ae6762;}.cls-5{fill:#851714;}.cls-6{fill:#c57e18;}</style></defs><path class="cls-1" d="M3,36.82c2.16.46,5.92-1,5.92-1l4.32-.69c4.33-.68,4.56-1.36,4.56-1.36H20a16.4,16.4,0,0,0,4.78-.91l2.73-.12a31.17,31.17,0,0,0,6.61-1.36h2.5c2.5,0,4.55-1.37,6.49-.91s5.35-.57,6-.57a8.35,8.35,0,0,0,2.28-.8s1.93.91,4.89-.68,1.25-5.58,1.25-5.58c4-3.95-5.12-13.43-9.52-15.55s-10.4-5-14.57-4.63A5,5,0,0,0,28.76,6.2,6.41,6.41,0,0,1,32,6.89c2.2,1.21,2.13,1.82,2.13,1.82s4.4-.61,6.15,1.29L42,11.9a16.48,16.48,0,0,1,10.7,9.25s3.49,3.27,1.44,4.4-4.78,2-6.37,1.06-.53,3.8-3.27,2.28-3.18.84-6.9-.23-.84,3.19-3.11,2a7.85,7.85,0,0,0-8.27.6c-2.62,2-3,.84-4.1-.3s-1.14,1-3,1.37-2.73.07-4.33.83-1.36,2.28-3.11.91-3.41-.34-4.47.55-4.78,2.79-6-1.91C-.79,34.74.81,36.37,3,36.82Z" transform="translate(-0.31 -2.61)"/><path class="cls-2" d="M36.09,7.57S30.7,6.2,30.7,5.6s-.13-3.54,8.2-1.14,11.91,4.93,15.33,9.41S56.5,20.7,56.5,20.7s-1.21-2.81-1.82-2.28.91,4.25-1.9.3S41.48,8.71,36.09,7.57Z" transform="translate(-0.31 -2.61)"/><path class="cls-3" d="M1.26,32.69c1.22,4.7,4.93,2.8,6,1.91s2.73-1.91,4.47-.55,1.52-.15,3.11-.91,2.51-.45,4.33-.83,1.9-2.51,3-1.37,1.48,2.27,4.1.3a7.85,7.85,0,0,1,8.27-.6c2.27,1.21-.61-3,3.11-2s4.17-1.29,6.9.23,1.67-3.19,3.27-2.28,4.32.08,6.37-1.06-1.44-4.4-1.44-4.4A16.48,16.48,0,0,0,42,11.9L40.27,10c-1.75-1.9-6.15-1.29-6.15-1.29S34.19,8.1,32,6.89a6.41,6.41,0,0,0-3.23-.69l0,.15-1.59.08c-1.6.08-4.78,2.66-5.39,4.86A7.32,7.32,0,0,1,19.7,14.7s-4.86-.3-5.77,3.8a10.27,10.27,0,0,1-5.31,6.68C7.26,26,5.36,26.39,4.9,28S3.31,30.64,1.26,32.69Z" transform="translate(-0.31 -2.61)"/><path class="cls-4" d="M47,22.44s-2.28,3.19-3.72,2.81-4.25-1.37-5.08-.53-4.25.15-4.33-2.66,1.43-5.89,5.24-7.89,6.6,1.14,7.89,3S47.4,22,47,22.44Z" transform="translate(-0.31 -2.61)"/><path class="cls-5" d="M41.63,14s4,1.29,4.25,3.87-1.52,2.81-1.52,2.81.68,3.49-.07,3.64-2.58-2-4.25-1.21a3.86,3.86,0,0,1-4.78-.92C34,20.7,36.31,14.84,41.63,14Z" transform="translate(-0.31 -2.61)"/><path class="cls-4" d="M29.45,7S27.59,6,24.78,8.33s-4.05,5.77-2,6.75,4-.07,4.87,1.22,5.23.76,5.61-1.6a6.6,6.6,0,0,0-1.13-5.25A10,10,0,0,0,29.45,7Z" transform="translate(-0.31 -2.61)"/><path class="cls-5" d="M31.08,14.78c-1.75,1.57-4.25-1.89-4.93-1.25s-2.35,1-3-.13S24.76,7.19,28,7.49,34.73,11.52,31.08,14.78Z" transform="translate(-0.31 -2.61)"/><path class="cls-4" d="M20.54,15.54a3.78,3.78,0,0,0-3.34,0c-1.6.91-3.95,3.56-3.34,6.37s3.79,3.2,5.46,2.44,6.07,0,6.07-3.65S21.05,15.74,20.54,15.54Z" transform="translate(-0.31 -2.61)"/><path class="cls-5" d="M21.77,17s3.17,2.65,1.65,4.55-4-.3-5,.53S14.77,23.68,15.68,21,15.72,13.8,21.77,17Z" transform="translate(-0.31 -2.61)"/><path class="cls-4" d="M33.41,28.36s-1.72-2.28-3.62-2.73-5.66-.3-6.7,1.37-1.34,3.26.33,3.79,5.54-3.26,8-2.35,2.5.07,2.5.07Z" transform="translate(-0.31 -2.61)"/><path class="cls-5" d="M28.58,27.22a4.31,4.31,0,0,0-3.57.9c-1.52,1.38-3.79-.31-.76-1.5s4.48-1,6.45.3S28.58,27.22,28.58,27.22Z" transform="translate(-0.31 -2.61)"/><path class="cls-4" d="M17.73,31.55s.38-2.45-.68-3.43-5.77-4.14-9-.89-3.41,7,1.44,5.53S15.38,30.49,17.73,31.55Z" transform="translate(-0.31 -2.61)"/><path class="cls-5" d="M14.31,27.23a9.55,9.55,0,0,0-1.89,3.61c-.38,1.85-3.95,1.09-3.95-.35S9.61,25.19,14.31,27.23Z" transform="translate(-0.31 -2.61)"/><path class="cls-6" d="M36.78,11.34s-.51-.21,0,.77,2.26,1.35,2.16-.22S36.78,10.56,36.78,11.34Z" transform="translate(-0.31 -2.61)"/><path class="cls-6" d="M27,21s-.26-.36,0,1.42,1.14,2.45,1.09-.41S27,19.6,27,21Z" transform="translate(-0.31 -2.61)"/></svg>